<svg width="148" height="140" viewBox="0 0 148 140" fill="none" xmlns="http://www.w3.org/2000/svg">
<path d="M99.4737 117.895V132.632H86.4316C83.9263 137.053 79.1368 140 73.6842 140C68.2316 140 63.4421 137.053 60.9368 132.632H47.8947V117.895H60.9368C62.1895 115.684 64.1053 113.768 66.3158 112.516V103.158H58.9474C54.8947 103.158 51.5789 99.8421 51.5789 95.7895V73.6842H29.4737V103.158C29.4737 107.211 26.1579 110.526 22.1053 110.526H7.36842C3.31579 110.526 0 107.211 0 103.158V36.8421C0 32.7895 3.31579 29.4737 7.36842 29.4737H22.1053C26.1579 29.4737 29.4737 32.7895 29.4737 36.8421V58.9474H51.5789V36.8421C51.5789 32.7895 54.8947 29.4737 58.9474 29.4737H66.3158V22.1053H58.9474C54.8947 22.1053 51.5789 18.7895 51.5789 14.7368V7.36842C51.5789 3.31579 54.8947 0 58.9474 0H88.4211C92.4737 0 95.7895 3.31579 95.7895 7.36842V14.7368C95.7895 18.7895 92.4737 22.1053 88.4211 22.1053H81.0526V29.4737H88.4211C92.4737 29.4737 95.7895 32.7895 95.7895 36.8421V58.9474H117.895V36.8421C117.895 32.7895 121.211 29.4737 125.263 29.4737H140C144.053 29.4737 147.368 32.7895 147.368 36.8421V103.158C147.368 107.211 144.053 110.526 140 110.526H125.263C121.211 110.526 117.895 107.211 117.895 103.158V73.6842H95.7895V95.7895C95.7895 99.8421 92.4737 103.158 88.4211 103.158H81.0526V112.516C83.2632 113.768 85.1789 115.684 86.4316 117.895H99.4737ZM7.36842 95.7895V103.158H22.1053V95.7895H7.36842ZM7.36842 81.0526V88.4211H22.1053V81.0526H7.36842ZM7.36842 66.3158V73.6842H22.1053V66.3158H7.36842ZM7.36842 51.5789V58.9474H22.1053V51.5789H7.36842ZM7.36842 36.8421V44.2105H22.1053V36.8421H7.36842ZM125.263 95.7895V103.158H140V95.7895H125.263ZM125.263 81.0526V88.4211H140V81.0526H125.263ZM125.263 66.3158V73.6842H140V66.3158H125.263ZM125.263 51.5789V58.9474H140V51.5789H125.263ZM125.263 36.8421V44.2105H140V36.8421H125.263Z" fill="white"/>
</svg>
