<svg width="133" height="129" viewBox="0 0 133 129" fill="none" xmlns="http://www.w3.org/2000/svg">
<path fill-rule="evenodd" clip-rule="evenodd" d="M51.0764 52.0461L53.1858 51.1588C53.1858 51.1588 53.2048 51.6405 53.6393 51.7842C57.1232 54.488 60.7015 56.8664 64.3418 59.4568C67.9821 62.0472 71.6076 64.263 75.3465 66.6351C75.8409 66.9372 79.1945 69.0565 80.8298 69.7425C81.5263 70.1258 82.3279 70.2743 83.1155 70.166C83.9031 70.0577 84.6348 69.6983 85.2019 69.1412C86.6039 67.132 87.6067 64.8721 88.1559 62.4845C88.8066 59.2934 89.1631 56.0494 89.221 52.7931C89.367 48.3379 89.5129 43.8827 89.7637 39.3698C89.9709 36.4668 90.178 33.5638 90.4387 30.6587L93.1439 28.5685C93.1347 28.8412 93.2058 29.1106 93.3484 29.3432C93.491 29.5759 93.6988 29.7615 93.946 29.8771C97.4803 31.7423 101.126 33.3888 104.862 34.8073C108.561 36.298 112.334 37.5985 116.166 38.7037C116.541 38.6889 121.314 40.1088 123.207 40.5167C123.927 40.6865 124.68 40.6514 125.381 40.4153C126.083 40.1792 126.704 39.7516 127.174 39.1808C127.869 37.8265 128.215 36.3205 128.181 34.7989C128.003 32.2607 127.49 29.7573 126.654 27.354C125.862 25.1809 124.955 23.0515 123.937 20.9746C121.929 16.2827 119.607 11.7641 117.757 7.01232C117.656 6.69849 117.466 6.4206 117.211 6.21198C116.955 6.00335 116.645 5.87286 116.317 5.83614L118.153 3.45859C118.481 3.11866 118.66 2.66242 118.652 2.19025C118.643 1.71807 118.447 1.26865 118.108 0.940829C117.768 0.613013 117.311 0.433662 116.839 0.442232C116.367 0.450802 115.918 0.64659 115.59 0.986526C112.034 4.61128 108.857 8.32831 105.294 11.7925C103.851 13.2432 102.351 14.6426 100.743 15.9926C91.0462 23.9978 80.5413 30.9699 69.3985 36.7957C62.7509 40.4337 55.9205 43.7271 48.9342 46.6626C44.2402 48.6168 39.5399 50.4104 34.829 51.9364C31.7583 52.9152 28.7349 53.7314 25.6516 54.3891C18.318 56.0185 10.8541 57.0634 3.46485 58.6414C3.05633 58.736 2.69873 58.9816 2.46383 59.329C2.22894 59.6763 2.13416 60.0997 2.19851 60.514C2.31432 60.884 2.56429 61.1974 2.89931 61.3924C3.23434 61.5875 3.63021 61.6503 4.00915 61.5684L9.98278 60.7967C12.8856 65.078 15.6772 69.2566 19.1583 73.2471C21.4133 76.0529 23.7732 78.8011 26.2916 81.4893C26.2916 81.4893 29.6466 85.0024 31.0291 86.0736C31.5354 86.5044 32.15 86.7883 32.8062 86.8947C33.4624 87.0011 34.1353 86.9259 34.7518 86.6773C36.443 85.7922 37.8561 84.4562 38.8346 82.8173C39.9865 80.9028 40.9307 78.8707 41.6511 76.7557C42.5372 74.3035 43.2266 71.7846 43.7128 69.223C44.6383 64.1473 44.7758 59.478 45.6204 53.7087C47.4276 53.3157 49.2798 52.7066 51.0764 52.0461ZM103.781 19.6253C105.437 18.1126 106.927 16.4992 108.421 14.9393C109.914 13.3794 112.42 10.3321 114.368 8.05735C115.795 12.9866 117.698 17.7362 119.232 22.6612C119.913 24.6374 120.459 26.6577 120.865 28.7081C120.909 29.8321 121.512 31.5238 121.74 33.2303L121.776 34.1402L117.068 33.0393C113.32 32.4688 109.603 31.7028 105.935 30.7444C102.252 29.764 98.6267 28.5827 95.0736 27.2058C97.9739 24.6254 100.985 22.1479 103.781 19.6253ZM72.2428 42.3123C77.0679 39.6025 81.7197 36.5778 86.2109 33.5594L83.5777 52.426C83.34 55.3383 82.8622 58.2259 82.1492 61.0596C81.9517 61.873 81.6966 62.6713 81.3857 63.4484L78.2053 61.644C73.5029 59.3099 68.9077 56.9716 64.3596 54.4706C61.6757 53.0218 58.8805 51.4702 56.4043 49.8524C61.815 47.606 67.1014 45.0711 72.2407 42.2588L72.2428 42.3123ZM39.4027 65.962C38.7192 68.9991 37.7031 71.9516 36.3727 74.766C35.7131 76.5036 34.8809 78.1707 33.8886 79.7423C33.6111 80.1354 33.3031 80.5061 32.9674 80.8508C32.0249 79.784 31.1564 78.6541 30.368 77.4688C27.0876 74.4889 24.0749 71.4985 20.8931 68.3003C17.7113 65.1021 16.1324 63.1273 13.8281 60.4306C18.0418 59.8892 22.3111 59.3991 26.5184 58.6971C29.7686 58.1937 32.959 57.5317 36.1965 56.7071C38.0016 56.2607 39.7489 55.7093 41.4962 55.1579C40.6847 59.0497 40.1776 62.5006 39.4027 65.962Z" fill="white" fill-opacity="0.12"/>
<path fill-rule="evenodd" clip-rule="evenodd" d="M130.587 95.8171C120.742 95.2828 110.963 93.8745 101.366 91.6089C97.3053 90.5897 93.2917 89.4078 89.3767 88.0076C85.4405 86.5766 81.5824 84.9394 77.8184 83.1027C68.9525 78.9348 60.7525 73.4774 53.485 66.9079C53.3388 66.7627 53.1643 66.6492 52.9723 66.5744C52.7802 66.4996 52.5748 66.4652 52.3689 66.4734C52.163 66.4815 51.961 66.5319 51.7755 66.6216C51.5899 66.7113 51.4248 66.8382 51.2905 66.9945C51.0111 67.297 50.8633 67.6981 50.8795 68.1097C50.8957 68.5212 51.0747 68.9094 51.3771 69.189C52.6095 70.5342 53.8891 71.7167 55.173 73.0062C54.8743 74.9479 54.6827 76.8853 54.4911 78.8228C54.2994 80.7602 54.2853 83.1195 54.2648 85.3182L54.7778 98.3247C54.7593 99.6289 54.8107 100.933 54.9319 102.232C55.0101 102.771 55.2219 103.283 55.5481 103.719C55.8743 104.156 56.3045 104.504 56.7995 104.731C58.3321 105.296 60.0264 105.23 61.5097 104.546C63.4813 103.62 65.3584 102.504 67.1144 101.215C70.7168 98.7682 74.022 95.5822 77.5237 93.2998C78.6769 92.4916 79.884 91.7634 81.1367 91.1202C83.153 91.952 85.1693 92.7838 87.1792 93.455L88.1553 93.7382C89.1278 96.6482 90.0447 99.5069 91.0686 102.361C92.0925 105.216 93.42 108.97 94.7284 112.242C95.6297 114.601 96.6693 116.905 97.8417 119.141C98.7922 120.895 100.053 122.462 101.562 123.766C102.211 124.28 103.001 124.584 103.826 124.637C104.652 124.691 105.475 124.492 106.184 124.066C108.303 122.772 110.21 121.16 111.839 119.286C113.982 116.956 115.979 114.496 117.821 111.92C120.516 108.222 122.88 104.269 125.346 100.205C125.443 99.8708 125.429 99.514 125.306 99.1883L130.07 99.0004C130.3 99.0133 130.53 98.9797 130.747 98.9015C130.964 98.8234 131.163 98.7023 131.332 98.5454C131.501 98.3886 131.636 98.1994 131.731 97.9889C131.825 97.7785 131.875 97.5512 131.88 97.3208C131.833 96.9721 131.685 96.6445 131.456 96.3777C131.227 96.1108 130.925 95.9161 130.587 95.8171ZM75.5688 89.946C71.7375 92.027 68.1414 94.6348 64.3615 96.6601C63.6784 97.0087 61.8085 98.5299 60.4443 99.2806L60.3915 97.9425L58.7094 85.1965C58.625 83.0556 58.2236 81.0343 58.0899 79.0025L57.978 76.1657C63.1155 80.879 68.8019 84.9565 74.9145 88.3099L76.7745 89.2551C76.6224 89.4756 76.0399 89.6593 75.5688 89.946ZM114.279 109.112C112.354 111.342 110.288 113.447 108.095 115.413C107.199 116.656 106.185 117.809 105.068 118.856C104.362 118.069 103.736 117.214 103.198 116.303C101.936 114.209 100.879 111.892 99.9513 110.106C98.0372 106.429 96.1231 102.752 94.1534 99.0232C93.514 97.7618 92.9816 96.4962 92.3936 95.1792C94.8874 95.885 97.379 96.5372 99.9179 97.0268C107.128 98.3774 114.437 99.1291 121.771 99.2741C119.44 102.69 116.998 106.003 114.279 109.112Z" fill="white" fill-opacity="0.12"/>
</svg>
