<svg width="1600" height="3492" viewBox="0 0 1600 3492" fill="none" xmlns="http://www.w3.org/2000/svg">
<path d="M378.5 277.85C247.876 -2.10938 120.667 -8.81622 0 3.35045V907.738C198.5 907.738 278.5 1004.24 436 957.738C627.5 901.2 767 704.238 694.5 624.238C624.576 547.081 454.5 440.738 378.5 277.85Z" fill="#FFF9E9"/>
<path d="M403.5 1638.81C289.5 1423.81 120.667 1607.49 0 1619.66V2524.05C198.5 2524.05 278.5 2620.55 436 2574.05C627.5 2517.51 542 2160.31 386 2048.81C230 1937.31 465.436 1755.62 403.5 1638.81Z" fill="#FFF9E9"/>
<path d="M1251 1018C1344.65 869.015 1438.51 755 1599.6 755V1665.5C1251.51 1469.5 1222.83 1644 1054.92 1543.5C937.646 1473.31 914.998 1336.5 962 1253C1043.78 1107.71 1174 1140.5 1251 1018Z" fill="#FFF9E9"/>
<path d="M1251 2844C1344.65 2695.01 1438.51 2581 1599.6 2581V3491.5C1251.51 3295.5 1222.83 3470 1054.92 3369.5C937.646 3299.31 914.998 3162.5 962 3079C1043.78 2933.71 1174 2966.5 1251 2844Z" fill="#FFF9E9"/>
</svg>
