<svg width="124" height="124" viewBox="0 0 124 124" fill="none" xmlns="http://www.w3.org/2000/svg">
<g clip-path="url(#clip0_162_287)">
<path fill-rule="evenodd" clip-rule="evenodd" d="M78.7922 52.0459C78.5478 48.8789 77.7245 45.7835 76.3631 42.9136C74.1211 39.0112 71.7346 37.1359 70.0692 36.9143C66.7252 36.5615 65.5343 38.936 64.9237 41.8922C59.8646 29.3736 48.257 28.7522 48.1629 42.078C37.8075 31.2314 28.4659 46.2501 44.439 66.8914C40.6312 65.7891 36.3706 65.2673 34.249 68.467C32.1273 71.6667 35.6822 78.8764 38.5833 82.3018C43.1862 87.8729 48.6705 90.7851 53.8382 98.9652C60.0628 108.774 59.4909 111.846 61.6871 110.945C62.0002 110.778 62.2399 110.5 62.3596 110.166C62.4794 109.832 62.4706 109.466 62.335 109.138C60.9843 105.069 59.2979 100.896 57.353 96.981C52.175 86.567 48.3024 85.6583 42.7326 78.8593C40.6659 76.6838 39.1543 74.042 38.326 71.1579C38.1356 68.5106 46.0614 70.6123 49.3519 72.3596C50.992 74.0956 52.7181 75.7484 54.5237 77.3116C54.6531 77.4424 54.8078 77.5453 54.9784 77.6141C55.149 77.6828 55.3319 77.7159 55.5158 77.7113C55.6996 77.7067 55.8806 77.6645 56.0476 77.5872C56.2145 77.51 56.3639 77.3995 56.4865 77.2624C58.2321 75.3922 54.4877 75.1293 47.4771 63.9899C43.9417 58.7007 41.7995 52.6041 41.2494 46.266C41.222 45.5382 41.2836 44.8097 41.4329 44.0969C41.4329 44.0969 41.2657 43.5931 41.6144 43.4773C42.5058 43.1814 44.9179 45.2633 45.5756 45.9485C49.3299 49.8957 52.319 54.5055 54.3909 59.5436C54.5771 59.9154 54.9033 60.198 55.2979 60.3293C55.6924 60.4605 56.123 60.4297 56.4948 60.2435C56.8666 60.0573 57.1492 59.7311 57.2805 59.3365C57.4117 58.9419 57.3809 58.5114 57.1947 58.1396C55.8084 53.8355 53.8412 49.7407 51.3475 45.9686C51.0005 43.021 51.7038 40.0454 53.3336 37.565C55.2993 35.1915 60.0161 42.5317 61.4188 46.3685C64.7776 55.5794 63.8038 59.9039 66.5032 59.3521C66.913 59.2646 67.2718 59.0192 67.5018 58.669C67.7319 58.3188 67.8147 57.8921 67.7322 57.4813C67.4381 55.1695 67.17 52.6771 66.8504 50.1587C67.29 49.6686 67.1216 50.0686 68.0712 44.5045C68.8114 41.161 69.0325 39.8829 71.6988 45.1934C72.9854 47.7032 73.8791 50.3957 74.3488 53.1767C76.1978 61.598 75.0331 63.6626 77.3445 63.6267C77.7609 63.6093 78.1538 63.4294 78.4391 63.1256C78.7243 62.8218 78.8791 62.4183 78.8702 62.0016C78.9368 60.3876 79.0035 58.6445 78.9927 56.9271C79.562 56.0498 81.8518 52.5791 82.7292 53.1484C83.6065 53.7176 84.1554 58.8704 84.2181 60.3555C84.5132 72.2613 80.4709 72.7857 81.8797 82.0845C82.8788 88.5937 86.111 95.7385 86.7778 99.4323C86.8517 99.8456 87.0819 100.215 87.4206 100.463C87.7593 100.711 88.1805 100.819 88.5968 100.765C91.7094 100.291 88.4359 95.2248 86.9002 84.1181C85.5693 74.4061 89.0677 75.224 89.3778 64.6231C89.4873 59.6389 88.3369 50.2113 83.5988 49.5468C82.6419 49.4552 81.679 49.6424 80.8261 50.0859C79.9732 50.5293 79.2669 51.21 78.7922 52.0459Z" fill="#F9C228"/>
<path fill-rule="evenodd" clip-rule="evenodd" d="M25.3441 43.4573C25.5354 41.4555 25.9804 39.4861 26.6685 37.5966C26.7823 37.4119 26.8587 37.2066 26.8932 36.9924C26.9277 36.7782 26.9196 36.5593 26.8695 36.3482C26.8195 36.1371 26.7283 35.9379 26.6012 35.7621C26.4741 35.5862 26.3137 35.4371 26.129 35.3233C25.9443 35.2094 25.739 35.1331 25.5248 35.0986C25.3106 35.0641 25.0917 35.0721 24.8806 35.1222C24.6695 35.1723 24.4703 35.2635 24.2945 35.3906C24.1186 35.5176 23.9695 35.6781 23.8557 35.8628C21.6994 37.9952 20.2492 40.7377 19.7005 43.7203C19.1519 46.7028 19.5313 49.7819 20.7876 52.5421C20.8069 52.7298 20.8643 52.9117 20.9564 53.0765C21.0484 53.2413 21.173 53.3856 21.3227 53.5006C21.4724 53.6156 21.6439 53.6989 21.8269 53.7453C22.0098 53.7918 22.2003 53.8005 22.3867 53.7708C22.5731 53.7412 22.7515 53.6738 22.911 53.5729C23.0705 53.4719 23.2077 53.3395 23.3143 53.1837C23.4209 53.028 23.4946 52.8521 23.531 52.6669C23.5673 52.4816 23.5654 52.291 23.5256 52.1065C23.9628 49.1904 24.57 46.3025 25.3441 43.4573Z" fill="#F9C228"/>
<path fill-rule="evenodd" clip-rule="evenodd" d="M19.6924 30.0597C19.8766 29.7101 19.9243 29.3044 19.8261 28.9216C19.7278 28.5388 19.4908 28.2062 19.161 27.9884C18.8312 27.7706 18.4322 27.6833 18.0416 27.7433C17.651 27.8033 17.2966 28.0065 17.0475 28.3132C9.01607 38.4655 8.19325 45.9667 9.00468 58.0023C8.99052 58.3721 9.12386 58.7324 9.37537 59.004C9.62688 59.2755 9.97595 59.436 10.3458 59.4502C10.7156 59.4643 11.076 59.331 11.3475 59.0795C11.619 58.828 11.7795 58.4789 11.7937 58.1091C13.2194 48.4606 15.8739 39.0343 19.6924 30.0597Z" fill="#F9C228"/>
<path fill-rule="evenodd" clip-rule="evenodd" d="M104.754 66.8762C104.71 66.5325 104.54 66.2177 104.276 65.9935C104.011 65.7693 103.673 65.6519 103.327 65.6645C102.981 65.677 102.652 65.8185 102.405 66.0611C102.157 66.3038 102.01 66.6301 101.991 66.976C101.344 68.9848 100.891 71.0512 100.64 73.1466C100.535 75.0317 100.88 77.3693 100.981 79.358C100.912 79.7689 101.009 80.1903 101.251 80.5297C101.493 80.869 101.859 81.0984 102.27 81.1674C102.681 81.2364 103.102 81.1393 103.442 80.8976C103.781 80.6559 104.011 80.2892 104.08 79.8784C105.21 77.9183 105.861 75.7182 105.978 73.4583C106.096 71.1984 105.676 68.9428 104.754 66.8762Z" fill="#F9C228"/>
<path fill-rule="evenodd" clip-rule="evenodd" d="M112.151 57.6658C112.035 57.3163 111.785 57.0273 111.456 56.8622C111.126 56.6971 110.745 56.6695 110.396 56.7855C110.046 56.9015 109.757 57.1516 109.592 57.4808C109.427 57.8099 109.4 58.1911 109.516 58.5406C110.314 66.6049 110.403 74.7238 109.782 82.8038C109.714 83.1864 109.787 83.5811 109.989 83.9132C110.191 84.2454 110.508 84.4921 110.88 84.6069C111.251 84.7217 111.652 84.6967 112.006 84.5365C112.36 84.3763 112.644 84.092 112.803 83.7372C114.665 79.6232 115.574 75.1415 115.461 70.6269C115.348 66.1123 114.217 61.6816 112.151 57.6658Z" fill="#F9C228"/>
</g>
<defs>
<clipPath id="clip0_162_287">
<rect width="98" height="98" fill="white" transform="translate(0 30.8746) rotate(-18.3637)"/>
</clipPath>
</defs>
</svg>
