<svg width="79" height="42" viewBox="0 0 79 42" fill="none" xmlns="http://www.w3.org/2000/svg">
<g clip-path="url(#clip0_318_11)">
<path d="M16.3924 32.5639H12.0041V24.9397H5.50346V32.5639H1.09082V14.3043H5.50346V21.5519H12.0041V14.3043H16.3924V32.5639Z" fill="#161616"/>
<path d="M49.0068 14.3043V26.2552C49.0068 27.6101 48.7174 28.7827 48.1386 29.7731C47.5609 30.7647 46.7309 31.5197 45.6486 32.038C44.5675 32.5564 43.2892 32.8155 41.8137 32.8155C39.5842 32.8155 37.8279 32.2388 36.545 31.0852C35.2632 29.9305 34.6095 28.35 34.584 26.3437V14.3043H39.0227V26.4322C39.0726 28.4304 40.0029 29.4295 41.8137 29.4295C42.7278 29.4295 43.4197 29.1784 43.8895 28.6763C44.3581 28.1753 44.5925 27.3602 44.5925 26.2309V14.3043H49.0068Z" fill="#161616"/>
<path d="M60.0441 27.7113C60.0441 27.0669 59.8162 26.5653 59.3603 26.2066C58.9032 25.8468 58.1005 25.4742 56.9521 25.0889C55.8037 24.7048 54.8647 24.3328 54.1351 23.973C51.7629 22.8113 50.5768 21.2146 50.5768 19.1829C50.5768 18.1705 50.872 17.2778 51.4624 16.505C52.054 15.7309 52.8904 15.1287 53.9715 14.6983C55.0526 14.2678 56.2683 14.0526 57.6185 14.0526C58.934 14.0526 60.1137 14.2869 61.1577 14.7555C62.2017 15.223 63.0125 15.8894 63.5902 16.7549C64.1691 17.6203 64.4585 18.609 64.4585 19.7209H60.058C60.058 18.9769 59.8295 18.4002 59.3725 17.9906C58.9154 17.581 58.2971 17.3762 57.5176 17.3762C56.7288 17.3762 56.1065 17.5497 55.6506 17.8969C55.1936 18.244 54.965 18.6848 54.965 19.2193C54.965 19.6879 55.2162 20.1126 55.7185 20.4932C56.2219 20.8739 57.1064 21.2667 58.372 21.6716C59.6375 22.0778 60.6769 22.5145 61.49 22.982C63.469 24.1193 64.4585 25.6871 64.4585 27.6853C64.4585 29.2831 63.8547 30.5374 62.6471 31.4479C61.4407 32.3597 59.7854 32.8155 57.6812 32.8155C56.1975 32.8155 54.8543 32.55 53.6513 32.0189C52.4484 31.4878 51.543 30.7607 50.9352 29.8374C50.3274 28.9129 50.0234 27.8484 50.0234 26.644H54.45C54.45 27.6228 54.7035 28.3442 55.2104 28.8082C55.7173 29.2721 56.5409 29.5041 57.6812 29.5041C58.4108 29.5041 58.9868 29.3473 59.409 29.0338C59.8324 28.7202 60.0441 28.2794 60.0441 27.7113Z" fill="#161616"/>
<path d="M76.917 24.813H69.9761V29.1778H78.175V32.5639H65.5635V14.3043H78.2011V17.7025H69.9761V21.5519H76.917V24.813Z" fill="#161616"/>
<path fill-rule="evenodd" clip-rule="evenodd" d="M0.8125 38.7684C0.8125 38.2374 0.930821 37.8168 1.16746 37.5067C1.40294 37.1954 1.72484 37.0398 2.13316 37.0398C2.59252 37.0398 2.94168 37.2145 3.18064 37.564L3.19978 37.104H3.55126V41.8004H3.17368V40.0753C2.9266 40.3969 2.57802 40.5578 2.12794 40.5578C1.7289 40.5578 1.4099 40.401 1.17094 40.0874C0.93198 39.7739 0.8125 39.351 0.8125 38.8188V38.7684ZM1.19356 38.8344C1.19356 39.2729 1.2823 39.6171 1.45978 39.867C1.6361 40.1169 1.88144 40.2419 2.1958 40.2419C2.64704 40.2419 2.973 40.0464 3.17368 39.6553V37.9944C3.07972 37.7907 2.94922 37.634 2.78218 37.5241C2.6163 37.4153 2.42316 37.3609 2.20276 37.3609C1.88608 37.3609 1.639 37.4853 1.46152 37.734C1.28288 37.984 1.19356 38.3507 1.19356 38.8344Z" fill="#161616"/>
<path d="M11.0488 40.0666C10.8226 40.394 10.4612 40.5578 9.96474 40.5578C9.60166 40.5578 9.32616 40.4531 9.13824 40.2436C8.94916 40.0331 8.8523 39.7218 8.84766 39.3099V37.104H9.22176V39.2631C9.22176 39.9087 9.48392 40.2321 10.0082 40.2332C10.5534 40.2332 10.898 40.0082 11.0418 39.5581V37.104H11.4194V40.4953H11.0557L11.0488 40.0666Z" fill="#161616"/>
<path fill-rule="evenodd" clip-rule="evenodd" d="M18.0213 40.5578C17.7325 40.5578 17.4715 40.4872 17.2383 40.346C17.004 40.2037 16.8219 40.0053 16.6919 39.7507C16.562 39.4974 16.4971 39.2127 16.4971 38.8969V38.7615C16.4971 38.4352 16.5603 38.1419 16.6867 37.8816C16.8143 37.6201 16.9912 37.4147 17.2174 37.2655C17.4436 37.115 17.689 37.0398 17.9534 37.0398C18.3664 37.0398 18.6935 37.1804 18.9348 37.4616C19.1772 37.7427 19.2985 38.1269 19.2985 38.614V38.824H16.8712V38.8969C16.8712 39.281 16.9819 39.6015 17.2035 39.8583C17.4239 40.114 17.7017 40.2419 18.037 40.2419C18.2388 40.2419 18.4169 40.2055 18.5711 40.1326C18.7243 40.0585 18.864 39.9411 18.9905 39.7803L19.2254 39.959C18.9493 40.3582 18.5479 40.5578 18.0213 40.5578ZM17.9534 37.3609C17.6704 37.3609 17.432 37.4645 17.2383 37.6716C17.0446 37.8775 16.9263 38.1552 16.8834 38.5046H18.9244V38.4647C18.9139 38.1384 18.8205 37.8729 18.6442 37.6681C18.4679 37.4633 18.2376 37.3609 17.9534 37.3609Z" fill="#161616"/>
<path d="M26.3748 39.6327C26.3748 39.4476 26.3 39.2983 26.1504 39.185C26.0007 39.0727 25.7745 38.9842 25.4718 38.9194C25.1702 38.8558 24.9364 38.7829 24.7706 38.7007C24.6035 38.6186 24.4794 38.5179 24.3982 38.3988C24.3182 38.2796 24.2781 38.135 24.2781 37.9649C24.2781 37.6976 24.3901 37.4766 24.614 37.3019C24.8378 37.1272 25.1249 37.0398 25.4753 37.0398C25.8546 37.0398 26.1591 37.1335 26.3888 37.321C26.6184 37.5084 26.7333 37.7526 26.7333 38.0534H26.3557C26.3557 37.8544 26.2722 37.6895 26.1051 37.5588C25.9393 37.4269 25.7293 37.3609 25.4753 37.3609C25.2282 37.3609 25.0298 37.4153 24.8802 37.5241C24.7305 37.634 24.6557 37.7769 24.6557 37.9527C24.6557 38.1228 24.7178 38.2541 24.8419 38.3467C24.9672 38.4393 25.1945 38.5243 25.524 38.6018C25.8546 38.6793 26.1022 38.7621 26.267 38.85C26.4305 38.9379 26.5523 39.0432 26.6324 39.1659C26.7124 39.2897 26.7524 39.4395 26.7524 39.6154C26.7524 39.9012 26.6364 40.1297 26.4044 40.3009C26.1724 40.4722 25.8702 40.5578 25.4979 40.5578C25.1012 40.5578 24.7798 40.4623 24.5339 40.2714C24.288 40.0805 24.165 39.8387 24.165 39.5459H24.5426C24.5565 39.7658 24.6488 39.9364 24.8193 40.0579C24.991 40.1806 25.2172 40.2419 25.4979 40.2419C25.76 40.2419 25.9717 40.1846 26.133 40.0701C26.2942 39.9544 26.3748 39.8086 26.3748 39.6327Z" fill="#161616"/>
<path d="M32.4895 36.2346V37.104H33.1942V37.4112H32.4895V39.6744C32.4895 39.8618 32.5238 40.0018 32.5922 40.0944C32.6595 40.1869 32.7732 40.2332 32.9332 40.2332C32.9959 40.2332 33.0974 40.2222 33.2377 40.2002L33.2534 40.5057C33.1548 40.5404 33.0208 40.5578 32.8515 40.5578C32.5939 40.5578 32.406 40.4831 32.2877 40.3339C32.1705 40.1846 32.112 39.9648 32.112 39.6744V37.4112H31.4873V37.104H32.112V36.2346H32.4895Z" fill="#161616"/>
<path fill-rule="evenodd" clip-rule="evenodd" d="M39.0598 38.0065C38.8777 37.7867 38.7454 37.5906 38.6631 37.4182C38.5796 37.2458 38.5378 37.0751 38.5378 36.9062C38.5378 36.5857 38.6335 36.3323 38.8249 36.146C39.0151 35.9609 39.2704 35.8683 39.5905 35.8683C39.8828 35.8683 40.1189 35.9522 40.2987 36.12C40.4785 36.2889 40.5684 36.503 40.5684 36.7621C40.5684 37.063 40.3944 37.3586 40.0464 37.649L39.5435 38.0378L40.8015 39.4991C40.9918 39.1913 41.0869 38.8431 41.0869 38.4543H41.4366C41.4366 38.9726 41.3027 39.4106 41.0347 39.7681L41.6594 40.4953H41.207L40.8103 40.0388C40.6455 40.2008 40.4547 40.3281 40.2378 40.4207C40.0209 40.5121 39.7918 40.5578 39.5505 40.5578C39.1143 40.5578 38.7687 40.4467 38.5135 40.2245C38.2571 40.0024 38.1289 39.705 38.1289 39.3325C38.1289 39.1115 38.1944 38.9021 38.3255 38.7042C38.4566 38.5064 38.6869 38.2842 39.0163 38.0378L39.0598 38.0065ZM39.5505 40.2419C39.7407 40.2419 39.9252 40.2014 40.1038 40.1204C40.2836 40.0406 40.4448 39.9266 40.5875 39.7785L39.3086 38.2981L39.2634 38.2512L39.119 38.3606C38.7083 38.695 38.503 39.0189 38.503 39.3325C38.503 39.6067 38.5975 39.8265 38.7866 39.992C38.9745 40.1586 39.2292 40.2419 39.5505 40.2419ZM38.9154 36.894C38.9154 37.1486 39.0569 37.4494 39.34 37.7965L39.7506 37.4824C39.8851 37.3864 39.9953 37.2811 40.0812 37.1665C40.167 37.0508 40.2099 36.916 40.2099 36.7621C40.2099 36.599 40.1531 36.4625 40.0394 36.3526C39.9269 36.2426 39.7761 36.1877 39.587 36.1877C39.3817 36.1877 39.2181 36.2536 39.0963 36.3855C38.9757 36.5174 38.9154 36.6869 38.9154 36.894Z" fill="#161616"/>
<path fill-rule="evenodd" clip-rule="evenodd" d="M49.2819 38.8344C49.2819 39.3631 49.1648 39.7826 48.9305 40.0926C48.6961 40.4027 48.3818 40.5578 47.9874 40.5578C47.5222 40.5578 47.1661 40.3952 46.919 40.0701V41.8004H46.5449V37.104H46.8929L46.9121 37.5831C47.158 37.2209 47.5135 37.0398 47.9787 37.0398C48.3847 37.0398 48.7037 37.1937 48.9357 37.5015C49.1665 37.8093 49.2819 38.2356 49.2819 38.7806V38.8344ZM48.9061 38.7684C48.9061 38.3357 48.8168 37.9938 48.6381 37.7427C48.4607 37.4928 48.2124 37.3678 47.8934 37.3678C47.6626 37.3678 47.4648 37.4228 47.3001 37.5327C47.1342 37.6438 47.0072 37.8046 46.919 38.0152V39.6431C47.0095 39.8375 47.1383 39.9862 47.3053 40.0892C47.4735 40.191 47.6719 40.2419 47.9004 40.2419C48.2159 40.2419 48.4624 40.1158 48.6399 39.8636C48.8174 39.6125 48.9061 39.2474 48.9061 38.7684Z" fill="#161616"/>
<path fill-rule="evenodd" clip-rule="evenodd" d="M56.569 40.4953C56.5319 40.3888 56.5081 40.2309 56.4977 40.0215C56.3654 40.1939 56.1972 40.3264 55.993 40.4189C55.7889 40.5115 55.5726 40.5578 55.344 40.5578C55.0169 40.5578 54.7524 40.4669 54.5506 40.2853C54.3476 40.1036 54.2461 39.874 54.2461 39.5963C54.2461 39.2654 54.3841 39.0039 54.6602 38.8118C54.9351 38.6198 55.3191 38.5237 55.8121 38.5237H56.4942V38.1384C56.4942 37.8955 56.4194 37.7045 56.2697 37.5657C56.1201 37.4269 55.9014 37.3574 55.6137 37.3574C55.3516 37.3574 55.1347 37.4245 54.963 37.5588C54.7913 37.6918 54.7055 37.8526 54.7055 38.0412L54.3279 38.0378C54.3279 37.7682 54.4537 37.5345 54.7055 37.3366C54.9572 37.1388 55.2663 37.0398 55.6329 37.0398C56.0122 37.0398 56.3115 37.1347 56.5307 37.3245C56.75 37.5131 56.8625 37.7769 56.8683 38.1159V39.7212C56.8683 40.0498 56.9031 40.2957 56.9727 40.4588V40.4953H56.569ZM55.3858 40.2263C55.6375 40.2263 55.8626 40.1655 56.0609 40.044C56.2593 39.9226 56.4031 39.7606 56.4924 39.5581V38.8118H55.8208C55.445 38.8164 55.1515 38.8847 54.9404 39.0166C54.7281 39.1497 54.6219 39.3325 54.6219 39.565C54.6219 39.7548 54.6927 39.9127 54.8342 40.0388C54.9757 40.1638 55.1596 40.2263 55.3858 40.2263Z" fill="#161616"/>
<path d="M63.7499 37.4234C63.6699 37.4083 63.5852 37.4008 63.4959 37.4008C63.2604 37.4008 63.0615 37.4662 62.8991 37.5969C62.7367 37.7277 62.6212 37.9174 62.5528 38.1662V40.4953H62.1787V37.104H62.5458L62.5528 37.6421C62.7512 37.2406 63.0707 37.0398 63.5115 37.0398C63.6159 37.0398 63.6983 37.0537 63.7586 37.0815L63.7499 37.4234Z" fill="#161616"/>
<path d="M69.3929 36.2345V37.104H70.0976V37.4112H69.3929V39.6744C69.3929 39.8618 69.4271 40.0018 69.4955 40.0944C69.564 40.1869 69.6776 40.2332 69.8366 40.2332C69.8992 40.2332 70.0007 40.2222 70.1411 40.2002L70.1567 40.5057C70.0581 40.5404 69.9241 40.5578 69.7548 40.5578C69.4973 40.5578 69.3099 40.4831 69.1928 40.3339C69.0745 40.1846 69.0153 39.9648 69.0153 39.6744V37.4112H68.3906V37.104H69.0153V36.2345H69.3929Z" fill="#161616"/>
<path d="M76.2625 39.9573L77.256 37.104H77.6615L76.2086 41.0732L76.1337 41.2485C75.947 41.6604 75.6587 41.8664 75.269 41.8664C75.1785 41.8664 75.0822 41.8519 74.9801 41.823L74.9766 41.5123L75.1715 41.5297C75.356 41.5308 75.505 41.4857 75.6187 41.3943C75.7335 41.3029 75.831 41.1467 75.911 40.9257L76.0763 40.4675L74.7939 37.104H75.2063L76.2625 39.9573Z" fill="#161616"/>
<path fill-rule="evenodd" clip-rule="evenodd" d="M33.3887 24.905C33.3887 29.2664 29.8443 32.8017 25.4717 32.8017C21.0991 32.8017 17.5547 29.2664 17.5547 24.905C17.5547 20.5436 21.0991 17.0083 25.4717 17.0083C29.8443 17.0083 33.3887 20.5436 33.3887 24.905ZM20.5127 24.905C20.5127 27.6315 22.7381 29.8512 25.4717 29.8512C28.2052 29.8512 30.4307 27.6315 30.4307 24.905C30.4307 22.1784 28.2052 19.9587 25.4717 19.9587C22.7381 19.9587 20.5127 22.1784 20.5127 24.905Z" fill="#161616"/>
<path d="M25.4721 18.7438C24.7065 18.7438 24.0801 18.119 24.0801 17.3554V1.38843C24.0801 0.624793 24.7065 0 25.4721 0C26.2377 0 26.8641 0.624793 26.8641 1.38843V17.3554C26.8641 18.119 26.2377 18.7438 25.4721 18.7438Z" fill="#161616"/>
<path d="M18.3384 11.8016V10.8992H19.3302V10.1876H19.9914V10.8992H22.2534C22.4042 10.8992 22.5144 10.8702 22.584 10.8124C22.6536 10.7545 22.6884 10.6446 22.6884 10.4826C22.6884 10.3785 22.6768 10.2744 22.6536 10.1702H23.3496C23.4076 10.3785 23.4366 10.5752 23.4366 10.7603C23.4366 11.4545 23.0538 11.8016 22.2882 11.8016H19.9914V12.4785H19.3302V11.8016H18.3384ZM17.625 8.60826H19.7652C19.4172 8.30744 19.2432 7.9314 19.2432 7.48016C19.2432 6.62396 19.7362 6.19008 20.7222 6.17851H23.367V7.08099H20.757C20.4786 7.08099 20.2814 7.13884 20.1654 7.25454C20.0494 7.38181 19.9914 7.56115 19.9914 7.79256C19.9914 8.15124 20.1538 8.42314 20.4786 8.60826H23.367V9.51074H17.625V8.60826ZM23.4366 3.48843C23.4366 4.05537 23.2568 4.51818 22.8972 4.87686C22.526 5.23553 22.0388 5.41487 21.4356 5.41487H21.3312C20.9252 5.41487 20.5656 5.33966 20.2524 5.18925C19.9276 5.02727 19.6782 4.80744 19.5042 4.52975C19.3302 4.25206 19.2432 3.93967 19.2432 3.59256C19.2432 3.03719 19.4172 2.61487 19.7652 2.32562C20.1132 2.02479 20.612 1.87437 21.2616 1.87437H21.627V4.49504C21.9634 4.4719 22.2244 4.36198 22.41 4.16529C22.6072 3.96859 22.7058 3.72561 22.7058 3.43636C22.7058 3.01983 22.5376 2.67851 22.2012 2.41239L22.671 1.92644C22.9146 2.08843 23.106 2.30826 23.2452 2.58595C23.3728 2.85206 23.4366 3.15289 23.4366 3.48843ZM19.974 3.59256C19.974 3.84711 20.061 4.04959 20.235 4.2C20.409 4.35041 20.6526 4.44876 20.9658 4.49504V2.7595H20.8962C20.5946 2.78264 20.3626 2.86363 20.2002 3.00247C20.0494 3.14132 19.974 3.33801 19.974 3.59256Z" fill="#161616"/>
</g>
<defs>
<clipPath id="clip0_318_11">
<rect width="79" height="42" fill="white"/>
</clipPath>
</defs>
</svg>
