<svg width="439" height="440" viewBox="0 0 439 440" fill="none" xmlns="http://www.w3.org/2000/svg">
<path fill-rule="evenodd" clip-rule="evenodd" d="M220.937 171.256L225.815 174.166C225.815 174.166 224.88 174.913 225.233 175.993C224.956 186.935 225.469 197.588 225.65 208.676C225.83 219.765 226.737 230.272 227.499 241.236C227.623 242.669 228.323 252.491 229.359 256.77C229.618 258.726 230.501 260.546 231.877 261.961C233.252 263.376 235.048 264.309 236.996 264.623C243.075 264.468 249.068 263.146 254.648 260.73C261.984 257.333 268.993 253.271 275.586 248.595C284.705 242.329 293.825 236.063 303.214 229.922C309.321 226.064 315.428 222.205 321.618 218.45L329.777 220.781C329.219 221.164 328.785 221.702 328.53 222.33C328.275 222.957 328.21 223.646 328.343 224.31C329.816 234.119 331.891 243.829 334.555 253.384C337.02 262.972 339.974 272.427 343.405 281.712C343.986 282.439 348.174 294.07 350.144 298.453C350.864 300.142 352.043 301.596 353.547 302.65C355.051 303.704 356.82 304.316 358.654 304.417C362.382 303.811 365.902 302.286 368.893 299.979C373.704 295.888 377.952 291.177 381.526 285.971C384.704 281.189 387.625 276.241 390.277 271.15C396.7 260.231 402.313 248.939 409.088 238.249C409.566 237.584 409.842 236.796 409.883 235.978C409.924 235.16 409.728 234.348 409.319 233.639L416.774 233.81C417.936 233.964 419.111 233.651 420.043 232.939C420.974 232.227 421.584 231.174 421.739 230.012C421.894 228.851 421.581 227.675 420.868 226.744C420.156 225.812 419.104 225.202 417.942 225.048C405.463 223.275 393.358 222.396 381.191 220.375C376.166 219.624 371.163 218.687 366.097 217.459C335.825 209.861 306.429 199.127 278.385 185.43C261.329 177.498 244.694 168.693 228.544 159.051C217.73 152.545 207.227 145.79 197.243 138.621C190.767 133.924 184.686 129.082 178.833 123.888C164.783 111.628 151.709 98.2482 137.679 85.802C136.889 85.1247 135.872 84.7715 134.832 84.8132C133.792 84.855 132.806 85.2886 132.073 86.0271C131.504 86.8031 131.245 87.7639 131.348 88.7206C131.452 89.6774 131.909 90.561 132.63 91.1978L142.965 102.001C138.68 114.105 134.437 125.834 131.585 138.665C129.296 147.302 127.277 156.064 125.61 165.054C125.61 165.054 123.527 176.93 123.42 181.27C123.305 182.916 123.642 184.562 124.395 186.03C125.148 187.498 126.289 188.732 127.693 189.599C131.951 191.676 136.701 192.534 141.417 192.078C146.939 191.562 152.39 190.459 157.678 188.786C163.883 186.947 169.932 184.618 175.768 181.819C187.275 176.199 196.81 169.601 209.584 162.798C213.029 165.831 216.973 168.637 220.937 171.256ZM363.308 228.878C368.768 229.961 374.187 230.566 379.503 231.254C384.818 231.943 394.598 232.468 402.01 233.012C394.259 243.12 387.567 253.913 379.982 264.229C377.034 268.499 373.799 272.562 370.298 276.391C368.117 278.134 365.623 281.829 362.548 284.797L360.782 286.208L356.054 275.179C351.677 266.847 347.738 258.292 344.254 249.548C340.794 240.746 337.819 231.76 335.341 222.632C344.767 224.631 354.151 227.004 363.308 228.878ZM271.545 199.235C284.063 204.89 296.955 209.736 309.598 214.27L268.014 236.775C261.843 240.586 255.368 243.881 248.655 246.627C246.739 247.429 244.768 248.094 242.757 248.617L241.683 239.604C239.427 226.77 237.337 214.144 235.642 201.373C234.587 193.876 233.574 186.006 233.163 178.676C245.617 186.184 258.464 193.019 271.649 199.152L271.545 199.235ZM175.942 168.405C168.866 171.509 161.469 173.824 153.886 175.307C149.442 176.546 144.885 177.337 140.283 177.666C139.089 177.69 137.895 177.62 136.712 177.457C137.457 174.003 138.437 170.604 139.646 167.284C140.773 156.341 142.316 145.918 144.025 134.852C145.734 123.785 147.358 117.723 149.356 109.148C156.64 116.773 163.903 124.585 171.499 131.961C177.289 137.716 183.307 143.118 189.72 148.376C193.269 151.326 196.943 154.007 200.617 156.688C191.644 160.794 184.001 164.859 175.942 168.405Z" fill="white" fill-opacity="0.12"/>
<path fill-rule="evenodd" clip-rule="evenodd" d="M250.48 394.597C237.056 374.132 225.478 352.514 215.882 329.999C211.942 320.382 208.397 310.621 205.434 300.735C202.5 290.762 200.094 280.641 198.225 270.415C193.507 246.56 192.345 222.138 194.779 197.944C194.854 197.438 194.824 196.922 194.691 196.428C194.558 195.934 194.324 195.473 194.005 195.074C193.686 194.674 193.288 194.344 192.835 194.106C192.383 193.867 191.886 193.724 191.376 193.685C190.36 193.572 189.341 193.867 188.543 194.505C187.744 195.143 187.231 196.072 187.118 197.088C186.243 201.531 185.763 205.829 185.075 210.293C180.755 212.554 176.6 215.023 172.446 217.491C168.291 219.96 163.555 223.404 159.13 226.599L133.89 246.768C131.255 248.65 128.724 250.673 126.307 252.826C125.344 253.776 124.634 254.952 124.242 256.247C123.849 257.541 123.787 258.913 124.06 260.238C125.186 264.133 127.814 267.421 131.364 269.379C136.117 271.957 141.108 274.067 146.269 275.679C156.462 279.277 167.695 281.194 177.411 284.834C180.723 285.949 183.955 287.29 187.085 288.847C188.39 294.101 189.695 299.356 191.312 304.361L192.182 306.728C187.797 312.955 183.433 318.995 179.235 325.243C175.037 331.491 169.488 339.669 164.874 347.1C161.486 352.373 158.411 357.842 155.666 363.478C153.56 367.958 152.283 372.784 151.899 377.72C151.827 379.773 152.381 381.799 153.49 383.528C154.598 385.258 156.207 386.608 158.102 387.4C163.807 389.731 169.836 391.17 175.978 391.667C183.79 392.519 191.646 392.891 199.504 392.782C210.862 392.726 222.242 391.632 233.995 390.58C234.806 390.282 235.499 389.728 235.969 389.003L243.355 398.247C243.668 398.727 244.075 399.138 244.55 399.456C245.025 399.774 245.56 399.994 246.122 400.101C246.684 400.208 247.262 400.2 247.822 400.078C248.381 399.957 248.91 399.724 249.376 399.393C250.004 398.786 250.442 398.009 250.638 397.158C250.834 396.307 250.779 395.418 250.48 394.597ZM181.237 275.99C171.438 271.396 160.933 268.046 151.322 263.473C149.62 262.62 143.827 261.122 140.319 259.5L142.916 257.425L165.915 235.303C170.07 231.983 173.519 228.206 177.384 224.949L182.889 220.55C181.03 237.755 181.25 255.122 183.544 272.275L184.392 277.383C183.728 277.404 182.503 276.51 181.237 275.99ZM199.905 381.569C192.614 381.004 185.367 379.973 178.207 378.483C174.406 378.521 170.609 378.192 166.87 377.5C167.406 374.931 168.193 372.421 169.221 370.006C171.55 364.401 174.627 358.879 176.83 354.395C181.362 345.158 185.894 335.92 190.447 326.495C192.027 323.361 193.773 320.434 195.54 317.32C197.8 323.343 200.164 329.284 202.922 335.078C210.834 351.477 220.09 367.193 230.595 382.064C220.337 382.432 210.12 382.426 199.905 381.569Z" fill="white" fill-opacity="0.12"/>
</svg>
