<svg width="39" height="40" fill="none" xmlns="http://www.w3.org/2000/svg"><path opacity=".3" d="M38.423 20c0 10.234-8.381 18.538-18.73 18.538C9.342 38.538.961 30.234.961 20S9.342 1.46 19.692 1.46 38.423 9.766 38.423 20z" stroke="#fff"/><path d="M22.898 13.654h-1.924c-.85 0-1.665.334-2.266.93a3.157 3.157 0 00-.939 2.243v1.904h-1.923v2.538h1.923v5.077h2.565V21.27h1.923l.64-2.538h-2.563v-1.904c0-.168.067-.33.187-.449a.645.645 0 01.453-.186h1.924v-2.538z" stroke="#fff" stroke-linecap="round" stroke-linejoin="round"/></svg>