<svg width="40" height="40" fill="none" xmlns="http://www.w3.org/2000/svg"><path opacity=".3" d="M38.885 20c0 10.234-8.382 18.538-18.731 18.538-10.35 0-18.73-8.304-18.73-18.538S9.803 1.46 20.153 1.46 38.884 9.766 38.884 20z" stroke="#fff"/><path d="M23.359 13.654h-6.41c-1.77 0-3.205 1.42-3.205 3.173v6.346c0 1.753 1.435 3.173 3.205 3.173h6.41c1.77 0 3.205-1.42 3.205-3.173v-6.346c0-1.753-1.435-3.173-3.205-3.173z" stroke="#fff" stroke-linecap="round" stroke-linejoin="round"/><path d="M22.717 19.6a2.516 2.516 0 01-.26 1.542 2.551 2.551 0 01-1.123 1.098 2.587 2.587 0 01-2.966-.472 2.517 2.517 0 01-.477-2.936c.242-.477.63-.867 1.109-1.112a2.587 2.587 0 012.994.458c.389.385.642.884.723 1.422zm.962-3.09h.007" stroke="#fff" stroke-linecap="round" stroke-linejoin="round"/></svg>