<svg width="39" height="40" fill="none" xmlns="http://www.w3.org/2000/svg"><path opacity=".3" d="M38.346 20c0 10.234-8.381 18.538-18.73 18.538C9.265 38.538.884 30.234.884 20S9.265 1.46 19.615 1.46 38.346 9.766 38.346 20z" stroke="#fff"/><path d="M22.18 17.462c1.02 0 1.998.4 2.72 1.115a3.789 3.789 0 011.126 2.692v4.443h-2.564v-4.443c0-.336-.135-.66-.375-.897a1.289 1.289 0 00-1.813 0c-.24.238-.376.56-.376.897v4.443h-2.564v-4.443c0-1.01.405-1.978 1.127-2.692a3.866 3.866 0 012.72-1.115zm-6.41.634h-2.564v7.615h2.564v-7.615zm-1.282-1.904c.708 0 1.282-.568 1.282-1.269 0-.7-.574-1.27-1.282-1.27-.708 0-1.282.57-1.282 1.27 0 .701.574 1.27 1.282 1.27z" stroke="#fff" stroke-linecap="round" stroke-linejoin="round"/></svg>