<svg width="18" height="18" fill="none" xmlns="http://www.w3.org/2000/svg"><path d="M18 6.85a5.177 5.177 0 00-5.171-5.172H5.17A5.177 5.177 0 000 6.85c0 .842.685 1.527 1.527 1.527h1.458l-1.056 2.39a6.556 6.556 0 00-.562 2.664v.979c0 1.054.858 1.912 1.912 1.912h11.442a1.914 1.914 0 001.912-1.912v-.98c0-.923-.19-1.819-.563-2.663l-1.055-2.39h1.458c.842 0 1.527-.685 1.527-1.527zM5.171 2.857h7.658a4 4 0 013.688 2.465H13.12a1.59 1.59 0 00-1.147-.488H6.027c-.45 0-.858.189-1.148.49l-.034-.002H1.483a3.998 3.998 0 013.688-2.465zm-3.644 4.34a.348.348 0 01-.348-.347c0-.118.005-.234.015-.349h3.238v.455a.241.241 0 01-.242.242H1.527zm13.927 6.234v.979a.734.734 0 01-.733.733H3.279a.734.734 0 01-.733-.733v-.98c0-.758.156-1.494.462-2.187l1.267-2.87A1.422 1.422 0 005.61 6.957V6.43c0-.23.187-.417.416-.417h5.946c.23 0 .416.187.416.417v.526c0 .755.592 1.374 1.336 1.418l1.267 2.869c.306.693.461 1.43.461 2.188zM13.81 7.198a.241.241 0 01-.242-.242v-.455h3.238c.01.115.015.231.015.349a.348.348 0 01-.348.348H13.81z" fill="#fff"/><path d="M6.941 9.627a.652.652 0 100-1.304.652.652 0 000 1.304zm2.059 0a.652.652 0 100-1.304.652.652 0 000 1.304zm2.059 0a.652.652 0 100-1.304.652.652 0 000 1.304zM6.941 11.61a.652.652 0 100-1.305.652.652 0 000 1.305zm2.059 0a.652.652 0 100-1.305.652.652 0 000 1.305zm2.059 0a.652.652 0 100-1.305.652.652 0 000 1.305zm-4.118 1.982a.652.652 0 100-1.304.652.652 0 000 1.304zm2.059 0a.652.652 0 100-1.304.652.652 0 000 1.304zm2.059 0a.652.652 0 100-1.304.652.652 0 000 1.304z" fill="#fff"/></svg>