<svg width="39" height="40" fill="none" xmlns="http://www.w3.org/2000/svg"><path opacity=".3" d="M37.962 20c0 10.234-8.382 18.538-18.731 18.538C8.88 38.538.5 30.234.5 20S8.881 1.46 19.23 1.46c10.35 0 18.732 8.305 18.732 18.539z" stroke="#fff"/><path d="M25.641 14.93a7.017 7.017 0 01-2.013.97 2.882 2.882 0 00-1.47-.892 2.9 2.9 0 00-1.72.102 2.868 2.868 0 00-1.353 1.06 2.823 2.823 0 00-.495 1.634v.635a6.89 6.89 0 01-3.25-.72 6.814 6.814 0 01-2.52-2.155s-2.564 5.712 3.206 8.25a7.516 7.516 0 01-4.487 1.27c5.769 3.172 12.82 0 12.82-7.299 0-.177-.018-.353-.051-.526a4.887 4.887 0 001.333-2.33v0z" stroke="#fff" stroke-linecap="round" stroke-linejoin="round"/></svg>