<svg width="40" height="40" viewBox="0 0 40 40" fill="none" xmlns="http://www.w3.org/2000/svg">
<path d="M26.0873 22.9459L25.7646 23.2388L25.8592 23.6641L27.6591 31.7558L27.6644 31.7796L27.6712 31.8031C27.6811 31.8367 27.6865 31.872 27.6865 31.9108C27.6865 32.1291 27.5241 32.2483 27.3981 32.2483H27.3954C27.3518 32.2483 27.3033 32.236 27.2561 32.2068C27.2558 32.2066 27.2554 32.2064 27.255 32.2061L20.4018 27.8778L20.0013 27.6248L19.6008 27.8778L12.7446 32.208L12.7446 32.208L12.7404 32.2107C12.6543 32.2659 12.544 32.2651 12.4508 32.1944C12.353 32.1202 12.294 31.9777 12.3272 31.8299L12.3276 31.8281L14.1409 23.6639L14.2353 23.2386L13.9127 22.9459L7.86328 17.4557L7.86293 17.4554C7.76992 17.3711 7.72232 17.2205 7.76659 17.0737C7.81264 16.9298 7.9232 16.8591 8.01555 16.851L8.01773 16.8508L15.9923 16.1314L16.4488 16.0903L16.6204 15.6651L19.7345 7.94709C19.7917 7.80965 19.9045 7.75 19.9987 7.75C20.0952 7.75 20.2072 7.81148 20.2613 7.94599L20.2617 7.94704L23.3769 15.6679L23.5486 16.0932L24.0054 16.1343L31.9826 16.8509L31.9845 16.851C32.0767 16.8591 32.187 16.9296 32.2332 17.0731C32.2779 17.2233 32.2299 17.3712 32.1371 17.4554L32.1367 17.4557L26.0873 22.9459Z" stroke="#474747" stroke-width="1.5"/>
</svg>
