<svg aria-hidden="true" xmlns="http://www.w3.org/2000/svg" xmlns:xlink="http://www.w3.org/1999/xlink"><symbol viewBox="0 0 8 14" id="facebook" xmlns="http://www.w3.org/2000/svg">
<path d="M7.25772 7.875L7.64655 5.34133H5.21542V3.69715C5.21542 3.00398 5.55503 2.32832 6.64385 2.32832H7.74909V0.171172C7.74909 0.171172 6.74612 0 5.78717 0C3.78506 0 2.47639 1.21352 2.47639 3.41031V5.34133H0.250885V7.875H2.47639V14H5.21542V7.875H7.25772Z"/>
</symbol><symbol viewBox="0 0 14 14" id="instagram" xmlns="http://www.w3.org/2000/svg">
<path d="M7.00271 3.85537C5.26365 3.85537 3.86091 5.25811 3.86091 6.99717C3.86091 8.73623 5.26365 10.139 7.00271 10.139C8.74177 10.139 10.1445 8.73623 10.1445 6.99717C10.1445 5.25811 8.74177 3.85537 7.00271 3.85537ZM7.00271 9.03975C5.87888 9.03975 4.96013 8.12373 4.96013 6.99717C4.96013 5.87061 5.87615 4.95459 7.00271 4.95459C8.12927 4.95459 9.04529 5.87061 9.04529 6.99717C9.04529 8.12373 8.12654 9.03975 7.00271 9.03975ZM11.0058 3.72686C11.0058 4.13428 10.6777 4.45967 10.273 4.45967C9.8656 4.45967 9.54021 4.13154 9.54021 3.72686C9.54021 3.32217 9.86834 2.99404 10.273 2.99404C10.6777 2.99404 11.0058 3.32217 11.0058 3.72686ZM13.0867 4.47061C13.0402 3.48896 12.816 2.61943 12.0969 1.90303C11.3804 1.18662 10.5109 0.962402 9.52927 0.913184C8.51755 0.855762 5.48513 0.855762 4.47341 0.913184C3.49451 0.959668 2.62498 1.18389 1.90584 1.90029C1.18669 2.6167 0.96521 3.48623 0.915991 4.46787C0.858569 5.47959 0.858569 8.51201 0.915991 9.52373C0.962476 10.5054 1.18669 11.3749 1.90584 12.0913C2.62498 12.8077 3.49177 13.0319 4.47341 13.0812C5.48513 13.1386 8.51755 13.1386 9.52927 13.0812C10.5109 13.0347 11.3804 12.8104 12.0969 12.0913C12.8133 11.3749 13.0375 10.5054 13.0867 9.52373C13.1441 8.51201 13.1441 5.48232 13.0867 4.47061ZM11.7797 10.6093C11.5664 11.1452 11.1535 11.5581 10.6148 11.7741C9.80818 12.094 7.89412 12.0202 7.00271 12.0202C6.1113 12.0202 4.19451 12.0913 3.3906 11.7741C2.85466 11.5608 2.44177 11.1479 2.22576 10.6093C1.90584 9.80264 1.97966 7.88857 1.97966 6.99717C1.97966 6.10576 1.90857 4.18896 2.22576 3.38506C2.43904 2.84912 2.85193 2.43623 3.3906 2.22021C4.19724 1.90029 6.1113 1.97412 7.00271 1.97412C7.89412 1.97412 9.81091 1.90303 10.6148 2.22021C11.1508 2.4335 11.5636 2.84639 11.7797 3.38506C12.0996 4.1917 12.0258 6.10576 12.0258 6.99717C12.0258 7.88857 12.0996 9.80537 11.7797 10.6093Z"/>
</symbol><symbol viewBox="0 0 6 10" id="learn" xmlns="http://www.w3.org/2000/svg">
<path d="M5.6332 5.46475L1.91445 9.1835C1.65742 9.44053 1.2418 9.44053 0.9875 9.1835L0.369531 8.56553C0.1125 8.3085 0.1125 7.89287 0.369531 7.63857L3.00547 5.00264L0.369531 2.3667C0.1125 2.10967 0.1125 1.69404 0.369531 1.43975L0.984766 0.816309C1.2418 0.559277 1.65742 0.559277 1.91172 0.816309L5.63047 4.53506C5.89023 4.79209 5.89023 5.20771 5.6332 5.46475Z"/>
</symbol><symbol viewBox="0 0 14 13" id="linkedin" xmlns="http://www.w3.org/2000/svg">
<path d="M3.61703 12.2502H1.07734V4.0717H3.61703V12.2502ZM2.34582 2.95607C1.53371 2.95607 0.875 2.28342 0.875 1.47131C0.875 1.08122 1.02996 0.707114 1.30579 0.431282C1.58163 0.155449 1.95573 0.000488281 2.34582 0.000488281C2.73591 0.000488281 3.11001 0.155449 3.38585 0.431282C3.66168 0.707114 3.81664 1.08122 3.81664 1.47131C3.81664 2.28342 3.15766 2.95607 2.34582 2.95607ZM13.1223 12.2502H10.588V8.26896C10.588 7.32014 10.5689 6.10334 9.26762 6.10334C7.94719 6.10334 7.74484 7.1342 7.74484 8.20061V12.2502H5.20789V4.0717H7.64367V5.18732H7.67922C8.01828 4.54475 8.84652 3.86662 10.0822 3.86662C12.6525 3.86662 13.125 5.5592 13.125 7.75764V12.2502H13.1223Z"/>
</symbol><symbol viewBox="0 0 23 26" id="play" xmlns="http://www.w3.org/2000/svg">
<path d="M21.25 15.1651L4.74999 24.6913C3.08333 25.6536 0.999999 24.4508 0.999999 22.5263L1 3.47372C1 1.54922 3.08333 0.346405 4.75 1.30866L21.25 10.8349C22.9167 11.7972 22.9167 14.2028 21.25 15.1651Z"/>
</symbol><symbol viewBox="0 0 14 12" id="twitter" xmlns="http://www.w3.org/2000/svg">
<path d="M12.5609 3.14868C12.5698 3.27304 12.5698 3.39743 12.5698 3.52179C12.5698 7.31491 9.68275 11.6855 4.40609 11.6855C2.78045 11.6855 1.27031 11.2147 0 10.3974C0.230973 10.4241 0.453031 10.4329 0.692891 10.4329C2.03424 10.4329 3.26903 9.97992 4.25507 9.20707C2.99365 9.18041 1.93654 8.35428 1.57232 7.21721C1.75 7.24385 1.92765 7.26162 2.11422 7.26162C2.37182 7.26162 2.62946 7.22607 2.86929 7.16392C1.55457 6.8974 0.568504 5.74259 0.568504 4.34793V4.31241C0.950469 4.52561 1.39467 4.65885 1.86545 4.6766C1.0926 4.16136 0.586277 3.28193 0.586277 2.287C0.586277 1.75402 0.728383 1.26544 0.977129 0.839039C2.38957 2.58015 4.51268 3.71719 6.89336 3.84157C6.84895 3.62837 6.82229 3.40632 6.82229 3.18423C6.82229 1.603 8.10149 0.314941 9.69158 0.314941C10.5177 0.314941 11.2639 0.661387 11.788 1.22103C12.4365 1.09667 13.0583 0.856812 13.6091 0.528141C13.3959 1.1944 12.9428 1.75404 12.3477 2.10935C12.9251 2.0472 13.4847 1.88726 13.9999 1.6652C13.6091 2.23371 13.1205 2.74003 12.5609 3.14868Z"/>
</symbol></svg>