<svg width="52" height="36" viewBox="0 0 52 36" fill="none" xmlns="http://www.w3.org/2000/svg">
<rect x="0.5" y="0.5" width="51" height="35" rx="9.5" fill="#F2F4F6"/>
<rect x="0.5" y="0.5" width="51" height="35" rx="9.5" stroke="#F2F4F6"/>
<path d="M12.2708 13H9.5025C9.41085 12.9999 9.3222 13.0328 9.25251 13.0926C9.18282 13.1524 9.13668 13.2352 9.1224 13.3262L8.00277 20.4591C7.99762 20.4922 7.99967 20.5261 8.00878 20.5583C8.0179 20.5905 8.03385 20.6204 8.05555 20.6458C8.07724 20.6712 8.10417 20.6916 8.13447 20.7056C8.16477 20.7196 8.19772 20.7268 8.23106 20.7268H9.55269C9.64439 20.7268 9.7331 20.6939 9.80279 20.634C9.87249 20.5741 9.91859 20.4912 9.93278 20.4001L10.2348 18.4763C10.2489 18.3853 10.295 18.3024 10.3646 18.2425C10.4342 18.1827 10.5228 18.1497 10.6144 18.1497H11.4908C13.3144 18.1497 14.3668 17.263 14.6416 15.5059C14.7655 14.7372 14.6469 14.1332 14.2887 13.7102C13.8952 13.2457 13.1974 13 12.2708 13ZM12.5902 15.6051C12.4388 16.6033 11.6798 16.6033 10.946 16.6033H10.5282L10.8213 14.7392C10.8299 14.6847 10.8575 14.635 10.8993 14.5991C10.9411 14.5633 10.9942 14.5436 11.0492 14.5436H11.2406C11.7406 14.5436 12.2121 14.5436 12.4558 14.8299C12.6011 15.0007 12.6457 15.2545 12.5902 15.6051ZM20.5458 15.573H19.2202C19.1652 15.573 19.1121 15.5927 19.0703 15.6286C19.0285 15.6644 19.0009 15.7141 18.9923 15.7686L18.9336 16.1412L18.8409 16.0062C18.5539 15.5877 17.9139 15.4477 17.2752 15.4477C15.8103 15.4477 14.5591 16.5626 14.3154 18.1265C14.1887 18.9066 14.3688 19.6526 14.8092 20.1728C15.2132 20.6511 15.7912 20.8504 16.479 20.8504C17.6593 20.8504 18.3139 20.0878 18.3139 20.0878L18.2548 20.4579C18.2495 20.491 18.2514 20.5248 18.2604 20.5571C18.2694 20.5894 18.2853 20.6193 18.3069 20.6448C18.3285 20.6703 18.3554 20.6908 18.3857 20.7049C18.416 20.719 18.4489 20.7263 18.4823 20.7264H19.6764C19.7681 20.7264 19.8568 20.6935 19.9265 20.6336C19.9962 20.5737 20.0423 20.4908 20.0565 20.3997L20.7729 15.8406C20.7782 15.8076 20.7763 15.7738 20.7673 15.7416C20.7583 15.7095 20.7425 15.6796 20.7209 15.6541C20.6993 15.6287 20.6725 15.6083 20.6422 15.5943C20.612 15.5802 20.5791 15.573 20.5458 15.573ZM18.698 18.1655C18.5701 18.9265 17.969 19.4374 17.2023 19.4374C16.8174 19.4374 16.5097 19.3134 16.3122 19.0783C16.1163 18.8448 16.0418 18.5125 16.1041 18.1424C16.2235 17.3879 16.8348 16.8603 17.5897 16.8603C17.9662 16.8603 18.2722 16.986 18.4738 17.2231C18.6757 17.4627 18.7559 17.797 18.698 18.1655ZM27.6061 15.573H26.274C26.2111 15.5731 26.1493 15.5886 26.0938 15.6182C26.0383 15.6477 25.9908 15.6904 25.9554 15.7426L24.1181 18.4621L23.3393 15.8488C23.3154 15.7691 23.2666 15.6992 23.2001 15.6496C23.1336 15.5999 23.0529 15.5731 22.9701 15.573H21.661C21.6243 15.5729 21.588 15.5816 21.5553 15.5985C21.5226 15.6153 21.4944 15.6397 21.473 15.6697C21.4515 15.6997 21.4375 15.7344 21.4322 15.7709C21.4268 15.8075 21.4302 15.8447 21.442 15.8797L22.9094 20.2065L21.5299 22.1633C21.5054 22.198 21.4908 22.2388 21.4878 22.2813C21.4849 22.3237 21.4936 22.3662 21.513 22.404C21.5325 22.4418 21.5619 22.4735 21.598 22.4956C21.6342 22.5177 21.6758 22.5294 21.7181 22.5294H23.0486C23.1108 22.5295 23.172 22.5144 23.227 22.4855C23.2821 22.4566 23.3294 22.4147 23.3648 22.3635L27.7955 15.937C27.8196 15.9023 27.8336 15.8616 27.8363 15.8193C27.8389 15.7771 27.83 15.7349 27.8105 15.6974C27.7909 15.6599 27.7616 15.6285 27.7256 15.6066C27.6895 15.5846 27.6482 15.573 27.6061 15.573Z" fill="#253B80"/>
<path d="M32.1925 13.0004H29.3682C29.2748 13.0004 29.1845 13.0327 29.1135 13.0913C29.0425 13.1499 28.9955 13.2311 28.9809 13.3202L27.8388 20.3132C27.8335 20.3456 27.8355 20.3787 27.8448 20.4103C27.854 20.4419 27.8702 20.4711 27.8922 20.4961C27.9143 20.521 27.9417 20.541 27.9725 20.5548C28.0034 20.5685 28.0369 20.5756 28.0709 20.5756H29.5202C29.5856 20.5755 29.6488 20.5529 29.6984 20.5118C29.7481 20.4707 29.7809 20.4139 29.7911 20.3515L30.1152 18.3693C30.1297 18.2801 30.1766 18.1988 30.2476 18.1401C30.3186 18.0814 30.409 18.0491 30.5025 18.0491H31.396C33.2566 18.0491 34.3297 17.1798 34.6105 15.4571C34.7373 14.7035 34.6155 14.1113 34.25 13.6966C33.8491 13.2412 33.1377 13.0004 32.1925 13.0004ZM32.5183 15.5544C32.3643 16.533 31.5901 16.533 30.8411 16.533H30.4154L30.7147 14.7055C30.7233 14.652 30.7514 14.6033 30.794 14.5681C30.8366 14.5329 30.8908 14.5136 30.9468 14.5137H31.1421C31.6516 14.5137 32.1331 14.5137 32.3816 14.7944C32.5299 14.9619 32.5749 15.2107 32.5183 15.5544ZM40.6332 15.5229H39.2817C39.2257 15.5228 39.1714 15.5421 39.1289 15.5773C39.0863 15.6125 39.0582 15.6612 39.0497 15.7147L38.9898 16.08L38.8948 15.9476C38.6021 15.5373 37.9497 15.4001 37.2981 15.4001C35.8038 15.4001 34.5279 16.4931 34.2794 18.0263C34.1505 18.7912 34.3335 19.5225 34.7827 20.0325C35.1956 20.5014 35.7844 20.6968 36.4859 20.6968C37.69 20.6968 38.3577 19.9492 38.3577 19.9492L38.2974 20.312C38.292 20.3445 38.294 20.3778 38.3032 20.4095C38.3124 20.4412 38.3287 20.4705 38.3508 20.4956C38.373 20.5206 38.4005 20.5407 38.4315 20.5544C38.4625 20.5682 38.4962 20.5753 38.5302 20.5752H39.7479C39.8414 20.5752 39.9318 20.5429 40.0028 20.4842C40.0738 20.4255 40.1208 20.3442 40.1352 20.255L40.8665 15.7853C40.8717 15.7529 40.8695 15.7197 40.8602 15.6881C40.8508 15.6565 40.8345 15.6272 40.8123 15.6023C40.7902 15.5774 40.7627 15.5574 40.7318 15.5437C40.7008 15.53 40.6672 15.5229 40.6332 15.5229ZM38.7483 18.0646C38.6186 18.8107 38.0046 19.3115 37.2226 19.3115C36.8307 19.3115 36.5161 19.1899 36.3146 18.9594C36.1147 18.7306 36.0396 18.4048 36.1024 18.0419C36.225 17.3022 36.8476 16.785 37.6177 16.785C38.0017 16.785 38.3139 16.9082 38.5195 17.1407C38.7264 17.3756 38.8081 17.7034 38.7483 18.0646ZM42.2274 13.1922L41.0684 20.3132C41.0631 20.3456 41.0651 20.3787 41.0743 20.4103C41.0835 20.4419 41.0997 20.4711 41.1218 20.4961C41.1439 20.521 41.1712 20.541 41.2021 20.5548C41.2329 20.5685 41.2665 20.5756 41.3004 20.5756H42.4657C42.6593 20.5756 42.8237 20.44 42.8534 20.2554L43.9963 13.2628C44.0016 13.2304 43.9996 13.1972 43.9904 13.1656C43.9812 13.1341 43.965 13.1048 43.9429 13.0798C43.9209 13.0548 43.8935 13.0348 43.8627 13.021C43.8318 13.0072 43.7982 13.0001 43.7643 13H42.4595C42.4035 13.0002 42.3493 13.0196 42.3068 13.0549C42.2643 13.0901 42.2362 13.1388 42.2274 13.1922Z" fill="#179BD7"/>
</svg>
