<svg width="70" height="48" viewBox="0 0 70 48" fill="none" xmlns="http://www.w3.org/2000/svg">
<rect x="0.5" y="0.5" width="69" height="47" rx="9.5" fill="#F2F4F6"/>
<rect x="0.5" y="0.5" width="69" height="47" rx="9.5" stroke="#F2F4F6"/>
<path fill-rule="evenodd" clip-rule="evenodd" d="M29.6516 36.8966L30.0995 33.9984L29.1018 33.9746H24.3379L27.6487 12.5874C27.659 12.5226 27.6923 12.4625 27.741 12.4197C27.7899 12.377 27.8523 12.3535 27.9176 12.3535H35.9503C38.6172 12.3535 40.4575 12.9188 41.4182 14.0347C41.8687 14.5582 42.1556 15.1053 42.2945 15.7073C42.4401 16.339 42.4425 17.0937 42.3005 18.0143L42.2902 18.0813V18.6712L42.7407 18.9313C43.1199 19.1363 43.4214 19.3709 43.6527 19.6395C44.0379 20.0872 44.2871 20.6562 44.3924 21.3304C44.5013 22.024 44.4654 22.8496 44.2871 23.7841C44.0816 24.8589 43.7493 25.7952 43.3005 26.5611C42.8879 27.2669 42.3621 27.8524 41.7377 28.306C41.1416 28.7371 40.4335 29.0644 39.6328 29.2738C38.8568 29.4796 37.9722 29.5835 37.0019 29.5835H36.3768C35.9299 29.5835 35.4957 29.7474 35.1548 30.0414C34.813 30.3416 34.5871 30.7516 34.5177 31.2001L34.4705 31.4611L33.6791 36.5696L33.6434 36.757C33.6338 36.8164 33.6175 36.846 33.5935 36.866C33.5721 36.8843 33.5414 36.8966 33.5114 36.8966H29.6516" fill="#28356A"/>
<path fill-rule="evenodd" clip-rule="evenodd" d="M43.1676 18.1492C43.1438 18.3053 43.1162 18.4649 43.0855 18.6289C42.0263 24.1702 38.402 26.0845 33.7733 26.0845H31.4166C30.8504 26.0845 30.3733 26.5031 30.2853 27.0721L28.7369 37.0786C28.6796 37.4523 28.9621 37.7888 29.332 37.7888H33.5121C34.007 37.7888 34.4275 37.4224 34.5054 36.9251L34.5465 36.7088L35.3335 31.6204L35.3841 31.3413C35.4611 30.8423 35.8826 30.4757 36.3774 30.4757H37.0025C41.0524 30.4757 44.2228 28.8006 45.1494 23.9529C45.5364 21.9279 45.3361 20.237 44.3118 19.0478C44.0019 18.6893 43.6174 18.3916 43.1676 18.1492" fill="#298FC2"/>
<path fill-rule="evenodd" clip-rule="evenodd" d="M42.0585 17.6991C41.8966 17.651 41.7296 17.6075 41.5583 17.5681C41.3861 17.5298 41.2098 17.4958 41.0282 17.466C40.3928 17.3614 39.6964 17.3118 38.9506 17.3118H32.6546C32.4994 17.3118 32.3521 17.3474 32.2205 17.412C31.93 17.5542 31.7143 17.8343 31.662 18.1771L30.3226 26.8202L30.2842 27.0722C30.3722 26.5032 30.8493 26.0846 31.4154 26.0846H33.7722C38.4008 26.0846 42.0251 24.1693 43.0844 18.629C43.1161 18.465 43.1427 18.3055 43.1665 18.1493C42.8985 18.0044 42.6083 17.8805 42.2957 17.7749C42.2185 17.7487 42.1388 17.7236 42.0585 17.6991" fill="#22284F"/>
<path fill-rule="evenodd" clip-rule="evenodd" d="M31.6629 18.1772C31.7152 17.8344 31.9308 17.5543 32.2213 17.413C32.3539 17.3483 32.5003 17.3126 32.6555 17.3126H38.9515C39.6973 17.3126 40.3936 17.3625 41.029 17.4671C41.2106 17.4966 41.3869 17.5308 41.5592 17.5692C41.7304 17.6083 41.8974 17.6521 42.0593 17.7C42.1397 17.7244 42.2193 17.7498 42.2973 17.775C42.6098 17.8806 42.9003 18.0054 43.1683 18.1494C43.4835 16.1016 43.1656 14.7074 42.079 13.4449C40.8808 12.0548 38.7186 11.46 35.9516 11.46H27.9186C27.3535 11.46 26.8713 11.8786 26.784 12.4485L23.4383 34.0557C23.3723 34.4831 23.6959 34.8688 24.119 34.8688H29.0782L31.6629 18.1772" fill="#28356A"/>
</svg>
