<svg width="28" height="28" viewBox="0 0 28 28" fill="none" xmlns="http://www.w3.org/2000/svg">
<g clip-path="url(#clip0_465_2649)">
<rect width="28" height="28" rx="14" fill="#71B84A"/>
<path d="M21.0571 6.44048C20.7176 6.45196 20.395 6.60768 20.1588 6.87445L11.5448 16.4151L7.85961 12.3523C7.61693 12.0728 7.28207 11.9119 6.92971 11.9055C6.57736 11.8998 6.23785 12.0491 5.98758 12.3204C5.73731 12.5916 5.59731 12.9618 5.59964 13.3473C5.60139 13.7321 5.74548 14.1004 5.99867 14.3684L10.6184 19.453C10.864 19.7261 11.1994 19.8799 11.55 19.8799C11.9001 19.8799 12.2361 19.7261 12.4817 19.453L22.019 8.87912C22.3959 8.46428 22.5044 7.84075 22.2926 7.30403C22.0803 6.76729 21.5915 6.42451 21.0571 6.44048Z" fill="white"/>
</g>
<defs>
<clipPath id="clip0_465_2649">
<rect width="28" height="28" rx="6" fill="white"/>
</clipPath>
</defs>
</svg>
