<svg width="30" height="30" viewBox="0 0 30 30" fill="none" xmlns="http://www.w3.org/2000/svg">
<path d="M3.82655 26.1735C3.34011 25.687 3.34011 24.8984 3.82655 24.4119L24.4115 3.82626C24.8979 3.33981 25.6866 3.33981 26.173 3.82626C26.6595 4.31272 26.6595 5.10141 26.173 5.58786L5.58809 26.1735C5.10165 26.6599 4.31298 26.6599 3.82655 26.1735Z" fill="#6F6F6F"/>
<path d="M3.82576 3.82628C4.3122 3.33983 5.10087 3.33983 5.5873 3.82628L26.1722 24.4119C26.6587 24.8984 26.6587 25.6871 26.1722 26.1735C25.6858 26.66 24.8971 26.66 24.4107 26.1735L3.82576 5.58788C3.33933 5.10143 3.33933 4.31273 3.82576 3.82628Z" fill="#6F6F6F"/>
</svg>
