<svg width="60" height="60" viewBox="0 0 60 60" fill="none" xmlns="http://www.w3.org/2000/svg">
<path d="M7.65505 52.3472C6.68218 51.3743 6.68218 49.7969 7.65505 48.824L48.8249 7.65277C49.7978 6.67987 51.3751 6.67987 52.348 7.65277C53.3209 8.62568 53.3209 10.2031 52.348 11.176L11.1781 52.3472C10.2053 53.3201 8.62792 53.3201 7.65505 52.3472Z" fill="white"/>
<path d="M7.65348 7.65281C8.62635 6.6799 10.2037 6.6799 11.1766 7.65281L52.3465 48.8241C53.3193 49.797 53.3193 51.3744 52.3465 52.3473C51.3736 53.3202 49.7962 53.3202 48.8234 52.3473L7.65348 11.176C6.68061 10.2031 6.68061 8.62571 7.65348 7.65281Z" fill="white"/>
</svg>
