<svg width="18" height="18" viewBox="0 0 18 18" fill="none" xmlns="http://www.w3.org/2000/svg">
<path d="M13.5632 11.424L17.7513 7.62305C17.9707 7.42422 18.0536 7.10957 17.9651 6.82001C17.8748 6.53239 17.6296 6.32777 17.3421 6.30267L11.8194 5.80657L9.66268 0.46136C9.55024 0.181455 9.28848 0 8.99908 0C8.70967 0 8.44976 0.181455 8.33547 0.459429L6.17876 5.80464L0.657929 6.30267C0.370367 6.32777 0.125202 6.53239 0.0348777 6.82001C-0.053603 7.10764 0.0293476 7.42422 0.248706 7.62305L4.43679 11.424L3.18147 17.0761C3.11511 17.3714 3.22571 17.6784 3.45982 17.856C3.69392 18.0336 4.00729 18.049 4.2543 17.8907L9.00092 14.8928L13.7475 17.8907C13.8618 17.9621 13.9909 17.9988 14.1199 17.9988H14.1217C14.5181 17.9988 14.8406 17.661 14.8406 17.246C14.8406 17.1688 14.8296 17.0954 14.8093 17.0259L13.5632 11.424Z" fill="#EEEEEE"/>
</svg>
