<svg width="80" height="81" viewBox="0 0 80 81" fill="none" xmlns="http://www.w3.org/2000/svg">
<path d="M79.5785 40.5002L75.9489 42.9668L79.2146 45.9009L75.2848 47.8518L78.1204 51.205L73.9607 52.5976L76.3105 56.3089L71.9996 57.1168L73.8207 61.1155L69.4404 61.3265L70.702 65.5363L66.3336 65.1498L67.0146 69.492L62.7385 68.5161L62.8264 72.911L58.7221 71.3626L58.213 75.7286L54.3576 73.6336L53.2574 77.8886L49.7251 75.284L48.0531 79.3475L44.9101 76.2819L42.6998 80.0785L40.0002 76.6142L37.3005 80.0785L35.0905 76.2819L31.9473 79.3475L30.275 75.2838L26.7424 77.8886L25.6423 73.6336L21.7869 75.7284L21.278 71.3626L17.1735 72.9108L17.2614 68.5159L12.9855 69.4916L13.6665 65.1494L9.29817 65.5358L10.5599 61.3263L6.17942 61.115L8.00051 57.1166L3.6899 56.3084L6.03965 52.5973L1.87998 51.2047L4.71561 47.8515L0.785807 45.9007L4.05169 42.9668L0.421875 40.5002L4.05169 38.0333L0.785807 35.0991L4.71561 33.1485L1.88022 29.7951L6.03965 28.4025L3.6899 24.6912L8.00075 23.8833L6.17966 19.8846L10.5602 19.6735L9.2984 15.4638L13.667 15.8505L12.9857 11.508L17.2619 12.4839L17.1739 8.08907L21.2782 9.63749L21.7874 5.27146L25.6428 7.36644L26.7429 3.11144L30.2753 5.71629L31.9476 1.6526L35.0905 4.71823L37.3005 0.921631L40.0002 4.38587L42.6998 0.921631L44.9101 4.71823L48.0531 1.65284L49.7253 5.71629L53.2579 3.11144L54.358 7.36644L58.2134 5.2717L58.7226 9.63773L62.8269 8.08955L62.7389 12.4842L67.0151 11.5085L66.3338 15.8507L70.7024 15.4643L69.4407 19.674L73.8209 19.8851L71.9998 23.8835L76.3107 24.6917L73.9609 28.403L78.1204 29.7953L75.2848 33.1485L79.2146 35.0994L75.9489 38.0333L79.5785 40.5002Z" fill="url(#paint0_linear_691_16868)"/>
<path d="M39.6563 61.5008C28.029 61.5008 18.5693 52.0194 18.5693 40.3654C18.5693 28.7114 28.029 19.23 39.6563 19.23C51.2838 19.23 60.7432 28.7114 60.7432 40.3654C60.7432 52.0194 51.2838 61.5008 39.6563 61.5008ZM39.6563 19.467C28.1592 19.467 18.8059 28.8419 18.8059 40.3654C18.8059 51.8889 28.1592 61.2637 39.6563 61.2637C51.1533 61.2637 60.5069 51.8889 60.5069 40.3654C60.5069 28.8419 51.1533 19.467 39.6563 19.467Z" fill="#020001"/>
<path d="M39.656 70.7895C22.9379 70.7895 9.33691 57.1573 9.33691 40.401C9.33691 23.6445 22.9379 10.0122 39.656 10.0122C56.3741 10.0122 69.975 23.6445 69.975 40.401C69.975 57.1573 56.3741 70.7895 39.656 70.7895ZM39.656 17.4787C27.0455 17.4787 16.7862 27.7615 16.7862 40.401C16.7862 53.0404 27.0458 63.3231 39.656 63.3231C52.2664 63.3231 62.5257 53.0402 62.5257 40.401C62.5257 27.7615 52.2664 17.4787 39.656 17.4787Z" fill="black"/>
<path d="M39.656 70.9082C22.8728 70.9082 9.21875 57.2228 9.21875 40.401C9.21875 23.5792 22.8728 9.8938 39.656 9.8938C56.4392 9.8938 70.0932 23.5792 70.0932 40.401C70.0932 57.2228 56.4392 70.9082 39.656 70.9082ZM39.656 10.1309C23.0033 10.1309 9.45503 23.71 9.45503 40.401C9.45503 57.092 23.003 70.6711 39.656 70.6711C56.3087 70.6711 69.8566 57.092 69.8566 40.401C69.8566 23.7102 56.3087 10.1309 39.656 10.1309ZM39.656 63.442C26.9804 63.442 16.6678 53.106 16.6678 40.4012C16.6678 27.6965 26.9804 17.3602 39.656 17.3602C52.3316 17.3602 62.6441 27.6962 62.6441 40.4012C62.6441 53.106 52.3316 63.442 39.656 63.442ZM39.656 17.5973C27.1106 17.5973 16.9044 27.8271 16.9044 40.4012C16.9044 52.9752 27.1106 63.2049 39.656 63.2049C52.2013 63.2049 62.4076 52.9752 62.4076 40.4012C62.4076 27.8271 52.2013 17.5973 39.656 17.5973Z" fill="#050400"/>
<path d="M23.1843 17.6091L25.2835 19.325L24.5699 16.7068L25.5562 16.0645L27.576 19.1801L26.8246 19.6695L26.353 18.9419L25.4601 17.4051L26.1457 20.1115L25.6503 20.4341L23.4581 18.7058L24.4977 20.1501L24.9693 20.8777L24.22 21.3656L22.2002 18.25L23.1843 17.6091Z" fill="white"/>
<path d="M30.1174 16.0958C30.2329 16.3552 30.3002 16.6047 30.3194 16.8439C30.3387 17.0831 30.3149 17.3042 30.2483 17.5074C30.1815 17.7104 30.0753 17.891 29.9289 18.0485C29.7824 18.2062 29.6015 18.3332 29.3862 18.4297C29.1677 18.5274 28.9502 18.5786 28.7339 18.5831C28.5176 18.5877 28.3117 18.5472 28.1163 18.4612C27.9209 18.3751 27.741 18.2453 27.576 18.0711C27.411 17.8972 27.271 17.6804 27.1553 17.4209L27.0939 17.2835C26.9784 17.024 26.9107 16.7748 26.8907 16.5361C26.8707 16.2973 26.894 16.0762 26.9608 15.8732C27.0274 15.6702 27.1341 15.4892 27.2808 15.3305C27.4274 15.1716 27.6102 15.0434 27.8287 14.9455C28.0441 14.849 28.2599 14.7992 28.4757 14.7956C28.6918 14.7923 28.8972 14.8332 29.0926 14.9193C29.288 15.005 29.4684 15.1349 29.6341 15.3086C29.7998 15.4823 29.9403 15.6988 30.0558 15.9583L30.1174 16.0958ZM29.2241 16.325C29.0738 15.9878 28.9036 15.757 28.7135 15.6326C28.5233 15.5082 28.3236 15.4927 28.1142 15.5864C27.8957 15.6841 27.7714 15.8444 27.7415 16.0674C27.7115 16.2904 27.7717 16.5704 27.9219 16.9075L27.9851 17.0497C28.1332 17.3821 28.302 17.6132 28.4917 17.7426C28.6814 17.872 28.8846 17.8882 29.1016 17.7912C29.3094 17.6983 29.4294 17.5379 29.4618 17.3101C29.4941 17.0824 29.4358 16.8015 29.2873 16.4674L29.2241 16.325Z" fill="white"/>
<path d="M34.1371 16.7519L33.2833 16.9982L31.3828 15.1406L32.0208 17.3625L31.162 17.6103L30.1367 14.0396L30.9956 13.7918L32.8937 15.6502L32.2557 13.4282L33.1121 13.1812L34.1371 16.7519Z" fill="white"/>
<path d="M36.6199 14.7673L35.2309 14.9832L35.3662 15.8583L37.0066 15.6034L37.1119 16.2843L34.5884 16.6765L34.0205 13.0047L36.5493 12.6118L36.6548 13.2951L35.0094 13.5508L35.1292 14.3249L36.5181 14.109L36.6199 14.7673Z" fill="white"/>
<path d="M38.652 14.1103L39.2757 12.4737L40.2401 12.4387L39.1326 14.8613L39.1806 16.1951L38.2747 16.2279L38.2267 14.8942L36.9502 12.5578L37.9094 12.5231L38.652 14.1103Z" fill="white"/>
<path d="M41.7891 16.2446L42.3006 12.5645L43.6197 12.7486C43.8464 12.7803 44.0466 12.8294 44.2199 12.8956C44.3932 12.9619 44.5363 13.046 44.6489 13.1475C44.7616 13.2492 44.842 13.3681 44.8897 13.5044C44.9375 13.6407 44.9496 13.7948 44.9256 13.9668C44.914 14.0512 44.8933 14.131 44.8641 14.207C44.8346 14.2828 44.7947 14.3523 44.7438 14.4155C44.6929 14.4788 44.6311 14.5334 44.5577 14.5789C44.4847 14.6246 44.3984 14.6585 44.2993 14.6806C44.4046 14.7245 44.4913 14.7788 44.5593 14.8434C44.6275 14.9079 44.6801 14.9787 44.7174 15.0561C44.7545 15.1336 44.778 15.2146 44.7878 15.2992C44.7975 15.384 44.7963 15.4683 44.7847 15.5527C44.734 15.9167 44.5802 16.1731 44.323 16.3217C44.0658 16.4704 43.7095 16.5131 43.2538 16.4495L41.7891 16.2446ZM42.8918 14.8036L42.7691 15.6856L43.3491 15.7666C43.4383 15.779 43.5158 15.7788 43.5819 15.7657C43.6479 15.7526 43.7036 15.7297 43.748 15.6975C43.7929 15.6651 43.8279 15.6248 43.8536 15.577C43.879 15.5291 43.8959 15.4755 43.9042 15.4166C43.9139 15.3458 43.9144 15.2806 43.9056 15.221C43.8968 15.1614 43.8766 15.1093 43.8452 15.0645C43.8136 15.0197 43.7701 14.9823 43.7143 14.9523C43.6584 14.9222 43.5885 14.9013 43.5044 14.8894L42.8918 14.8036ZM42.9726 14.2222L43.434 14.2868C43.6275 14.3121 43.7701 14.2961 43.8624 14.2384C43.9543 14.1808 44.0097 14.0848 44.0285 13.9499C44.0499 13.7948 44.0209 13.6771 43.9413 13.5963C43.8616 13.5156 43.7228 13.4615 43.5243 13.4338L43.0905 13.3733L42.9726 14.2222Z" fill="white"/>
<path d="M47.216 16.6134L46.036 16.2846L45.6445 16.8959L44.7246 16.6396L47.0275 13.4248L47.8372 13.6504L48.1638 17.5981L47.2391 17.3403L47.216 16.6134ZM46.4271 15.6756L47.1949 15.8896L47.1542 14.5406L46.4271 15.6756Z" fill="white"/>
<path d="M51.503 17.6761C51.4191 17.8512 51.3117 17.998 51.18 18.1164C51.0483 18.2348 50.8993 18.3211 50.7324 18.3744C50.5657 18.428 50.3846 18.4476 50.1894 18.4335C49.9943 18.4195 49.7913 18.3673 49.5807 18.2772C49.3527 18.1798 49.1656 18.0545 49.0194 17.9015C48.8733 17.7483 48.7687 17.5737 48.7054 17.3773C48.6422 17.181 48.622 16.9661 48.6448 16.7329C48.6676 16.4994 48.7337 16.2544 48.8428 15.9976L48.9218 15.8122C49.0309 15.5556 49.1633 15.3391 49.3187 15.1623C49.4742 14.9855 49.6453 14.8521 49.8324 14.7618C50.0193 14.6715 50.2175 14.6255 50.4269 14.6233C50.6363 14.6214 50.8496 14.6667 51.0664 14.7596C51.2881 14.8545 51.4714 14.9693 51.6159 15.1041C51.7605 15.239 51.8689 15.3867 51.9409 15.5468C52.0129 15.7072 52.0505 15.8768 52.0538 16.0557C52.0569 16.2347 52.0288 16.416 51.9692 16.5994L51.1496 16.249C51.1869 16.1522 51.2099 16.0622 51.2187 15.979C51.2273 15.8959 51.218 15.8196 51.1902 15.7503C51.1624 15.6812 51.1165 15.6181 51.0521 15.5609C50.9877 15.5039 50.9009 15.4518 50.7918 15.4051C50.6903 15.3617 50.594 15.3426 50.5032 15.3484C50.4124 15.3538 50.3245 15.3867 50.2398 15.4468C50.1552 15.5068 50.0735 15.5961 49.9943 15.715C49.9151 15.8337 49.8369 15.984 49.7597 16.1656L49.6789 16.3557C49.6016 16.5373 49.5465 16.6969 49.5139 16.8346C49.4811 16.9723 49.4711 17.0924 49.4837 17.1948C49.4963 17.2973 49.5334 17.384 49.5947 17.4545C49.6558 17.5251 49.7428 17.5844 49.8552 17.6325C50.0442 17.7133 50.2075 17.7304 50.3456 17.684C50.4835 17.6375 50.5969 17.5186 50.6855 17.3273L51.503 17.6761Z" fill="white"/>
<path d="M53.0701 18.4352L52.5499 18.5958L52.0531 19.44L51.2832 18.9849L53.1663 15.7842L53.936 16.2392L53.1057 17.6504L53.6125 17.4019L54.8921 16.8044L55.8441 17.3669L53.9322 18.1448L53.9612 20.5676L53.0489 20.0285L53.0701 18.4352Z" fill="white"/>
<path d="M28.3115 65.7165C28.2438 65.7372 28.1579 65.7513 28.0548 65.7584C27.9514 65.7656 27.8342 65.7596 27.7032 65.7401C27.5722 65.7205 27.4294 65.6838 27.2751 65.6293C27.1206 65.575 26.9575 65.4959 26.7857 65.3925C26.5734 65.2645 26.4018 65.1144 26.2712 64.9424C26.1407 64.7704 26.0537 64.5819 26.0102 64.3773C25.9667 64.1724 25.9694 63.9541 26.0183 63.7225C26.0671 63.4909 26.1659 63.2513 26.3145 63.0032L26.4208 62.8262C26.5696 62.5784 26.735 62.3783 26.9173 62.2263C27.0999 62.0743 27.2905 61.9685 27.4897 61.9087C27.6889 61.8489 27.8919 61.8351 28.099 61.8663C28.3058 61.8977 28.5083 61.973 28.7061 62.0924C28.9257 62.2246 29.0983 62.365 29.2234 62.5129C29.3486 62.6609 29.4347 62.8143 29.4817 62.9737C29.5286 63.1331 29.54 63.2956 29.5157 63.4616C29.4915 63.6277 29.4397 63.795 29.3603 63.9634L28.6227 63.5191C28.6581 63.4333 28.6823 63.3525 28.6952 63.2768C28.708 63.201 28.7054 63.1293 28.688 63.0609C28.6704 62.9928 28.6367 62.9287 28.5865 62.8686C28.5361 62.8086 28.467 62.7519 28.3783 62.6985C28.2865 62.6432 28.1915 62.6127 28.0928 62.607C27.9942 62.6013 27.895 62.6223 27.795 62.6702C27.6949 62.718 27.5948 62.7933 27.4947 62.8958C27.3947 62.9982 27.2967 63.1295 27.2005 63.2899L27.0916 63.4714C26.9009 63.7892 26.8118 64.0606 26.8244 64.2858C26.837 64.5107 26.9597 64.6932 27.1924 64.8335C27.2535 64.8702 27.3105 64.899 27.3633 64.92C27.4161 64.9407 27.4645 64.9557 27.509 64.9646C27.5532 64.9734 27.5929 64.9774 27.6281 64.9767C27.663 64.976 27.693 64.9731 27.7177 64.9684L28.0141 64.474L27.4817 64.1531L27.7978 63.626L29.0962 64.4085L28.3115 65.7165Z" fill="white"/>
<path d="M32.954 64.1602L32.0381 66.4069C31.9558 66.6085 31.851 66.7733 31.7238 66.9013C31.5964 67.0292 31.4526 67.1214 31.2921 67.1779C31.1314 67.2344 30.9574 67.2553 30.7699 67.241C30.5823 67.2267 30.3872 67.1781 30.1844 67.095C29.9833 67.0128 29.8105 66.9106 29.6655 66.7888C29.521 66.6671 29.4104 66.5294 29.3346 66.3762C29.2588 66.223 29.2191 66.0557 29.216 65.8742C29.2129 65.6926 29.2526 65.5013 29.3346 65.2997L30.2503 63.053L31.0822 63.3937L30.1666 65.6402C30.0798 65.853 30.0625 66.025 30.1143 66.1565C30.1661 66.288 30.2762 66.3881 30.4442 66.4569C30.6156 66.527 30.7644 66.5329 30.8909 66.4743C31.0173 66.416 31.1241 66.2804 31.2106 66.0676L32.1263 63.8211L32.954 64.1602Z" fill="white"/>
<path d="M34.5713 67.6846L33.3806 67.3971L33.0103 68.0218L32.082 67.7976L34.2725 64.5046L35.0893 64.7019L35.5523 68.636L34.6193 68.4104L34.5713 67.6846ZM33.7505 66.775L34.5252 66.9622L34.4377 65.6154L33.7505 66.775Z" fill="white"/>
<path d="M37.6525 67.5187L37.1704 67.4773L37.0584 68.7841L36.168 68.7074L36.4853 65.0054L37.9389 65.1305C38.1521 65.1488 38.3428 65.1895 38.5113 65.2529C38.6794 65.3161 38.8206 65.3999 38.9344 65.5045C39.0481 65.6091 39.1315 65.7337 39.1847 65.8781C39.2377 66.0227 39.2565 66.1864 39.2408 66.3696C39.2285 66.5119 39.2026 66.6374 39.1626 66.7458C39.1227 66.8545 39.0709 66.9481 39.0069 67.027C38.943 67.1061 38.8688 67.173 38.784 67.2281C38.6991 67.2831 38.6064 67.3291 38.5063 67.3667L39.1496 68.9256L39.1462 68.9638L38.1925 68.8818L37.6525 67.5187ZM37.2296 66.7882L37.7927 66.8366C37.9617 66.8511 38.0929 66.8175 38.1859 66.7361C38.2788 66.6543 38.3321 66.5338 38.3459 66.3746C38.3594 66.2155 38.3271 66.0866 38.2484 65.9884C38.17 65.8903 38.0471 65.834 37.8797 65.8195L37.3163 65.7709L37.2296 66.7882Z" fill="white"/>
<path d="M41.9622 68.1411L40.7399 68.2188L40.5702 68.925L39.6172 68.9858L40.7396 65.1911L41.578 65.1379L43.1797 68.7594L42.2218 68.8202L41.9622 68.1411ZM40.9096 67.515L41.705 67.4645L41.2246 66.2037L40.9096 67.515Z" fill="white"/>
<path d="M46.8267 67.972L45.9596 68.1669L44.1727 66.1991L44.6778 68.4552L43.8057 68.6512L42.9941 65.0257L43.8661 64.8296L45.6505 66.7981L45.1454 64.542L46.0149 64.3464L46.8267 67.972Z" fill="white"/>
<path d="M49.2454 63.8415L48.2078 64.2444L49.2982 67.0641L48.4648 67.3879L47.3744 64.5682L46.3558 64.9637L46.1064 64.3187L48.9958 63.1963L49.2454 63.8415Z" fill="white"/>
<path d="M52.201 63.8527L50.9709 64.5344L51.3985 65.3094L52.8512 64.5043L53.184 65.1074L50.9493 66.3461L49.1553 63.0943L51.3947 61.8533L51.7285 62.4584L50.2716 63.2659L50.6498 63.9516L51.8797 63.2699L52.201 63.8527Z" fill="white"/>
<path d="M54.6598 62.1102L53.5257 62.942L54.0475 63.6565L55.3872 62.674L55.793 63.2301L53.7323 64.7415L51.543 61.7429L53.6082 60.2283L54.0156 60.7863L52.6719 61.7719L53.1335 62.4043L54.2678 61.5725L54.6598 62.1102Z" fill="white"/>
<path d="M43.1738 41.7092H45.3988L47.5412 45.8325H47.633L49.7754 41.7092H52.0004L48.5735 47.8988V51.2834H46.6008V47.8988L43.1738 41.7092Z" fill="#1A1A1A"/>
<path d="M36.8972 51.2834H34.7686L38.012 41.7092H40.5719L43.8108 51.2834H41.6821L39.3286 43.8971H39.2552L36.8972 51.2834ZM36.7642 47.5201H41.7922V49.1003H36.7642V47.5201Z" fill="#1A1A1A"/>
<path d="M29.9976 51.2832H26.667V41.709H30.0251C30.9702 41.709 31.7837 41.9007 32.4657 42.284C33.1478 42.6642 33.6723 43.2112 34.0393 43.9249C34.4094 44.6386 34.5944 45.4925 34.5944 46.4867C34.5944 47.484 34.4094 48.3411 34.0393 49.0579C33.6723 49.7748 33.1447 50.3248 32.4566 50.7082C31.7715 51.0915 30.9518 51.2832 29.9976 51.2832ZM28.6534 49.5488H29.915C30.5022 49.5488 30.9962 49.4428 31.3968 49.2309C31.8005 49.0159 32.1033 48.6839 32.3052 48.2352C32.5101 47.7832 32.6125 47.2004 32.6125 46.4867C32.6125 45.7793 32.5101 45.2011 32.3052 44.7523C32.1033 44.3036 31.8021 43.9732 31.4014 43.7613C31.0008 43.5493 30.5068 43.4434 29.9196 43.4434H28.6534V49.5488Z" fill="#1A1A1A"/>
<path d="M38.3311 35.1193V33.5251L42.2535 27.228H43.6022V29.4346H42.804L40.3313 33.4223V33.4971H45.9052V35.1193H38.3311ZM42.8407 36.8022V34.6331L42.8774 33.9272V27.228H44.74V36.8022H42.8407Z" fill="#1A1A1A"/>
<path d="M36.4997 27.228V36.8022H34.5133V29.1494H34.4582L32.3066 30.5238V28.7287L34.6326 27.228H36.4997Z" fill="#1A1A1A"/>
<path d="M65.6625 32.9114L66.6117 34.4867L68.4444 34.5963L67.2428 35.9877L67.7051 37.7687L66.0136 37.0532L64.4666 38.0446L64.6228 36.2107L63.2041 35.0426L64.9921 34.6247L65.6625 32.9114Z" fill="white"/>
<path d="M65.6109 49.022L66.609 47.4774L68.4444 47.4259L67.2872 45.9971L67.8054 44.2316L66.092 44.8933L64.5771 43.8538L64.6752 45.6912L63.2207 46.8143L64.995 47.2885L65.6109 49.022Z" fill="white"/>
<path d="M66.4231 42.7258C67.5046 42.7258 68.3813 41.847 68.3813 40.763C68.3813 39.679 67.5046 38.8003 66.4231 38.8003C65.3416 38.8003 64.4648 39.679 64.4648 40.763C64.4648 41.847 65.3416 42.7258 66.4231 42.7258Z" fill="white"/>
<path d="M14.027 32.9114L13.0781 34.4867L11.2451 34.5963L12.4467 35.9877L11.9844 37.7687L13.6759 37.0532L15.2229 38.0446L15.067 36.2107L16.4854 35.0426L14.6974 34.6247L14.027 32.9114Z" fill="white"/>
<path d="M14.0786 49.022L13.0805 47.4774L11.2451 47.4259L12.4025 45.9971L11.8841 44.2316L13.5975 44.8933L15.1126 43.8538L15.0142 45.6912L16.4688 46.8143L14.6947 47.2885L14.0786 49.022Z" fill="white"/>
<path d="M13.2659 42.7258C14.3474 42.7258 15.2241 41.847 15.2241 40.763C15.2241 39.679 14.3474 38.8003 13.2659 38.8003C12.1844 38.8003 11.3076 39.679 11.3076 40.763C11.3076 41.847 12.1844 42.7258 13.2659 42.7258Z" fill="white"/>
<defs>
<linearGradient id="paint0_linear_691_16868" x1="0.421851" y1="40.5001" x2="79.5786" y2="40.5001" gradientUnits="userSpaceOnUse">
<stop stop-color="#DDBC69"/>
<stop offset="0.1416" stop-color="#D0AA51"/>
<stop offset="0.3351" stop-color="#BF9134"/>
<stop offset="0.5538" stop-color="#DDC377"/>
<stop offset="0.7186" stop-color="#FAF4C0"/>
<stop offset="1" stop-color="#FAD485"/>
</linearGradient>
</defs>
</svg>
