<svg aria-hidden="true" xmlns="http://www.w3.org/2000/svg" xmlns:xlink="http://www.w3.org/1999/xlink"><symbol viewBox="0 0 18 22" id="bag-fill" xmlns="http://www.w3.org/2000/svg">
<path fill-rule="evenodd" clip-rule="evenodd" d="M9 1.67735C7.2248 1.67735 5.78571 3.1938 5.78571 5.06445V5.74186H12.2143V5.06445C12.2143 3.1938 10.7752 1.67735 9 1.67735ZM13.5 5.74186V5.06445C13.5 2.44555 11.4853 0.32251 9 0.32251C6.51472 0.32251 4.5 2.44555 4.5 5.06445V5.74186H0V19.2903C0 20.7868 1.15127 21.9999 2.57143 21.9999H15.4286C16.8487 21.9999 18 20.7868 18 19.2903V5.74186H13.5Z"/>
</symbol><symbol viewBox="0 0 24 24" id="inst" xmlns="http://www.w3.org/2000/svg">
<path d="M12 2.16094C15.2063 2.16094 15.5859 2.175 16.8469 2.23125C18.0188 2.28281 18.6516 2.47969 19.0734 2.64375C19.6313 2.85938 20.0344 3.12188 20.4516 3.53906C20.8734 3.96094 21.1313 4.35938 21.3469 4.91719C21.5109 5.33906 21.7078 5.97656 21.7594 7.14375C21.8156 8.40937 21.8297 8.78906 21.8297 11.9906C21.8297 15.1969 21.8156 15.5766 21.7594 16.8375C21.7078 18.0094 21.5109 18.6422 21.3469 19.0641C21.1313 19.6219 20.8687 20.025 20.4516 20.4422C20.0297 20.8641 19.6313 21.1219 19.0734 21.3375C18.6516 21.5016 18.0141 21.6984 16.8469 21.75C15.5813 21.8062 15.2016 21.8203 12 21.8203C8.79375 21.8203 8.41406 21.8062 7.15313 21.75C5.98125 21.6984 5.34844 21.5016 4.92656 21.3375C4.36875 21.1219 3.96563 20.8594 3.54844 20.4422C3.12656 20.0203 2.86875 19.6219 2.65313 19.0641C2.48906 18.6422 2.29219 18.0047 2.24063 16.8375C2.18438 15.5719 2.17031 15.1922 2.17031 11.9906C2.17031 8.78438 2.18438 8.40469 2.24063 7.14375C2.29219 5.97187 2.48906 5.33906 2.65313 4.91719C2.86875 4.35938 3.13125 3.95625 3.54844 3.53906C3.97031 3.11719 4.36875 2.85938 4.92656 2.64375C5.34844 2.47969 5.98594 2.28281 7.15313 2.23125C8.41406 2.175 8.79375 2.16094 12 2.16094ZM12 0C8.74219 0 8.33438 0.0140625 7.05469 0.0703125C5.77969 0.126563 4.90313 0.332812 4.14375 0.628125C3.35156 0.9375 2.68125 1.34531 2.01563 2.01562C1.34531 2.68125 0.9375 3.35156 0.628125 4.13906C0.332812 4.90313 0.126563 5.775 0.0703125 7.05C0.0140625 8.33437 0 8.74219 0 12C0 15.2578 0.0140625 15.6656 0.0703125 16.9453C0.126563 18.2203 0.332812 19.0969 0.628125 19.8563C0.9375 20.6484 1.34531 21.3188 2.01563 21.9844C2.68125 22.65 3.35156 23.0625 4.13906 23.3672C4.90313 23.6625 5.775 23.8687 7.05 23.925C8.32969 23.9812 8.7375 23.9953 11.9953 23.9953C15.2531 23.9953 15.6609 23.9812 16.9406 23.925C18.2156 23.8687 19.0922 23.6625 19.8516 23.3672C20.6391 23.0625 21.3094 22.65 21.975 21.9844C22.6406 21.3188 23.0531 20.6484 23.3578 19.8609C23.6531 19.0969 23.8594 18.225 23.9156 16.95C23.9719 15.6703 23.9859 15.2625 23.9859 12.0047C23.9859 8.74688 23.9719 8.33906 23.9156 7.05938C23.8594 5.78438 23.6531 4.90781 23.3578 4.14844C23.0625 3.35156 22.6547 2.68125 21.9844 2.01562C21.3188 1.35 20.6484 0.9375 19.8609 0.632812C19.0969 0.3375 18.225 0.13125 16.95 0.075C15.6656 0.0140625 15.2578 0 12 0Z"/>
<path d="M12 5.83594C8.59688 5.83594 5.83594 8.59688 5.83594 12C5.83594 15.4031 8.59688 18.1641 12 18.1641C15.4031 18.1641 18.1641 15.4031 18.1641 12C18.1641 8.59688 15.4031 5.83594 12 5.83594ZM12 15.9984C9.79219 15.9984 8.00157 14.2078 8.00157 12C8.00157 9.79219 9.79219 8.00156 12 8.00156C14.2078 8.00156 15.9984 9.79219 15.9984 12C15.9984 14.2078 14.2078 15.9984 12 15.9984Z"/>
<path d="M19.8469 5.59238C19.8469 6.38926 19.2 7.03145 18.4078 7.03145C17.6109 7.03145 16.9688 6.38457 16.9688 5.59238C16.9688 4.79551 17.6156 4.15332 18.4078 4.15332C19.2 4.15332 19.8469 4.8002 19.8469 5.59238Z"/>
</symbol><symbol viewBox="0 0 24 24" id="negative" xmlns="http://www.w3.org/2000/svg">
<g clip-path="url(#cclip0_14_181)">
<path d="M13.5374 11.8277C13.5374 15.5984 10.5069 18.6552 6.76884 18.6552C3.03073 18.6552 0 15.5977 0 11.8277C0 8.05767 3.0305 5 6.76884 5C10.5072 5 13.5374 8.05698 13.5374 11.8277Z"/>
<path d="M20.9629 11.8277C20.9629 15.377 19.4476 18.2554 17.5785 18.2554C15.7093 18.2554 14.1941 15.377 14.1941 11.8277C14.1941 8.27834 15.7091 5.3999 17.5782 5.3999C19.4474 5.3999 20.9627 8.27742 20.9627 11.8277"/>
<path d="M24.0003 11.8276C24.0003 15.0069 23.4674 17.5858 22.8099 17.5858C22.1525 17.5858 21.6199 15.0076 21.6199 11.8276C21.6199 8.64758 22.1527 6.06934 22.8099 6.06934C23.4672 6.06934 24.0003 8.64735 24.0003 11.8276Z"/>
</g>
<defs>
<clipPath id="cclip0_14_181">
<rect width="24" height="24"/>
</clipPath>
</defs>
</symbol><symbol viewBox="0 0 62 59" id="scroll-up-arrow" xmlns="http://www.w3.org/2000/svg">
<path fill-rule="evenodd" clip-rule="evenodd" d="M57.2006 29.5C57.2006 15.2441 45.2495 3.6875 30.507 3.6875C15.7645 3.6875 3.81338 15.2441 3.81338 29.5C3.81338 43.7558 15.7645 55.3125 30.507 55.3125C45.2495 55.3125 57.2006 43.7558 57.2006 29.5ZM61.014 29.5C61.014 13.2076 47.3556 5.64709e-07 30.507 3.63792e-07C13.6585 1.62875e-07 5.46069e-07 13.2076 3.51784e-07 29.5C1.57499e-07 45.7924 13.6585 59 30.507 59C47.3556 59 61.014 45.7924 61.014 29.5Z"/>
<path fill-rule="evenodd" clip-rule="evenodd" d="M31.1084 39C31.779 39 32.3227 38.4404 32.3227 37.75L32.3227 23.2678L37.5355 28.6339C38.0097 29.122 38.7785 29.122 39.2527 28.6339C39.7269 28.1457 39.7269 27.3543 39.2527 26.8661L31.967 19.3661C31.4928 18.878 30.724 18.878 30.2498 19.3661L22.9641 26.8661C22.4898 27.3543 22.4898 28.1457 22.9641 28.6339C23.4383 29.122 24.2071 29.122 24.6813 28.6339L29.8941 23.2678L29.8941 37.75C29.8941 38.4404 30.4378 39 31.1084 39Z"/>
</symbol><symbol viewBox="0 0 20 17" id="slider-arrow" xmlns="http://www.w3.org/2000/svg">
<path fill-rule="evenodd" clip-rule="evenodd" d="M20 8.5C20 9.17063 19.4404 9.71429 18.75 9.71429L4.26777 9.71429L9.63388 14.9271C10.122 15.4013 10.122 16.1701 9.63388 16.6443C9.14573 17.1186 8.35427 17.1186 7.86612 16.6443L0.366116 9.35863C-0.12204 8.88442 -0.12204 8.11558 0.366116 7.64137L7.86612 0.355656C8.35427 -0.118552 9.14573 -0.118552 9.63388 0.355656C10.122 0.829864 10.122 1.59871 9.63388 2.07292L4.26777 7.28571L18.75 7.28571C19.4404 7.28571 20 7.82937 20 8.5Z"/>
</symbol><symbol viewBox="0 0 21 24" id="tiktok" xmlns="http://www.w3.org/2000/svg">
<path d="M15.0727 0H11.028V16.3478C11.028 18.2957 9.47234 19.8957 7.53641 19.8957C5.60048 19.8957 4.04484 18.2957 4.04484 16.3478C4.04484 14.4348 5.56592 12.8695 7.43272 12.8V8.69567C3.31887 8.7652 0.000146866 12.1391 0.000146866 16.3478C0.000146866 20.5913 3.388 24 7.57099 24C11.7539 24 15.1418 20.5565 15.1418 16.3478V7.9652C16.6629 9.07827 18.5296 9.73913 20.5001 9.77393V5.66957C17.458 5.56522 15.0727 3.06087 15.0727 0Z"/>
</symbol><symbol viewBox="0 0 24 20" id="twitter" xmlns="http://www.w3.org/2000/svg">
<path d="M7.55016 19.7502C16.6045 19.7502 21.5583 12.2469 21.5583 5.7421C21.5583 5.53117 21.5536 5.31554 21.5442 5.1046C22.5079 4.4077 23.3395 3.5445 24 2.55554C23.1025 2.95484 22.1496 3.21563 21.1739 3.32898C22.2013 2.71315 22.9705 1.74572 23.3391 0.606011C22.3726 1.1788 21.3156 1.58286 20.2134 1.80085C19.4708 1.0118 18.489 0.48936 17.4197 0.314295C16.3504 0.13923 15.2532 0.321295 14.2977 0.832341C13.3423 1.34339 12.5818 2.15495 12.1338 3.14156C11.6859 4.12816 11.5754 5.23486 11.8195 6.29054C9.86249 6.19233 7.94794 5.68395 6.19998 4.79834C4.45203 3.91274 2.90969 2.66968 1.67297 1.14976C1.0444 2.23349 0.852057 3.51589 1.13503 4.73633C1.418 5.95678 2.15506 7.02369 3.19641 7.72023C2.41463 7.69541 1.64998 7.48492 0.965625 7.10617V7.1671C0.964925 8.30439 1.3581 9.40683 2.07831 10.287C2.79852 11.1672 3.80132 11.7708 4.91625 11.9952C4.19206 12.1934 3.43198 12.2222 2.69484 12.0796C3.00945 13.0577 3.62157 13.9131 4.44577 14.5266C5.26997 15.14 6.26512 15.4808 7.29234 15.5015C5.54842 16.8714 3.39417 17.6144 1.17656 17.6109C0.783287 17.6103 0.390399 17.5861 0 17.5387C2.25286 18.984 4.87353 19.7516 7.55016 19.7502Z"/>
</symbol><symbol viewBox="0 0 12 8" id="vertical-slider-arrow" xmlns="http://www.w3.org/2000/svg">
<path fill-rule="evenodd" clip-rule="evenodd" d="M9.00892e-08 5.939L2 8L6 4L10 8L12 5.939L6 -2.62268e-07L9.00892e-08 5.939Z"/>
</symbol></svg>