<svg width="100" height="28" viewBox="0 0 100 28" fill="none" xmlns="http://www.w3.org/2000/svg">
<g clip-path="url(#clip0_561_7143)">
<mask id="mask0_561_7143" style="mask-type:luminance" maskUnits="userSpaceOnUse" x="0" y="0" width="100" height="28">
<path d="M0 0H100V28H0V0Z" fill="white"/>
</mask>
<g mask="url(#mask0_561_7143)">
<path d="M25.9061 7.67969H35.9018V9.63589H31.9661V20.6634H29.8089V9.63589H25.8896L25.9061 7.67969ZM35.4736 11.2632H37.318V13.0809H37.3509C37.4168 12.8212 37.5321 12.5789 37.6967 12.3365C37.8614 12.0941 38.059 11.8691 38.306 11.6787C38.5366 11.4709 38.8 11.3151 39.0964 11.1939C39.3764 11.0728 39.6728 11.0035 39.9692 11.0035C40.1998 11.0035 40.3644 11.0208 40.4468 11.0208C40.5291 11.0381 40.6279 11.0555 40.7103 11.0555V13.0463C40.5785 13.0117 40.4303 12.9943 40.2821 12.977C40.1339 12.9597 40.0022 12.9424 39.8539 12.9424C39.5246 12.9424 39.2117 13.0117 38.9153 13.1502C38.6189 13.2886 38.3719 13.4964 38.1413 13.7561C37.9273 14.033 37.7461 14.362 37.6144 14.7601C37.4827 15.1583 37.4168 15.6257 37.4168 16.1451V20.6115H35.4407L35.4736 11.2632ZM49.7673 20.6634H47.8241V19.3477H47.7912C47.5442 19.8324 47.1819 20.196 46.7044 20.4903C46.2268 20.7846 45.7328 20.9231 45.2388 20.9231C44.0696 20.9231 43.2133 20.6288 42.6863 20.0056C42.1594 19.3996 41.8959 18.4648 41.8959 17.2357V11.2632H43.872V17.028C43.872 17.8589 44.0202 18.4475 44.3331 18.7764C44.6295 19.1227 45.0576 19.2958 45.601 19.2958C46.0127 19.2958 46.3585 19.2265 46.6385 19.088C46.9184 18.9495 47.149 18.7764 47.3137 18.5514C47.4949 18.3263 47.6101 18.0493 47.6924 17.7377C47.7747 17.4261 47.8077 17.0799 47.8077 16.7163V11.2632H49.7838V20.6634H49.7673ZM53.1266 17.6512C53.1925 18.2571 53.4066 18.6726 53.7853 18.9322C54.1641 19.1746 54.6251 19.2958 55.1521 19.2958C55.3332 19.2958 55.5473 19.2785 55.7779 19.2438C56.0084 19.2092 56.239 19.1573 56.4366 19.0707C56.6506 18.9842 56.8153 18.863 56.947 18.6899C57.0788 18.5168 57.1447 18.309 57.1282 18.0493C57.1117 17.7897 57.0294 17.5646 56.8482 17.3915C56.6671 17.2184 56.453 17.0972 56.1895 16.976C55.9261 16.8721 55.6132 16.7856 55.2674 16.7163C54.9216 16.6471 54.5758 16.5605 54.2135 16.474C53.8512 16.3874 53.4889 16.2836 53.1431 16.1624C52.7973 16.0412 52.5009 15.8854 52.2209 15.6603C51.9574 15.4526 51.7269 15.1929 51.5787 14.864C51.414 14.5351 51.3317 14.1542 51.3317 13.6695C51.3317 13.1502 51.447 12.7347 51.694 12.3884C51.9245 12.0422 52.2374 11.7652 52.5997 11.5575C52.9619 11.3497 53.3736 11.1939 53.8183 11.1074C54.2629 11.0208 54.691 10.9862 55.0862 10.9862C55.5473 10.9862 55.9919 11.0381 56.4036 11.142C56.8153 11.2459 57.2106 11.4017 57.5399 11.644C57.8857 11.8691 58.1656 12.1807 58.3797 12.5442C58.6102 12.9078 58.742 13.3579 58.8079 13.8772H56.7494C56.6506 13.3752 56.4366 13.0463 56.1072 12.8732C55.7614 12.7001 55.3826 12.6135 54.938 12.6135C54.8063 12.6135 54.6252 12.6308 54.444 12.6481C54.2464 12.6827 54.0817 12.7174 53.9006 12.7866C53.7359 12.8559 53.5877 12.9597 53.4724 13.0809C53.3572 13.2021 53.2913 13.3752 53.2913 13.5829C53.2913 13.8426 53.3736 14.033 53.5383 14.1888C53.703 14.3447 53.9171 14.4658 54.197 14.587C54.4605 14.6909 54.7734 14.7774 55.1192 14.8467C55.465 14.9159 55.8273 15.0025 56.1895 15.0891C56.5518 15.1756 56.8976 15.2795 57.2435 15.4007C57.5893 15.5218 57.9022 15.6777 58.1656 15.9027C58.4291 16.1104 58.6596 16.3701 58.8243 16.6817C58.989 16.9933 59.0714 17.3915 59.0714 17.8416C59.0714 18.3956 58.9561 18.863 58.709 19.2612C58.462 19.642 58.1493 19.9709 57.7704 20.2133C57.3917 20.4557 56.947 20.6288 56.486 20.75C56.0084 20.8538 55.5473 20.9231 55.0862 20.9231C54.5263 20.9231 53.9994 20.8538 53.5218 20.7153C53.0443 20.5768 52.6161 20.3691 52.2703 20.1094C51.9245 19.8324 51.6446 19.5035 51.447 19.088C51.2493 18.6899 51.1341 18.2051 51.1176 17.6339H53.1102V17.6512H53.1266ZM59.6312 11.2632H61.1298V8.42409H63.1059V11.2459H64.8843V12.7866H63.1059V17.807C63.1059 18.032 63.1223 18.2051 63.1388 18.3783C63.1552 18.5341 63.2047 18.6726 63.2541 18.7764C63.32 18.8803 63.4188 18.9669 63.534 19.0188C63.6657 19.0707 63.8304 19.1054 64.0609 19.1054C64.1927 19.1054 64.341 19.1053 64.4726 19.088C64.6045 19.0707 64.7526 19.0534 64.8843 19.0188V20.6288C64.6702 20.6634 64.4562 20.6807 64.2421 20.698C64.028 20.7326 63.8304 20.7326 63.5999 20.7326C63.0729 20.7326 62.6613 20.6807 62.3484 20.5768C62.0355 20.473 61.7884 20.3172 61.6073 20.1267C61.4262 19.919 61.3109 19.6766 61.245 19.3823C61.1791 19.088 61.1462 18.7245 61.1298 18.3436V12.8039H59.6312V11.2286V11.2632ZM66.2676 11.2632H68.1284V12.5442H68.1613C68.4412 11.9903 68.82 11.6094 69.314 11.3671C69.808 11.1247 70.335 11.0035 70.9278 11.0035C71.6359 11.0035 72.2452 11.1247 72.7722 11.4017C73.2991 11.6614 73.7273 12.0076 74.0731 12.475C74.4189 12.9251 74.6824 13.4618 74.847 14.0677C75.0117 14.6736 75.1105 15.3314 75.1105 16.0066C75.1105 16.6471 75.0282 17.253 74.88 17.8416C74.7153 18.4302 74.4848 18.9669 74.1719 19.417C73.859 19.8671 73.4638 20.2306 72.9698 20.5076C72.4757 20.7846 71.9159 20.9231 71.2572 20.9231C70.9772 20.9231 70.6808 20.8884 70.4009 20.8365C70.1209 20.7846 69.841 20.698 69.5775 20.5768C69.314 20.4557 69.067 20.2998 68.8529 20.1094C68.6224 19.919 68.4412 19.6939 68.293 19.4516H68.2601V24.143H66.284V11.2632H66.2676ZM73.1674 15.9719C73.1674 15.5565 73.118 15.141 73.0027 14.7428C72.9039 14.3447 72.7392 13.9984 72.5251 13.6868C72.3111 13.3752 72.0476 13.1328 71.7512 12.9424C71.4383 12.752 71.076 12.6654 70.6808 12.6654C69.8574 12.6654 69.2317 12.9597 68.8035 13.5656C68.3918 14.1715 68.1778 14.9852 68.1778 15.9893C68.1778 16.474 68.2272 16.9068 68.3424 17.3049C68.4577 17.7031 68.6059 18.0493 68.8365 18.3436C69.0505 18.6379 69.314 18.863 69.6269 19.0361C69.9398 19.2092 70.2856 19.2958 70.6973 19.2958C71.1585 19.2958 71.5206 19.1919 71.8335 19.0015C72.1465 18.8111 72.3934 18.5514 72.6075 18.2571C72.8051 17.9455 72.9533 17.5992 73.0356 17.2011C73.118 16.7856 73.1674 16.3874 73.1674 15.9719ZM76.642 7.67969H78.6181V9.63589H76.642V7.67969ZM76.642 11.2632H78.6181V20.6634H76.642V11.2632ZM80.3801 7.67969H82.3561V20.6634H80.3801V7.67969ZM88.3832 20.9231C87.6751 20.9231 87.0329 20.8019 86.473 20.5422C85.9131 20.2825 85.452 19.9536 85.0568 19.5208C84.678 19.088 84.3816 18.5514 84.184 17.9455C83.9864 17.3396 83.8711 16.6644 83.8711 15.9546C83.8711 15.2449 83.9699 14.587 84.184 13.9811C84.3816 13.3752 84.678 12.8559 85.0568 12.4058C85.4355 11.973 85.9131 11.6267 86.473 11.3844C87.0329 11.142 87.6751 11.0035 88.3832 11.0035C89.0913 11.0035 89.7336 11.1247 90.2934 11.3844C90.8533 11.6267 91.3144 11.973 91.7096 12.4058C92.0883 12.8385 92.3848 13.3752 92.5824 13.9811C92.78 14.587 92.8952 15.2449 92.8952 15.9546C92.8952 16.6817 92.7964 17.3396 92.5824 17.9455C92.3683 18.5514 92.0883 19.0707 91.7096 19.5208C91.3308 19.9536 90.8533 20.2998 90.2934 20.5422C89.7336 20.7846 89.1078 20.9231 88.3832 20.9231ZM88.3832 19.2785C88.8113 19.2785 89.2066 19.1746 89.5194 18.9842C89.8488 18.7937 90.0958 18.5341 90.3099 18.2225C90.5239 17.9108 90.6721 17.5473 90.771 17.1664C90.8699 16.7683 90.9192 16.3701 90.9192 15.9546C90.9192 15.5565 90.8699 15.1583 90.771 14.7601C90.6721 14.362 90.5239 14.0157 90.3099 13.7041C90.0958 13.3925 89.8323 13.1502 89.5194 12.9597C89.1901 12.7693 88.8113 12.6654 88.3832 12.6654C87.955 12.6654 87.5598 12.7693 87.2469 12.9597C86.9176 13.1502 86.6706 13.4098 86.4565 13.7041C86.2424 14.0157 86.0942 14.362 85.9954 14.7601C85.8966 15.1583 85.8472 15.5565 85.8472 15.9546C85.8472 16.3701 85.8966 16.7683 85.9954 17.1664C86.0942 17.5646 86.2424 17.9108 86.4565 18.2225C86.6706 18.5341 86.9341 18.7937 87.2469 18.9842C87.5763 19.1919 87.955 19.2785 88.3832 19.2785ZM93.4881 11.2632H94.9866V8.42409H96.9627V11.2459H98.7411V12.7866H96.9627V17.807C96.9627 18.032 96.9791 18.2051 96.9956 18.3783C97.0121 18.5341 97.0615 18.6726 97.1109 18.7764C97.1768 18.8803 97.2757 18.9669 97.3908 19.0188C97.5226 19.0707 97.6872 19.1054 97.9178 19.1054C98.0495 19.1054 98.1977 19.1053 98.3295 19.088C98.4612 19.0707 98.6094 19.0534 98.7411 19.0188V20.6288C98.5271 20.6634 98.313 20.6807 98.0989 20.698C97.8848 20.7326 97.6872 20.7326 97.4567 20.7326C96.9297 20.7326 96.5181 20.6807 96.2052 20.5768C95.8923 20.473 95.6453 20.3172 95.4641 20.1267C95.2831 19.919 95.1677 19.6766 95.1019 19.3823C95.036 19.088 95.0032 18.7245 94.9866 18.3436V12.8039H93.4881V11.2286V11.2632Z" fill="#1A1A1A"/>
<path d="M23.601 9.6797H14.5605L11.7775 0.643066L8.97807 9.6797L-0.0625 9.6624L7.24899 15.2541L4.44955 24.2907L11.761 18.6991L19.0725 24.2907L16.2895 15.2541L23.601 9.6797Z" fill="#00B67A"/>
<path d="M16.9151 18.2972L16.2894 16.2544L11.7773 19.6994L16.9151 18.2972Z" fill="#005128"/>
</g>
</g>
<defs>
<clipPath id="clip0_561_7143">
<rect width="100" height="28" fill="white"/>
</clipPath>
</defs>
</svg>
