<svg width="60" height="60" viewBox="0 0 60 60" fill="none" xmlns="http://www.w3.org/2000/svg">
<path d="M51.5179 6.426L35.8189 22.125V19.818C35.8189 19.0151 35.1673 18.3635 34.3643 18.3635C33.5614 18.3635 32.9098 19.0151 32.9098 19.818V25.6362C32.9098 25.7315 32.92 25.8268 32.9382 25.9213C32.9469 25.965 32.9629 26.005 32.9752 26.0472C32.9898 26.0959 33.0007 26.1453 33.0203 26.1926C33.0407 26.2428 33.0691 26.2879 33.0952 26.3352C33.1149 26.3708 33.1309 26.4086 33.1542 26.4428C33.2603 26.6021 33.3978 26.7395 33.5571 26.8464C33.5927 26.8704 33.632 26.8872 33.6698 26.9075C33.7156 26.9323 33.7592 26.9599 33.808 26.9803C33.856 26.9999 33.9062 27.0115 33.9556 27.0261C33.9971 27.0384 34.0371 27.0544 34.08 27.0632C34.1738 27.0806 34.2691 27.0908 34.3643 27.0908H40.1825C40.9855 27.0908 41.6371 26.4392 41.6371 25.6362C41.6371 24.8333 40.9855 24.1817 40.1825 24.1817H37.8756L53.5746 8.48274C54.1426 7.91473 54.1426 6.994 53.5746 6.426C53.0073 5.858 52.0851 5.858 51.5179 6.426Z" fill="#0096EB"/>
<path d="M22.1261 24.1817H19.8191C19.0162 24.1817 18.3646 24.8333 18.3646 25.6362C18.3646 26.4392 19.0162 27.0908 19.8191 27.0908H25.6373C25.7326 27.0908 25.8279 27.0806 25.9224 27.0624C25.9653 27.0537 26.0053 27.0377 26.0468 27.0253C26.0963 27.0108 26.1464 26.9992 26.1944 26.9795C26.2424 26.9592 26.2868 26.9323 26.3326 26.9068C26.3704 26.8864 26.409 26.8697 26.4454 26.8457C26.6046 26.7388 26.7421 26.6021 26.8483 26.4421C26.8715 26.4079 26.8868 26.3701 26.9072 26.3344C26.9333 26.2872 26.9617 26.2421 26.9821 26.1919C27.0017 26.1446 27.0126 26.0952 27.0272 26.0464C27.0395 26.0042 27.0555 25.9642 27.0643 25.9206C27.0817 25.8268 27.0919 25.7315 27.0919 25.6362V19.818C27.0919 19.0151 26.4403 18.3635 25.6373 18.3635C24.8344 18.3635 24.1828 19.0151 24.1828 19.818V22.125L8.48383 6.426C7.91656 5.858 6.99437 5.858 6.4271 6.426C5.8591 6.994 5.8591 7.91473 6.4271 8.48274L22.1261 24.1817Z" fill="#0096EB"/>
<path d="M7.4551 53.9999C7.82746 53.9999 8.19983 53.8581 8.48346 53.5737L24.1824 37.8748V40.1817C24.1824 40.9846 24.8341 41.6362 25.637 41.6362C26.4399 41.6362 27.0915 40.9846 27.0915 40.1817V34.3635C27.0915 34.2682 27.0813 34.1729 27.0632 34.0784C27.0544 34.0348 27.0384 33.9948 27.0261 33.9526C27.0115 33.9038 27.0006 33.8544 26.981 33.8071C26.9606 33.7569 26.9323 33.7118 26.9061 33.6646C26.8864 33.6289 26.8704 33.5911 26.8472 33.5569C26.7403 33.3969 26.6035 33.2602 26.4435 33.1533C26.4093 33.1307 26.373 33.1155 26.3373 33.0958C26.2901 33.0697 26.2435 33.0406 26.1926 33.0195C26.1461 33.0006 26.0981 32.9897 26.0508 32.9751C26.0079 32.962 25.9664 32.9453 25.9213 32.9366C25.829 32.9184 25.7359 32.9089 25.6421 32.9082C25.6406 32.9097 25.6384 32.9089 25.637 32.9089H19.8188C19.0159 32.9089 18.3642 33.5606 18.3642 34.3635C18.3642 35.1664 19.0159 35.818 19.8188 35.818H22.1257L6.426 51.517C5.858 52.085 5.858 53.0057 6.426 53.5737C6.71037 53.8581 7.08273 53.9999 7.4551 53.9999Z" fill="#0096EB"/>
<path d="M37.8756 35.8183H40.1825C40.9855 35.8183 41.6371 35.1666 41.6371 34.3637C41.6371 33.5608 40.9855 32.9092 40.1825 32.9092H34.3643C34.2691 32.9092 34.1731 32.9194 34.0792 32.9375C34.0371 32.9463 33.9978 32.9615 33.9571 32.9739C33.9069 32.9885 33.8567 33.0001 33.808 33.0205C33.76 33.0401 33.7171 33.0677 33.672 33.0925C33.6342 33.1135 33.5942 33.1303 33.5578 33.1543C33.3985 33.2612 33.2611 33.3979 33.1549 33.5572C33.1316 33.5914 33.1163 33.6292 33.096 33.6648C33.0698 33.7121 33.0414 33.7572 33.0211 33.8074C33.0014 33.8546 32.9905 33.9041 32.976 33.9528C32.9636 33.995 32.9476 34.035 32.9389 34.0786C32.92 34.1732 32.9098 34.2685 32.9098 34.3637V40.1819C32.9098 40.9848 33.5614 41.6365 34.3643 41.6365C35.1673 41.6365 35.8189 40.9848 35.8189 40.1819V37.875L51.5179 53.574C51.8015 53.8583 52.1739 54.0002 52.5462 54.0002C52.9186 54.0002 53.291 53.8583 53.5746 53.574C54.1426 53.006 54.1426 52.0852 53.5746 51.5172L37.8756 35.8183Z" fill="#0096EB"/>
</svg>
