<svg width="60" height="60" viewBox="0 0 60 60" fill="none" xmlns="http://www.w3.org/2000/svg">
<g clip-path="url(#clip0_471_2412)">
<path d="M12.1745 20.734V19.9978C12.1745 8.95628 21.133 0 32.171 0H33.0871C44.1332 0 53.0835 8.94976 53.0835 20C53.0835 24.4094 52.066 27.7042 49.8058 32.2247C49.6545 32.5272 48.8539 34.103 48.639 34.537C48.2195 35.3838 47.9085 36.0593 47.6481 36.704C47.0262 38.2439 46.7199 39.5691 46.7199 40.9091C46.7199 43.5582 47.374 46.2562 48.4669 48.8518C48.851 49.764 49.2624 50.5971 49.6728 51.3325C49.9164 51.7688 50.1028 52.0717 50.2036 52.223C50.533 52.7171 50.308 53.3891 49.7475 53.5853L31.5657 59.949C31.0868 60.1166 30.5634 59.8597 30.4029 59.3784L26.9738 49.0909H20.3563C15.8344 49.0909 12.1745 45.4318 12.1745 40.9045V35.4545H9.4453C7.79867 35.4545 6.84724 34.0521 7.45924 32.5221L12.1745 20.734ZM13.9926 20H18.2722C18.6934 17.9252 20.5277 16.3636 22.7268 16.3636C24.9258 16.3636 26.7602 17.9252 27.1813 20H31.8177V14.5455C31.8177 14.0434 32.2247 13.6364 32.7268 13.6364C34.233 13.6364 35.454 12.4153 35.454 10.9091C35.454 9.40286 34.233 8.18182 32.7268 8.18182C32.2247 8.18182 31.8177 7.7748 31.8177 7.27273V1.82154C21.9466 2.00998 13.9926 10.0786 13.9926 19.9978V20ZM13.6991 21.8182L9.14739 33.1973C9.01344 33.5322 9.0841 33.6364 9.4453 33.6364H13.0835C13.5856 33.6364 13.9926 34.0434 13.9926 34.5455V40.9045C13.9926 44.4276 16.8385 47.2727 20.3563 47.2727H27.629C28.0203 47.2727 28.3677 47.5231 28.4915 47.8943L31.836 57.928L48.0956 52.2372L48.0852 52.2186C47.6434 51.427 47.2025 50.5343 46.7912 49.5573C45.6113 46.7552 44.9017 43.8282 44.9017 40.9091C44.9017 39.3107 45.2593 37.7638 45.9622 36.0232C46.2425 35.3292 46.5715 34.6147 47.0097 33.7301C47.2297 33.2858 48.0325 31.7058 48.1795 31.4116C49.9944 27.7819 50.9471 25.0432 51.1975 21.8182H47.1813C46.7602 23.8929 44.9258 25.4545 42.7268 25.4545C40.5277 25.4545 38.6934 23.8929 38.2722 21.8182H33.6359V27.2727C33.6359 27.7748 33.2288 28.1818 32.7268 28.1818C31.2205 28.1818 29.9995 29.4029 29.9995 30.9091C29.9995 32.4153 31.2205 33.6364 32.7268 33.6364C33.2288 33.6364 33.6359 34.0434 33.6359 34.5455V40C33.6359 40.5021 33.2288 40.9091 32.7268 40.9091C32.2247 40.9091 31.8177 40.5021 31.8177 40V35.3636C29.7429 34.9425 28.1813 33.1081 28.1813 30.9091C28.1813 28.71 29.7429 26.8757 31.8177 26.4545V21.8182H26.3631C25.8611 21.8182 25.454 21.4112 25.454 20.9091C25.454 19.4029 24.233 18.1818 22.7268 18.1818C21.2205 18.1818 19.9995 19.4029 19.9995 20.9091C19.9995 21.4112 19.5925 21.8182 19.0904 21.8182H13.6991ZM51.2654 20C51.2654 10.1376 43.4238 2.11629 33.6359 1.82631V6.45455C35.7106 6.87571 37.2722 8.71004 37.2722 10.9091C37.2722 13.1081 35.7106 14.9425 33.6359 15.3636V20H39.0904C39.5925 20 39.9995 20.407 39.9995 20.9091C39.9995 22.4153 41.2205 23.6364 42.7268 23.6364C44.233 23.6364 45.454 22.4153 45.454 20.9091C45.454 20.407 45.8611 20 46.3631 20H51.2654Z" fill="#0096EB"/>
</g>
<defs>
<clipPath id="clip0_471_2412">
<rect width="60" height="60" fill="white"/>
</clipPath>
</defs>
</svg>
