<svg width="60" height="60" viewBox="0 0 60 60" fill="none" xmlns="http://www.w3.org/2000/svg">
<g clip-path="url(#clip0_471_2429)">
<path d="M4.6875 31.393C4.43886 31.393 4.20041 31.4918 4.0246 31.6676C3.84879 31.8434 3.75001 32.0818 3.75 32.3305V50.6063C3.75001 50.8549 3.84879 51.0933 4.0246 51.2691C4.20041 51.445 4.43886 51.5437 4.6875 51.5438H26.207V49.6688H9.84375V38.4123H26.207V36.5373H8.90625C8.65761 36.5373 8.41916 36.6361 8.24335 36.8119C8.06754 36.9877 7.96876 37.2262 7.96875 37.4748V49.6688H5.625V33.268H7.5C7.74864 33.268 7.98709 33.1692 8.1629 32.9934C8.33871 32.8176 8.43749 32.5791 8.4375 32.3305V23.9085C8.43749 23.6599 8.33871 23.4215 8.1629 23.2456C7.98709 23.0698 7.74864 22.9711 7.5 22.971H5.625V20.1041L15.0732 8.39722H16.875V14.9638C16.875 15.2125 16.9738 15.4509 17.1496 15.6267C17.3254 15.8026 17.5639 15.9013 17.8125 15.9013C18.0611 15.9013 18.2996 15.8026 18.4754 15.6267C18.6512 15.4509 18.75 15.2125 18.75 14.9638V8.39722H20.625V14.9638C20.625 15.2125 20.7238 15.4509 20.8996 15.6267C21.0754 15.8026 21.3139 15.9013 21.5625 15.9013C21.8111 15.9013 22.0496 15.8026 22.2254 15.6267C22.4012 15.4509 22.5 15.2125 22.5 14.9638V8.39722H24.375V14.9638C24.3744 15.1889 24.455 15.4067 24.6021 15.5772C24.7491 15.7476 24.9527 15.8592 25.1755 15.8916C25.3983 15.924 25.6253 15.8749 25.8147 15.7534C26.0042 15.6318 26.1435 15.446 26.207 15.23V6.52222H14.6251C14.4851 6.52222 14.347 6.55355 14.2207 6.61391C14.0945 6.67427 13.9833 6.76212 13.8954 6.87103L3.95783 19.1844C3.82328 19.3511 3.74993 19.5589 3.75 19.7731V23.9085C3.75001 24.1572 3.84879 24.3956 4.0246 24.5714C4.20041 24.7473 4.43886 24.846 4.6875 24.846H6.5625V31.393L4.6875 31.393Z" fill="#0096EB"/>
<path d="M55.6193 39.8912C56.4625 38.425 56.4643 36.6906 55.6243 34.735L55.0319 32.2388C54.7999 31.2624 54.6671 30.2745 54.5261 29.2286C54.4771 28.8633 54.4277 28.4975 54.3741 28.1327C54.1781 26.7998 53.041 25.7814 51.7214 25.033C53.5055 18.6553 49.2091 15.4586 48.3417 14.8895C48.3867 13.9312 48.2374 12.9738 47.9027 12.0748C47.4433 10.8117 46.5137 9.77487 45.3081 9.18079C45.2192 9.14512 45.1253 9.1235 45.0297 9.1167C44.8509 8.53534 44.626 7.96913 44.3573 7.42344C44.0355 6.75895 43.851 6.03638 43.8149 5.29895C43.6968 3.12 42.4022 1.0033 40.7369 0.265845C40.2636 0.0410317 39.736 -0.0438113 39.2161 0.021315C38.6962 0.0864414 38.2058 0.298823 37.8026 0.633429C37.3994 0.998929 36.8985 1.23907 36.3611 1.32451C35.8237 1.40995 35.273 1.33699 34.7763 1.11454C33.3042 0.315284 31.9744 0.204504 30.8231 0.787695C28.6332 1.89548 28.1397 5.06138 28.0907 5.41843C28.0849 5.46075 28.082 5.50343 28.082 5.54615V52.5292C28.0821 52.5759 28.0856 52.6226 28.0926 52.6688C28.513 54.9191 29.743 56.9375 31.5501 58.3428C33.1379 59.4739 35.0515 60.0559 37.0002 60.0003C37.709 59.9978 38.4166 59.9417 39.1169 59.8323C47.3817 58.5706 48.5245 54.1415 48.6818 52.8675C48.7617 52.8714 48.8415 52.8771 48.9218 52.8771C49.4177 52.8814 49.9104 52.7967 50.3765 52.6271C51.6848 52.141 52.5701 50.9998 53.0073 49.2356C54.0372 45.0796 53.7285 42.9863 53.3917 42.0313C54.3062 41.5218 55.0736 40.7846 55.6193 39.8912ZM53.996 38.9528C52.7299 41.1601 48.7629 41.6417 48.7244 41.6463C48.6523 41.6545 48.5813 41.6709 48.5129 41.6953C44.5112 43.1299 42.7337 42.6685 41.9482 42.0294C40.8884 41.1665 41.1072 39.5145 41.1091 39.503C41.1465 39.2572 41.0847 39.0065 40.9373 38.8063C40.7899 38.606 40.569 38.4725 40.3231 38.4351C40.0773 38.3977 39.8266 38.4595 39.6263 38.6069C39.4261 38.7543 39.2925 38.9752 39.2551 39.2211C39.2387 39.3305 38.8683 41.9219 40.7475 43.4696C41.7112 44.2014 42.9026 44.5691 44.1111 44.5078C45.1283 44.49 46.1394 44.3473 47.1217 44.083C47.151 44.4528 47.0757 44.8233 46.9044 45.1523C46.7896 45.3244 46.6392 45.4698 46.4633 45.5786C46.2874 45.6874 46.0902 45.7572 45.8849 45.7831C45.6579 45.8305 45.4566 45.9604 45.3197 46.1476C45.1829 46.3348 45.1203 46.5661 45.144 46.7968C45.1677 47.0275 45.2761 47.2412 45.4482 47.3966C45.6203 47.5521 45.8439 47.6382 46.0758 47.6384C46.1406 47.6384 46.2051 47.6318 46.2685 47.6187C46.7293 47.5424 47.1684 47.3683 47.5562 47.108C47.9439 46.8478 48.2714 46.5074 48.5166 46.1099C48.9442 45.3204 49.1 44.412 48.96 43.5251C48.9899 43.5146 49.0185 43.5058 49.0486 43.4952C49.9451 43.3635 50.8259 43.1415 51.6778 42.8327C51.8551 43.4976 52.0709 45.219 51.1872 48.7842C50.9043 49.9249 50.4264 50.607 49.726 50.8688C48.3248 51.3912 46.193 50.2234 45.489 49.7286C45.2859 49.585 45.0342 49.5281 44.7891 49.5702C44.5441 49.6123 44.3258 49.75 44.1823 49.9531C44.0388 50.1561 43.9818 50.4079 44.0239 50.6529C44.0661 50.898 44.2038 51.1163 44.4068 51.2598C45.1587 51.7753 45.9752 52.1897 46.8352 52.4923C46.8347 52.5008 46.8323 52.5087 46.8321 52.5172C46.8275 52.6912 46.6311 56.7886 38.834 57.9784C31.4018 59.115 30.0875 53.1636 29.9571 52.45V52.0372C30.6527 51.4023 32.7521 49.8291 35.1188 51.3989C38.5127 53.6516 40.9031 52.1876 41.6937 51.0991C41.7663 50.9994 41.8186 50.8864 41.8475 50.7666C41.8764 50.6467 41.8814 50.5223 41.8621 50.4005C41.8429 50.2787 41.7998 50.1619 41.7354 50.0567C41.6709 49.9516 41.5864 49.8602 41.4866 49.7878C41.3868 49.7153 41.2737 49.6633 41.1537 49.6347C41.0338 49.606 40.9094 49.6013 40.7876 49.6208C40.6658 49.6403 40.5491 49.6837 40.4441 49.7483C40.3391 49.813 40.2479 49.8977 40.1757 49.9977C40.1258 50.0673 38.916 51.6685 36.1552 49.837C35.245 49.217 34.1736 48.8763 33.0724 48.8569C31.9713 48.8376 30.8885 49.1403 29.9571 49.7279V35.6307C30.1803 34.8956 30.6829 34.2773 31.3569 33.9087C32.5759 33.2587 34.4404 33.4193 36.7466 34.3733C38.4877 35.1061 40.4387 35.167 42.2221 34.5443C42.6378 35.1679 43.2009 35.6794 43.8616 36.0333C44.5222 36.3873 45.26 36.5728 46.0094 36.5733C46.5794 36.5691 47.1452 36.4755 47.6862 36.2959C47.8044 36.2589 47.914 36.1989 48.0088 36.1193C48.1036 36.0397 48.1817 35.9421 48.2386 35.8321C48.2955 35.7222 48.3301 35.6021 48.3403 35.4787C48.3505 35.3553 48.3362 35.2311 48.2982 35.1133C48.2602 34.9955 48.1992 34.8864 48.1188 34.7923C48.0384 34.6982 47.9401 34.6209 47.8297 34.565C47.7192 34.509 47.5988 34.4755 47.4754 34.4663C47.3519 34.4572 47.2278 34.4726 47.1104 34.5116C45.2874 35.1002 44.2782 34.1492 43.9094 33.6788C44.7563 33.1185 45.4023 32.3025 45.7531 31.3495C46.1039 30.3965 46.1413 29.3565 45.8597 28.3808C45.8309 28.2611 45.7787 28.1483 45.7063 28.0487C45.6338 27.9492 45.5425 27.8649 45.4374 27.8007C45.3324 27.7364 45.2157 27.6935 45.0941 27.6744C44.9725 27.6552 44.8483 27.6602 44.7286 27.6891C44.6089 27.718 44.4961 27.7701 44.3966 27.8426C44.297 27.915 44.2127 28.0064 44.1485 28.1114C44.0843 28.2164 44.0414 28.3331 44.0222 28.4547C44.0031 28.5763 44.0081 28.7005 44.0369 28.8202C44.4077 30.3574 43.9385 31.4711 42.5597 32.3258C41.7956 32.7773 40.9353 33.0412 40.0495 33.096C39.1636 33.1509 38.2774 32.995 37.4634 32.6412C34.5804 31.4478 32.2298 31.3182 30.4743 32.2539C30.2949 32.3508 30.1221 32.4596 29.957 32.5794V15.5792L32.7706 15.2431C33.0917 15.3817 33.4282 15.4814 33.7729 15.54C34.4365 15.6539 35.08 15.8636 35.6832 16.1626C36.2664 16.4759 36.9147 16.6488 37.5765 16.6675C38.0899 16.674 38.5937 16.5279 39.024 16.2477C40.8578 15.042 40.7328 11.7301 40.7126 11.3565C40.6992 11.1083 40.5876 10.8755 40.4025 10.7095C40.2174 10.5435 39.974 10.4578 39.7257 10.4712C39.4774 10.4847 39.2447 10.5963 39.0786 10.7813C38.9126 10.9664 38.8269 11.2099 38.8404 11.4582C38.8843 12.2647 38.7319 14.1961 37.994 14.6808C37.609 14.9344 36.9796 14.7133 36.5186 14.4844C35.7527 14.104 34.9354 13.8373 34.0925 13.6925C33.8691 13.6761 33.6521 13.6108 33.4568 13.5013C33.2615 13.3917 33.0927 13.2406 32.9623 13.0585C32.7068 12.5554 32.8849 11.6335 33.4644 10.4621C33.519 10.3517 33.5513 10.2317 33.5595 10.1088C33.5677 9.98595 33.5516 9.86268 33.5122 9.74604C33.4727 9.6294 33.4107 9.52168 33.3296 9.42901C33.2485 9.33634 33.15 9.26056 33.0396 9.20597C32.8167 9.09573 32.5592 9.07856 32.3236 9.15823C32.088 9.23789 31.8938 9.40787 31.7835 9.63078C31.0043 11.2064 30.7929 12.5202 31.1441 13.5486L29.957 13.6904V5.61571C30.0752 4.86772 30.5819 3.00829 31.6723 2.45943C32.2413 2.17195 32.9838 2.27495 33.8728 2.75743C34.6959 3.16366 35.6209 3.3169 36.531 3.19779C37.4411 3.07868 38.2956 2.69257 38.9864 2.0882C39.1198 1.96916 39.2871 1.89475 39.4649 1.87538C39.6426 1.85602 39.822 1.89265 39.9779 1.98017C40.8546 2.36836 41.8552 3.78651 41.9427 5.40058C41.9922 6.38852 42.2405 7.35631 42.6728 8.24604C43.4423 9.82212 43.6753 11.1698 43.3288 12.0404C43.2008 12.325 43.0126 12.5783 42.7772 12.7829C42.5417 12.9875 42.2647 13.1386 41.9651 13.2256C41.7332 13.3135 41.5455 13.4896 41.4432 13.7155C41.3409 13.9415 41.3323 14.1987 41.4192 14.431C41.5062 14.6632 41.6816 14.8516 41.9071 14.9548C42.1326 15.058 42.3898 15.0676 42.6224 14.9816C43.1686 14.806 43.6702 14.5142 44.0928 14.1263C44.5154 13.7384 44.849 13.2635 45.0706 12.7344C45.2262 12.3339 45.3186 11.9116 45.3443 11.4826C45.6988 11.8446 45.9744 12.2761 46.1536 12.75C46.8041 14.4364 46.4411 16.8277 45.1031 19.6663C44.6668 20.5924 43.2679 21.3816 41.3608 21.7766C40.8392 21.9038 40.2888 21.8305 39.8186 21.5711C39.6909 21.4968 39.5584 21.4309 39.422 21.374C39.3802 21.3538 39.3369 21.3368 39.2925 21.3231C38.3366 20.9509 37.2852 20.9018 36.2989 21.1834C35.9753 21.2749 35.63 21.2518 35.3216 21.1179C34.6846 20.8729 34.1335 20.4465 33.7365 19.8914C33.3395 19.3363 33.1141 18.677 33.0881 17.995C33.0639 17.7476 32.9423 17.52 32.7502 17.3622C32.558 17.2044 32.3111 17.1294 32.0637 17.1537C31.8162 17.178 31.5886 17.2995 31.4308 17.4917C31.273 17.6838 31.198 17.9307 31.2223 18.1782C31.2829 19.1996 31.6343 20.1824 32.2349 21.0108C32.8356 21.8392 33.6605 22.4786 34.6125 22.8538C35.3242 23.1523 36.1175 23.1945 36.8569 22.9732C37.2303 22.8676 37.6225 22.8457 38.0053 22.9093C37.8106 24.0424 37.0424 26.1045 34.0133 26.1794C33.7669 26.1856 33.5328 26.2887 33.3618 26.4662C33.1908 26.6437 33.0966 26.8815 33.0996 27.128C33.1027 27.3744 33.2026 27.6098 33.3779 27.7831C33.5532 27.9564 33.7897 28.0537 34.0362 28.0539C34.044 28.0539 34.0517 28.0539 34.06 28.0535C37.8075 27.9611 39.3306 25.5492 39.7858 23.5753C40.1219 23.6657 40.4685 23.7111 40.8166 23.7102C41.1277 23.7093 41.4378 23.6765 41.7422 23.6122C44.296 23.0831 46.0923 21.9657 46.7996 20.4656C47.3335 19.3601 47.751 18.2021 48.0456 17.0103C49.1617 18.0011 50.9688 20.2951 49.9959 24.2212C49.071 23.8601 48.1198 23.5703 47.1507 23.3545C46.9075 23.3026 46.6536 23.3493 46.4449 23.4845C46.2362 23.6197 46.0898 23.8323 46.0378 24.0755C45.9859 24.3187 46.0326 24.5725 46.1678 24.7812C46.3031 24.9899 46.5156 25.1364 46.7588 25.1883C48.54 25.5687 52.2913 26.856 52.5193 28.4055C52.5715 28.7625 52.62 29.121 52.6681 29.4789C52.8086 30.524 52.9542 31.6048 53.2073 32.6718L53.8189 35.249C53.8323 35.3042 53.8503 35.3581 53.8729 35.4101C54.5023 36.8402 54.5426 37.9993 53.996 38.9528Z" fill="#0096EB"/>
<path d="M36.4984 44.4859C35.5073 44.5111 34.8079 44.2794 34.432 43.7942C33.8003 42.9775 34.0384 41.4907 34.1839 40.9858C34.2524 40.7477 34.2239 40.4922 34.1046 40.2751C33.9853 40.0579 33.7849 39.8969 33.5471 39.827C33.3094 39.7572 33.0537 39.7844 32.8359 39.9025C32.6182 40.0207 32.456 40.2202 32.3849 40.4575C32.303 40.7349 31.6237 43.2165 32.9425 44.9331C33.6721 45.882 34.817 46.3627 36.3478 46.3627C36.4137 46.3627 36.4805 46.3618 36.5478 46.3599C36.7955 46.3522 37.03 46.2467 37.2001 46.0665C37.3702 45.8863 37.462 45.646 37.4555 45.3983C37.449 45.1506 37.3446 44.9156 37.1653 44.7446C36.9859 44.5736 36.7461 44.4806 36.4984 44.4859Z" fill="#0096EB"/>
</g>
<defs>
<clipPath id="clip0_471_2429">
<rect width="60" height="60" fill="white"/>
</clipPath>
</defs>
</svg>
