<svg width="40" height="40" viewBox="0 0 40 40" fill="none" xmlns="http://www.w3.org/2000/svg">
<path d="M13.8479 4.06348C10.9958 4.06348 8.67537 6.38371 8.67537 9.23601V9.68852C6.46227 10.2938 4.87448 12.3169 4.87448 14.6746C4.87448 14.817 4.88116 14.9584 4.89255 15.099C4.89447 15.1224 4.89829 15.1455 4.90055 15.1688C4.91199 15.2896 4.92691 15.4096 4.94667 15.5287C4.94748 15.5335 4.94772 15.5386 4.94856 15.5434C3.37971 16.4627 2.40039 18.1415 2.40039 19.9999C2.40039 21.8596 3.36877 23.5177 4.90394 24.4341C4.87982 24.4709 4.8629 24.5118 4.83996 24.5493C4.76861 24.6662 4.70094 24.7852 4.6407 24.9083C4.61031 24.9707 4.58355 25.0342 4.55617 25.0979C4.49742 25.2339 4.44322 25.3721 4.39844 25.5139C4.38371 25.5611 4.37213 25.609 4.35901 25.6566C4.31333 25.8206 4.27458 25.9869 4.24838 26.1566C4.24504 26.1788 4.24354 26.2012 4.24051 26.2235C4.21378 26.4168 4.19781 26.6125 4.19781 26.8108C4.19781 29.2084 6.14846 31.1591 8.54635 31.1591C8.59434 31.1591 8.64233 31.1582 8.6901 31.1566C8.89152 33.8262 11.128 35.9363 13.8479 35.9363C16.7 35.9363 19.0204 33.6161 19.0204 30.7638V9.23601C19.0204 6.38371 16.7 4.06348 13.8479 4.06348ZM13.8479 34.2122C11.9465 34.2122 10.3995 32.6652 10.3995 30.7638C10.3995 29.9927 10.6485 29.2632 11.1194 28.6545C11.4109 28.2782 11.3418 27.7368 10.9653 27.4451C10.5892 27.1547 10.0474 27.2229 9.75593 27.5996C9.33215 28.1469 9.03088 28.7603 8.85532 29.4124C8.75246 29.4247 8.6494 29.4349 8.54635 29.4349C7.09936 29.4349 5.92199 28.2575 5.92199 26.8108C5.92199 26.6872 5.93328 26.5656 5.95043 26.4454C5.95424 26.418 5.95937 26.3911 5.96403 26.364C5.98292 26.2563 6.00699 26.15 6.03888 26.0463C6.04198 26.0361 6.04438 26.0257 6.04761 26.0155C6.12533 25.7736 6.23799 25.5451 6.37984 25.3365C6.38639 25.3268 6.39297 25.3173 6.39965 25.3078C6.47053 25.2065 6.54767 25.1095 6.63209 25.0189C6.63307 25.0179 6.63393 25.0167 6.63491 25.0156C6.90263 24.7292 7.23517 24.5006 7.61439 24.3567C8.05953 24.1874 8.28326 23.6895 8.11425 23.2445C7.94525 22.7992 7.44643 22.5765 7.00234 22.7445C6.71741 22.8527 6.4499 22.9918 6.19957 23.1534C4.94654 22.6114 4.12457 21.3948 4.12457 19.9999C4.12457 18.8771 4.66711 17.8592 5.5468 17.2208C5.62673 17.3616 5.71112 17.5003 5.80476 17.6342C5.97229 17.8742 6.24001 18.0025 6.51215 18.0025C6.68263 18.0025 6.8548 17.952 7.00507 17.8472C7.39529 17.5744 7.49063 17.0369 7.21786 16.6467C7.02212 16.3667 6.87334 16.0619 6.76942 15.7425C6.76937 15.7423 6.7694 15.7422 6.76935 15.7421C6.65611 15.3935 6.59865 15.0345 6.59865 14.6746C6.59865 13.1048 7.6564 11.7604 9.12909 11.3557C9.29481 11.7231 9.50307 12.0737 9.75593 12.4002C9.92578 12.62 10.1807 12.7349 10.4383 12.7349C10.6224 12.7349 10.8083 12.6759 10.9653 12.5547C11.3418 12.263 11.4109 11.7217 11.1194 11.3453C10.6485 10.7367 10.3995 10.0072 10.3995 9.23601C10.3995 7.33462 11.9465 5.78765 13.8479 5.78765C15.7493 5.78765 17.2963 7.33462 17.2963 9.23601V12.2844C17.0605 12.1042 16.8117 11.9389 16.5381 11.8088C16.1082 11.6025 15.594 11.7869 15.3894 12.2167C15.1848 12.6469 15.3677 13.1613 15.7977 13.3654C16.708 13.7986 17.2963 14.7297 17.2963 15.7375V27.232C16.836 28.0559 15.959 28.5833 15.0082 28.5833C14.5321 28.5833 14.1461 28.9693 14.1461 29.4454C14.1461 29.9215 14.5321 30.3075 15.0082 30.3075C15.8299 30.3075 16.6194 30.0695 17.2963 29.65V30.7638C17.2963 32.6652 15.7493 34.2122 13.8479 34.2122Z" fill="white"/>
<path d="M14.7629 20.6528C14.6214 20.1982 14.1386 19.9443 13.6836 20.0853C13.229 20.2268 12.9751 20.71 13.1166 21.1646C13.1949 21.4164 13.2344 21.6786 13.2344 21.9451C13.2344 22.8253 12.7962 23.6427 12.0621 24.1314C11.6658 24.3954 11.5585 24.9304 11.8224 25.3269C11.9884 25.5765 12.2618 25.7112 12.5407 25.7112C12.7049 25.7112 12.8707 25.6645 13.0176 25.5668C14.2329 24.7574 14.9586 23.4036 14.9586 21.9451C14.9586 21.5048 14.8927 21.0699 14.7629 20.6528Z" fill="white"/>
<path d="M12.0464 18.0582C12.6719 17.2677 13.7108 16.9015 14.6933 17.1271C15.1571 17.2353 15.6197 16.9436 15.726 16.4797C15.8325 16.0154 15.5425 15.5532 15.0784 15.4467C13.4519 15.0733 11.7309 15.6786 10.6943 16.9882C10.3447 17.4298 9.85179 17.7531 9.30646 17.8983C8.84637 18.0208 8.57276 18.4931 8.69525 18.9532C8.79796 19.3387 9.1465 19.5938 9.52767 19.5938C9.60112 19.5938 9.67584 19.5841 9.75013 19.5644C10.652 19.3244 11.4676 18.7894 12.0464 18.0582Z" fill="white"/>
<path d="M35.6409 25.6567C35.6278 25.609 35.6162 25.5611 35.6015 25.5138C35.5567 25.3722 35.5026 25.2341 35.4439 25.0983C35.4165 25.0344 35.3896 24.9706 35.3591 24.9081C35.2989 24.7851 35.2313 24.6662 35.16 24.5495C35.1371 24.5119 35.1201 24.4711 35.096 24.4341C36.6312 23.5177 37.5995 21.8596 37.5995 19.9999C37.5995 18.1415 36.6202 16.4627 35.0514 15.5434C35.0522 15.5386 35.0524 15.5337 35.0532 15.529C35.073 15.4096 35.088 15.2894 35.0995 15.1683C35.1017 15.1452 35.1054 15.1223 35.1074 15.099C35.1188 14.9584 35.1255 14.817 35.1255 14.6746C35.1255 12.3169 33.5374 10.2938 31.3246 9.68852V9.23601C31.3246 6.38371 29.0041 4.06348 26.152 4.06348C23.2999 4.06348 20.9795 6.38371 20.9795 9.23601V30.7638C20.9795 33.6161 23.2999 35.9363 26.152 35.9363C28.8719 35.9363 31.1082 33.8262 31.3098 31.157C31.3576 31.1587 31.4056 31.1595 31.4536 31.1595C33.8515 31.1595 35.8021 29.2089 35.8021 26.8108C35.8021 26.6127 35.7861 26.4171 35.7595 26.2241C35.7564 26.2015 35.7549 26.1788 35.7515 26.1564C35.7253 25.9868 35.6866 25.8205 35.6409 25.6567ZM31.4536 29.4353C31.3508 29.4353 31.2477 29.425 31.1447 29.4126C30.9692 28.7604 30.6678 28.147 30.244 27.5996C29.9529 27.2229 29.4112 27.1542 29.0346 27.4451C28.6581 27.7368 28.5891 28.2782 28.8806 28.6545C29.3514 29.2632 29.6004 29.9927 29.6004 30.7638C29.6004 32.6652 28.0534 34.2122 26.152 34.2122C24.2506 34.2122 22.7037 32.6652 22.7037 30.7638V29.65C23.3805 30.0695 24.1701 30.3075 24.9917 30.3075C25.4678 30.3075 25.8538 29.9215 25.8538 29.4454C25.8538 28.9693 25.4678 28.5833 24.9917 28.5833C24.0409 28.5833 23.1639 28.0559 22.7037 27.232V15.7375C22.7037 14.7297 23.2919 13.7986 24.2022 13.3654C24.6322 13.1613 24.8151 12.6469 24.6105 12.2167C24.4057 11.7869 23.8907 11.6025 23.4618 11.8088C23.1883 11.9389 22.9394 12.1042 22.7037 12.2844V9.23601C22.7037 7.33462 24.2506 5.78765 26.152 5.78765C28.0534 5.78765 29.6004 7.33462 29.6004 9.23601C29.6004 10.0072 29.3514 10.7367 28.8806 11.3453C28.5891 11.7217 28.6581 12.263 29.0346 12.5547C29.1916 12.6759 29.3773 12.7349 29.5617 12.7349C29.8193 12.7349 30.0742 12.62 30.244 12.4002C30.4968 12.0738 30.705 11.7232 30.8707 11.3559C32.3434 11.7601 33.4013 13.1043 33.4013 14.6746C33.4013 15.0345 33.3438 15.3935 33.2306 15.7421C33.2305 15.7422 33.2306 15.7423 33.2305 15.7425C33.1266 16.0619 32.9778 16.3667 32.7821 16.6467C32.5093 17.0369 32.6046 17.5744 32.9949 17.8472C33.1451 17.952 33.3173 18.0025 33.4878 18.0025C33.7599 18.0025 34.0276 17.8742 34.1952 17.6342C34.2888 17.5003 34.3732 17.3616 34.4531 17.2208C35.3328 17.8592 35.8754 18.8771 35.8754 19.9999C35.8754 21.3948 35.0534 22.6114 33.8004 23.1534C33.55 22.9918 33.2825 22.8527 32.9976 22.7445C32.5529 22.5765 32.0545 22.7992 31.8857 23.2445C31.7167 23.6895 31.9404 24.1874 32.3855 24.3567C32.7648 24.5006 33.0973 24.7292 33.365 25.0156C33.366 25.0167 33.3669 25.0179 33.3678 25.0189C33.4523 25.1095 33.5294 25.2065 33.6003 25.3078C33.607 25.3173 33.6135 25.3268 33.6201 25.3365C33.7619 25.5451 33.8746 25.7736 33.9523 26.0155C33.9555 26.0257 33.9579 26.0361 33.9611 26.0463C33.9929 26.15 34.017 26.2563 34.0359 26.364C34.0406 26.3911 34.0457 26.418 34.0495 26.4454C34.0667 26.5656 34.0779 26.6872 34.0779 26.8108C34.0779 28.258 32.9006 29.4353 31.4536 29.4353Z" fill="white"/>
<path d="M27.9375 24.1314C27.2034 23.6427 26.7652 22.8253 26.7652 21.9451C26.7652 21.6786 26.8048 21.4164 26.8831 21.1646C27.0245 20.71 26.7707 20.2268 26.316 20.0853C25.8602 19.9443 25.3784 20.1982 25.2368 20.6528C25.1069 21.0699 25.041 21.5048 25.041 21.9451C25.041 23.4036 25.7667 24.7574 26.982 25.5668C27.1289 25.6645 27.2947 25.7112 27.4589 25.7112C27.7378 25.7112 28.0112 25.5765 28.1772 25.3269C28.4412 24.9304 28.3338 24.3954 27.9375 24.1314Z" fill="white"/>
<path d="M30.6936 17.8982C30.1482 17.753 29.6553 17.4297 29.3057 16.9881C28.2691 15.6786 26.5473 15.0728 24.9216 15.4466C24.4575 15.5531 24.1675 16.0153 24.274 16.4796C24.3801 16.9435 24.8429 17.2356 25.3068 17.127C26.2901 16.901 27.3279 17.2676 27.9536 18.0581C28.5324 18.7893 29.348 19.3243 30.2499 19.5643C30.3244 19.5841 30.3989 19.5937 30.4723 19.5937C30.8535 19.5937 31.2021 19.3387 31.3048 18.9531C31.4273 18.493 31.1536 18.0207 30.6936 17.8982Z" fill="white"/>
</svg>
