<svg width="40" height="40" viewBox="0 0 40 40" fill="none" xmlns="http://www.w3.org/2000/svg">
<path d="M34.6647 18.403C33.1019 15.8727 31.0007 13.8398 28.3613 12.3038C25.7219 10.768 22.9347 10 19.9997 10C17.0647 10 14.2771 10.7677 11.6377 12.3038C8.99764 13.8398 6.89673 15.8727 5.3343 18.403C5.11143 18.79 5 19.171 5 19.547C5 19.9227 5.11143 20.3041 5.3343 20.6904C6.89673 23.2207 8.99798 25.2539 11.6377 26.7896C14.2768 28.3254 17.0643 29.0927 19.9997 29.0927C22.935 29.0927 25.7222 28.3277 28.3616 26.7976C31.001 25.2676 33.1026 23.2314 34.665 20.6904C34.8879 20.3037 35 19.9227 35 19.547C34.9997 19.171 34.8876 18.79 34.6647 18.403ZM16.4084 13.8702C17.4073 12.8813 18.6041 12.3865 19.9997 12.3865C20.2225 12.3865 20.4127 12.4642 20.5689 12.6187C20.725 12.7735 20.8034 12.9617 20.8034 13.1822C20.8034 13.4038 20.725 13.5913 20.5692 13.7457C20.413 13.9006 20.2229 13.978 19.9997 13.978C19.0401 13.978 18.2194 14.3153 17.5391 14.9885C16.8581 15.6628 16.5175 16.4749 16.5175 17.4254C16.5175 17.6466 16.4394 17.8345 16.2833 17.9889C16.1265 18.1438 15.937 18.2212 15.7141 18.2212C15.4906 18.2212 15.3007 18.1438 15.1446 17.9889C14.9884 17.8345 14.9104 17.6466 14.9104 17.4254C14.9104 16.0442 15.4095 14.8588 16.4084 13.8702ZM27.2736 24.9583C25.0359 26.3005 22.611 26.9718 19.9997 26.9718C17.388 26.9718 14.9634 26.3009 12.7257 24.9583C10.4883 23.6157 8.62731 21.8118 7.14295 19.547C8.83916 16.9393 10.9654 14.9889 13.5214 13.6967C12.8405 14.8454 12.4998 16.0885 12.4998 17.4258C12.4998 19.47 13.2338 21.2182 14.7015 22.6712C16.1688 24.1239 17.9351 24.8505 20 24.8505C22.0649 24.8505 23.8308 24.1242 25.2982 22.6712C26.7662 21.2182 27.5002 19.47 27.5002 17.4258C27.5002 16.0889 27.1595 14.8454 26.4786 13.6967C29.0342 14.9889 31.1605 16.9397 32.857 19.547C31.372 21.8118 29.5113 23.6157 27.2736 24.9583Z" fill="white"/>
</svg>
