<svg width="40" height="40" viewBox="0 0 40 40" fill="none" xmlns="http://www.w3.org/2000/svg">
<path fill-rule="evenodd" clip-rule="evenodd" d="M3.61578 9.02826C3.36668 5.66544 6.02789 2.7998 9.39993 2.7998H30.9985C34.3988 2.7998 37.0697 5.7115 36.777 9.09918L34.8066 31.8992C34.5475 34.8977 32.0378 37.1998 29.0281 37.1998H11.0888C8.05179 37.1998 5.52902 34.857 5.30467 31.8283L3.61578 9.02826ZM9.39993 4.7998C7.19066 4.7998 5.44711 6.67729 5.61031 8.88052L7.2992 31.6805C7.44619 33.6649 9.09904 35.1998 11.0888 35.1998H29.0281C31 35.1998 32.6443 33.6915 32.814 31.727L34.7844 8.92698C34.9762 6.70747 33.2263 4.7998 30.9985 4.7998H9.39993Z" fill="white"/>
<path d="M20.1403 6.7252C15.5591 6.7252 12.1839 8.74396 10.5779 9.94396C9.8529 10.4877 9.6279 11.469 10.0279 12.2815L12.9841 18.1939C13.3029 18.8314 13.9466 19.2314 14.6591 19.2314H25.6155C26.328 19.2314 26.9718 18.8314 27.2905 18.1939L30.2468 12.2815C30.653 11.469 30.4218 10.4877 29.6968 9.94396C29.7465 9.94396 25.1589 6.7252 20.1403 6.7252ZM20.1403 16.1004C21.3028 16.1004 22.2715 16.9004 22.5528 17.9754H17.728C18.0092 16.9004 18.9778 16.1004 20.1403 16.1004ZM29.1339 11.7192L26.1777 17.6316C26.0714 17.8441 25.8589 17.9753 25.6214 17.9753H23.8402C23.5402 16.2065 22.0027 14.8503 20.1464 14.8503C19.9027 14.8503 19.6652 14.8753 19.4339 14.9191L18.8589 13.3815C18.7402 13.0565 18.3777 12.894 18.0527 13.0128C17.7277 13.1316 17.5652 13.494 17.6839 13.819L18.2589 15.3628C17.3152 15.9128 16.6402 16.8628 16.4465 17.9753H14.6652C14.4277 17.9753 14.2152 17.844 14.109 17.6315L11.1527 11.7191C11.0152 11.4504 11.0902 11.1191 11.334 10.9441C11.784 10.6066 12.3902 10.2004 13.1278 9.79411L14.2715 11.5754C14.3903 11.7629 14.5903 11.8629 14.7965 11.8629C14.909 11.8629 15.0278 11.8316 15.134 11.7629C15.4215 11.5754 15.509 11.1879 15.3215 10.9004L14.259 9.2379C15.684 8.60666 17.459 8.08165 19.5214 7.99413V9.85037C19.5214 10.1941 19.8027 10.4754 20.1464 10.4754C20.4902 10.4754 20.7714 10.1941 20.7714 9.85037V7.99413C22.8339 8.08163 24.609 8.60662 26.0338 9.2379L24.9714 10.9004C24.7839 11.1879 24.8714 11.5754 25.1589 11.7629C25.2651 11.8316 25.3776 11.8629 25.4964 11.8629C25.7026 11.8629 25.9026 11.7629 26.0214 11.5754L27.1651 9.79411C27.9026 10.2004 28.5089 10.6066 28.9589 10.9441C29.1964 11.1254 29.2714 11.4504 29.1401 11.7191L29.1339 11.7192Z" fill="white"/>
<path fill-rule="evenodd" clip-rule="evenodd" d="M10.3385 9.62353C11.9821 8.39538 15.4404 6.3252 20.1403 6.3252C22.7293 6.3252 25.1902 7.15372 26.9849 7.97051C27.8848 8.38013 28.624 8.78991 29.1365 9.09828C29.3928 9.25247 29.5934 9.3819 29.7299 9.47403C29.7979 9.51985 29.8518 9.55765 29.8896 9.58544C29.9075 9.59856 29.9265 9.6129 29.9427 9.6263L29.943 9.62656C29.9462 9.6292 29.9537 9.63541 29.9632 9.64406C30.8223 10.3079 31.0921 11.4853 30.6045 12.4604L27.6483 18.3728C27.2622 19.145 26.4804 19.6314 25.6155 19.6314H14.6591C13.7942 19.6314 13.0125 19.145 12.6264 18.3728C12.6264 18.3728 12.6264 18.3728 12.6264 18.3728L9.66902 12.4581C9.18574 11.4765 9.45595 10.2854 10.3379 9.62396L10.3385 9.62353ZM10.8176 10.2642C10.2501 10.69 10.0703 11.4607 10.3862 12.1037C10.3864 12.1041 10.3866 12.1045 10.3868 12.1048L13.3419 18.015C13.5933 18.5178 14.099 18.8314 14.6591 18.8314H25.6155C26.1756 18.8314 26.6814 18.5178 26.9328 18.015L29.889 12.1026C30.209 11.4626 30.0268 10.6915 29.4568 10.264L29.3407 10.1769C29.3234 10.165 29.3041 10.1518 29.2826 10.1373C29.1582 10.0534 28.9693 9.93134 28.7241 9.78376C28.2335 9.48862 27.5215 9.09372 26.6535 8.69864C24.912 7.90606 22.5699 7.1252 20.1403 7.1252C15.6781 7.1252 12.3861 9.09228 10.8176 10.2642ZM19.9214 7.5768V9.85037C19.9214 9.97321 20.0236 10.0754 20.1464 10.0754C20.2693 10.0754 20.3714 9.97321 20.3714 9.85037V7.57681L20.7884 7.59449C22.9095 7.68448 24.7337 8.22439 26.1959 8.87218L26.6217 9.06084L25.3064 11.1189C25.2434 11.2155 25.2691 11.3567 25.3767 11.4274C25.4165 11.453 25.453 11.4629 25.4964 11.4629C25.5731 11.4629 25.642 11.4268 25.6834 11.3613L25.6848 11.3592L27.0306 9.26334L27.3581 9.44375C28.1128 9.85945 28.7347 10.276 29.1989 10.6241L29.2015 10.6261C29.5925 10.9245 29.7134 11.4567 29.4995 11.8946L29.3907 12.1175L29.3819 12.1176L26.5354 17.8104C26.3614 18.1585 26.0104 18.3753 25.6214 18.3753H23.5023L23.4458 18.0422C23.1776 16.461 21.8027 15.2503 20.1464 15.2503C19.9302 15.2503 19.7177 15.2725 19.5083 15.3121L19.1773 15.3747L18.4832 13.5188C18.4425 13.4073 18.3135 13.3434 18.19 13.3885C18.0787 13.4292 18.0148 13.5577 18.0593 13.6809C18.0594 13.6812 18.0595 13.6815 18.0596 13.6817L18.7513 15.5388L18.4603 15.7084C17.6176 16.1995 17.0138 17.0487 16.8405 18.0439L16.7828 18.3753H14.6652C14.2763 18.3753 13.9252 18.1585 13.7512 17.8104L10.7957 11.8995C10.5733 11.4625 10.6904 10.9166 11.0969 10.6219C11.5608 10.2742 12.1816 9.85858 12.9348 9.44375L13.2623 9.26334L14.6094 11.3613C14.6509 11.4268 14.7198 11.4629 14.7965 11.4629C14.8357 11.4629 14.878 11.4519 14.9161 11.4274C15.0238 11.3567 15.0494 11.2154 14.9865 11.1189L14.9845 11.1158L13.6712 9.06082L14.097 8.87217C15.5593 8.22444 17.3835 7.6845 19.5045 7.59449L19.9214 7.5768ZM21.1714 8.41778V9.85037C21.1714 10.415 20.7111 10.8754 20.1464 10.8754C19.5818 10.8754 19.1214 10.415 19.1214 9.85037V8.41779C17.4925 8.53636 16.0576 8.93172 14.8509 9.42125L15.6577 10.6836C15.9681 11.1616 15.8187 11.7938 15.3525 12.0979L15.3513 12.0987C15.1771 12.2114 14.9822 12.2629 14.7965 12.2629C14.4612 12.2629 14.1304 12.0993 13.9343 11.7905L12.9955 10.3285C12.4212 10.6622 11.9423 10.9879 11.574 11.2641L11.5707 11.2666L11.5673 11.269C11.4899 11.3246 11.4582 11.438 11.5088 11.5369L11.5105 11.5402L14.4668 17.4526C14.5052 17.5295 14.5792 17.5753 14.6652 17.5753H16.124C16.3759 16.6013 16.9673 15.7621 17.7715 15.2001L17.3082 13.9563C17.1158 13.4298 17.377 12.8338 17.9154 12.6371C18.4414 12.4449 19.0367 12.7053 19.234 13.2426C19.2342 13.2432 19.2344 13.2437 19.2346 13.2443L19.6951 14.4756C19.8427 14.4592 19.9932 14.4503 20.1464 14.4503C22.0842 14.4503 23.7058 15.7842 24.1638 17.5753H25.6214C25.7075 17.5753 25.7814 17.5296 25.8199 17.4527L28.7975 11.4976C28.8192 11.4102 28.7879 11.3174 28.7172 11.2628C28.3491 10.9868 27.8708 10.6617 27.2973 10.3285L26.3593 11.7894C26.359 11.7898 26.3588 11.7901 26.3586 11.7905C26.1624 12.0993 25.8317 12.2629 25.4964 12.2629C25.3024 12.2629 25.1141 12.2103 24.9415 12.0987L24.9404 12.0979C24.4741 11.7938 24.3248 11.1616 24.6352 10.6835C24.6356 10.683 24.6359 10.6824 24.6363 10.6819L25.442 9.42123C24.2354 8.93169 22.8004 8.53634 21.1714 8.41778ZM18.3172 17.5754H21.9636C21.6038 16.9337 20.9228 16.5004 20.1403 16.5004C19.3578 16.5004 18.677 16.9337 18.3172 17.5754ZM17.341 17.8741C17.6662 16.6309 18.7879 15.7004 20.1403 15.7004C21.4926 15.7004 22.6145 16.6309 22.9398 17.8741L23.0709 18.3754H17.2099L17.341 17.8741Z" fill="white"/>
</svg>
