<svg width="18" height="31" viewBox="0 0 18 31" fill="none" xmlns="http://www.w3.org/2000/svg">
<path d="M6.01749 30.5502C6.41405 30.7198 6.87635 30.5769 7.10709 30.2103L17.6539 13.4525C17.8244 13.1817 17.8341 12.8397 17.6795 12.5595C17.5248 12.2794 17.2301 12.1055 16.9101 12.1055H9.86948L12.4889 1.71493C12.5945 1.29581 12.3798 0.862105 11.9824 0.692067C11.585 0.522029 11.123 0.666169 10.8928 1.03197L0.345996 17.7897C0.175548 18.0605 0.165763 18.4026 0.32045 18.6827C0.475136 18.9628 0.769802 19.1367 1.08984 19.1367H8.13042L5.51101 29.5273C5.40536 29.9464 5.62011 30.3801 6.01749 30.5502ZM2.68153 17.3789L9.43073 6.65524L7.88931 12.7696C7.8231 13.0324 7.88175 13.3109 8.04828 13.5247C8.2148 13.7384 8.47062 13.8633 8.74155 13.8633H15.3185L8.56923 24.587L10.1106 18.4726C10.1769 18.2099 10.1182 17.9314 9.95168 17.7176C9.78516 17.5039 9.52934 17.3789 9.2584 17.3789H2.68153Z" fill="#787A80"/>
</svg>
