<svg width="18" height="18" viewBox="0 0 18 18" fill="none" xmlns="http://www.w3.org/2000/svg">
<path d="M5.8373 8.75778C5.8373 7.14558 7.14351 5.83828 8.75525 5.83828C10.367 5.83828 11.6739 7.14558 11.6739 8.75778C11.6739 10.37 10.367 11.6773 8.75525 11.6773C7.14351 11.6773 5.8373 10.37 5.8373 8.75778ZM4.25953 8.75778C4.25953 11.2415 6.27226 13.2548 8.75525 13.2548C11.2382 13.2548 13.251 11.2415 13.251 8.75778C13.251 6.27407 11.2382 4.26076 8.75525 4.26076C6.27226 4.26076 4.25953 6.27407 4.25953 8.75778ZM12.3783 4.08246C12.3782 4.29031 12.4398 4.49352 12.5551 4.66639C12.6705 4.83926 12.8345 4.97403 13.0265 5.05365C13.2184 5.13327 13.4297 5.15417 13.6335 5.1137C13.8373 5.07323 14.0246 4.97321 14.1716 4.82629C14.3185 4.67938 14.4187 4.49216 14.4593 4.28831C14.4999 4.08447 14.4792 3.87315 14.3998 3.68109C14.3203 3.48902 14.1857 3.32484 14.013 3.20929C13.8403 3.09374 13.6372 3.03203 13.4294 3.03194H13.4289C13.1504 3.03207 12.8833 3.14278 12.6863 3.33975C12.4893 3.53672 12.3786 3.80384 12.3783 4.08246ZM5.21813 15.8864C4.36453 15.8475 3.90057 15.7053 3.59224 15.5851C3.18348 15.4259 2.89182 15.2364 2.58518 14.93C2.27854 14.6237 2.08872 14.3323 1.93029 13.9234C1.8101 13.6151 1.66791 13.1509 1.62911 12.297C1.58666 11.3739 1.57819 11.0966 1.57819 8.75785C1.57819 6.4191 1.58736 6.14256 1.62911 5.21865C1.66798 4.36481 1.81122 3.90148 1.93029 3.5923C2.08942 3.18342 2.27896 2.89168 2.58518 2.58495C2.8914 2.27821 3.18278 2.08834 3.59224 1.92986C3.90043 1.80964 4.36453 1.66741 5.21813 1.6286C6.141 1.58614 6.41823 1.57766 8.75525 1.57766C11.0923 1.57766 11.3698 1.58684 12.2934 1.6286C13.147 1.66748 13.6102 1.81076 13.9193 1.92986C14.3281 2.08834 14.6197 2.27863 14.9264 2.58495C15.233 2.89126 15.4221 3.18342 15.5813 3.5923C15.7015 3.90057 15.8436 4.36481 15.8824 5.21865C15.9249 6.14256 15.9334 6.4191 15.9334 8.75785C15.9334 11.0966 15.9249 11.3731 15.8824 12.297C15.8436 13.1509 15.7007 13.615 15.5813 13.9234C15.4221 14.3323 15.2326 14.624 14.9264 14.93C14.6201 15.2361 14.3281 15.4259 13.9193 15.5851C13.6111 15.7054 13.147 15.8476 12.2934 15.8864C11.3705 15.9289 11.0933 15.9373 8.75525 15.9373C6.41718 15.9373 6.14072 15.9289 5.21813 15.8864ZM5.14564 0.0530371C4.21359 0.0954948 3.57669 0.243326 3.02049 0.459818C2.44447 0.683387 1.95683 0.983323 1.46955 1.46998C0.982269 1.95663 0.68319 2.44517 0.459686 3.02136C0.243256 3.57808 0.0954672 4.2148 0.0530218 5.14712C0.00987592 6.08091 0 6.37945 0 8.75778C0 11.1361 0.00987592 11.4346 0.0530218 12.3684C0.0954672 13.3008 0.243256 13.9375 0.459686 14.4942C0.68319 15.07 0.982339 15.5591 1.46955 16.0456C1.95676 16.532 2.44447 16.8315 3.02049 17.0557C3.57774 17.2722 4.21359 17.4201 5.14564 17.4625C6.07965 17.505 6.3776 17.5156 8.75525 17.5156C11.1329 17.5156 11.4313 17.5057 12.3649 17.4625C13.297 17.4201 13.9335 17.2722 14.49 17.0557C15.0657 16.8315 15.5537 16.5322 16.0409 16.0456C16.5282 15.5589 16.8267 15.07 17.0508 14.4942C17.2672 13.9375 17.4157 13.3008 17.4575 12.3684C17.4999 11.4339 17.5098 11.1361 17.5098 8.75778C17.5098 6.37945 17.4999 6.08091 17.4575 5.14712C17.415 4.21473 17.2672 3.57773 17.0508 3.02136C16.8267 2.44552 16.5275 1.9574 16.0409 1.46998C15.5544 0.982553 15.0657 0.683387 14.4907 0.459818C13.9335 0.243326 13.2969 0.0947942 12.3656 0.0530371C11.432 0.0105794 11.1336 0 8.75595 0C6.3783 0 6.07965 0.00987878 5.14564 0.0530371Z" fill="#F9C228"/>
</svg>
