<svg width="15" height="17" viewBox="0 0 15 17" fill="none" xmlns="http://www.w3.org/2000/svg">
<path fill-rule="evenodd" clip-rule="evenodd" d="M10.6362 5.63013C11.8079 6.47051 13.2138 6.92125 14.6553 6.9187V4.64588C13.834 4.47207 13.0879 4.04465 12.5222 3.42388C12.0423 3.125 11.6306 2.72838 11.3138 2.2598C10.9971 1.79122 10.7824 1.26117 10.6838 0.704102H8.58397V12.2156C8.58202 12.7251 8.42069 13.2213 8.12263 13.6344C7.82457 14.0474 7.40475 14.3567 6.9221 14.5188C6.43945 14.6809 5.91821 14.6876 5.43155 14.538C4.94489 14.3885 4.51724 14.0901 4.20864 13.6849C3.71958 13.4379 3.32791 13.0332 3.09684 12.5361C2.86577 12.0389 2.80876 11.4784 2.93503 10.9449C3.06129 10.4114 3.36345 9.936 3.79276 9.59546C4.22207 9.25491 4.7535 9.06906 5.30129 9.06789C5.55263 9.06869 5.80243 9.10716 6.04239 9.18201V6.89017C5.0056 6.91508 3.99865 7.24244 3.14513 7.83206C2.29161 8.42168 1.62867 9.24791 1.23768 10.2093C0.846701 11.1707 0.744692 12.2255 0.944178 13.2441C1.14366 14.2627 1.63596 15.2009 2.36065 15.9434C3.16255 16.4793 4.09467 16.7874 5.05771 16.8349C6.02074 16.8825 6.97863 16.6677 7.82933 16.2134C8.68003 15.7591 9.39169 15.0824 9.8885 14.2553C10.3853 13.4282 10.6487 12.4817 10.6505 11.5166L10.6362 5.63013Z" fill="#F9C228"/>
<path fill-rule="evenodd" clip-rule="evenodd" d="M14.6552 4.64549V4.03212C13.901 4.03533 13.1613 3.82428 12.5222 3.42349C13.0864 4.04606 13.8331 4.47383 14.6552 4.64549ZM10.6837 0.703718C10.6837 0.594357 10.6504 0.48024 10.6362 0.370879V0H7.7383V11.5163C7.73578 12.1611 7.47776 12.7786 7.02085 13.2332C6.56395 13.6879 5.94549 13.9425 5.30122 13.9412C4.92187 13.9431 4.54745 13.8552 4.20858 13.6845C4.51718 14.0897 4.94482 14.3881 5.43149 14.5376C5.91815 14.6872 6.43939 14.6805 6.92204 14.5184C7.40469 14.3563 7.82451 14.0471 8.12256 13.634C8.42062 13.2209 8.58195 12.7248 8.58391 12.2152V0.703718H10.6837ZM6.04232 6.88503V6.23361C4.84986 6.07148 3.63769 6.31836 2.60336 6.93403C1.56904 7.5497 0.773543 8.49785 0.346531 9.62396C-0.080481 10.7501 -0.113834 11.9877 0.251907 13.1352C0.617648 14.2828 1.36092 15.2724 2.36058 15.943C1.64138 15.1988 1.15433 14.261 0.958914 13.2442C0.7635 12.2275 0.86819 11.1757 1.26019 10.2176C1.6522 9.25937 2.31455 8.4362 3.16632 7.84861C4.01809 7.26102 5.0224 6.93445 6.05657 6.9088L6.04232 6.88503Z" fill="#F9C228"/>
</svg>
