<svg width="20" height="14" viewBox="0 0 20 14" fill="none" xmlns="http://www.w3.org/2000/svg">
<path d="M19.5342 2.18591C19.3057 1.32682 18.6297 0.649091 17.7697 0.416818C16.2145 1.51721e-07 9.975 0 9.975 0C9.975 0 3.73864 1.51721e-07 2.18035 0.416818C1.32344 0.645909 0.647439 1.32364 0.415757 2.18591C0 3.745 0 7 0 7C0 7 0 10.255 0.415757 11.8141C0.644265 12.6732 1.32027 13.3509 2.18035 13.5832C3.73864 14 9.975 14 9.975 14C9.975 14 16.2145 14 17.7697 13.5832C18.6266 13.3541 19.3026 12.6764 19.5342 11.8141C19.95 10.255 19.95 7 19.95 7C19.95 7 19.95 3.745 19.5342 2.18591Z" fill="#161616"/>
<path d="M7.9819 10.0005L13.1646 7L7.9819 3.99955V10.0005Z" fill="white"/>
</svg>
