<svg width="20" height="14" viewBox="0 0 20 14" fill="none" xmlns="http://www.w3.org/2000/svg">
<path fill-rule="evenodd" clip-rule="evenodd" d="M17.7697 0.416818C18.6297 0.649091 19.3057 1.32682 19.5342 2.18591C19.95 3.745 19.95 7 19.95 7C19.95 7 19.95 10.255 19.5342 11.8141C19.3026 12.6764 18.6266 13.3541 17.7697 13.5832C16.2145 14 9.975 14 9.975 14C9.975 14 3.73864 14 2.18035 13.5832C1.32027 13.3509 0.644265 12.6732 0.415757 11.8141C0 10.255 0 7 0 7C0 7 0 3.745 0.415757 2.18591C0.647439 1.32364 1.32344 0.645909 2.18035 0.416818C3.73864 1.78814e-07 9.975 0 9.975 0C9.975 0 16.2145 1.78814e-07 17.7697 0.416818ZM13.1646 7L7.9819 10.0005V3.99955L13.1646 7Z" fill="#161616"/>
</svg>
