<svg width="60" height="60" viewBox="0 0 60 60" fill="none" xmlns="http://www.w3.org/2000/svg">
<path d="M42.5127 16.3658C42.4506 7.09976 30.9615 1.72836 24.196 8.49142L7.43549 25.2519C7.27771 25.4073 7.14145 25.5507 7.02192 25.7061C5.99158 27.2719 8.20287 28.6059 9.23082 27.052L16.9474 19.3379C21.9198 21.9364 26.0078 26.0269 28.6088 30.9993L20.8947 38.7134C15.3653 44.3647 5.70762 38.7827 7.04358 31.2716C7.16789 30.5808 6.7089 29.921 6.01802 29.7966C5.32476 29.6699 4.66498 30.1313 4.54301 30.8222C3.2784 37.1691 8.88909 43.6617 15.3127 43.5711C18.0978 43.5711 20.7202 42.4834 22.6927 40.5112L39.4556 23.7482C41.4279 21.776 42.5155 19.1536 42.5155 16.3683L42.5127 16.3658ZM30.4835 29.1196C27.7607 24.2357 23.7064 20.1791 18.8221 17.4582L25.9915 10.2888C29.0682 7.22173 34.0814 7.21934 37.1578 10.2864C40.6218 13.1767 40.9445 18.8016 37.6551 21.9478L30.4835 29.1196Z" fill="white"/>
<path d="M34.8177 13.6161C34.1914 13.934 33.9427 14.699 34.2607 15.3254C34.8129 16.413 34.6049 17.7207 33.7443 18.5813L30.6007 21.7249C29.4317 22.9035 31.2175 24.694 32.3984 23.5226L35.5396 20.3814C37.1796 18.7415 37.5764 16.2481 36.527 14.1777C36.209 13.5514 35.4464 13.3003 34.8177 13.6207L34.8177 13.6161Z" fill="white"/>
<path d="M55.3521 39.3392C54.7138 25.6772 32.8757 25.7824 32.3928 39.4443V44.2733C32.3928 49.9365 37.5445 54.5455 43.8749 54.5455C50.2053 54.5455 55.357 49.9389 55.357 44.2733C55.3522 44.2494 55.3664 39.3583 55.3521 39.3392ZM43.8774 31.6294C45.6201 31.6294 47.2433 32.0692 48.6203 32.8199L37.0764 44.3638C35.7616 43.0298 34.9583 41.3134 34.9344 39.4415C34.8699 35.1385 38.9147 31.6318 43.8774 31.6294ZM43.875 52.0018C39.6509 52.0018 36.1101 49.4534 35.1805 46.0444C37.265 48.2127 40.3298 49.6064 43.7507 49.6375C44.4512 49.6447 45.0273 49.0805 45.0321 48.3776C45.0393 47.6748 44.4751 47.1011 43.7723 47.0939C42.0702 47.0795 40.4828 46.6373 39.1322 45.901L50.6761 34.3571C54.3743 37.9262 52.9901 43.9983 48.1923 46.1403C47.5588 46.4439 47.2934 47.2017 47.597 47.8352C48.766 49.8408 51.5486 46.9578 52.5623 46.059C51.6276 49.4608 48.0919 52.002 43.8727 52.002L43.875 52.0018Z" fill="white"/>
</svg>
