<svg width="60" height="61" viewBox="0 0 60 61" fill="none" xmlns="http://www.w3.org/2000/svg">
<path d="M48.0415 16.8061C47.5045 17.3405 47.5045 18.2099 48.0415 18.7468C49.2049 19.9102 49.2101 21.7999 48.0517 22.9582L44.3287 26.6812C43.7918 27.2156 43.7918 28.0849 44.3287 28.6219C44.8657 29.1589 45.7325 29.1589 46.2695 28.6219L49.9925 24.8989C52.2196 22.6718 52.2145 19.0409 49.9822 16.8089C49.4453 16.2719 48.5785 16.2719 48.0415 16.8089V16.8061Z" fill="white"/>
<path d="M53.9682 12.8196C49.5446 8.39347 42.3388 8.39347 37.9131 12.8196L29.8512 20.8841L21.7939 12.8268C17.3652 8.39811 10.1599 8.40067 5.73091 12.8268C4.47541 14.0132 1.01584 19.0096 3.75693 19.8558C4.50355 20.0245 5.23486 19.5643 5.40361 18.8253C6.7537 12.4431 15.3455 10.006 19.853 14.7674L26.3018 21.2161C21.7554 23.0674 16.0227 28.7616 14.1277 33.4026L7.67131 26.9462C6.71502 25.9899 5.99903 24.829 5.60785 23.5889C5.38027 22.8678 4.61064 22.4664 3.88444 22.6965C1.38882 23.6886 4.60809 27.7005 5.73058 28.8869L14.4039 37.5602C14.946 38.0563 15.6005 38.3222 16.3907 38.3145C20.5867 38.3171 27.5056 31.6868 29.8431 27.4601C31.137 29.6643 32.9346 31.7559 34.8062 33.51C35.2869 33.0216 36.2126 32.0013 36.6371 31.4618C33.7093 28.8639 31.0449 24.6476 31.2239 23.4968C34.3818 23.2539 43.4543 32.4025 43.3207 35.5733C42.9576 35.5656 42.1829 35.4199 40.8072 34.6425C40.1475 34.2667 39.3114 34.4993 38.9355 35.159C38.5622 35.8187 38.7923 36.6549 39.452 37.0282C41.8582 38.2965 43.6276 38.9306 45.2819 37.5729C45.2947 37.5703 53.9657 28.8891 53.9755 28.8819C58.3787 24.6578 58.3684 17.0404 53.9653 12.8163L53.9682 12.8196ZM23.7295 30.8208C20.0858 34.4619 17.2168 35.6484 16.3883 35.5793C16.3397 34.7611 17.5031 31.8819 21.1468 28.2381C24.7777 24.6226 27.662 23.344 28.4802 23.5C28.5032 24.4205 27.3244 27.2077 23.7318 30.8209L23.7295 30.8208ZM52.0378 26.9444L45.5814 33.4008C43.9322 29.0207 37.5882 22.7814 33.3845 21.232L39.8536 14.7628C48.2023 6.98957 59.8009 18.6111 52.0375 26.9467L52.0378 26.9444Z" fill="white"/>
<path d="M29.8512 34.5972C24.4227 34.7404 24.4227 42.6898 29.8512 42.8306C35.2797 42.6874 35.2797 34.7379 29.8512 34.5972ZM29.8512 40.0845C28.0485 40.0512 28.0485 37.3715 29.8512 37.3408C31.6538 37.3741 31.6538 40.0538 29.8512 40.0845Z" fill="white"/>
<path d="M30.2084 46.2653C28.4058 46.2959 28.4058 48.9808 30.2084 49.0089C32.0111 48.9782 32.0111 46.2934 30.2084 46.2653Z" fill="white"/>
<path d="M23.448 41.8538C23.4173 40.0512 20.7325 40.0512 20.7043 41.8538C20.735 43.6565 23.4198 43.6565 23.448 41.8538Z" fill="white"/>
<path d="M27.8234 54.3016C26.0208 54.3323 26.0208 57.0171 27.8234 57.0453C29.6261 57.0146 29.6261 54.3298 27.8234 54.3016Z" fill="white"/>
<path d="M34.8935 51.297C33.0908 51.3277 33.0908 54.0125 34.8935 54.0406C36.6962 54.01 36.6962 51.3251 34.8935 51.297Z" fill="white"/>
<path d="M20.702 45.807C15.2735 45.9502 15.2735 53.8997 20.702 54.0404C26.1305 53.8972 26.1305 45.9477 20.702 45.807ZM20.702 51.2968C18.8993 51.2636 18.8993 48.5839 20.702 48.5532C22.5047 48.5864 22.5047 51.2661 20.702 51.2968Z" fill="white"/>
<path d="M39.6007 41.8538C34.1722 41.997 34.1722 49.9464 39.6007 50.0872C45.0292 49.944 45.0292 41.9945 39.6007 41.8538ZM39.6007 47.3436C37.798 47.3104 37.798 44.6307 39.6007 44.6C41.4033 44.6332 41.4033 47.3129 39.6007 47.3436Z" fill="white"/>
</svg>
