<svg width="130" height="20" fill="none" xmlns="http://www.w3.org/2000/svg"><path fill-rule="evenodd" clip-rule="evenodd" d="M12.655 17.348H2.52V.457H0v19.086h12.655v-2.195zM23.053.457h-2.845l-7.506 19.086h2.68l2.174-5.842h8.017l2.123 5.842h2.813L23.052.457zm1.77 11.231h-6.541l3.296-8.82 3.246 8.82zm23.915.644h-2.525c-.4 3.565-2.383 5.495-5.628 5.495-3.973 0-6.411-2.976-6.411-7.827 0-4.02 1.904-7.805 6.438-7.805 2.84 0 4.88 1.503 5.443 3.998h2.52C48.197 2.118 44.417.028 40.66.028c-5.871 0-9.035 4.527-9.035 9.999 0 6.112 3.406 9.973 8.848 9.973 4.72 0 7.834-2.816 8.263-7.668zM60.124 0c-5.551 0-9.122 3.835-9.122 9.785 0 5.55 3.032 10.215 9.15 10.215 6.058 0 9.144-4.56 9.144-10.16 0-5.686-3.246-9.84-9.172-9.84zm0 2.195c4.05 0 6.652 3.06 6.652 7.778 0 4.746-2.603 7.854-6.601 7.854-4.05 0-6.648-3.08-6.648-7.854 0-4.076 2.09-7.778 6.597-7.778zM72.501.457v19.086h2.415V4.235l10.031 15.308h2.845V.457h-2.443v15.495L75.264.457H72.5zm22.253 0h-2.526v19.086h2.526V.457zm17.983 5.6c-.159-4.099-2.949-5.979-6.999-5.979-3.433 0-6.921 1.528-6.921 5.445 0 4.02 3.566 4.532 6.651 5.226 3.137.726 5.552 1.21 5.552 3.673 0 2.712-2.52 3.488-4.747 3.488-3.059 0-5.579-1.206-5.684-4.665h-2.443c0 4.61 3.351 6.727 7.912 6.727 3.648 0 7.428-1.552 7.428-5.792 0-4.02-3.968-4.983-7.081-5.626-2.949-.617-5.172-1.073-5.172-3.218 0-2.013 1.579-3.168 4.318-3.168 2.813 0 4.451 1.128 4.743 3.889h2.443zM130 .457h-15.345v2.195h6.41v16.891h2.524V2.653H130V.456z" fill="#fff"/></svg>