<svg width="72" height="72" viewBox="0 0 72 72" fill="none" xmlns="http://www.w3.org/2000/svg">
<g clip-path="url(#clip0_363_724)">
<path d="M19.0801 40.59C15.7727 41.3386 12.3912 41.711 9.00013 41.7H8.40013C7.41509 39.4074 6.83646 36.9609 6.69013 34.47C3.45013 19.47 3.12013 19.74 6.69013 18.66C12.1801 16.98 15.3901 17.04 16.2001 14.19C16.2001 13.83 18.0601 8.18998 18.2101 7.49998L26.4601 5.99998C28.2901 8.33998 29.8801 11.31 30.9901 11.64C35.4695 11.6103 39.941 11.2594 44.3701 10.59C47.9701 13.02 48.6001 19.35 49.7701 24.9C49.8059 25.1625 49.9446 25.4001 50.1556 25.5605C50.3665 25.7208 50.6326 25.7908 50.8951 25.755C51.1577 25.7192 51.3953 25.5805 51.5556 25.3696C51.716 25.1586 51.7859 24.8925 51.7501 24.63C50.7901 19.05 50.3101 11.76 45.7501 8.51998C44.1301 7.34998 31.8001 8.75998 32.0701 8.72998C28.8001 4.31998 29.0701 2.72998 25.6801 2.72998C22.6457 3.12882 19.6396 3.72001 16.6801 4.49998C15.0001 5.39998 13.6801 10.11 13.2301 12C12.5701 9.86998 12.3901 8.48998 10.9501 7.97998C7.55691 8.08536 4.22835 8.93542 1.20013 10.47C-0.809872 12 0.000128418 14.31 1.50013 17.64C0.000128418 19.2 0.990128 22.38 1.50013 24.69C6.00013 41.64 4.65013 38.37 5.34013 40.5C6.18013 43.14 7.17013 43.92 9.81013 43.86C13.0563 43.6121 16.277 43.1004 19.4401 42.33C19.6398 42.2538 19.8059 42.109 19.9086 41.9215C20.0113 41.734 20.0439 41.5161 20.0006 41.3068C19.9573 41.0975 19.8409 40.9104 19.6722 40.7791C19.5036 40.6477 19.2937 40.5807 19.0801 40.59ZM2.82013 13.59C2.82013 12.27 8.34013 11.82 9.93013 10.8C10.5728 11.7461 11.1252 12.7505 11.5801 13.8C8.76322 14.4779 5.99661 15.35 3.30013 16.41C3.04201 15.5098 2.88109 14.5845 2.82013 13.65V13.59Z" fill="#F9C228"/>
<path d="M71.6104 44.28C70.8004 41.01 69.8703 40.53 67.6803 39.69C68.6103 37.26 70.1403 35.01 67.5003 33.69C66.0241 33.2601 64.5207 32.9294 63.0003 32.7C62.5523 32.6448 62.0986 32.7398 61.7103 32.97C61.2583 33.403 60.9362 33.9537 60.7803 34.56C60.4933 35.5325 60.3816 36.5483 60.4503 37.56L57.4503 36.66C55.8603 31.08 56.7903 30 54.0003 28.86C50.6695 27.8295 47.1965 27.3333 43.7103 27.39C42.1803 28.02 41.6703 29.55 39.0303 32.85C39.3903 29.37 39.7803 28.17 38.6103 27.09C37.8903 26.43 28.6203 24.09 27.0603 26.55C26.3172 28.5103 26.01 30.609 26.1603 32.7C24.0903 33.66 23.5503 38.43 21.6003 49.29C21.1803 51.75 19.6503 55.11 20.5503 57.87C21.4503 60.63 29.1303 62.04 32.8203 62.82C63.5703 69.45 59.6103 68.82 61.4703 69.03C62.7996 69.3329 64.1923 69.1741 65.4193 68.5797C66.6462 67.9853 67.6341 66.9908 68.2203 65.76C69.0303 64.17 69.1803 63.27 71.4303 52.35C72.1335 49.7129 72.1952 46.9458 71.6104 44.28ZM63.0003 34.92C63.9718 35.3008 64.9759 35.592 66.0003 35.79C66.9003 35.79 65.7303 39.06 65.7303 39.06L62.0103 37.92C62.2032 36.8798 62.5362 35.8706 63.0003 34.92ZM28.8903 29.16C29.3703 27.84 34.1103 29.82 36.5103 29.4C36.7803 30.42 36.5103 28.68 36.9303 33.24C34.0663 32.7128 31.1695 32.3821 28.2603 32.25V31.32C28.4703 30.72 28.6203 30 28.8903 29.16ZM67.1103 57.87C66.4203 60.33 66.0603 64.62 64.1103 65.67C62.5503 66.42 56.7903 64.5 55.1103 64.11C31.1103 59.07 26.7003 58.11 24.3003 57.09C22.8303 56.4 23.2803 57.51 27.5403 34.92C30.0003 33.96 37.0803 36.09 39.8103 35.28C41.1903 34.86 43.6203 29.64 44.8803 29.28C48.1327 29.2923 51.3519 29.9341 54.3603 31.17C54.6303 32.16 55.1703 35.58 55.5003 37.17C56.1603 39.81 60.4503 39.3 68.5203 42.99C70.4703 46.41 68.3403 52.65 67.1103 57.87Z" fill="#F9C228"/>
<path d="M20.2798 30.24C19.1698 28.41 18.8998 24.24 20.6098 22.86C21.7934 21.7353 23.2883 20.9931 24.8998 20.73C26.4958 20.4105 28.1535 20.6655 29.5798 21.45C29.7747 21.629 30.0328 21.7233 30.2972 21.712C30.5616 21.7008 30.8107 21.5849 30.9898 21.39C31.1688 21.1951 31.263 20.937 31.2518 20.6726C31.2405 20.4082 31.1247 20.159 30.9298 19.98C29.1832 18.4809 26.9287 17.7079 24.6298 17.82C22.3581 17.9507 20.1899 18.8138 18.4498 20.28C15.4498 23.1 16.4398 28.65 18.8698 31.32C18.9312 31.4352 19.0171 31.5356 19.1213 31.6143C19.2254 31.693 19.3455 31.748 19.4731 31.7757C19.6007 31.8033 19.7328 31.8029 19.8602 31.7744C19.9876 31.7458 20.1073 31.69 20.2109 31.6106C20.3146 31.5312 20.3997 31.4302 20.4604 31.3146C20.5211 31.199 20.556 31.0716 20.5625 30.9412C20.5691 30.8108 20.5472 30.6806 20.4983 30.5595C20.4495 30.4384 20.3749 30.3294 20.2798 30.24Z" fill="#F9C228"/>
<path d="M47.9997 41.49C47.9052 41.425 47.7987 41.3792 47.6865 41.3554C47.5743 41.3315 47.4584 41.33 47.3456 41.3509C47.2328 41.3718 47.1252 41.4147 47.0289 41.4771C46.9327 41.5396 46.8497 41.6204 46.7847 41.715C46.7197 41.8095 46.674 41.916 46.6501 42.0282C46.6262 42.1404 46.6247 42.2563 46.6456 42.3691C46.6665 42.4819 46.7094 42.5895 46.7718 42.6858C46.8343 42.782 46.9152 42.865 47.0097 42.93C48.5125 43.7635 49.6626 45.113 50.2472 46.729C50.8318 48.3449 50.8114 50.1179 50.1897 51.72C49.7663 52.4907 49.1787 53.1588 48.4685 53.6773C47.7582 54.1957 46.9427 54.5517 46.0797 54.72C37.0797 56.64 35.0697 46.5 40.0797 43.68C40.9797 43.2 43.8597 43.32 44.0697 42.06C44.0959 41.9319 44.0965 41.7999 44.0714 41.6716C44.0463 41.5433 43.996 41.4212 43.9235 41.3125C43.851 41.2037 43.7576 41.1103 43.6489 41.0378C43.5401 40.9653 43.418 40.9151 43.2897 40.89C42.0322 40.7945 40.7695 40.9896 39.5995 41.4603C38.4295 41.931 37.3835 42.6645 36.5424 43.6042C35.7013 44.5439 35.0877 45.6646 34.7491 46.8794C34.4105 48.0942 34.3559 49.3707 34.5897 50.61C37.0797 62.07 51.2997 59.16 52.8597 52.59C53.4727 50.4635 53.3223 48.1895 52.4346 46.1622C51.547 44.1348 49.9781 42.482 47.9997 41.49Z" fill="#F9C228"/>
<path d="M9.53974 22.08C9.43233 21.8731 9.24713 21.7174 9.0249 21.647C8.80267 21.5767 8.56161 21.5975 8.35474 21.705C8.14787 21.8124 7.99214 21.9976 7.92182 22.2198C7.85149 22.442 7.87233 22.6831 7.97974 22.89C9.08974 25.89 7.82974 30.21 11.2197 36.45C11.3192 36.6966 11.5126 36.8936 11.7573 36.9977C12.002 37.1018 12.2781 37.1044 12.5247 37.005C12.7714 36.9055 12.9684 36.7121 13.0725 36.4674C13.1766 36.2227 13.1792 35.9466 13.0797 35.7C11.9997 31.8 13.1397 27 9.53974 22.08Z" fill="#F9C228"/>
<path d="M30.0003 39.72C29.7903 42.99 27.0003 46.41 27.6603 53.46C27.6603 53.7225 27.7646 53.9743 27.9503 54.16C28.136 54.3456 28.3878 54.45 28.6503 54.45C28.9129 54.45 29.1647 54.3456 29.3504 54.16C29.536 53.9743 29.6403 53.7225 29.6403 53.46C30.2103 49.41 33.1203 45.48 31.7403 39.54C31.7285 39.4257 31.6943 39.3149 31.6397 39.2139C31.585 39.1128 31.511 39.0236 31.4219 38.9511C31.3327 38.8787 31.2302 38.8245 31.1201 38.7917C31.0101 38.7589 30.8946 38.7481 30.7803 38.76C30.6661 38.7718 30.5553 38.806 30.4543 38.8606C30.3532 38.9153 30.2639 38.9893 30.1915 39.0784C30.1191 39.1676 30.0649 39.2701 30.0321 39.3802C29.9993 39.4902 29.9885 39.6057 30.0003 39.72Z" fill="#F9C228"/>
<path d="M37.6201 19.53C35.7901 16.53 36.3001 15.54 35.2201 15.6C35.1045 15.5997 34.9902 15.6232 34.8841 15.6691C34.7781 15.715 34.6827 15.7823 34.6038 15.8668C34.525 15.9513 34.4644 16.0511 34.4259 16.16C34.3874 16.269 34.3718 16.3847 34.3801 16.5C34.5823 17.843 34.8934 19.1673 35.3101 20.46C35.5112 21.0652 35.9 21.5907 36.4201 21.96C37.3501 22.44 44.5201 22.35 45.4201 19.89C45.6311 17.6399 45.0932 15.383 43.8901 13.47C43.7042 13.2615 43.4708 13.1009 43.2097 13.0017C42.9486 12.9025 42.6675 12.8676 42.3901 12.9C40.8176 13.0185 39.2659 13.3308 37.7701 13.83C37.6406 13.8582 37.5181 13.9121 37.4098 13.9886C37.3016 14.0651 37.2098 14.1625 37.1399 14.2751C37.07 14.3877 37.0234 14.5132 37.0029 14.6441C36.9824 14.775 36.9884 14.9088 37.0205 15.0373C37.0527 15.1659 37.1103 15.2867 37.19 15.3926C37.2697 15.4985 37.3699 15.5873 37.4845 15.6538C37.5992 15.7202 37.7261 15.763 37.8576 15.7795C37.9891 15.796 38.1225 15.786 38.2501 15.75C39.4395 15.5552 40.646 15.4849 41.8501 15.54C42.0392 16.4597 42.1595 17.3923 42.2101 18.33C41.2279 18.6317 40.2253 18.8623 39.2101 19.02C38.7001 19.14 38.0401 19.44 37.6201 19.53Z" fill="#F9C228"/>
<path d="M65.5197 43.95C64.0326 43.4515 62.492 43.1293 60.9297 42.99C60.7995 42.9687 60.6664 42.9737 60.5381 43.0046C60.4099 43.0355 60.2891 43.0918 60.1829 43.17C60.0767 43.2483 59.9872 43.347 59.9197 43.4603C59.8522 43.5737 59.808 43.6993 59.7897 43.83C59.5497 45.21 61.0797 44.79 63.9897 46.17C63.8064 47.097 63.5557 48.0094 63.2397 48.9C62.2308 48.7877 61.2291 48.6174 60.2397 48.39C59.6997 48.39 58.9497 48.39 58.5297 48.21C58.4212 47.0726 58.4212 45.9274 58.5297 44.79C58.592 44.5725 58.57 44.3395 58.4682 44.1375C58.3664 43.9354 58.1923 43.7791 57.9805 43.6997C57.7686 43.6202 57.5346 43.6235 57.3251 43.7088C57.1156 43.7941 56.9458 43.9552 56.8497 44.16C56.5224 45.4801 56.3016 46.8245 56.1897 48.18C56.1082 48.811 56.2574 49.4502 56.6097 49.98C57.6425 50.6776 58.7755 51.2137 59.9697 51.57C61.6197 52.11 64.4997 52.86 65.6397 51.57C66.7135 49.5587 67.0932 47.2492 66.7197 45C66.6066 44.7492 66.4409 44.5257 66.2339 44.3445C66.0268 44.1634 65.7833 44.0288 65.5197 43.95Z" fill="#F9C228"/>
</g>
<defs>
<clipPath id="clip0_363_724">
<rect width="72" height="72" fill="white"/>
</clipPath>
</defs>
</svg>
