<svg width="139" height="139" viewBox="0 0 139 139" fill="none" xmlns="http://www.w3.org/2000/svg">
<g clip-path="url(#clip0_496_3036)">
<path fill-rule="evenodd" clip-rule="evenodd" d="M81.373 95.3887L60.6968 110.737C59.4805 111.663 57.6851 113.517 55.7739 114.849C55.1411 115.457 54.3282 115.843 53.4572 115.949C51.108 115.617 48.9423 114.493 47.318 112.764C44.2718 109.721 41.4642 106.449 38.9201 102.976C34.3447 97.1842 29.8851 91.3925 25.5993 85.6008C21.3135 79.8092 17.3751 73.7279 13.6105 67.5308C5.79179 54.905 6.25513 59.3646 9.2668 56.1213C11.0768 54.0738 13.011 52.1396 15.0585 50.3296C17.0992 48.5235 19.2459 46.841 21.4872 45.2908L33.0705 36.0821L36.893 33.1283C37.8197 33.1283 38.8043 34.1708 39.8468 35.0975C41.2841 36.4423 42.6381 37.8736 43.901 39.3833L49.6926 46.3333L68.6893 71.7588C69.0195 72.2042 69.5132 72.5002 70.0617 72.5817C70.6102 72.6632 71.1686 72.5234 71.6141 72.1931C72.0595 71.8629 72.3556 71.3692 72.437 70.8207C72.5185 70.2722 72.3787 69.7138 72.0485 69.2683L53.7468 43.2638L48.2447 35.9663C46.3517 33.4817 44.1747 31.2269 41.758 29.2479C40.2109 28.0216 38.2879 27.367 36.3139 27.3946C35.2618 27.5794 34.2574 27.9733 33.3601 28.5529C32.0189 29.405 30.7413 30.3535 29.5376 31.3908L17.9543 39.9625C15.4639 41.6421 13.0893 43.3796 10.7726 45.2329C8.45909 47.1546 6.25481 49.2042 4.17013 51.3721C2.77267 52.7375 1.52964 54.2524 0.463462 55.8896C0.240226 56.4011 0.125 56.9532 0.125 57.5113C0.125 58.0693 0.240226 58.6214 0.463462 59.1329C1.01686 60.6077 1.71528 62.024 2.54846 63.3608C4.17013 66.0829 6.31305 68.7471 7.81888 71.1796C11.5835 77.4925 15.5797 83.7475 20.0972 89.7708C24.6147 95.7942 29.3639 101.354 34.2868 107.146C37.6557 111.47 41.5463 115.36 45.8701 118.729C48.0977 120.356 50.7589 121.284 53.5151 121.393C55.1053 121.322 56.638 120.778 57.9168 119.83C59.9485 118.249 61.8826 116.547 63.7085 114.733C67.6468 111.49 71.5851 108.13 75.2918 104.945C77.9174 102.821 80.5815 100.736 83.2843 98.69C83.6052 98.3855 83.8065 97.9762 83.852 97.5362C83.8975 97.0962 83.7841 96.6544 83.5323 96.2907C83.2805 95.927 82.9069 95.6654 82.4791 95.5531C82.0512 95.4408 81.5973 95.4852 81.1993 95.6783L81.373 95.3887Z" fill="#F9C228"/>
<path fill-rule="evenodd" clip-rule="evenodd" d="M51.7786 64.635C49.507 62.4106 46.5364 61.0398 43.3699 60.7548C40.2034 60.4698 37.0358 61.2882 34.4036 63.0713C32.8988 64.3074 31.6647 65.84 30.7779 67.5738C29.8911 69.3075 29.3707 71.2052 29.249 73.1488C29.0838 75.1105 29.3862 77.0834 30.1312 78.9056C30.8762 80.7279 32.0426 82.3475 33.5348 83.6317C35.8332 85.417 38.6756 86.3577 41.5852 86.2958C44.2983 86.3424 46.969 85.6195 49.2881 84.2108C49.7097 83.9572 50.0172 83.5507 50.1467 83.0761C50.2762 82.6014 50.2176 82.0951 49.9831 81.6625C50.27 81.6824 50.5577 81.641 50.8273 81.5412C51.0969 81.4413 51.3422 81.2853 51.5469 81.0833C52.7836 80.1069 53.787 78.8669 54.4841 77.4538C55.1811 76.0407 55.5543 74.4899 55.5765 72.9143C55.5987 71.3387 55.2693 69.778 54.6123 68.3458C53.9553 66.9136 52.9872 65.6459 51.7786 64.635ZM48.4194 78.0138C48.0816 78.3866 47.8945 78.8717 47.8945 79.3748C47.8945 79.8779 48.0816 80.363 48.4194 80.7358H47.7244C45.9028 81.5267 43.8898 81.7683 41.9327 81.4308C40.2281 81.2217 38.6504 80.4226 37.4731 79.1721C36.8139 78.378 36.35 77.4404 36.1186 76.4346C35.8873 75.4288 35.895 74.3827 36.1411 73.3804C36.3233 71.3807 37.2792 69.5311 38.8052 68.2258C40.1245 67.2623 41.7329 66.7773 43.365 66.851C44.9971 66.9247 46.5552 67.5527 47.7823 68.6313C48.5628 69.1159 49.2169 69.7793 49.6904 70.5666C50.1639 71.3539 50.4433 72.2426 50.5055 73.1592C50.5678 74.0759 50.4111 74.9942 50.0483 75.8383C49.6856 76.6824 49.1272 77.4281 48.4194 78.0138Z" fill="#F9C228"/>
<path fill-rule="evenodd" clip-rule="evenodd" d="M100.658 37.0087C100.102 33.9757 99.367 30.9782 98.4576 28.0317C97.6532 25.5595 96.6055 23.1733 95.3301 20.9079C94.2694 18.9969 92.6257 17.475 90.6389 16.5642C89.2676 16.0706 87.7982 15.9118 86.3531 16.1008C83.8576 16.5561 81.3991 17.1949 78.9976 18.0121C78.5138 18.1273 78.0955 18.43 77.8348 18.8536C77.5742 19.2772 77.4924 19.787 77.6076 20.2708C77.7228 20.7547 78.0255 21.173 78.4491 21.4336C78.8727 21.6943 79.3825 21.776 79.8664 21.6608C81.7777 21.2793 83.7127 21.0278 85.6581 20.9079C86.558 20.8424 87.4588 21.0226 88.2643 21.4292C89.0751 21.8925 89.4226 22.935 89.886 23.9196C90.7179 25.9151 91.339 27.9921 91.7393 30.1167C92.8397 33.36 93.5926 36.6613 94.4035 39.9625C95.2143 43.2638 96.3147 46.7387 97.2414 50.0979C98.1681 53.4571 98.6893 54.8471 98.6893 54.905C99.1527 57.3375 102.28 55.3683 102.512 51.8354C101.353 45.87 101.817 42.9742 100.658 37.0087Z" fill="#F9C228"/>
<path fill-rule="evenodd" clip-rule="evenodd" d="M139.001 95.6204C138.601 91.4088 137.606 87.275 136.047 83.3421C134.502 79.3613 132.31 75.6628 129.56 72.3958C122.938 64.8151 114.073 59.5407 104.251 57.3375C102.166 56.3529 100.602 57.8588 100.66 60.3492C99.7653 63.5917 98.3785 66.6779 96.548 69.5C94.3324 71.2796 91.6752 72.4243 88.86 72.8119C86.0447 73.1995 83.1771 72.8155 80.563 71.7008C78.9458 71.3623 77.2629 71.5448 75.7559 72.2221C73.8843 72.8063 72.2573 73.9909 71.1266 75.5926C69.996 77.1944 69.4246 79.1242 69.5009 81.0833C69.4919 82.8914 69.9062 84.6764 70.7108 86.2956C71.5154 87.9148 72.6878 89.3231 74.1342 90.4079C74.8872 90.8133 76.4509 91.5663 78.4201 92.3771C82.8797 94.2304 90.0034 96.6629 92.7255 98.1688C92.2622 99.3271 93.9417 102.397 94.2313 103.265C95.597 107.129 97.7018 110.689 100.428 113.748C101.46 114.934 102.746 115.872 104.189 116.494C105.633 117.115 107.198 117.404 108.768 117.339C109.321 117.339 109.852 117.119 110.243 116.728C110.634 116.337 110.853 115.807 110.853 115.254C110.853 114.701 110.634 114.171 110.243 113.78C109.852 113.389 109.321 113.169 108.768 113.169C107.834 113.11 106.924 112.846 106.103 112.396C105.282 111.946 104.571 111.32 104.019 110.563C101.957 107.879 100.46 104.806 99.6176 101.528C99.328 100.485 99.2121 97.1842 98.7488 95.7363C98.54 94.9328 98.046 94.2329 97.3588 93.7671C95.9901 92.8889 94.5575 92.1145 93.073 91.4504C88.0342 89.1338 79.8101 85.6588 77.8988 84.5004C77.4828 84.0614 77.1605 83.5423 76.9514 82.9748C76.7423 82.4073 76.6508 81.8032 76.6826 81.1992C76.6308 80.692 76.7437 80.1816 77.0044 79.7436C77.2652 79.3055 77.66 78.963 78.1305 78.7667C78.8009 78.6475 79.4871 78.6475 80.1576 78.7667C82.9866 79.0445 85.8291 79.1605 88.6713 79.1142C91.2237 78.8896 93.6948 78.1034 95.9077 76.8117C98.1205 75.5201 100.02 73.755 101.471 71.6429C103.296 68.6626 104.259 65.2341 104.251 61.7392C112.2 64.654 119.139 69.8025 124.232 76.5658C126.37 79.4533 128.123 82.6074 129.445 85.9483C130.801 89.3226 131.772 92.8392 132.34 96.4313C133.67 105.149 133.277 114.043 131.182 122.61C131.038 123.147 131.108 123.719 131.379 124.206C131.649 124.692 132.098 125.054 132.63 125.216C133.16 125.358 133.725 125.286 134.202 125.015C134.679 124.744 135.03 124.296 135.178 123.768C138.402 114.755 139.704 105.167 139.001 95.6204Z" fill="#F9C228"/>
<path fill-rule="evenodd" clip-rule="evenodd" d="M86.1809 58.2063C84.5013 52.4146 82.9955 46.6229 81.3738 40.8313C80.3313 36.9508 79.1151 33.1283 78.0147 29.2479C77.1091 25.2046 75.6472 21.3064 73.6709 17.6646C73.0173 16.5421 72.1123 15.5866 71.0269 14.8731C69.9416 14.1595 68.7055 13.7075 67.4159 13.5525C66.4915 13.4971 65.5697 13.6975 64.7518 14.1317C63.2727 15.0201 61.842 15.9867 60.4659 17.0275L46.3343 26.0046C46.0742 26.0771 45.8331 26.2055 45.6278 26.3809C45.4225 26.5564 45.2581 26.7745 45.1459 27.0201C45.0338 27.2658 44.9767 27.5329 44.9786 27.8029C44.9805 28.0729 45.0413 28.3392 45.1569 28.5833C45.2725 28.8273 45.44 29.0431 45.6477 29.2156C45.8554 29.3881 46.0983 29.5132 46.3594 29.582C46.6205 29.6508 46.8935 29.6618 47.1593 29.6141C47.425 29.5664 47.6772 29.4612 47.898 29.3058L63.188 22.0083C65.7943 20.6763 66.5472 16.8538 68.9797 23.7458C70.0222 26.5258 70.6593 29.5375 71.1226 31.2171C73.3813 38.1092 75.5822 44.9433 78.0147 51.7775C80.4472 58.6117 82.0109 61.1021 84.6172 67.2412C85.7755 70.6004 88.7872 71.4112 88.7872 68.9208C87.5709 64.8667 87.3972 62.2604 86.1809 58.2063Z" fill="#F9C228"/>
</g>
<defs>
<clipPath id="clip0_496_3036">
<rect width="139" height="139" fill="white"/>
</clipPath>
</defs>
</svg>
