<svg width="52" height="52" viewBox="0 0 52 52" fill="none" xmlns="http://www.w3.org/2000/svg">
<g clip-path="url(#clip0_376_620)">
<path fill-rule="evenodd" clip-rule="evenodd" d="M42.197 23.1388L41.9389 21.863L42.1904 21.8121C42.4709 21.7086 42.7385 21.5728 42.9877 21.4076C43.1837 21.2577 43.337 21.059 43.4322 20.8313C43.4663 20.696 43.4696 20.5547 43.4419 20.4179C43.4142 20.2811 43.3562 20.1522 43.2722 20.0407C43.2431 19.8969 42.8722 19.6353 42.8217 19.5707L41.4593 18.1069C40.4988 17.0134 39.4824 15.9704 38.4141 14.9821C37.6443 14.3212 36.8009 13.7513 35.9006 13.2836C35.3598 12.9762 34.7938 12.7153 34.2089 12.5036C33.8408 12.3866 33.4506 12.3567 33.069 12.4163C32.9295 12.4363 32.7963 12.4876 32.6795 12.5663C32.5626 12.645 32.465 12.7491 32.394 12.8709C32.2369 13.228 32.0985 13.5932 31.9795 13.9648L30.6458 17.2649C30.5908 17.396 30.5887 17.5433 30.64 17.6759C30.6912 17.8085 30.7918 17.9161 30.9207 17.9762C30.9848 18.0086 31.0551 18.0272 31.1269 18.0308C31.1987 18.0344 31.2704 18.0229 31.3375 17.997C31.4045 17.971 31.4654 17.9313 31.5161 17.8804C31.5669 17.8295 31.6063 17.7685 31.632 17.7013L33.3725 14.6556L33.67 14.2774C34.1056 14.4885 34.509 14.8184 34.8474 15.0118C35.6085 15.4248 36.3315 15.9045 37.008 16.4451C38.067 17.3343 39.1047 18.3028 40.0776 19.2282L41.4178 20.3973L41.0584 20.47C40.3998 20.1731 37.5934 20.9093 34.289 22.4197C34.222 22.4424 34.1603 22.4783 34.1074 22.5251C34.0545 22.572 34.0115 22.6289 33.9808 22.6926C33.9501 22.7562 33.9325 22.8254 33.9289 22.896C33.9253 22.9665 33.9357 23.0371 33.9597 23.1036C33.98 23.1702 34.0137 23.232 34.0587 23.2852C34.1036 23.3384 34.1589 23.3819 34.2212 23.413C34.2835 23.4442 34.3515 23.4623 34.421 23.4663C34.4905 23.4704 34.5602 23.4602 34.6256 23.4365L37.0515 22.9456C37.8375 22.8078 38.6308 22.716 39.4275 22.6705L40.0025 22.5542L40.2776 23.3589L41.0123 25.5109C41.1723 26.3016 42.5557 25.9281 42.4498 25.22L42.197 23.1388Z" fill="#F9C228"/>
<path fill-rule="evenodd" clip-rule="evenodd" d="M49.166 29.8467L48.8206 28.1396C48.7078 27.5826 48.6642 27.3669 48.4764 26.9934C48.3791 26.6666 48.2582 26.3472 48.1147 26.0379C47.9988 25.8238 47.8055 25.6622 47.5743 25.586C47.1501 25.4699 46.7051 25.4512 46.2726 25.5315L44.1523 25.9606C43.6312 26.066 45.6258 25.6624 39.8718 26.7145L35.6311 27.5727L31.5236 28.5348C31.4546 28.1934 31.3855 27.852 31.2229 27.5108C30.9865 26.3428 30.8328 25.1207 30.5855 23.8988L30.2982 22.4792L30.8193 22.3738C31.3153 22.2395 31.7713 21.9868 32.148 21.6373C32.2352 21.5491 32.3004 21.4415 32.3383 21.3233C32.3761 21.2052 32.3855 21.0797 32.3658 20.9572C32.3805 20.8328 32.355 20.7068 32.293 20.5979C32.1661 20.4316 32.0224 20.279 31.8641 20.1422L30.9231 19.0046C30.2916 18.2958 29.6022 17.6407 28.8621 17.0461C27.8282 16.1892 26.6615 15.4152 25.6959 14.5257L23.6717 12.9339L23.1923 12.4137C24.4389 11.9031 25.6413 11.2907 26.7872 10.5826C27.4963 10.0831 28.0505 9.39401 28.3863 8.59426C28.4483 8.46271 28.4789 8.31848 28.4754 8.17306C28.472 8.02764 28.4346 7.88502 28.3664 7.75656C28.2708 7.54471 28.1036 7.37326 27.8943 7.27225C27.6135 7.1786 27.3244 7.11184 27.0309 7.07286L25.5232 6.55494L22.4292 5.68467C22.2854 5.71376 21.8283 5.48828 21.5406 5.45298C21.3191 5.4026 21.0889 5.40435 20.8682 5.4581C20.6272 5.55547 20.4284 5.73508 20.3071 5.96505C20.1859 6.19503 20.15 6.46052 20.2059 6.71442C20.275 7.05584 20.543 7.91814 20.5576 7.99002L21.5451 12.2232L21.4553 12.2414C21.2433 12.5239 21.0733 12.8355 20.9504 13.1666L19.7835 15.4416C19.2358 16.5251 18.6916 17.533 18.2592 18.7241C17.7744 19.8278 17.3602 20.9612 17.0193 22.1175C16.8268 22.7119 16.6874 23.3222 16.6028 23.9413C16.5251 24.442 16.5963 24.9544 16.8075 25.415C16.864 25.5342 16.9549 25.6337 17.0685 25.7007C17.182 25.7678 17.3131 25.7992 17.4447 25.7911L18.7924 25.5184C18.8906 26.0035 19.1473 26.625 19.1655 26.7148L20.4346 31.4148C8.83933 34.6591 10.3772 34.2169 6.12021 35.8266C6.053 35.8472 5.99054 35.8809 5.93644 35.9258C5.88235 35.9707 5.8377 36.0259 5.80507 36.0881C5.77244 36.1504 5.75249 36.2185 5.74636 36.2886C5.74023 36.3586 5.74806 36.4291 5.76937 36.4961C6.21494 37.9585 5.8654 37.6177 6.7165 41.916L7.13104 43.9644C7.33467 44.9707 7.64611 45.9552 7.87135 46.9758L8.44439 49.1605C8.22876 49.2041 8.55712 49.7175 8.59348 49.8972C8.65853 50.0815 8.77966 50.2407 8.93984 50.3525C9.10002 50.4644 9.29122 50.5232 9.48657 50.5208C10.0655 50.5313 10.6426 50.4524 11.1975 50.2868C12.3116 50.0614 13.1694 49.4015 14.488 48.985L14.6317 48.9559L14.7395 48.9341C14.8636 48.8696 14.9595 48.7616 15.009 48.6308C15.0584 48.5 15.058 48.3556 15.0076 48.2252C14.0978 46.1988 13.6518 43.9949 13.7022 41.7743C13.7 41.1365 13.8777 40.5111 14.2148 39.9698C14.5519 39.4285 15.0348 38.9931 15.608 38.7138C16.0586 38.4763 16.5735 38.3895 17.0771 38.466C17.5807 38.5425 18.0465 38.7783 18.4063 39.1389C19.6068 40.5018 20.3939 42.1788 20.6752 43.9732C20.7152 44.1709 20.9853 45.968 21.2206 46.6686C21.2728 46.8994 21.3844 47.1126 21.5443 47.2869C21.7043 47.4612 21.9071 47.5907 22.1325 47.6625C22.5466 47.7295 22.9695 47.72 23.3801 47.6345C24.027 47.5036 24.7706 47.2035 25.299 47.1339L26.1255 46.9667C26.3367 46.9333 26.5332 46.8381 26.6903 46.6931C26.8474 46.5482 26.958 46.3599 27.0082 46.1521C27.0792 45.763 27.0747 45.3638 26.9947 44.9764C26.8674 44.3475 26.7184 43.6108 26.5233 43.2013C26.2869 42.0333 25.7519 40.7761 25.4974 39.5183C25.3235 38.7998 25.2998 38.0532 25.4277 37.3252C25.6463 36.7931 26.063 36.3668 26.5899 36.1361C27.2018 35.7758 27.8777 35.5374 28.5802 35.434C29.2731 35.3454 29.9742 35.5167 30.548 35.9149C31.4989 36.7294 32.2253 37.7736 32.6583 38.9483C32.9473 39.5445 33.2149 40.2199 33.4645 40.8988C33.8444 41.9443 34.1956 43.0329 34.5394 43.9921C34.5649 44.0685 34.606 44.1389 34.6599 44.1988C34.7139 44.2587 34.7796 44.3068 34.853 44.3401C34.9005 44.4207 34.9685 44.4873 35.0501 44.5332C35.1316 44.5791 35.2238 44.6027 35.3174 44.6016L38.1026 44.0379C38.4056 43.9961 38.7056 43.9354 39.001 43.8561C39.095 43.8206 39.1809 43.7665 39.2536 43.6972C39.3263 43.6278 39.3844 43.5446 39.4244 43.4525C39.5615 43.1542 39.6237 42.827 39.6056 42.4993C39.5391 41.9524 39.4297 41.4117 39.2783 40.882C38.7391 38.9961 38.4577 37.0459 38.4418 35.0844C38.4301 34.6004 38.5757 34.1257 38.8568 33.7315C39.138 33.3373 39.5394 33.045 40.0009 32.8985C40.4396 32.7269 40.9205 32.6947 41.3782 32.8062C41.8359 32.9178 42.2481 33.1677 42.5587 33.5219C43.7064 34.9547 44.5285 36.6202 44.9679 38.4026L45.7134 40.5151L45.8807 41.3417C45.9154 41.4617 45.9789 41.5714 46.0655 41.6614C46.1522 41.7514 46.2594 41.819 46.378 41.8583C46.8636 41.9798 47.3709 41.9861 47.8594 41.8765C48.7938 41.6874 49.8968 41.3146 50.54 41.1657C51.1833 41.0168 51.126 39.532 51.126 39.532L49.166 29.8467ZM22.2505 7.75966L24.8303 8.58436L26.0608 8.93392C25.8158 9.19709 25.544 9.4339 25.2498 9.64047C24.417 10.2392 23.4509 10.734 22.6179 11.2392L22.2505 7.75966ZM17.8878 24.5604C17.8969 24.4311 17.9146 24.3025 17.9408 24.1756C18.062 23.6461 18.233 23.1293 18.4515 22.632C18.7803 21.7611 19.1739 20.9333 19.5675 20.1054C20.1723 18.842 20.8419 17.6216 21.5654 16.3903L22.5178 14.6264L24.4702 16.2327C25.7415 17.1539 27.0844 17.967 28.327 18.9314C28.8451 19.3156 29.3362 19.7349 29.7968 20.1865L30.7015 21.1444L30.2702 21.2317C30.1051 21.3399 18.161 24.5238 17.8878 24.5604ZM20.5115 25.6942L21.6794 25.4579L25.8842 24.607L28.5428 23.6949L28.9022 23.6222L29.0694 24.4487C29.4136 25.5949 29.5494 26.8207 30.0123 27.9989C30.1232 28.3286 30.2512 28.6524 30.3957 28.9688C28.5987 29.3325 26.9567 29.8144 25.2355 30.2749L21.6926 31.2537L20.9376 26.5058C20.9376 26.5058 20.6165 26.0284 20.5115 25.6942ZM48.0395 40.4559C47.7984 40.5253 47.552 40.5752 47.3028 40.6049C47.2587 40.455 47.1981 40.3104 47.1221 40.1739L46.5595 37.8561C46.1521 35.7356 45.2739 33.7336 43.9898 31.9977C43.4324 31.3407 42.6857 30.872 41.8517 30.6557C41.0178 30.4395 40.1373 30.4862 39.3309 30.7894C38.4631 31.0442 37.7048 31.5807 37.1758 32.3144C36.6468 33.0481 36.3773 33.9371 36.4098 34.841C36.5157 36.9956 36.946 39.1219 37.6861 41.1481C37.7371 41.3997 37.8134 41.777 37.9796 42.1362L38.0524 42.4956L37.6031 42.5865L35.4043 43.2746C35.129 42.3764 34.8391 41.4063 34.5386 40.4757C34.238 39.5452 34.0355 39.0063 33.7572 38.3706C33.2988 36.9834 32.5056 35.7305 31.4478 34.7228C30.5526 34.0427 29.4326 33.7278 28.3141 33.8418C27.1825 33.9605 26.094 34.3409 25.1347 34.9529C24.3619 35.4082 23.7828 36.1309 23.5069 36.9844C23.2933 37.9592 23.2809 38.9674 23.4705 39.9471C23.7323 41.2409 24.1488 42.5595 24.4284 43.7562C24.5047 44.1335 24.7037 44.6544 24.8091 45.1755L23.0122 45.5391L22.6013 43.5086C22.1633 41.3296 21.1079 39.3226 19.5608 37.7268C18.9394 37.1543 18.1511 36.7955 17.3112 36.703C16.4713 36.6104 15.6239 36.789 14.8927 37.2125C14.0657 37.6416 13.3807 38.301 12.9206 39.1112C12.4604 39.9213 12.2449 40.8474 12.3 41.7774C12.3478 43.9457 12.8435 46.0807 13.756 48.0482C12.8575 48.23 12.1069 48.5877 11.3378 48.762C11.0224 48.862 10.6971 48.9279 10.3675 48.9584L9.90934 46.6943C9.69844 45.6521 9.49117 44.6278 9.14015 43.6327C8.45523 41.2648 7.60174 39.0807 7.03554 36.7449L9.98163 35.7747L36.0313 29.6428L44.4117 27.7973C44.861 27.7063 45.5615 27.471 46.1905 27.3438L46.6038 27.2601C46.6711 27.3865 46.7458 27.5088 46.8275 27.6264C46.893 27.9498 46.962 28.2912 47.1569 28.6072C47.3518 28.9232 47.3715 29.6674 47.4769 30.1885L49.94 39.772C49.9244 39.8717 49.945 39.9737 49.9982 40.0595C49.5094 40.1397 48.7476 40.35 48.0395 40.4559Z" fill="#F9C228"/>
<path fill-rule="evenodd" clip-rule="evenodd" d="M11.8639 30.3808C11.8639 30.3808 11.6906 30.0792 11.5715 29.8601L11.9308 29.7874C12.4588 29.5309 13.019 29.2492 13.6405 28.9925C13.9993 28.8436 14.3678 28.719 14.7434 28.6196C14.8229 28.6113 14.8999 28.5873 14.97 28.549C15.0401 28.5108 15.1019 28.459 15.1519 28.3967C15.2019 28.3344 15.2391 28.2628 15.2613 28.1861C15.2835 28.1094 15.2903 28.029 15.2812 27.9497C15.259 27.7884 15.1746 27.6423 15.046 27.5425C14.9175 27.4427 14.755 27.3971 14.5933 27.4155C12.5331 27.6738 10.5135 28.1893 8.58155 28.95C8.65027 28.4501 8.77706 27.96 8.95935 27.4894L10.9662 22.9869L12.2649 20.1615C12.488 20.2473 12.7184 20.369 12.9056 20.4621L15.5303 22.0633C15.665 22.1527 15.8296 22.1848 15.988 22.1528C16.1464 22.1207 16.2856 22.0271 16.3749 21.8924C16.4642 21.7578 16.4964 21.5931 16.4644 21.4347C16.4323 21.2764 16.3386 21.1372 16.204 21.0479L13.6323 19.0618C13.3166 18.8472 12.9843 18.658 12.6387 18.496C12.3333 18.3624 12.0071 18.2828 11.6746 18.2609C11.5308 18.2612 11.3889 18.2935 11.259 18.3554C11.1292 18.4172 11.0148 18.5071 10.9239 18.6185C10.766 18.7627 10.6877 19.1152 10.5804 19.324L9.12331 22.1066C8.75836 22.8913 8.37543 23.6795 8.05368 24.4929C7.73691 25.3129 7.46279 26.1488 7.23241 26.9972C7.06783 27.5544 6.94533 28.1231 6.86594 28.6987C6.82717 29.1956 6.92792 29.6934 7.15684 30.1362C7.19287 30.2323 7.24917 30.3196 7.32193 30.392C7.39468 30.4644 7.48217 30.5203 7.57846 30.5559C7.86736 30.5449 8.15257 30.4872 8.42301 30.385L8.99781 30.1752L9.80642 30.0115L9.99187 30.9279L10.8856 33.4032C11.0674 34.3017 12.3532 33.7235 12.3479 32.9576L11.8639 30.3808Z" fill="#F9C228"/>
</g>
<defs>
<clipPath id="clip0_376_620">
<rect width="44" height="44" fill="white" transform="translate(0 8.72705) rotate(-11.44)"/>
</clipPath>
</defs>
</svg>
