<svg width="72" height="72" viewBox="0 0 72 72" fill="none" xmlns="http://www.w3.org/2000/svg">
<g clip-path="url(#clip0_363_754)">
<path d="M61.2598 9.72003C51.2698 0.750026 36.2698 -0.899974 25.4398 0.810026C19.8538 1.83199 14.6726 4.41839 10.4985 8.26859C6.32433 12.1188 3.32869 17.0746 1.85977 22.56C-1.48633 33.296 -0.495612 44.9155 4.61977 54.93C11.0098 66.93 27.2398 73.11 42.2398 71.55C79.0198 67.71 77.2498 24 61.2598 9.72003ZM62.6698 59.34C61.9198 60.6 60.9298 61.02 59.5198 62.34C54.4522 66.2174 48.3634 68.532 41.9998 69C41.0998 69 24.5998 70.62 13.0798 60.36C12.1126 59.6872 11.287 58.831 10.6498 57.84C9.52522 56.4906 8.52137 55.0451 7.64977 53.52C3.01622 44.2879 2.15553 33.6154 5.24977 23.76C6.96729 18.0282 10.2878 12.907 14.8198 9.00003C18.063 6.42996 21.9009 4.71738 25.9798 4.02003C29.9854 3.28013 34.0743 3.09841 38.1298 3.48003C38.1298 3.48003 53.1298 6.48003 58.1998 10.86C62.5254 14.6503 65.7399 19.5446 67.4998 25.02C68.7656 29.3442 69.58 33.788 69.9298 38.28C70.2417 45.9628 67.6498 53.4815 62.6698 59.34Z" fill="#F9C228"/>
<path d="M38.0099 8.10003C38.0099 8.10003 37.8299 13.35 36.4199 13.35C35.9699 13.35 35.6099 13.11 35.2199 12.6C34.9054 11.8208 34.6936 11.0039 34.5899 10.17C34.5358 9.23483 34.6064 8.2966 34.7999 7.38003C35.0999 6.51003 35.6099 6.12003 36.0599 6.12003C38.0099 6.00003 37.9499 7.47003 38.0099 8.10003Z" fill="#F9C228"/>
<path d="M13.0498 34.98C13.3442 34.98 13.6266 35.097 13.8347 35.3051C14.0429 35.5133 14.1598 35.7956 14.1598 36.09C14.1525 36.4804 13.9961 36.8532 13.7228 37.1321C13.4496 37.4109 13.08 37.5748 12.6898 37.59C11.8634 37.6981 11.0263 37.6981 10.1998 37.59C9.32983 37.59 8.48983 37.32 7.58983 37.32L6.35983 37.05C6.05909 36.7808 5.85943 36.4168 5.79395 36.0185C5.72847 35.6201 5.80112 35.2114 5.99983 34.86C6.83983 33.75 11.6398 34.74 13.0498 34.98Z" fill="#F9C228"/>
<path d="M24.4202 12C24.7502 12.63 24.9602 13.26 25.2002 13.8C25.3142 14.0339 25.4144 14.2743 25.5002 14.52C25.632 14.7797 25.694 15.0692 25.6802 15.36C25.6803 15.5084 25.6506 15.6552 25.5929 15.7918C25.5353 15.9285 25.4508 16.0522 25.3445 16.1557C25.2383 16.2592 25.1123 16.3403 24.9742 16.3943C24.836 16.4483 24.6885 16.474 24.5402 16.47C23.8014 16.4209 23.1069 16.1004 22.5902 15.57C22.201 15.176 21.8401 14.7549 21.5102 14.31C21.1963 13.8759 20.9059 13.4252 20.6402 12.96C20.4223 12.559 20.2221 12.1486 20.0402 11.73C19.9808 11.5874 19.9502 11.4345 19.9502 11.28C19.9502 11.1256 19.9808 10.9726 20.0402 10.83C20.3102 9.48002 21.1202 9.06002 22.6802 9.69002C23.0102 9.99002 23.0702 9.90002 23.3702 10.26C23.7848 10.7985 24.137 11.3822 24.4202 12Z" fill="#F9C228"/>
<path d="M14.9995 21.39C15.5695 21.78 16.6795 22.8 17.1595 23.22C17.4502 23.4108 17.6794 23.6817 17.8195 24C17.8912 24.129 17.9357 24.2713 17.9502 24.4182C17.9648 24.565 17.9491 24.7133 17.9041 24.8539C17.8591 24.9945 17.7858 25.1243 17.6887 25.2354C17.5916 25.3466 17.4727 25.4366 17.3395 25.5C16.0736 25.7231 14.7696 25.5338 13.6195 24.96C13.1343 24.6777 12.6728 24.3567 12.2395 24C11.9995 24 11.4895 23.58 11.1295 23.31C10.9977 23.2265 10.8844 23.1169 10.7967 22.9879C10.7089 22.8589 10.6486 22.7133 10.6195 22.56C10.2295 21.27 10.6195 20.49 12.3895 20.25C12.8395 20.25 12.8395 20.25 13.2895 20.43C13.8885 20.6953 14.461 21.0168 14.9995 21.39Z" fill="#F9C228"/>
<path d="M38.3698 64.14C38.3698 64.14 38.1898 58.86 36.7798 58.86C36.3298 58.86 35.9698 59.1 35.5798 59.61C35.255 60.3859 35.0429 61.2041 34.9498 62.04C34.8947 62.9753 34.9653 63.9136 35.1598 64.83C35.4598 65.7 35.9398 66.09 36.4198 66.09C38.3698 66 38.3098 64.74 38.3698 64.14Z" fill="#F9C228"/>
<path d="M23.9999 60.24C24.3299 59.61 24.5399 58.98 24.7799 58.44C24.919 58.2182 25.0203 57.9749 25.0799 57.72C25.1686 57.4907 25.2095 57.2457 25.1999 57C25.2136 56.839 25.1919 56.6769 25.1365 56.5251C25.081 56.3733 24.993 56.2354 24.8788 56.1211C24.7645 56.0069 24.6266 55.9189 24.4748 55.8634C24.323 55.808 24.1609 55.7863 23.9999 55.8C23.2602 55.82 22.5588 56.1329 22.0499 56.67C21.6424 57.0554 21.2709 57.4772 20.9399 57.93C20.6358 58.3646 20.3554 58.8152 20.0999 59.28C19.8599 59.7 19.6799 60.12 19.4699 60.54C19.4105 60.6826 19.3799 60.8355 19.3799 60.99C19.3799 61.1445 19.4105 61.2974 19.4699 61.44C19.7699 62.76 20.5499 63.18 22.1099 62.55C22.4399 62.25 22.4999 62.34 22.7999 61.98C23.2668 61.4492 23.6696 60.8651 23.9999 60.24Z" fill="#F9C228"/>
<path d="M14.5794 50.82C15.3374 50.2564 16.0589 49.6452 16.7394 48.99C16.9793 48.8313 17.1754 48.6146 17.3094 48.36C17.3861 48.2298 17.4347 48.0849 17.4519 47.9348C17.4691 47.7846 17.4547 47.6325 17.4094 47.4883C17.3642 47.3441 17.2892 47.211 17.1893 47.0976C17.0893 46.9842 16.9667 46.893 16.8294 46.83C15.5732 46.6135 14.2808 46.8026 13.1394 47.37C12.658 47.5785 12.1961 47.8295 11.7594 48.12L10.6194 48.9C10.4906 48.9837 10.3812 49.0939 10.2985 49.2232C10.2157 49.3526 10.1615 49.4981 10.1394 49.65C9.74936 50.94 10.1394 51.72 11.8794 51.96C12.3294 51.96 12.3294 51.96 12.7794 51.78C13.4124 51.5263 14.016 51.2044 14.5794 50.82Z" fill="#F9C228"/>
<path d="M59.2799 34.98C59.1342 34.98 58.9898 35.0087 58.8551 35.0645C58.7205 35.1203 58.5981 35.202 58.495 35.3051C58.392 35.4082 58.3102 35.5306 58.2544 35.6652C58.1986 35.7999 58.1699 35.9442 58.1699 36.09C58.1773 36.4804 58.3336 36.8532 58.6069 37.1321C58.8802 37.4109 59.2498 37.5748 59.6399 37.59C60.4664 37.6981 61.3034 37.6981 62.1299 37.59C62.9999 37.59 63.8399 37.32 64.7399 37.32L65.9699 37.05C66.2491 36.7707 66.425 36.4046 66.4686 36.0121C66.5122 35.6195 66.421 35.2238 66.2099 34.89C65.4899 33.75 60.7199 34.74 59.2799 34.98Z" fill="#F9C228"/>
<path d="M48.5402 12C48.2102 12.63 48.0002 13.26 47.7602 13.8C47.6462 14.0339 47.546 14.2743 47.4602 14.52C47.3284 14.7797 47.2664 15.0692 47.2802 15.36C47.2802 15.5084 47.3098 15.6552 47.3675 15.7918C47.4251 15.9285 47.5096 16.0522 47.6159 16.1557C47.7221 16.2592 47.8481 16.3403 47.9862 16.3943C48.1244 16.4483 48.2719 16.474 48.4202 16.47C49.159 16.4209 49.8535 16.1004 50.3702 15.57C50.7594 15.176 51.1203 14.7549 51.4502 14.31C51.7641 13.8759 52.0545 13.4252 52.3202 12.96C52.5302 12.57 52.7402 12.15 52.9202 11.73C52.9796 11.5874 53.0102 11.4345 53.0102 11.28C53.0102 11.1256 52.9796 10.9726 52.9202 10.83C52.6502 9.48002 51.8402 9.06002 50.2802 9.69002C49.9502 9.99002 49.8902 9.90002 49.5902 10.26C49.1756 10.7985 48.8234 11.3822 48.5402 12Z" fill="#F9C228"/>
<path d="M57.87 21.39C57.3 21.78 56.1899 22.8 55.7099 23.22C55.4687 23.39 55.273 23.6166 55.1399 23.88C55.0682 24.009 55.0237 24.1513 55.0092 24.2982C54.9946 24.4451 55.0103 24.5934 55.0553 24.7339C55.1003 24.8745 55.1736 25.0043 55.2707 25.1155C55.3678 25.2266 55.4867 25.3166 55.62 25.38C56.8858 25.6031 58.1898 25.4138 59.34 24.84C59.821 24.5962 60.2824 24.3154 60.7199 24C61.1099 23.76 61.47 23.49 61.83 23.22C61.9618 23.1366 62.075 23.0269 62.1627 22.8979C62.2505 22.7689 62.3108 22.6233 62.34 22.47C62.73 21.18 62.34 20.4 60.57 20.16C60.12 20.16 60.1199 20.16 59.6699 20.34C59.0362 20.6288 58.4332 20.9805 57.87 21.39Z" fill="#F9C228"/>
<path d="M50.5198 59.25C50.1898 58.62 49.9798 57.99 49.7398 57.45C49.6129 57.2221 49.5122 56.9806 49.4398 56.73C49.2938 56.4756 49.2309 56.1819 49.2598 55.89C49.2598 55.5956 49.3767 55.3133 49.5849 55.1051C49.793 54.897 50.0754 54.78 50.3698 54.78C51.1086 54.8291 51.8031 55.1497 52.3198 55.68C52.7272 56.0655 53.0988 56.4872 53.4298 56.94C53.7445 57.3675 54.0253 57.8189 54.2698 58.29C54.5098 58.68 54.6898 59.1 54.8998 59.52C54.9592 59.6626 54.9898 59.8156 54.9898 59.97C54.9898 60.1245 54.9592 60.2774 54.8998 60.42C54.6298 61.77 53.8198 62.19 52.2598 61.56C51.9298 61.26 51.8698 61.35 51.5698 60.99C51.1552 60.4515 50.8029 59.8678 50.5198 59.25Z" fill="#F9C228"/>
<path d="M59.4901 49.71C58.9201 49.32 57.8101 48.3 57.3301 47.88C56.8501 47.46 56.8201 47.43 56.7601 47.22C56.6884 47.0911 56.6439 46.9487 56.6293 46.8019C56.6147 46.655 56.6304 46.5067 56.6754 46.3662C56.7204 46.2256 56.7937 46.0957 56.8908 45.9846C56.9879 45.8735 57.1068 45.7834 57.2401 45.72C58.5059 45.4969 59.8099 45.6862 60.9601 46.26C61.4321 46.4763 61.8927 46.7166 62.3401 46.98C62.7291 47.223 63.1 47.4937 63.4501 47.7901C63.5819 47.8735 63.6951 47.9831 63.7829 48.1122C63.8706 48.2412 63.9309 48.3868 63.9601 48.5401C64.3501 49.8301 63.9601 50.6101 62.1901 50.8201C61.7401 50.8201 61.7401 50.82 61.2901 50.67C60.6657 50.3981 60.0638 50.0771 59.4901 49.71Z" fill="#F9C228"/>
<path d="M41.3998 37.11C40.3909 35.8004 39.3092 34.5484 38.1598 33.36C37.8217 33.0154 37.4121 32.7491 36.9598 32.58C35.5934 32.4402 34.2163 32.4402 32.8498 32.58C30.2398 32.58 26.8498 33.03 24.0898 33.36C23.9704 33.3597 23.8521 33.3841 23.7424 33.4315C23.6328 33.4789 23.5341 33.5484 23.4524 33.6357C23.3708 33.7229 23.308 33.826 23.268 33.9386C23.228 34.0512 23.2116 34.1708 23.2198 34.29C23.2418 34.5236 23.3485 34.7411 23.5198 34.9014C23.6912 35.0617 23.9153 35.1537 24.1498 35.16C26.5498 35.16 29.2498 35.37 31.5898 35.52C33.2398 35.52 35.7898 36.06 35.8498 36L36.5098 36.81C37.3198 37.68 38.3698 38.94 39.5098 40.35C41.9698 43.14 44.9998 46.35 46.7998 48.72C46.8798 48.8293 46.9808 48.9216 47.0969 48.9915C47.2129 49.0614 47.3418 49.1074 47.4758 49.127C47.6099 49.1465 47.7465 49.1392 47.8776 49.1054C48.0088 49.0716 48.132 49.0119 48.2398 48.93C48.3482 48.8528 48.4399 48.7545 48.5094 48.641C48.5789 48.5276 48.6249 48.4013 48.6445 48.2696C48.6641 48.138 48.6569 48.0038 48.6235 47.875C48.5901 47.7462 48.531 47.6255 48.4498 47.52C46.8298 44.64 43.8598 40.26 41.3998 37.11Z" fill="#F9C228"/>
</g>
<defs>
<clipPath id="clip0_363_754">
<rect width="72" height="72" fill="white"/>
</clipPath>
</defs>
</svg>
