<svg width="72" height="72" viewBox="0 0 72 72" fill="none" xmlns="http://www.w3.org/2000/svg">
<g clip-path="url(#clip0_322_350)">
<path fill-rule="evenodd" clip-rule="evenodd" d="M30.8398 47.55C30.8122 47.4259 30.7604 47.3085 30.6875 47.2044C30.6145 47.1003 30.5218 47.0115 30.4145 46.9433C30.3072 46.875 30.1876 46.8286 30.0624 46.8066C29.9372 46.7846 29.8089 46.7874 29.6848 46.815C29.5607 46.8426 29.4432 46.8943 29.3391 46.9673C29.235 47.0403 29.1463 47.133 29.0781 47.2403C29.0098 47.3475 28.9634 47.4672 28.9413 47.5924C28.9193 47.7176 28.9222 47.8459 28.9498 47.97L31.1098 55.89C31.2852 56.5272 31.3957 57.1805 31.4398 57.84C31.5015 58.1873 31.5015 58.5427 31.4398 58.89C30.9298 58.41 29.1298 58.89 28.7098 58.89H27.5398L18.2698 58.2H15.2698H14.9998V57.6L16.5598 50.46C16.5598 50.46 16.8598 48.87 16.9498 48.27C17.0099 47.8857 16.9499 47.4922 16.7781 47.1432C16.6063 46.7942 16.331 46.5067 15.9898 46.32C15.7683 46.2198 15.5279 46.1679 15.2848 46.1679C15.0416 46.1679 14.8013 46.2198 14.5798 46.32C14.3098 46.32 13.4998 46.92 13.4098 46.98C12.849 47.2029 12.2655 47.3639 11.6698 47.46C11.1032 47.5483 10.5264 47.5483 9.95978 47.46C9.63707 47.4459 9.31602 47.4058 8.99978 47.34C8.6639 47.1898 8.34254 47.0091 8.03978 46.8L7.25978 45.96L6.89978 45.15C6.82509 44.8341 6.8549 44.5025 6.98473 44.205C7.11455 43.9075 7.33739 43.6601 7.61978 43.5C9.16254 42.8892 10.7465 42.3879 12.3598 42L14.8198 40.89C15.4215 40.5287 15.9845 40.1065 16.4998 39.63C16.7698 39.39 16.9798 39.12 17.2198 38.88C19.4257 39.8121 21.8601 40.0629 24.2098 39.6C25.5897 39.2022 26.8544 38.4799 27.8982 37.4935C28.942 36.5071 29.7346 35.2853 30.2098 33.93C30.6358 32.7668 30.8251 31.5303 30.7666 30.2929C30.7081 29.0556 30.4031 27.8424 29.8693 26.7245C29.3355 25.6067 28.5838 24.6068 27.6583 23.7835C26.7328 22.9601 25.6522 22.33 24.4798 21.93C22.2617 21.1712 19.8482 21.2117 17.6568 22.0444C15.4655 22.8771 13.6342 24.4497 12.4798 26.49C11.8136 27.6522 11.4238 28.9521 11.3406 30.289C11.2573 31.626 11.4829 32.9642 11.9998 34.2C12.7515 35.8308 13.9739 37.1995 15.5098 38.13L15.2698 38.37C14.8086 38.741 14.3169 39.0721 13.7998 39.36L11.6098 40.17C9.77978 40.77 6.92978 40.74 5.60978 42.03C5.15443 42.4588 4.808 42.9901 4.59928 43.5797C4.39057 44.1693 4.3256 44.8002 4.40978 45.42C4.43313 45.768 4.50378 46.1111 4.61978 46.44C4.71881 46.7429 4.84953 47.0345 5.00978 47.31C5.18516 47.6257 5.38581 47.9267 5.60978 48.21C5.84681 48.492 6.10778 48.753 6.38978 48.99C6.86088 49.3682 7.37432 49.6903 7.91978 49.95C8.45951 50.2146 9.03594 50.3967 9.62978 50.49C10.3459 50.5955 11.0736 50.5955 11.7898 50.49C12.3257 50.4564 12.8578 50.3761 13.3798 50.25L11.9998 57C11.7523 57.8373 11.631 58.7069 11.6398 59.58C11.7089 59.8591 11.8388 60.1196 12.0203 60.3426C12.2019 60.5656 12.4305 60.7457 12.6898 60.87C13.2965 61.1169 13.9312 61.2882 14.5798 61.38C14.9792 61.4107 15.3804 61.4107 15.7798 61.38C15.2884 63.4454 15.2271 65.5899 15.5998 67.68C15.8822 68.7142 16.5156 69.618 17.3913 70.2365C18.2671 70.855 19.3306 71.1497 20.3998 71.07C21.4987 71.1265 22.5759 70.7495 23.3998 70.02C23.8448 70.6661 24.448 71.1873 25.1517 71.5339C25.8555 71.8806 26.6364 72.041 27.4198 72C28.2318 71.9861 29.028 71.7738 29.7391 71.3816C30.4503 70.9894 31.0547 70.4293 31.4998 69.75C32.1745 68.6073 32.575 67.3237 32.6698 66C32.7153 64.4615 32.5946 62.9226 32.3098 61.41C32.7775 61.2561 33.1725 60.9358 33.4198 60.51C33.7732 59.8039 33.9385 59.0186 33.8998 58.23C33.8455 57.2089 33.6538 56.1998 33.3298 55.23L30.8398 47.55ZM14.6398 33C14.219 32.1461 14.0002 31.2069 14.0002 30.255C14.0002 29.3031 14.219 28.3639 14.6398 27.51C15.0035 26.6697 15.5316 25.9106 16.193 25.2773C16.8543 24.6441 17.6356 24.1494 18.4908 23.8224C19.3461 23.4954 20.2581 23.3426 21.1732 23.3731C22.0884 23.4036 22.9882 23.6168 23.8198 24C25.346 24.6612 26.5892 25.8407 27.3298 27.33C27.7706 28.2058 28.0126 29.1681 28.0385 30.1482C28.0645 31.1284 27.8737 32.1021 27.4798 33C27.1603 33.8757 26.633 34.6608 25.9433 35.2878C25.2535 35.9149 24.4219 36.3652 23.5198 36.6C21.817 36.8877 20.0674 36.6794 18.4798 36C16.8709 35.513 15.5016 34.4433 14.6398 33ZM22.0798 66C22.0304 66.5153 21.8773 67.0153 21.6298 67.47C21.5179 67.7265 21.3391 67.9481 21.1122 68.1117C20.8852 68.2753 20.6184 68.3749 20.3398 68.4C19.8124 68.5049 19.265 68.4249 18.7897 68.1736C18.3143 67.9222 17.94 67.5149 17.7298 67.02C17.2715 65.2364 17.1898 63.3769 17.4898 61.56H18.1498H22.4698C22.4568 61.6193 22.4568 61.6807 22.4698 61.74C22.162 63.1381 22.0309 64.5693 22.0798 66ZM30.3598 65.85C30.2306 66.7883 29.881 67.6827 29.3398 68.46C29.1086 68.7415 28.8142 68.9643 28.4805 69.1103C28.1468 69.2563 27.7834 69.3213 27.4198 69.3C27.1006 69.2987 26.7881 69.2082 26.5177 69.0385C26.2473 68.8688 26.0298 68.6269 25.8898 68.34C25.5539 67.6044 25.3702 66.8084 25.3498 66C25.364 65.7802 25.364 65.5598 25.3498 65.34L25.5298 63.24V62.04C25.5494 61.9309 25.5494 61.8191 25.5298 61.71H28.5298H30.2998C30.4823 63.0326 30.5025 64.3725 30.3598 65.7V65.85Z" fill="#F9C228"/>
<path fill-rule="evenodd" clip-rule="evenodd" d="M67.56 39C67.4118 38.2032 67.0565 37.4594 66.5299 36.8433C66.0034 36.2272 65.324 35.7605 64.56 35.49C63.5836 35.2173 62.5587 35.1661 61.56 35.34C60.2918 35.5945 59.0473 35.9558 57.84 36.42C59.1762 34.5636 59.7554 32.2681 59.46 30C58.41 19.26 42.42 19.11 41.91 30.27C41.7453 32.4389 42.3716 34.5942 43.6732 36.337C44.9748 38.0798 46.8635 39.2922 48.99 39.75C49.5894 39.8891 50.2059 39.9396 50.82 39.9C51.6724 39.8309 52.5163 39.6802 53.34 39.45C54.13 39.1899 54.8779 38.816 55.56 38.34C55.6482 38.4588 55.7683 38.5501 55.9064 38.6033C56.0445 38.6564 56.1949 38.6691 56.34 38.64C57.54 38.49 59.34 38.07 60.99 37.95C61.7828 37.8538 62.5871 37.9569 63.33 38.25C63.6695 38.4212 63.9506 38.6894 64.1375 39.0205C64.3244 39.3516 64.4088 39.7308 64.38 40.11C64.3956 41.0953 64.0786 42.0571 63.48 42.84C62.7783 43.6941 61.8543 44.3378 60.81 44.7C59.0099 45.205 57.1749 45.576 55.32 45.81C55.0978 45.8667 54.907 46.0088 54.789 46.2054C54.671 46.402 54.6354 46.6373 54.69 46.86L55.5 51.33L56.55 55.74C57.1692 57.2478 57.7001 58.7904 58.14 60.36C58.4156 61.2834 58.5273 62.248 58.47 63.21C58.4829 63.7617 58.3546 64.3076 58.0973 64.7959C57.8401 65.2842 57.4624 65.6986 57 66C52.62 68.55 52.29 62.82 52.26 62.73C51.833 61.1429 51.2916 59.5888 50.64 58.08C50.5564 57.8373 50.3799 57.6378 50.1493 57.5252C49.9186 57.4127 49.6527 57.3964 49.41 57.48C49.1673 57.5635 48.9678 57.74 48.8553 57.9707C48.7427 58.2014 48.7265 58.4673 48.81 58.71C49.3086 60.1718 49.7095 61.665 50.01 63.18C50.175 64.0825 50.175 65.0075 50.01 65.91C49.8909 66.307 49.6503 66.6566 49.3219 66.9095C48.9936 67.1625 48.5942 67.3061 48.18 67.32C47.7377 67.3812 47.2874 67.343 46.8618 67.208C46.4363 67.0731 46.0462 66.8449 45.72 66.54C45.2611 66.0532 44.8678 65.5086 44.55 64.92C44.0279 63.9453 43.5573 62.9439 43.14 61.92C42.1488 59.5011 41.366 57.002 40.8 54.45C40.212 51.857 39.7713 49.2328 39.48 46.59L39.18 40.98C39.18 40.7492 39.0883 40.528 38.9252 40.3648C38.762 40.2016 38.5407 40.11 38.31 40.11C38.0793 40.11 37.858 40.2016 37.6948 40.3648C37.5317 40.528 37.44 40.7492 37.44 40.98L37.26 46.8C37.2504 50.1394 37.5416 53.4728 38.13 56.76C38.6119 58.8924 39.2743 60.9799 40.11 63C40.572 64.2144 41.1339 65.3885 41.79 66.51C42.2862 67.3201 42.8807 68.0658 43.56 68.73C44.2544 69.3332 45.0782 69.7686 45.9677 70.0027C46.8572 70.2368 47.7886 70.2632 48.69 70.08C49.5915 69.9377 50.4289 69.5265 51.0927 68.9002C51.7565 68.2739 52.2157 67.4617 52.41 66.57C52.3666 66.7626 52.3837 66.9638 52.4589 67.1463C52.534 67.3289 52.6636 67.4838 52.83 67.59C53.6022 68.134 54.4993 68.4742 55.438 68.5791C56.3767 68.684 57.3268 68.5501 58.2 68.19C59.081 67.7577 59.8426 67.116 60.4179 66.321C60.9932 65.526 61.3648 64.602 61.5 63.63C61.7064 62.3027 61.6555 60.948 61.35 59.64C60.8438 57.9078 60.1914 56.2218 59.4 54.6L57.81 50.7L56.64 47.25C56.7787 47.3798 56.9601 47.4544 57.15 47.46C58.9197 47.5727 60.6957 47.3799 62.4 46.89C63.6424 46.5288 64.7829 45.8815 65.73 45C66.4755 44.2077 67.0284 43.2543 67.3457 42.2137C67.6631 41.1732 67.7364 40.0735 67.56 39ZM52.38 36.33C51.9126 36.4891 51.43 36.5997 50.94 36.66C50.5121 36.7199 50.0779 36.7199 49.65 36.66C48.1911 36.3977 46.8723 35.6269 45.9277 34.4846C44.983 33.3423 44.4737 31.9022 44.49 30.42C44.28 22.38 56.16 22.29 56.49 30.42C56.5836 31.7265 56.2268 33.0256 55.4789 34.101C54.7311 35.1763 53.6374 35.963 52.38 36.33Z" fill="#F9C228"/>
<path fill-rule="evenodd" clip-rule="evenodd" d="M38.3102 3.00001C38.4112 2.76105 38.4143 2.492 38.3189 2.25076C38.2235 2.00951 38.0373 1.81534 37.8002 1.71001C37.1303 1.39113 36.4386 1.12045 35.7302 0.900013C35.0702 0.690013 34.3502 0.510013 33.6602 0.360013L30.6602 1.28429e-05C29.4329 -0.0335458 28.2056 0.0670508 27.0002 0.300013C26.4146 0.460807 25.8915 0.79556 25.5002 1.26001C25.3451 1.50171 25.2627 1.78285 25.2627 2.07001C25.2627 2.35718 25.3451 2.63831 25.5002 2.88001L25.9202 3.45001L27.3902 5.82001C27.9602 6.72001 28.6802 7.65001 29.3402 8.64001H28.8002C28.4092 8.73196 28.0348 8.88375 27.6902 9.09001C27.1077 9.4058 26.6017 9.8455 26.2076 10.3781C25.8136 10.9108 25.5411 11.5233 25.4095 12.1727C25.278 12.822 25.2904 13.4923 25.446 14.1363C25.6016 14.7804 25.8966 15.3824 26.3102 15.9C26.6713 16.5007 27.1559 17.0178 27.7319 17.4172C28.3078 17.8166 28.962 18.0891 29.6512 18.2167C30.3403 18.3444 31.0487 18.3242 31.7295 18.1575C32.4103 17.9909 33.0479 17.6815 33.6002 17.25C34.2532 16.7216 34.7165 15.995 34.9202 15.18C35.1505 14.1933 35.1505 13.1668 34.9202 12.18C34.5509 10.8572 33.9737 9.60158 33.2102 8.46001C32.2202 6.87001 30.9302 5.46001 29.9402 4.02001L29.1602 3.00001C29.7172 2.77295 30.2884 2.58254 30.8702 2.43001H33.2402C33.9002 2.43001 34.5302 2.64001 35.1602 2.79001C35.7933 2.93442 36.4149 3.12493 37.0202 3.36001C37.2412 3.47249 37.4964 3.49792 37.7353 3.43125C37.9742 3.36459 38.1793 3.21069 38.3102 3.00001ZM30.4202 10.35C30.9577 11.1755 31.3721 12.075 31.6502 13.02C31.7255 13.4366 31.7255 13.8634 31.6502 14.28C31.6623 14.401 31.647 14.5231 31.6054 14.6374C31.5639 14.7516 31.4972 14.8551 31.4102 14.94C31.175 15.1403 30.9 15.2885 30.6034 15.375C30.3068 15.4614 29.9953 15.4841 29.6893 15.4416C29.3833 15.3991 29.0897 15.2924 28.8279 15.1284C28.5661 14.9644 28.342 14.7468 28.1702 14.49C27.928 14.2272 27.7476 13.9136 27.6422 13.5721C27.5367 13.2306 27.5088 12.8699 27.5606 12.5163C27.6123 12.1627 27.7424 11.8251 27.9413 11.5281C28.1402 11.2312 28.4029 10.9824 28.7102 10.8C28.9099 10.6355 29.1468 10.5222 29.4002 10.47L30.4202 10.35Z" fill="#F9C228"/>
<path fill-rule="evenodd" clip-rule="evenodd" d="M48.1799 18.24C48.9388 17.9469 49.6202 17.4835 50.1716 16.8853C50.723 16.2871 51.1295 15.5702 51.3599 14.79C51.9535 12.0114 52.1153 9.1579 51.8399 6.32998V3.83998L52.5899 3.98998C53.2718 4.17566 53.9271 4.44787 54.5399 4.79998C54.9982 5.06623 55.4215 5.38873 55.7999 5.75998C56.2199 6.14998 56.6099 6.56998 56.9999 6.98998C57.1881 7.16286 57.4343 7.25879 57.6899 7.25879C57.9454 7.25879 58.1917 7.16286 58.3799 6.98998C58.4724 6.90047 58.546 6.79325 58.5963 6.67471C58.6465 6.55617 58.6724 6.42874 58.6724 6.29998C58.6724 6.17123 58.6465 6.0438 58.5963 5.92526C58.546 5.80672 58.4724 5.6995 58.3799 5.60998C57.9239 5.00205 57.4331 4.42107 56.9099 3.86998C56.6135 3.55491 56.2925 3.26399 55.9499 2.99998C55.0395 2.34507 54.0253 1.84812 52.9499 1.52998C52.1834 1.29411 51.3798 1.20255 50.5799 1.25998C50.28 1.26746 49.9903 1.3704 49.7529 1.55384C49.5155 1.73728 49.3428 1.99165 49.2599 2.27998V3.44998L48.8699 6.44998V10.59C48.1782 10.4493 47.4755 10.369 46.7699 10.35C46.0543 10.348 45.3508 10.5342 44.7299 10.89C43.8648 11.4033 43.2075 12.2042 42.873 13.1529C42.5385 14.1016 42.548 15.1376 42.8999 16.08C43.3232 17.0585 44.1128 17.8325 45.0996 18.2362C46.0864 18.6399 47.1921 18.6412 48.1799 18.24ZM45.8099 12.48C46.0908 12.2786 46.4245 12.1639 46.7699 12.15C47.3784 12.09 47.9914 12.09 48.5999 12.15C48.588 12.3798 48.588 12.6101 48.5999 12.84C48.3899 13.92 48.1199 14.94 47.1899 15.3C47.0507 15.4288 46.8842 15.5245 46.7028 15.58C46.5215 15.6356 46.3299 15.6494 46.1425 15.6206C45.955 15.5917 45.7765 15.5209 45.6202 15.4135C45.4639 15.306 45.3339 15.1647 45.2399 15C44.9899 14.5879 44.9096 14.0949 45.0159 13.6249C45.1223 13.1548 45.4069 12.7443 45.8099 12.48Z" fill="#F9C228"/>
</g>
<defs>
<clipPath id="clip0_322_350">
<rect width="72" height="72" fill="white"/>
</clipPath>
</defs>
</svg>
