<svg width="24" height="24" viewBox="0 0 24 24" fill="none" xmlns="http://www.w3.org/2000/svg">
<g clip-path="url(#clip0_409_1086)">
<path fill-rule="evenodd" clip-rule="evenodd" d="M23.9088 2.58C23.8549 2.41825 23.7536 2.27646 23.6181 2.17302C23.4826 2.06959 23.3191 2.00931 23.1488 2C22.8073 2.02439 22.4869 2.17394 22.2488 2.42C21.0216 3.66224 19.8948 4.99976 18.8788 6.42C16.3788 9.74 13.3588 14.16 12.0088 16.2L11.5188 16.95C10.1554 16.4551 8.73934 16.1195 7.29882 15.95C6.63425 15.8383 5.95396 15.8621 5.29882 16.02C5.21079 16.0552 5.13083 16.1079 5.06379 16.175C4.99675 16.242 4.94403 16.322 4.90882 16.41C4.87599 16.6072 4.88769 16.8092 4.94306 17.0013C4.99843 17.1933 5.09607 17.3706 5.22882 17.52C5.91378 18.3595 6.69591 19.1148 7.55882 19.77C9.45882 21.3 11.8588 22.77 12.7188 22.88C12.7635 22.8856 12.8089 22.8822 12.8523 22.8701C12.8957 22.858 12.9362 22.8374 12.9716 22.8095C13.0069 22.7816 13.0364 22.7469 13.0582 22.7075C13.0801 22.6681 13.0939 22.6248 13.0988 22.58C13.1072 22.4887 13.0795 22.3977 13.0215 22.3266C12.9635 22.2556 12.88 22.2101 12.7888 22.2C11.3205 21.6321 9.96572 20.8057 8.78882 19.76C7.76131 18.9967 6.82515 18.1176 5.99882 17.14C5.9219 17.038 5.85175 16.9311 5.78882 16.82C5.86626 16.7928 5.94696 16.776 6.02882 16.77C7.04311 16.8082 8.04968 16.9625 9.02882 17.23C9.86026 17.4194 10.6709 17.6907 11.4488 18.04C11.5335 18.0907 11.6317 18.114 11.7301 18.1069C11.8286 18.0997 11.9224 18.0624 11.9988 18C12.0847 17.9497 12.1516 17.8723 12.1888 17.78V17.73C12.2988 17.56 12.5188 17.22 12.8488 16.73C14.2188 14.73 17.2688 10.37 19.7688 7.08C20.8888 5.6 21.8888 4.33 22.5888 3.6C22.6791 3.50561 22.7797 3.42174 22.8888 3.35C22.8388 3.63 22.7188 4 22.6288 4.35C21.7754 7.03865 20.6983 9.65111 19.4088 12.16C17.8903 15.3652 16.1425 18.4565 14.1788 21.41C14.1552 21.4415 14.138 21.4774 14.1282 21.5155C14.1184 21.5537 14.1163 21.5934 14.1218 21.6324C14.1274 21.6714 14.1406 21.7089 14.1607 21.7428C14.1807 21.7767 14.2073 21.8064 14.2388 21.83C14.3041 21.8783 14.3857 21.8991 14.4661 21.8878C14.5465 21.8766 14.6193 21.8343 14.6688 21.77C17.9444 17.0462 20.7352 12.004 22.9988 6.72C23.4341 5.75694 23.7692 4.75165 23.9988 3.72C24.0689 3.33866 24.0379 2.94562 23.9088 2.58Z" fill="#F9C228"/>
<path fill-rule="evenodd" clip-rule="evenodd" d="M9.10914 14.07C10.3691 12.34 12.1091 10.07 13.7391 7.97001L15.7391 5.37001C16.7391 4.14001 17.4991 3.10001 18.0591 2.50001C18.1591 2.40001 18.2491 2.28001 18.3291 2.19001C18.3386 2.23957 18.3386 2.29046 18.3291 2.34001C18.304 2.77358 18.2302 3.20295 18.1091 3.62001C17.9991 4.24001 17.7491 5.00002 17.4491 5.80001C17.4248 5.83789 17.4093 5.88075 17.4038 5.92543C17.3983 5.97011 17.4029 6.01545 17.4173 6.0581C17.4317 6.10076 17.4555 6.13962 17.4869 6.17182C17.5184 6.20402 17.5567 6.22873 17.599 6.24411C17.6413 6.2595 17.6865 6.26516 17.7313 6.26069C17.7761 6.25622 17.8193 6.24173 17.8578 6.21828C17.8962 6.19484 17.9289 6.16304 17.9533 6.12526C17.9778 6.08748 17.9935 6.04467 17.9991 6.00001C18.5611 4.85742 18.9744 3.64758 19.2291 2.40001C19.3091 1.58001 18.9591 1.19001 18.4991 1.14001C18.2161 1.1454 17.9452 1.2559 17.7391 1.45001C16.6665 2.42163 15.6887 3.49313 14.8191 4.65001C14.1891 5.45002 13.5091 6.36001 12.8191 7.30001C11.2491 9.48001 9.68914 11.88 8.51914 13.68C8.48408 13.7552 8.47685 13.8404 8.49874 13.9204C8.52064 14.0004 8.57023 14.07 8.63869 14.1168C8.70714 14.1637 8.79 14.1847 8.8725 14.1761C8.955 14.1675 9.03178 14.1299 9.08914 14.07H9.10914Z" fill="#F9C228"/>
<path fill-rule="evenodd" clip-rule="evenodd" d="M6.65951 22C6.09951 21.89 5.05951 20.7 3.99951 19.34C3.56951 18.8 3.14951 18.21 2.74951 17.66C2.34951 17.11 1.90951 16.45 1.59951 15.93C1.38625 15.614 1.20216 15.2793 1.04951 14.93C1.04951 14.93 1.04951 14.93 1.04951 14.88C1.95587 14.8644 2.8594 14.9857 3.72951 15.24C3.76694 15.2538 3.80671 15.2601 3.84657 15.2585C3.88642 15.2569 3.92557 15.2475 3.96179 15.2308C3.998 15.2141 4.03057 15.1904 4.05763 15.1611C4.0847 15.1318 4.10572 15.0974 4.11951 15.06C4.1333 15.0226 4.13958 14.9828 4.138 14.943C4.13641 14.9031 4.127 14.864 4.11028 14.8277C4.09357 14.7915 4.06988 14.759 4.04058 14.7319C4.01128 14.7048 3.97694 14.6838 3.93951 14.67C3.05336 14.3141 2.12035 14.0885 1.16951 14C0.878188 13.9563 0.580451 13.9944 0.309509 14.11C0.203054 14.1679 0.118686 14.2593 0.0695095 14.37C0.00467557 14.6406 -0.00572642 14.9214 0.038908 15.1961C0.0835425 15.4708 0.182323 15.7339 0.329509 15.97C0.759218 16.8511 1.27863 17.6855 1.87951 18.46C3.45951 20.55 5.65951 22.61 6.53951 22.74C6.58352 22.7487 6.62881 22.7486 6.67278 22.7398C6.71676 22.7309 6.75854 22.7134 6.79572 22.6883C6.8329 22.6632 6.86475 22.631 6.88943 22.5935C6.91411 22.5561 6.93113 22.5141 6.93951 22.47C6.96012 22.421 6.96892 22.3677 6.9652 22.3146C6.96149 22.2616 6.94536 22.2101 6.91813 22.1644C6.89089 22.1186 6.8533 22.0799 6.80838 22.0514C6.76346 22.0229 6.71247 22.0053 6.65951 22Z" fill="#F9C228"/>
</g>
<defs>
<clipPath id="clip0_409_1086">
<rect width="24" height="24" fill="white"/>
</clipPath>
</defs>
</svg>
