<svg width="287" height="94" viewBox="0 0 287 94" fill="none" xmlns="http://www.w3.org/2000/svg">
<path d="M199.918 74.26V59.6229L244.197 0H267.008L223.668 59.6229L213.068 56.5343H287.001V74.26H199.918ZM250.504 94V74.26L251.175 56.5343V38.9429H271.704V94H250.504Z" fill="#F9C228"/>
<path d="M0 74.26V59.6229L44.2795 0H67.0901L23.7499 59.6229L13.1497 56.5343H87.083V74.26H0ZM50.5859 94V74.26L51.2568 56.5343V38.9429H71.7864V94H50.5859Z" fill="#F9C228"/>
<g clip-path="url(#clip0_426_1247)">
<path d="M185.765 40.816C185.601 40.8299 185.44 40.8763 185.294 40.9525C185.147 41.0288 185.017 41.1333 184.91 41.2602C184.804 41.387 184.724 41.5336 184.675 41.6916C184.626 41.8495 184.608 42.0157 184.623 42.1805C184.799 43.8341 184.885 45.496 184.881 47.159C184.881 48.8553 184.881 50.5148 184.697 52.1375C184.367 55.6717 183.561 59.145 182.302 62.4632C181.045 65.762 179.413 68.905 177.438 71.8301C173.292 77.7803 167.429 82.322 160.635 84.848C153.872 87.4667 146.593 88.4767 139.373 87.7982C135.387 87.4369 131.469 86.5311 127.729 85.1061C124.063 83.7022 120.671 81.6679 117.706 79.0951C110.12 72.2757 105.23 62.9591 103.924 52.8381C102.21 42.7327 104.511 32.3568 110.336 23.926C113.443 19.538 117.357 15.7832 121.87 12.8627C126.317 10.0035 131.359 8.1997 136.609 7.58918C139.226 7.33104 141.805 7.10977 144.421 7.10977C146.147 7.09165 147.871 7.20259 149.58 7.44167C149.725 7.46347 149.873 7.45643 150.016 7.42097C150.158 7.3855 150.292 7.3223 150.41 7.23498C150.528 7.14766 150.628 7.03792 150.704 6.91203C150.779 6.78615 150.83 6.64658 150.851 6.50129C150.873 6.35601 150.866 6.20785 150.831 6.06529C150.795 5.92272 150.732 5.78853 150.645 5.67039C150.558 5.55225 150.448 5.45246 150.322 5.37673C150.196 5.301 150.057 5.2508 149.912 5.22901C148.092 4.97827 146.258 4.85504 144.421 4.86023C141.731 4.86023 139.041 4.86023 136.351 5.19213C130.611 5.66815 125.061 7.47354 120.138 10.4656C115.238 13.453 110.939 17.3302 107.462 21.8977C100.813 30.9547 98.0179 42.2776 99.6868 53.3913C101.024 64.5546 106.382 74.847 114.758 82.3403C118.173 85.1883 122.049 87.4331 126.218 88.9783C130.347 90.479 134.661 91.4095 139.041 91.7441C146.834 92.3831 154.669 91.1962 161.924 88.2776C169.313 85.3145 175.624 80.169 180.017 73.5265C182.042 70.3574 183.699 66.9673 184.955 63.422C186.248 59.8611 187.042 56.1379 187.313 52.3587V47.159C187.282 45.4204 187.159 43.6847 186.945 41.9592C186.918 41.6585 186.785 41.3774 186.568 41.1674C186.352 40.9574 186.067 40.8326 185.765 40.816Z" fill="#F9C228"/>
<path d="M153.043 8.25298L162.329 10.8344C162.456 10.9036 162.596 10.9461 162.741 10.9594C162.885 10.9726 163.031 10.9563 163.169 10.9115C163.306 10.8666 163.434 10.7942 163.543 10.6985C163.652 10.6028 163.74 10.486 163.803 10.355C163.931 10.0855 163.949 9.7764 163.852 9.49386C163.756 9.21131 163.553 8.97772 163.287 8.84303C161.77 7.97332 160.164 7.26863 158.496 6.741C156.825 6.25161 155.109 5.93041 153.374 5.78218C153.043 5.73949 152.708 5.8271 152.44 6.02658C152.172 6.22605 151.992 6.52182 151.937 6.85163C151.917 7.01647 151.929 7.18375 151.974 7.34376C152.018 7.50376 152.094 7.6533 152.197 7.78368C152.3 7.91406 152.428 8.02269 152.573 8.10326C152.718 8.18382 152.878 8.23472 153.043 8.25298Z" fill="#F9C228"/>
<path d="M132.628 40.9266C133.315 39.4275 133.415 37.7256 132.911 36.1558C132.406 34.5861 131.333 33.2622 129.902 32.4448C128.92 32.012 127.846 31.8325 126.777 31.9227C125.709 32.0129 124.68 32.3699 123.785 32.961C120.1 35.1737 117.852 41.0004 122.09 44.0244C122.98 44.5326 123.964 44.8558 124.983 44.9748C126.001 45.0938 127.033 45.0061 128.017 44.7169C129.001 44.4278 129.916 43.9431 130.708 43.2918C131.501 42.6406 132.154 41.8362 132.628 40.9266Z" fill="#F9C228"/>
<path d="M157.393 44.0244C158.191 44.4853 159.08 44.7674 159.998 44.8513C160.916 44.9352 161.841 44.8189 162.709 44.5105C163.578 44.202 164.37 43.7086 165.029 43.0645C165.689 42.4203 166.201 41.6406 166.531 40.7791C166.752 39.5253 163.878 39.2671 161.409 37.4233C158.94 35.5794 158.977 32.6292 156.656 33.7355C155.327 34.6726 154.42 36.0952 154.13 37.696C153.841 39.2967 154.192 40.9473 155.108 42.2911C155.735 43.0278 156.515 43.6192 157.393 44.0244Z" fill="#F9C228"/>
<path d="M118.847 73.5265C118.992 73.5472 119.14 73.5388 119.282 73.5016C119.424 73.4644 119.557 73.3993 119.674 73.3101C119.791 73.2208 119.888 73.1092 119.961 72.9817C120.034 72.8543 120.081 72.7135 120.099 72.5677C121.373 67.4121 124.314 62.8224 128.464 59.513C132.286 56.0245 137.223 54.0113 142.393 53.8338C148.142 53.5988 153.844 54.9648 158.864 57.7797C161.309 59.2416 163.428 61.1908 165.089 63.5063C166.749 65.8218 167.917 68.4542 168.519 71.2401C168.582 71.5677 168.773 71.8567 169.05 72.0434C169.326 72.2302 169.665 72.2994 169.993 72.2358C170.32 72.1722 170.609 71.9811 170.795 71.7045C170.982 71.4278 171.051 71.0883 170.987 70.7607C170.502 67.5254 169.346 64.4274 167.595 61.6649C165.844 58.9025 163.535 56.5366 160.817 54.7189C155.29 51.2876 148.897 49.5091 142.393 49.5929C139.273 49.6164 136.199 50.3477 133.402 51.7318C130.679 53.0519 128.189 54.8082 126.032 56.9315C121.625 60.9782 118.716 66.3981 117.778 72.3095C117.768 72.4597 117.788 72.6104 117.836 72.753C117.884 72.8955 117.96 73.0271 118.06 73.1402C118.159 73.2532 118.28 73.3456 118.415 73.4119C118.55 73.4782 118.696 73.5171 118.847 73.5265Z" fill="#F9C228"/>
<path d="M163.841 32.666C165.462 35.6162 168.889 37.7551 175.117 37.8289C181.344 37.9027 184.808 35.8006 186.466 32.961C187.322 31.053 187.745 28.9794 187.707 26.8883C187.669 24.7973 187.17 22.7406 186.245 20.8652C185.32 18.5599 184.198 16.339 182.892 14.2272C174.969 0.877437 174.159 3.68014 173.974 3.93829C172.758 5.63466 170.068 9.28555 167.563 13.5265C166.24 15.7748 165.082 18.1166 164.099 20.5333C163.199 22.4216 162.71 24.48 162.665 26.5719C162.621 28.6637 163.022 30.741 163.841 32.666ZM167.526 21.6027C168.272 19.2797 169.208 17.0225 170.326 14.8541C171.911 11.6457 173.68 8.76927 174.896 6.81475C176.587 9.17979 178.137 11.6426 179.538 14.1903C181.012 16.6864 182.245 19.3165 183.223 22.0452C183.854 23.4287 184.18 24.9316 184.18 26.4521C184.18 27.9727 183.854 29.4755 183.223 30.859C182.044 32.7029 179.538 33.6248 175.338 33.5511C171.137 33.4773 168.742 32.4816 167.599 30.564C166.95 29.1784 166.596 27.6732 166.558 26.1434C166.52 24.6137 166.799 23.0926 167.378 21.6765L167.526 21.6027Z" fill="#F9C228"/>
</g>
<defs>
<clipPath id="clip0_426_1247">
<rect width="88.437" height="88.5065" fill="white" transform="translate(99.2812 3.45888)"/>
</clipPath>
</defs>
</svg>
