<svg width="50" height="50" viewBox="0 0 50 50" fill="none" xmlns="http://www.w3.org/2000/svg">
<g clip-path="url(#clip0_515_211)">
<path d="M36.0005 4.58346C34.8996 4.16749 33.6848 4.16749 32.5839 4.58346C32.0017 4.8111 31.4712 5.15339 31.0238 5.59C30.5765 6.02661 30.2214 6.54865 29.9797 7.12512C29.7129 7.66992 29.5742 8.26851 29.5742 8.87512C29.5742 9.48174 29.7129 10.0803 29.9797 10.6251C30.0571 10.7936 30.1982 10.9245 30.372 10.989C30.5459 11.0535 30.7383 11.0462 30.9068 10.9689C31.0753 10.8915 31.2062 10.7504 31.2707 10.5765C31.3351 10.4027 31.3279 10.2103 31.2505 10.0418C31.1265 9.6725 31.0883 9.27978 31.1388 8.89351C31.1894 8.50724 31.3273 8.13758 31.5422 7.81262C31.7307 7.48964 31.9832 7.20851 32.2841 6.98642C32.585 6.76433 32.928 6.60595 33.2922 6.52096C33.9208 6.3936 34.574 6.48166 35.1464 6.77096C35.6939 6.99348 36.1343 7.41893 36.3755 7.95846C36.6771 8.57153 36.7791 9.26363 36.6672 9.93762C36.6081 10.2577 36.4855 10.5627 36.3066 10.8347C36.1276 11.1066 35.8961 11.34 35.6255 11.521C35.188 11.8335 34.3547 12.0835 33.813 12.4585C33.5855 12.5992 33.3816 12.775 33.2089 12.9793C33.0302 13.2296 32.9027 13.5128 32.8339 13.8126C32.7579 14.1686 32.723 14.5321 32.7297 14.896C32.7587 15.0656 32.8467 15.2195 32.9783 15.3305C33.1098 15.4414 33.2764 15.5023 33.4484 15.5023C33.6205 15.5023 33.7871 15.4414 33.9186 15.3305C34.0502 15.2195 34.1382 15.0656 34.1672 14.896C34.147 14.702 34.147 14.5065 34.1672 14.3126C34.2088 14.1846 34.2722 14.0648 34.3547 13.9585L36.438 13.1251C36.9843 12.8535 37.4694 12.4732 37.8634 12.0075C38.2575 11.5418 38.5523 11.0005 38.7297 10.4168C39.0195 9.29114 38.9466 8.10275 38.5214 7.02096C38.2857 6.46663 37.9411 5.96526 37.5081 5.54656C37.0751 5.12787 36.5625 4.80036 36.0005 4.58346Z" fill="#F9C228"/>
<path d="M33.1045 17.125C32.7673 17.1579 32.4461 17.2846 32.1773 17.4908C31.9085 17.6971 31.7028 17.9745 31.5837 18.2917C31.545 18.4884 31.5478 18.6911 31.5921 18.8867C31.6364 19.0822 31.7211 19.2664 31.8408 19.4273C31.9605 19.5882 32.1125 19.7222 32.2871 19.8209C32.4617 19.9195 32.655 19.9805 32.8545 20C33.2328 19.9909 33.5992 19.8662 33.9046 19.6427C34.21 19.4193 34.4397 19.1078 34.5629 18.75C34.5741 18.5475 34.5453 18.3447 34.478 18.1534C34.4108 17.962 34.3064 17.7858 34.1709 17.6348C34.0355 17.4839 33.8715 17.3611 33.6885 17.2737C33.5056 17.1862 33.3071 17.1357 33.1045 17.125Z" fill="#F9C228"/>
<path d="M11.5423 24.646C10.4644 24.6676 9.39065 24.7861 8.33398 25.0001C8.16822 25.0001 8.00925 25.066 7.89204 25.1832C7.77483 25.3004 7.70898 25.4594 7.70898 25.6251C7.70898 25.7909 7.77483 25.9499 7.89204 26.0671C8.00925 26.1843 8.16822 26.2501 8.33398 26.2501C9.66732 26.2501 10.5215 26.5418 12.1673 26.5001C13.0421 26.4495 13.9122 26.3382 14.7715 26.1668C14.8636 26.1642 14.9543 26.1431 15.0381 26.1047C15.1219 26.0663 15.1971 26.0115 15.2593 25.9435C15.3215 25.8755 15.3694 25.7956 15.4001 25.7087C15.4308 25.6218 15.4438 25.5296 15.4382 25.4376C15.4383 25.3437 15.4193 25.2508 15.3821 25.1646C15.345 25.0783 15.2906 25.0006 15.2223 24.9362C15.154 24.8717 15.0732 24.822 14.9849 24.79C14.8966 24.758 14.8027 24.7445 14.709 24.7501C13.959 24.7501 13.334 24.6251 12.7715 24.6043C12.209 24.5835 11.9173 24.6251 11.5423 24.646Z" fill="#F9C228"/>
<path d="M7.9379 33.9792C7.94228 34.142 8.00616 34.2977 8.11747 34.4167C8.22879 34.5357 8.37983 34.6098 8.54206 34.625C9.91706 34.8125 11.3962 34.9167 12.8962 34.9792L15.7087 35.0833H18.4796C20.6879 34.9583 22.9587 34.6458 24.8962 34.5C25.0841 34.5 25.2643 34.4254 25.3971 34.2925C25.5299 34.1597 25.6046 33.9795 25.6046 33.7917C25.5991 33.6019 25.5199 33.4218 25.3838 33.2895C25.2476 33.1572 25.0652 33.0833 24.8754 33.0833C22.9379 32.9583 20.7087 32.7917 18.4379 32.75H15.7087L8.60456 33.3333C8.51727 33.3274 8.42971 33.34 8.34755 33.37C8.26539 33.4001 8.19047 33.4471 8.12763 33.508C8.06479 33.5689 8.01543 33.6423 7.98274 33.7234C7.95006 33.8046 7.93478 33.8917 7.9379 33.9792Z" fill="#F9C228"/>
<path d="M32.9587 32.4376C32.7688 32.4375 32.5864 32.5115 32.4503 32.6437C32.3141 32.776 32.2349 32.9562 32.2295 33.1459C32.2295 34.7293 32.1253 36.2084 32.0212 37.3126C31.9843 37.9556 31.9078 38.5957 31.792 39.2293C31.8038 39.2842 31.8038 39.341 31.792 39.3959C31.4795 39.3959 30.792 39.6251 30.1045 39.6251C27.4587 39.6251 23.1462 39.3334 21.0212 39.2918C20.5845 39.2523 20.1453 39.2523 19.7087 39.2918C19.4437 39.3212 19.1989 39.4473 19.0212 39.6459C18.4378 40.2918 17.8128 41.7293 16.7503 43.4584C16.2806 44.2061 15.7361 44.9041 15.1253 45.5418C14.1591 46.4056 12.9795 46.9954 11.7087 47.2501C12.1418 46.1644 12.4087 45.0196 12.5003 43.8543C12.6764 42.6453 12.5104 41.4112 12.0212 40.2918C11.7866 39.8135 11.387 39.4362 10.8962 39.2293C10.22 39.0292 9.5179 38.9309 8.81283 38.9376H3.10449C2.92087 38.9012 2.7399 38.8525 2.56283 38.7918C2.58428 38.431 2.58428 38.0692 2.56283 37.7084C2.35449 33.8126 2.06283 25.2084 2.25033 21.5418C2.25033 20.9584 2.54199 20.3959 2.47949 20.2084C3.65127 19.91 4.85382 19.7492 6.06283 19.7293C8.04199 19.5834 10.417 19.5209 12.6462 19.4793C12.8103 19.474 12.9662 19.4065 13.0823 19.2904C13.1984 19.1743 13.2659 19.0184 13.2712 18.8543C13.2712 18.7704 13.2544 18.6874 13.2217 18.6102C13.189 18.533 13.1411 18.4631 13.0808 18.4048C13.0205 18.3465 12.9492 18.3009 12.8709 18.2707C12.7927 18.2406 12.7091 18.2265 12.6253 18.2293H4.87532C3.59602 18.1936 2.32611 18.4576 1.16699 19.0001C0.890095 19.3698 0.723921 19.8105 0.687826 20.2709C0.43093 22.707 0.298813 25.1547 0.291992 27.6043V38.5001C0.296563 38.9049 0.331382 39.3088 0.396159 39.7084C0.42701 39.9869 0.543472 40.2489 0.729492 40.4584C1.46824 40.9546 2.33963 41.216 3.22949 41.2084C5.31283 41.3543 10.0003 41.2084 10.0212 41.3543C10.2172 42.6227 10.1676 43.917 9.87533 45.1668C9.62294 46.1916 9.1541 47.1506 8.50033 47.9793C8.38427 48.1115 8.29963 48.2683 8.25273 48.4378C8.20583 48.6074 8.19789 48.7854 8.22949 48.9584C8.26441 49.2037 8.37931 49.4306 8.55636 49.6038C8.73341 49.7771 8.9627 49.8871 9.20866 49.9168C9.53322 49.9656 9.86326 49.9656 10.1878 49.9168C12.5798 49.6917 14.8433 48.7309 16.667 47.1668C17.3746 46.4189 17.9965 45.5943 18.5212 44.7084C19.3545 43.3751 19.8337 42.1043 20.2712 41.3959H20.7503C22.7087 41.3959 27.0003 41.5418 29.8545 41.3959C30.6944 41.4033 31.5327 41.3195 32.3545 41.1459C32.5695 41.0896 32.7644 40.9742 32.917 40.8126C33.2673 40.265 33.4551 39.6293 33.4587 38.9793C33.6045 37.6459 33.667 35.5209 33.667 33.1459C33.667 32.9581 33.5924 32.7779 33.4595 32.6451C33.3267 32.5122 33.1465 32.4376 32.9587 32.4376Z" fill="#F9C228"/>
<path d="M49.5418 2.41667C49.5005 1.98524 49.3257 1.57741 49.0418 1.25C47.8117 0.663738 46.4669 0.35777 45.1043 0.354167C40.3959 0 32.3751 0 31.2501 0C28.5209 0 24.5001 0.229167 21.4793 0.541667C19.8851 0.608621 18.314 0.946796 16.8334 1.54167C16.6061 1.73768 16.4458 1.99994 16.3751 2.29167C16.3751 2.5 16.2709 2.9375 16.2084 3.58333C16.0418 5.72917 15.9168 10.4167 15.9793 14.5833C15.9573 17.0771 16.1105 19.5693 16.4376 22.0417C16.5029 22.5183 16.6894 22.9702 16.9793 23.3542C17.1792 23.5424 17.4225 23.6784 17.6876 23.75C18.5324 23.9052 19.3917 23.968 20.2501 23.9375C23.0418 23.9375 27.3959 23.625 29.3543 23.625H29.8543C30.3543 24.3125 30.8751 25.5833 31.7501 26.9375C32.2911 27.792 32.9194 28.588 33.6251 29.3125C35.1852 30.6708 37.1144 31.5338 39.1668 31.7917C39.6412 31.8747 40.1228 31.9096 40.6043 31.8958C40.7902 31.895 40.9702 31.8305 41.1143 31.7129C41.2584 31.5954 41.3578 31.432 41.3959 31.25C41.4217 31.1434 41.42 31.032 41.3908 30.9263C41.3616 30.8206 41.306 30.7241 41.2293 30.6458C40.3686 29.5495 39.8021 28.2515 39.5834 26.875C39.3772 25.9207 39.3772 24.9334 39.5834 23.9792C39.9168 22.5833 40.8751 23.5417 46.9584 23.2083C47.7577 23.229 48.546 23.0192 49.2293 22.6042C49.3606 22.434 49.4466 22.2333 49.4793 22.0208C49.4793 21.8125 49.4793 21.3333 49.5834 20.6875C49.7501 18.0833 49.9168 12.3542 49.9168 7.97917C49.8886 6.11974 49.7634 4.26305 49.5418 2.41667ZM47.9168 20.8333C47.9286 21.0276 47.9286 21.2224 47.9168 21.4167C47.628 21.5369 47.3279 21.6276 47.0209 21.6875C41.1876 22.1875 37.6876 20.2708 38.1876 26.1875C38.3044 27.6412 38.708 29.0573 39.3751 30.3542C37.7322 30.102 36.1979 29.3783 34.9584 28.2708C34.3565 27.6308 33.8192 26.933 33.3543 26.1875C32.3334 24.5208 31.7709 23 31.2709 22.3333C31.0986 22.1498 30.8725 22.0258 30.6251 21.9792C30.1882 21.9474 29.7495 21.9474 29.3126 21.9792C27.2293 21.9792 22.8751 22.125 20.2293 21.9792L18.7501 21.75C18.7501 21.2708 18.3543 20.1042 18.2918 18.9792C18.1251 14.8125 18.2918 7.91667 18.4584 4.5625V3.35417H18.6876C19.6668 3.16667 21.2084 2.97917 22.8543 2.83333C25.584 2.58528 28.322 2.43935 31.0626 2.39583C31.8751 2.39583 36.9168 2.25 41.3126 2.39583C43.0952 2.40625 44.8759 2.51753 46.6459 2.72917C46.8686 2.78288 47.085 2.85968 47.2918 2.95833C47.3407 3.22715 47.3755 3.49836 47.3959 3.77083C47.5418 5.22917 47.6043 7.58333 47.6459 10.0208C47.9168 14.1042 47.9168 18.75 47.9168 20.8333Z" fill="#F9C228"/>
</g>
<defs>
<clipPath id="clip0_515_211">
<rect width="50" height="50" fill="white"/>
</clipPath>
</defs>
</svg>
