<svg width="20" height="20" viewBox="0 0 20 20" fill="none" xmlns="http://www.w3.org/2000/svg">
<g clip-path="url(#clip0_409_904)">
<path d="M19.9996 11.7083C19.2719 10.4932 18.4351 9.34676 17.4996 8.28333C17.2162 7.96111 16.9246 7.64445 16.6246 7.33333C16.6246 7.01667 16.6246 6.70833 16.6829 6.39167C16.7412 5.73333 16.8246 5.075 16.8996 4.43333C16.9195 4.06673 16.9139 3.69917 16.8829 3.33333C16.884 3.01763 16.8097 2.70622 16.6662 2.425C16.5614 2.24503 16.4004 2.10449 16.2079 2.025C16.0204 1.96772 15.8279 1.92866 15.6329 1.90833C15.3177 1.87091 15.0003 1.85421 14.6829 1.85833C14.3611 1.86273 14.0403 1.8962 13.7246 1.95833C13.5598 1.98828 13.398 2.0329 13.2412 2.09167C13.1027 2.14815 12.9777 2.23336 12.8746 2.34167C12.7371 2.5267 12.6665 2.75296 12.6746 2.98333V3.275L11.2329 1.66667C11.0535 1.46868 10.849 1.29499 10.6246 1.15C10.4184 1.01898 10.1768 0.954937 9.93289 0.966668C9.72813 0.971532 9.53234 1.05163 9.38289 1.19167C9.20264 1.37245 9.04074 1.57064 8.89956 1.78333L7.13289 3.78333C6.42456 4.61667 5.69955 5.45 4.96622 6.28333C4.23289 7.11667 3.48289 7.95 2.70789 8.70833C2.07456 9.36667 1.38289 9.91667 0.782889 10.575C0.510939 10.8686 0.262925 11.1835 0.0412221 11.5167C0.00527862 11.5724 -0.00784717 11.6398 0.00456341 11.705C0.016974 11.7702 0.05397 11.828 0.107889 11.8667C0.164622 11.9018 0.232742 11.9136 0.297983 11.8996C0.363225 11.8856 0.420527 11.8469 0.457889 11.7917C0.747987 11.3955 1.07744 11.0298 1.44122 10.7C1.99956 10.175 2.59956 9.71667 3.17456 9.175C4.00789 8.40834 4.77455 7.63333 5.55789 6.83333C6.34122 6.03333 7.09122 5.225 7.83289 4.39167C7.83289 4.39167 9.99122 1.93333 9.97456 1.93333C9.95789 1.93333 12.3912 4.35833 12.3912 4.35833C13.5996 5.54167 14.8412 6.66667 16.0246 7.86667L16.0746 7.925C16.3579 8.2 16.6329 8.475 16.9079 8.75834C17.8633 9.76106 18.7252 10.8489 19.4829 12.0083C19.5026 12.0401 19.5283 12.0676 19.5587 12.0894C19.589 12.1112 19.6234 12.1268 19.6597 12.1353C19.6961 12.1438 19.7338 12.1451 19.7707 12.139C19.8075 12.133 19.8428 12.1197 19.8746 12.1C19.9063 12.0803 19.9338 12.0545 19.9556 12.0242C19.9774 11.9939 19.993 11.9595 20.0015 11.9232C20.01 11.8868 20.0113 11.8491 20.0052 11.8122C19.9992 11.7754 19.9859 11.7401 19.9662 11.7083H19.9996ZM13.3329 3.925V3.16667C13.3329 2.9 13.3329 2.875 13.4162 2.81667L13.8912 2.725C14.1077 2.71251 14.3247 2.71251 14.5412 2.725C14.8769 2.74509 15.2109 2.78684 15.5412 2.85L15.8329 2.91667C15.9114 3.05992 15.9543 3.21999 15.9579 3.38333C15.9788 3.71356 15.9788 4.04478 15.9579 4.375V6.36667V6.65833C14.9996 5.74167 14.1662 4.84167 13.2579 3.925H13.3329Z" fill="#F9C228"/>
<path d="M9.53222 8.825C9.75071 8.88439 9.97902 8.89864 10.2032 8.86687C10.4274 8.83511 10.6427 8.758 10.8361 8.64024C11.0295 8.52249 11.1969 8.36657 11.328 8.18199C11.4592 7.99741 11.5513 7.78804 11.5989 7.56667C11.9656 6.21667 10.8322 5.06667 9.09888 5.73334C8.75138 5.88072 8.4596 6.13457 8.26555 6.45834C8.1347 6.69388 8.07166 6.96106 8.08342 7.23025C8.09519 7.49945 8.18131 7.76011 8.33222 7.98334C8.6125 8.40447 9.04081 8.70488 9.53222 8.825ZM8.99888 6.81667C9.11949 6.56022 9.33443 6.36021 9.59888 6.25834C10.4322 5.88334 11.1656 6.46667 10.8406 7.325C10.8103 7.43479 10.7579 7.53722 10.6866 7.62597C10.6152 7.71472 10.5264 7.7879 10.4257 7.84101C10.325 7.89411 10.2144 7.926 10.1009 7.93471C9.98733 7.94343 9.87321 7.92878 9.76555 7.89167C9.52027 7.81872 9.30809 7.66253 9.16555 7.45C9.0827 7.36964 9.02338 7.26817 8.994 7.15655C8.96463 7.04493 8.96632 6.9274 8.99888 6.81667Z" fill="#F9C228"/>
<path d="M17.1908 11.7833V10.1167C17.1908 10.0795 17.1834 10.0426 17.1692 10.0082C17.1549 9.97387 17.1341 9.94263 17.1078 9.91632C17.0815 9.89001 17.0502 9.86914 17.0158 9.8549C16.9815 9.84066 16.9446 9.83334 16.9074 9.83334C16.8702 9.83334 16.8334 9.84066 16.799 9.8549C16.7646 9.86914 16.7334 9.89001 16.7071 9.91632C16.6808 9.94263 16.6599 9.97387 16.6457 10.0082C16.6314 10.0426 16.6241 10.0795 16.6241 10.1167V11.7833C16.5658 13.0917 16.4408 14.4 16.4158 15.7C16.4482 16.2245 16.4482 16.7505 16.4158 17.275C16.3956 17.5587 16.2944 17.8306 16.1241 18.0583C16.0491 18.1417 15.8908 18.0583 15.7408 18.0583C15.4574 18.0583 15.1658 18 14.9991 17.9917C14.4158 17.9917 11.2491 17.7667 10.7741 17.7667H9.47409H9.40742H8.32409H7.74076C7.19075 17.7667 6.63242 17.825 6.07409 17.8917C5.66576 17.9417 5.17409 18.0583 4.70742 18.0833C4.46333 18.1044 4.21773 18.0672 3.99076 17.975C3.86576 17.9167 3.82409 17.75 3.78242 17.5833C3.71397 17.198 3.67497 16.808 3.66576 16.4167C3.59076 15.5833 3.54076 14.8083 3.50742 14.0083C3.50742 12.7917 3.45742 11.5833 3.44909 10.3667C3.4502 10.3338 3.44483 10.3011 3.43329 10.2703C3.42174 10.2396 3.40424 10.2114 3.3818 10.1874C3.35936 10.1634 3.3324 10.1441 3.30248 10.1305C3.27256 10.1169 3.24026 10.1094 3.20742 10.1083C3.1739 10.1072 3.14049 10.1129 3.10919 10.1249C3.07789 10.137 3.04934 10.1552 3.02523 10.1785C3.00113 10.2019 2.98196 10.2298 2.96888 10.2607C2.9558 10.2916 2.94907 10.3248 2.94909 10.3583C2.90742 11.5833 2.86576 12.8 2.85742 14.0167C2.85742 14.85 2.85742 15.6833 2.91576 16.475C2.90398 16.9843 2.95152 17.4933 3.05742 17.9917C3.13649 18.2993 3.33427 18.563 3.60742 18.725C3.86777 18.8539 4.15092 18.9303 4.44076 18.95C5.01574 18.9463 5.58961 18.8989 6.15742 18.8083C6.75742 18.75 7.36576 18.725 7.98242 18.7083H10.7574L14.9241 18.8583C15.3039 18.893 15.686 18.893 16.0658 18.8583C16.3238 18.833 16.5637 18.7145 16.7408 18.525C16.9499 18.2553 17.0875 17.9371 17.1408 17.6C17.2025 16.9431 17.2025 16.2819 17.1408 15.625C17.1074 14.3917 17.1741 13.0833 17.1908 11.7833Z" fill="#F9C228"/>
<path d="M8.12434 17.3917C8.12434 16.9583 8.00768 16.5 8.04101 16.0417C8.0923 15.3155 8.32434 14.6136 8.71601 14C8.85349 13.7869 9.04416 13.6133 9.26922 13.4964C9.49428 13.3795 9.74593 13.3233 9.99935 13.3333C10.2636 13.3276 10.5259 13.3798 10.7678 13.4863C11.0096 13.5929 11.2252 13.7511 11.3993 13.95C11.7737 14.3797 12.004 14.916 12.0577 15.4833C12.1107 16.1152 12.1301 16.7494 12.116 17.3833C12.116 17.625 12.6327 17.7583 12.741 17.3833C12.8407 16.539 12.8407 15.686 12.741 14.8417C12.6486 14.291 12.4194 13.7723 12.0743 13.3333C11.8216 13.0274 11.5048 12.7808 11.1462 12.6109C10.7877 12.441 10.3961 12.3519 9.99935 12.35C9.58688 12.3497 9.18149 12.4572 8.82336 12.6618C8.46524 12.8665 8.16682 13.1611 7.95768 13.5167C7.5552 14.288 7.34912 15.1467 7.35768 16.0167C7.36265 16.4934 7.43274 16.9672 7.56601 17.425C7.66601 17.6667 8.09934 17.6667 8.12434 17.3917Z" fill="#F9C228"/>
</g>
<defs>
<clipPath id="clip0_409_904">
<rect width="20" height="20" fill="white"/>
</clipPath>
</defs>
</svg>
