<svg width="56" height="56" viewBox="0 0 56 56" fill="none" xmlns="http://www.w3.org/2000/svg">
<path d="M47.6402 41.6023C45.3462 39.8255 43.6598 37.3809 42.8134 34.6055C41.6184 29.7729 40.8316 24.8485 40.4613 19.8842C40.4159 19.7399 40.3213 19.6161 40.194 19.5343C40.0667 19.4526 39.9147 19.4182 39.7646 19.437C39.6145 19.4559 39.4758 19.5268 39.3726 19.6375C39.2695 19.7481 39.2084 19.8915 39.2001 20.0425C39.4292 25.1301 40.0646 30.1912 41.1001 35.1776C41.5304 36.6096 42.1053 37.994 42.8159 39.3097C43.6185 40.4823 44.5569 41.5558 45.6117 42.5081C42.1495 45.0429 29.981 45.6464 26.1945 45.9327C22.8655 46.1826 21.8915 46.9559 20.9933 44.4854C19.405 38.6267 18.412 32.6227 18.0295 26.5646C18.098 24.2502 17.9131 21.9352 17.4779 19.6611C17.1956 18.5834 16.1854 19.2353 16.3719 20.052C16.2248 24.6851 16.4 29.3228 16.8962 33.9316C17.3559 37.976 18.1183 41.9802 19.177 45.9106C19.4299 46.661 19.9043 47.3171 20.5376 47.7925C21.1709 48.2679 21.9335 48.5402 22.7246 48.5735C23.9172 48.6092 25.1107 48.5506 26.294 48.3985C31.3924 48.239 36.4682 47.651 41.468 46.6406C44.5227 45.8791 49.6911 43.8861 47.6402 41.6023Z" fill="#F9C228"/>
<path d="M19.7494 19.3549C23.2851 18.911 38.0225 17.691 41.0461 16.6814C41.4083 16.5569 41.7293 16.3349 41.9736 16.0399C42.613 15.0115 43.0005 13.8466 43.1046 12.6402C43.2086 11.4337 43.0262 10.2197 42.5722 9.09703C40.9937 5.5568 37.5433 6.01095 33.6355 6.50152C29.7277 6.99209 25.7786 7.82386 23.0131 8.04502C20.2476 8.26618 16.3553 8.88081 16.1899 8.90157C13.109 8.9523 9.9001 11.4974 9.24925 17.3547C9.07549 22.2437 9.18509 27.1386 9.57748 32.015C10.0941 37.0858 10.8741 42.1264 11.9143 47.1162C12.0022 47.2694 12.1427 47.3855 12.3097 47.4429C12.4767 47.5003 12.6588 47.4952 12.8224 47.4285C12.9859 47.3618 13.1196 47.238 13.1988 47.0802C13.278 46.9223 13.2972 46.7411 13.2529 46.5702C12.1497 39.8278 11.5954 33.0071 11.5957 26.1751C11.6555 21.9671 10.8071 16.046 13.2273 12.7388C13.5319 12.1898 13.9716 11.7276 14.5048 11.3961C15.0381 11.0645 15.6471 10.8746 16.2742 10.8442C16.9014 10.8139 17.5259 10.9441 18.0886 11.2226C18.6513 11.5011 19.1337 11.9187 19.4899 12.4357C19.9031 13.2804 20.0563 14.2286 19.9303 15.1604C19.8043 16.0922 19.4046 16.9656 18.7818 17.6701C18.5157 17.8926 18.2581 19.5211 19.7494 19.3549ZM20.8541 11.4244C19.7341 9.8638 19.0698 9.92618 19.3593 9.88985C20.786 9.71075 22.1921 9.70225 22.9881 9.68633C26.9246 9.5912 34.5825 8.35684 38.1831 8.59791C38.7618 8.62233 39.314 8.84687 39.7456 9.23319C40.1771 9.61952 40.4612 10.1437 40.5492 10.7161C41.5648 15.1251 39.259 14.6585 38.5457 14.832C34.0772 15.876 24.8014 17.2715 20.2656 17.9459C20.9761 17.0285 21.4075 15.9259 21.5082 14.7699C21.6089 13.6139 21.3746 12.4534 20.8334 11.427L20.8541 11.4244Z" fill="#F9C228"/>
<path d="M26.3425 23.0217C25.566 23.8382 24.911 24.7621 24.3976 25.7651C23.3131 27.8334 23.4814 28.3374 22.7963 28.0663C22.6892 27.9983 22.5693 27.9526 22.444 27.9323C22.3187 27.9119 22.1906 27.9172 22.0674 27.9478C20.734 28.7032 23.232 30.8679 24.7254 29.7143C26.8876 27.5317 26.5738 25.5339 27.4182 23.8947C27.4916 23.7503 27.5133 23.585 27.4796 23.4265C27.4459 23.2679 27.3589 23.1258 27.233 23.0236C27.1072 22.9215 26.9502 22.8656 26.7881 22.8652C26.626 22.8649 26.4687 22.9201 26.3425 23.0217Z" fill="#F9C228"/>
<path d="M31.6802 28.4003C33.0589 28.1901 34.4254 27.9064 35.7739 27.5503C35.9603 27.5269 36.1299 27.4304 36.2451 27.282C36.3604 27.1336 36.412 26.9455 36.3886 26.7591C36.4548 24.7766 28.337 26.3627 28.3428 27.4121C28.3485 28.4615 31.3441 28.4005 31.6802 28.4003Z" fill="#F9C228"/>
<path d="M26.9193 33.3035C25.933 35.3175 25.4137 35.8657 24.4327 38.0891C24.2434 38.0784 24.056 38.0456 23.8744 37.9911C23.8319 37.918 23.775 37.8543 23.7071 37.8038C23.6393 37.7533 23.5619 37.7171 23.4797 37.6973C23.3974 37.6776 23.312 37.6748 23.2286 37.689C23.1453 37.7033 23.0657 37.7343 22.9946 37.7802C22.9236 37.8261 22.8626 37.8859 22.8153 37.956C22.7681 38.0262 22.7356 38.1052 22.7197 38.1883C22.7039 38.2714 22.7051 38.3568 22.7233 38.4394C22.7414 38.522 22.7761 38.6001 22.8253 38.6689C23.1675 39.2307 23.6449 39.6979 24.214 40.0277C26.4634 41.2155 27.8048 36.1746 28.2791 33.7628C28.34 33.5825 28.3268 33.3854 28.2424 33.2148C28.1579 33.0442 28.0092 32.9141 27.8289 32.8532C27.6485 32.7923 27.4514 32.8055 27.2808 32.89C27.1103 32.9744 26.9802 33.1231 26.9193 33.3035Z" fill="#F9C228"/>
<path d="M37.4931 37.2266C37.6037 37.0728 37.652 36.8829 37.6284 36.695C37.6048 36.5071 37.511 36.335 37.3659 36.2134C36.8538 35.6476 34.5974 35.7419 34.1038 35.8248C32.6211 36.1073 31.1768 36.5636 29.8009 37.1841C29.6124 37.5228 29.5402 37.7839 29.7755 37.9854C30.0108 38.1868 29.5223 38.1432 32.6474 38.4439C34.2919 38.1651 35.912 37.7581 37.4931 37.2266Z" fill="#F9C228"/>
</svg>
