<svg width="56" height="56" viewBox="0 0 56 56" fill="none" xmlns="http://www.w3.org/2000/svg">
<g clip-path="url(#clip0_473_1585)">
<path d="M49.9858 5.83199C49.8377 4.81581 49.6134 3.81222 49.3147 2.82972C49.1969 2.4706 48.9744 2.15488 48.6758 1.92311C48.3756 1.77341 48.0507 1.67907 47.717 1.64462C46.2349 1.55715 44.7488 1.56151 43.2672 1.65767C37.5024 1.89892 28.0917 2.70314 24.3296 3.17574C23.2134 3.31596 14.7383 4.3806 8.50102 5.3741C6.66072 5.66972 4.83948 6.07379 3.04682 6.58418C2.42101 6.74379 1.84088 7.04669 1.35222 7.46897C1.15642 7.71385 1.02671 8.00486 0.975461 8.31418C0.869182 9.50145 0.871641 10.6959 0.982808 11.8828C1.31652 16.7122 2.33701 24.8358 2.56292 26.6342C2.78883 28.4325 4.03131 36.1504 4.88948 40.8089C5.07903 42.3179 5.39241 43.4753 5.54521 44.0231C5.59909 44.3052 5.73393 44.5655 5.93327 44.7722C6.58363 45.179 7.34009 45.3836 8.10682 45.36C9.6032 45.3234 11.0921 45.1363 12.5511 44.8018C14.1245 44.4571 15.4732 44.1617 16.6515 44.0137C19.8348 43.6138 19.6621 44.4124 19.8148 44.7922C20.1935 45.9012 20.3411 47.076 20.2485 48.2442C20.1599 49.9465 19.6456 51.5994 18.7527 53.0515C18.6855 53.1851 18.6576 53.335 18.6722 53.4838C18.6867 53.6326 18.7432 53.7743 18.8349 53.8924C18.9266 54.0105 19.0499 54.1002 19.1905 54.1511C19.3311 54.2021 19.4833 54.2121 19.6294 54.1801C20.4368 54.0694 21.2286 53.8642 21.9882 53.5689C24.0051 52.9279 25.8096 51.7504 27.2085 50.1625C27.87 49.2054 28.4452 48.1916 28.9277 47.1329C29.7561 45.3701 30.1866 43.7832 30.6615 42.8837C30.8476 42.8603 31.3255 42.6533 31.8216 42.591C35.2323 42.1625 43.2761 41.509 46.1572 41.378C47.6773 41.2913 49.1898 41.1013 50.6841 40.8094C51.5557 40.6864 52.366 40.2906 52.9988 39.6787C53.4785 38.1493 53.6194 36.5338 53.4119 34.9445C53.3156 29.4973 52.1704 20.3815 51.9471 18.6038C51.7238 16.8261 50.7221 9.85492 49.9858 5.83199ZM51.3099 33.0878C51.4866 34.6672 51.5669 36.2558 51.5506 37.8449C51.5817 38.093 51.4734 38.4005 51.4657 38.5065C51.3106 38.5975 51.1411 38.6614 50.9645 38.6954C50.4066 38.8502 49.8397 38.9705 49.267 39.0557L46.2491 39.4348C43.7297 39.6043 37.2932 40.1819 33.389 40.6933C32.3856 40.7976 31.3897 40.9648 30.4073 41.1938C30.0986 41.2539 29.8218 41.4228 29.6272 41.6698C29.0618 42.5177 28.6262 44.3992 27.6714 46.4928C27.2241 47.4324 26.6817 48.3237 26.0528 49.1528C24.6446 50.7491 22.7917 51.8885 20.7317 52.4249C21.4199 50.7448 21.737 48.9359 21.6613 47.1218C21.446 41.5637 18.2422 42.3021 16.6066 42.4866C15.4077 42.6372 13.9814 42.8163 12.3563 43.2514C11.1978 43.4872 10.0231 43.6347 8.84226 43.6929C8.21453 43.7917 7.57167 43.7124 6.98677 43.464L4.4233 26.4005C4.23894 24.9328 3.60275 19.8685 3.27444 15.4164C2.98621 13.1219 2.94613 10.9642 2.96598 9.61792C2.96636 9.31393 2.98429 9.01022 3.01969 8.7083C3.28841 8.67454 3.7225 8.62001 4.06092 8.47251C6.38326 7.91934 8.73355 7.49093 11.1017 7.1891C16.9153 6.33282 23.6282 5.61552 24.5998 5.49347C27.411 5.14032 33.4367 4.63534 38.6847 4.29104C41.6847 4.10315 44.4186 3.9697 46.1602 3.96088L47.1525 4.00421C47.1965 4.24346 47.2268 4.485 47.2434 4.72769C48.0156 8.20019 49.2171 16.5951 49.4847 18.8921C49.7854 20.4501 50.8389 27.6668 51.3306 33.0852L51.3099 33.0878Z" fill="#F9C228"/>
<path d="M41.3389 13.2173C39.8764 13.2751 35.7885 13.4946 31.0315 13.9032L26.6493 14.4537L22.2671 15.0042C17.9857 15.689 14.1799 16.4821 12.0147 16.964C11.8503 16.9847 11.7008 17.0698 11.5991 17.2007C11.4974 17.3317 11.4519 17.4976 11.4725 17.6621C11.4932 17.8265 11.5783 17.9761 11.7092 18.0777C11.8401 18.1794 12.0061 18.2249 12.1705 18.2043C14.2376 17.9446 18.1549 17.7045 22.4287 17.2936L26.7902 16.7457L31.1725 16.1952C35.8648 15.6058 39.8851 14.8488 41.3372 14.7083C41.5264 14.6904 41.7011 14.5992 41.8241 14.4543C41.9471 14.3095 42.0087 14.1223 41.9957 13.9327C41.9932 13.7536 41.9249 13.5817 41.8037 13.4498C41.6826 13.3178 41.5172 13.2351 41.3389 13.2173Z" fill="#F9C228"/>
<path d="M41.7442 20.9562L31.7809 22.2078L27.5227 22.7427C26.0964 22.9219 24.6494 23.1037 23.2853 23.443C18.482 24.3194 14.516 25.1745 13.4851 25.325C13.3206 25.3457 13.1711 25.4308 13.0694 25.5618C12.9677 25.6927 12.9222 25.8586 12.9428 26.0231C12.9635 26.1875 13.0487 26.3371 13.1796 26.4387C13.3105 26.5404 13.4764 26.586 13.6409 26.5653C14.6951 26.4329 18.7881 26.2546 23.6923 25.6806L27.9505 25.1457C29.3975 24.9639 30.8108 24.6814 32.206 24.4221C36.1049 23.7014 39.7221 22.911 42.0526 22.4083C42.239 22.3849 42.4085 22.2884 42.5237 22.14C42.639 21.9916 42.6906 21.8036 42.6671 21.6172C42.6437 21.4308 42.5472 21.2613 42.3989 21.1461C42.2505 21.0308 42.0624 20.9792 41.8761 21.0027L41.7442 20.9562Z" fill="#F9C228"/>
<path d="M28.8893 30.613C28.0211 30.7221 25.9694 30.7698 23.631 31.0426L21.4192 31.3204C20.6751 31.4139 19.9103 31.51 19.2282 31.7637C17.0683 32.287 15.1693 32.8824 14.1875 33.0898C14.0231 33.1104 13.8735 33.1956 13.7718 33.3265C13.6702 33.4574 13.6246 33.6233 13.6453 33.7878C13.666 33.9523 13.7511 34.1018 13.882 34.2035C14.0129 34.3052 14.1789 34.3507 14.3433 34.33C16.3622 34.3116 18.3785 34.1775 20.382 33.9284C21.5603 33.7804 22.7798 33.6272 23.8882 33.257C26.2161 32.7336 28.2003 32.1484 29.0814 31.9747C29.2678 31.9513 29.4372 31.8548 29.5525 31.7064C29.6677 31.5581 29.7193 31.37 29.6959 31.1836C29.6818 31.0925 29.6495 31.0052 29.601 30.9268C29.5525 30.8484 29.4887 30.7806 29.4135 30.7274C29.3383 30.6742 29.2531 30.6366 29.163 30.617C29.073 30.5973 28.9799 30.596 28.8893 30.613Z" fill="#F9C228"/>
</g>
<defs>
<clipPath id="clip0_473_1585">
<rect width="50" height="50" fill="white" transform="translate(0 6.23203) rotate(-7.16)"/>
</clipPath>
</defs>
</svg>
