<svg width="52" height="52" viewBox="0 0 52 52" fill="none" xmlns="http://www.w3.org/2000/svg">
<g clip-path="url(#clip0_409_169)">
<path fill-rule="evenodd" clip-rule="evenodd" d="M28.3864 34.2012C27.9042 33.3974 27.3729 32.6241 26.7955 31.8858C25.3987 30.1741 23.8288 28.6113 22.1108 27.2223C22.0597 27.1728 21.9993 27.1341 21.933 27.1085C21.8666 27.0828 21.7959 27.0707 21.7248 27.0729C21.6537 27.0751 21.5838 27.0915 21.5192 27.1211C21.4546 27.1508 21.3966 27.1931 21.3486 27.2456C21.2533 27.351 21.2024 27.4893 21.2068 27.6314C21.2111 27.7735 21.2703 27.9084 21.3719 28.0078C22.7532 29.5601 24.0086 31.22 25.1261 32.9718C25.6168 33.7329 26.1002 34.4581 26.573 35.2229C27.0457 35.9876 27.4932 36.7201 27.948 37.4885C28.9803 39.2623 29.966 41.083 30.9449 43.0547C30.9755 43.1285 31.0204 43.1955 31.077 43.2519C31.1336 43.3083 31.2008 43.3528 31.2747 43.3831C31.3487 43.4134 31.4279 43.4287 31.5078 43.4281C31.5877 43.4276 31.6667 43.4113 31.7402 43.3801C31.8903 43.3179 32.0101 43.1996 32.0742 43.0503C32.1384 42.9011 32.1417 42.7327 32.0836 42.5811C31.4021 40.5345 30.6028 38.5291 29.6897 36.5749C29.2964 35.7618 28.8614 34.9695 28.3864 34.2012Z" fill="#F9C228"/>
<path fill-rule="evenodd" clip-rule="evenodd" d="M31.9713 24.9275C30.8357 24.2617 29.6447 23.6954 28.4115 23.235C27.884 23.0442 27.3458 22.8845 26.7997 22.7568C26.2574 22.6162 25.7056 22.5153 25.1487 22.455C23.8592 22.3335 22.5636 22.2897 21.2688 22.3235C21.1983 22.3146 21.1267 22.32 21.0583 22.3392C20.9898 22.3585 20.9259 22.3913 20.8704 22.4356C20.8148 22.48 20.7688 22.5351 20.7349 22.5976C20.701 22.6601 20.68 22.7287 20.6731 22.7995C20.6636 22.869 20.6679 22.9396 20.6858 23.0074C20.7037 23.0752 20.7348 23.1388 20.7774 23.1945C20.8199 23.2502 20.8731 23.2969 20.9338 23.332C20.9945 23.3671 21.0615 23.3898 21.1311 23.3989C22.5628 23.7264 23.9049 24.1656 25.2862 24.4286C25.9589 24.6104 26.6604 24.749 27.2576 24.9274C27.8549 25.1059 28.6209 25.194 29.3116 25.3722C29.9871 25.5363 30.6526 25.7388 31.3049 25.9789C31.3796 26.029 31.4642 26.0624 31.5529 26.0768C31.6417 26.0911 31.7325 26.0861 31.8191 26.062C31.9058 26.038 31.9862 25.9955 32.0548 25.9374C32.1235 25.8794 32.1788 25.8072 32.2169 25.7257C32.255 25.6443 32.2751 25.5556 32.2757 25.4657C32.2763 25.3758 32.2575 25.2868 32.2205 25.2048C32.1835 25.1229 32.1292 25.0499 32.0613 24.991C31.9934 24.932 31.9136 24.8884 31.8273 24.8631L31.9713 24.9275Z" fill="#F9C228"/>
<path fill-rule="evenodd" clip-rule="evenodd" d="M20.4651 18.2588C21.6641 17.4364 22.8599 16.7829 24.0196 16.0432L25.6674 14.9428C26.2311 14.5856 26.7695 14.196 27.3225 13.8784C27.9102 13.5432 28.5183 13.2452 29.1434 12.9862C29.2789 12.923 29.3872 12.8133 29.4486 12.677C29.51 12.5406 29.5203 12.3868 29.4777 12.2435C29.4351 12.1001 29.3424 11.9769 29.2165 11.8963C29.0906 11.8156 28.9399 11.7829 28.7919 11.8041C27.5457 12.0569 26.3328 12.453 25.1776 12.9844C24.6775 13.217 24.194 13.4836 23.7304 13.7823C23.2591 14.0721 22.8125 14.4002 22.3951 14.7633C21.4681 15.6096 20.588 16.5058 19.7585 17.4479C19.6886 17.4876 19.6282 17.5422 19.5816 17.6077C19.535 17.6733 19.5034 17.7483 19.489 17.8275C19.4745 17.9066 19.4776 17.988 19.498 18.0658C19.5185 18.1436 19.5557 18.216 19.6071 18.2778C19.6586 18.3397 19.7229 18.3895 19.7957 18.4238C19.8685 18.458 19.9479 18.4759 20.0283 18.4762C20.1088 18.4764 20.1883 18.459 20.2613 18.4252C20.3343 18.3914 20.3989 18.342 20.4507 18.2805L20.4651 18.2588Z" fill="#F9C228"/>
<path fill-rule="evenodd" clip-rule="evenodd" d="M17.4018 8.9464C17.2417 8.91625 17.0762 8.94996 16.9407 9.04031C16.8051 9.13066 16.7104 9.27048 16.6766 9.42984C16.3688 10.374 16.12 11.3364 15.9317 12.3115C15.8643 12.7339 15.8256 13.1605 15.816 13.5882C15.7889 14.0162 15.8007 14.4458 15.8512 14.8717C15.9833 15.8477 16.1789 16.8141 16.4367 17.7647C16.4277 17.8467 16.4373 17.9297 16.4648 18.0076C16.4922 18.0854 16.5369 18.156 16.5954 18.2143C16.6539 18.2725 16.7247 18.3168 16.8027 18.3439C16.8806 18.3711 16.9637 18.3803 17.0457 18.3709C17.1157 18.3645 17.1837 18.3443 17.2459 18.3114C17.308 18.2786 17.363 18.2337 17.4077 18.1794C17.4524 18.1252 17.4858 18.0626 17.5062 17.9953C17.5265 17.928 17.5333 17.8573 17.5261 17.7874C17.5991 16.669 17.8017 15.6367 17.864 14.5579C17.9057 13.9322 17.8899 13.2994 17.8957 12.681C17.9079 11.7245 17.8555 10.8186 17.9107 9.79737C17.9505 9.70857 17.9683 9.61148 17.9626 9.51434C17.9569 9.41719 17.9278 9.32286 17.8779 9.23934C17.8279 9.15583 17.7586 9.08559 17.6757 9.03459C17.5928 8.98359 17.4989 8.95334 17.4018 8.9464Z" fill="#F9C228"/>
<path fill-rule="evenodd" clip-rule="evenodd" d="M6.314 18.6721C7.63269 18.8878 8.9391 19.1729 10.2278 19.5261C10.6452 19.6474 11.0552 19.7327 11.4653 19.8181C11.8754 19.9035 12.2998 19.9672 12.7351 20.0849C13.1704 20.2025 13.7677 20.381 14.3147 20.5883C14.3759 20.6238 14.4435 20.6469 14.5137 20.6562C14.5838 20.6656 14.6551 20.6611 14.7235 20.6429C14.792 20.6247 14.8561 20.5932 14.9123 20.5503C14.9686 20.5073 15.0158 20.4537 15.0513 20.3924C15.0868 20.3312 15.1099 20.2636 15.1193 20.1934C15.1287 20.1233 15.1241 20.052 15.106 19.9836C15.0878 19.9152 15.0563 19.851 15.0133 19.7948C14.9703 19.7385 14.9167 19.6913 14.8555 19.6558C14.0289 18.9804 13.1218 18.41 12.155 17.9577C11.7298 17.789 11.2903 17.6588 10.8418 17.5688C10.3983 17.4668 9.94723 17.4017 9.49305 17.3741C8.46208 17.3286 7.42926 17.3502 6.40109 17.4386C6.24977 17.4473 6.10679 17.5108 5.9989 17.6172C5.89102 17.7237 5.82562 17.8658 5.81495 18.017C5.80427 18.1682 5.84905 18.3181 5.94091 18.4387C6.03276 18.5592 6.1654 18.6422 6.314 18.6721Z" fill="#F9C228"/>
<path fill-rule="evenodd" clip-rule="evenodd" d="M14.7141 23.8556C14.7808 23.8335 14.8426 23.7985 14.8958 23.7525C14.949 23.7065 14.9927 23.6505 15.0242 23.5877C15.0558 23.5249 15.0747 23.4564 15.0798 23.3863C15.0849 23.3161 15.0762 23.2457 15.0541 23.1789C15.032 23.1122 14.9969 23.0504 14.951 22.9972C14.905 22.944 14.849 22.9003 14.7862 22.8688C14.7233 22.8372 14.6549 22.8183 14.5847 22.8132C14.5146 22.808 14.4441 22.8168 14.3774 22.8389C12.9733 23.0938 11.6002 23.4971 10.2813 24.0419C9.68979 24.2854 9.12434 24.5878 8.59344 24.9446C8.06526 25.2825 7.56693 25.6649 7.10391 26.0877C6.06534 27.0709 5.15899 28.1849 4.40764 29.4017C4.33514 29.4598 4.27701 29.5339 4.23776 29.6182C4.19852 29.7024 4.17921 29.7946 4.18134 29.8875C4.18347 29.9804 4.20698 30.0716 4.25005 30.154C4.29312 30.2363 4.35458 30.3077 4.42968 30.3624C4.50477 30.4172 4.59147 30.4539 4.68306 30.4698C4.77464 30.4856 4.86865 30.4801 4.95777 30.4538C5.0469 30.4274 5.12876 30.3809 5.19699 30.3178C5.26522 30.2547 5.318 30.1767 5.35122 30.0899C6.39067 28.992 7.55678 28.0214 8.82507 27.1984C9.54662 26.697 10.2934 26.2279 11.0798 25.7695C12.2475 25.0518 13.4616 24.4125 14.7141 23.8556Z" fill="#F9C228"/>
<path fill-rule="evenodd" clip-rule="evenodd" d="M16.5997 26.0555C15.6004 27.0269 14.7282 28.121 14.0039 29.3117C13.6945 29.8343 13.4299 30.3821 13.2131 30.9494C13.0003 31.5099 12.8227 32.0831 12.6812 32.6657C12.377 34.0325 12.233 35.4301 12.252 36.8302C12.2376 36.9894 12.2868 37.1478 12.3888 37.2708C12.4908 37.3939 12.6374 37.4716 12.7964 37.4869C12.9603 37.5002 13.1228 37.4481 13.2485 37.3421C13.3742 37.2361 13.4529 37.0847 13.4675 36.9209C13.678 35.8383 13.9688 34.7728 14.3376 33.7334C14.6662 32.769 15.0775 31.8441 15.4673 30.9048C16.0081 29.4689 16.6726 28.0827 17.4534 26.7619C17.5313 26.6444 17.5593 26.5008 17.5314 26.3626C17.5034 26.2245 17.4217 26.1031 17.3043 26.0251C17.2034 25.9432 17.0761 25.9011 16.9462 25.9066C16.8164 25.9122 16.6931 25.9652 16.5997 26.0555Z" fill="#F9C228"/>
<path fill-rule="evenodd" clip-rule="evenodd" d="M35.9751 21.0497C35.2333 22.6047 34.6794 24.2427 34.3251 25.9289C34.1901 26.6483 34.0767 27.382 33.9993 28.1085C33.9332 28.8292 33.9048 29.553 33.9143 30.2767C33.9218 31.9774 34.1269 33.638 34.2961 35.3059C34.2715 35.3876 34.267 35.4739 34.2828 35.5577C34.2986 35.6415 34.3344 35.7203 34.3871 35.7873C34.4397 35.8544 34.5077 35.9078 34.5854 35.9431C34.663 35.9783 34.748 35.9944 34.8332 35.9899C34.9183 35.9854 35.0012 35.9605 35.0747 35.9173C35.1482 35.8741 35.2102 35.8139 35.2555 35.7416C35.3009 35.6694 35.3282 35.5873 35.3351 35.5023C35.3421 35.4174 35.3285 35.3319 35.2955 35.2533C35.4709 33.3473 35.718 31.3333 35.9688 29.3372C36.0845 28.0606 36.1607 26.7732 36.3197 25.5252C36.4831 24.155 36.7529 22.7996 37.1267 21.4713C37.1558 21.3966 37.1699 21.317 37.1682 21.2368C37.1665 21.1567 37.1491 21.0777 37.1168 21.0043C37.0846 20.931 37.0383 20.8646 36.9804 20.8092C36.9226 20.7537 36.8544 20.7102 36.7797 20.6811C36.705 20.652 36.6254 20.6379 36.5452 20.6396C36.4651 20.6412 36.3861 20.6587 36.3127 20.6909C36.2394 20.7231 36.173 20.7695 36.1176 20.8273C36.0621 20.8852 36.0186 20.9534 35.9895 21.028L35.9751 21.0497Z" fill="#F9C228"/>
<path fill-rule="evenodd" clip-rule="evenodd" d="M43.0682 22.4575C42.9682 22.235 42.8498 22.0212 42.7144 21.8183C42.5696 21.6156 42.4118 21.4226 42.242 21.2405C41.7947 20.8497 41.3056 20.5096 40.7836 20.2263C40.7364 20.1741 40.6794 20.1318 40.6159 20.1018C40.5523 20.0718 40.4834 20.0547 40.4132 20.0516C40.3429 20.0484 40.2728 20.0591 40.2067 20.0833C40.1407 20.1074 40.0801 20.1443 40.0284 20.192C39.9267 20.2932 39.867 20.4292 39.8613 20.5726C39.8556 20.716 39.9044 20.8562 39.9978 20.9651C40.2866 21.4678 40.4207 21.9457 40.6699 22.4377C40.7716 22.6361 40.8912 22.8248 41.0272 23.0014C41.157 23.1809 41.3048 23.3567 41.4526 23.5326C41.8347 23.9416 42.2238 24.2931 42.6418 24.6948C42.7289 24.831 42.8665 24.927 43.0243 24.9617C43.1822 24.9964 43.3474 24.9669 43.4835 24.8799C43.6197 24.7928 43.7157 24.6552 43.7504 24.4973C43.7851 24.3394 43.7557 24.1743 43.6686 24.0381C43.4697 23.5172 43.3103 23.007 43.0682 22.4575Z" fill="#F9C228"/>
<path fill-rule="evenodd" clip-rule="evenodd" d="M45.7564 15.4041C45.187 15.2404 44.5973 15.1582 44.0049 15.16C43.7474 15.1751 43.4933 15.2265 43.2502 15.3128C43.0011 15.375 42.7627 15.4736 42.5425 15.6056C42.0428 15.9161 41.5907 16.2974 41.2004 16.7376C41.1379 16.7715 41.0828 16.8175 41.0384 16.8731C40.994 16.9286 40.9612 16.9925 40.9419 17.0609C40.9226 17.1293 40.9172 17.2009 40.9261 17.2715C40.935 17.342 40.9579 17.41 40.9935 17.4716C41.0295 17.5344 41.0775 17.5894 41.1347 17.6337C41.192 17.6779 41.2575 17.7103 41.3273 17.7292C41.3972 17.7481 41.47 17.753 41.5418 17.7437C41.6135 17.7343 41.6827 17.7109 41.7454 17.6748C42.2964 17.5341 42.8542 17.4212 43.4166 17.3366L44.2968 17.065C44.761 16.8831 45.2362 16.7308 45.7196 16.6087C45.8832 16.609 46.0404 16.5449 46.1572 16.4302C46.274 16.3156 46.341 16.1597 46.3438 15.9961C46.3405 15.8409 46.2777 15.6929 46.1684 15.5827C46.0591 15.4726 45.9116 15.4086 45.7564 15.4041Z" fill="#F9C228"/>
<path fill-rule="evenodd" clip-rule="evenodd" d="M40.4397 14.4599C41.035 13.797 41.6488 13.3174 42.2084 12.7552C42.768 12.1931 42.8181 12.0707 43.1265 11.7464C43.5982 11.1887 44.1207 10.676 44.6871 10.2148C44.7565 10.1775 44.8177 10.1265 44.867 10.065C44.9163 10.0035 44.9526 9.93264 44.974 9.85674C44.9953 9.78085 45.0011 9.70144 44.991 9.62326C44.9809 9.54508 44.9552 9.46973 44.9154 9.40171C44.8776 9.31569 44.8204 9.23964 44.7482 9.17958C44.676 9.11952 44.5908 9.0771 44.4993 9.05568C44.4079 9.03426 44.3127 9.03442 44.2213 9.05616C44.1299 9.0779 44.0449 9.12062 43.9729 9.18093C43.2149 9.44537 42.4961 9.81104 41.836 10.268C41.5505 10.4636 41.2891 10.6923 41.0573 10.9493C40.8182 11.1959 40.6033 11.4649 40.4156 11.7526C40.0506 12.4165 39.7338 13.1057 39.4675 13.8149C39.3891 13.9357 39.3612 14.0824 39.3897 14.2235C39.4183 14.3646 39.501 14.4889 39.6202 14.5696C39.6778 14.6241 39.7468 14.665 39.8222 14.6894C39.8976 14.7137 39.9776 14.7209 40.0561 14.7104C40.1347 14.6999 40.2099 14.6719 40.2763 14.6286C40.3426 14.5852 40.3985 14.5276 40.4397 14.4599Z" fill="#F9C228"/>
<path fill-rule="evenodd" clip-rule="evenodd" d="M35.8463 13.2946C35.694 13.1117 35.5225 12.9457 35.3346 12.7996C35.153 12.6664 34.9602 12.5489 34.7586 12.4485C34.2761 12.2289 33.7767 12.0485 33.2652 11.909C33.1996 11.8616 33.1249 11.8284 33.0458 11.8113C32.9667 11.7942 32.8849 11.7937 32.8056 11.8097C32.7262 11.8258 32.6511 11.858 32.5849 11.9045C32.5186 11.951 32.4627 12.0107 32.4207 12.0799C32.3349 12.2156 32.3049 12.3791 32.3367 12.5364C32.3685 12.6938 32.4598 12.8327 32.5916 12.9244C32.9627 13.2795 33.2404 13.6349 33.5935 13.9936C33.9467 14.3524 33.853 14.2591 34.0115 14.3954C34.1636 14.517 34.3236 14.6283 34.4905 14.7286C34.8974 14.983 35.3183 15.1223 35.7684 15.4053C35.8621 15.5128 35.9947 15.5787 36.137 15.5885C36.2793 15.5983 36.4196 15.5512 36.5272 15.4575C36.6347 15.3638 36.7006 15.2312 36.7104 15.0889C36.7202 14.9466 36.6731 14.8063 36.5794 14.6987C36.3889 14.2045 36.143 13.7334 35.8463 13.2946Z" fill="#F9C228"/>
<path fill-rule="evenodd" clip-rule="evenodd" d="M29.6013 18.2058C29.6125 18.2861 29.6398 18.3633 29.6814 18.4329C29.7231 18.5025 29.7783 18.563 29.8439 18.6108C29.9094 18.6587 29.9838 18.6928 30.0628 18.7113C30.1418 18.7297 30.2237 18.7321 30.3036 18.7183C30.746 18.7784 31.1238 18.889 31.5445 18.9348L32.0552 18.9624C32.2259 18.9458 32.3945 18.9116 32.5583 18.8606C32.97 18.7586 33.3755 18.6328 33.7727 18.4839C33.8438 18.4889 33.9152 18.479 33.9823 18.4548C34.0494 18.4307 34.1107 18.3928 34.1624 18.3436C34.214 18.2945 34.2548 18.2351 34.2823 18.1692C34.3097 18.1034 34.3231 18.0326 34.3216 17.9613C34.3273 17.8213 34.2775 17.6847 34.183 17.5812C34.0885 17.4778 33.957 17.4158 33.817 17.4088C33.3961 17.2128 32.9575 17.0573 32.5072 16.9443C32.3204 16.9062 32.1291 16.8946 31.939 16.9097C31.7442 16.9304 31.5516 16.9694 31.364 17.026C30.9276 17.1697 30.4994 17.3375 30.0816 17.5287C29.9343 17.5664 29.8052 17.6551 29.7172 17.7791C29.6293 17.9031 29.5882 18.0543 29.6013 18.2058Z" fill="#F9C228"/>
</g>
<defs>
<clipPath id="clip0_409_169">
<rect width="44" height="44" fill="white" transform="translate(0 8.72705) rotate(-11.44)"/>
</clipPath>
</defs>
</svg>
