<svg width="24" height="24" viewBox="0 0 24 24" fill="none" xmlns="http://www.w3.org/2000/svg">
<g clip-path="url(#clip0_409_1136)">
<path fill-rule="evenodd" clip-rule="evenodd" d="M12.2795 17.33C12.1674 17.2376 12.0335 17.1755 11.8906 17.1496C11.7477 17.1236 11.6005 17.1348 11.4631 17.1819C11.3257 17.2291 11.2027 17.3106 11.1058 17.4188C11.0088 17.527 10.9413 17.6582 10.9095 17.8C10.4695 18.8 12.1295 19.43 12.5495 18.63C12.8695 18 12.8295 17.6 12.2795 17.33Z" fill="#F9C228"/>
<path fill-rule="evenodd" clip-rule="evenodd" d="M21.2691 4.62999C17.6391 -9.29832e-06 12.2291 0.329991 9.34913 1.06999C7.84543 1.45096 6.43398 2.13118 5.19913 3.06999C4.29102 3.74764 3.45945 4.52221 2.71913 5.37999C1.96775 6.26266 1.35415 7.25387 0.899125 8.31999C-0.0481269 10.3974 -0.267277 12.7336 0.277086 14.9509C0.821448 17.1683 2.09752 19.1374 3.89913 20.54C5.66417 21.951 7.76654 22.8776 9.99888 23.2283C12.2312 23.579 14.5164 23.3418 16.6291 22.54C18.6432 21.7171 20.3957 20.3621 21.6991 18.62C23.053 16.8992 23.8485 14.8056 23.9791 12.62C23.9727 9.73215 23.0209 6.92584 21.2691 4.62999ZM20.8091 17.91C19.6141 19.4576 18.0255 20.656 16.2091 21.38C14.2962 22.0955 12.231 22.3058 10.2131 21.9905C8.19519 21.6752 6.29263 20.845 4.68913 19.58C3.06243 18.3467 1.8965 16.6034 1.37798 14.629C0.859453 12.6546 1.01831 10.5634 1.82913 8.68999C2.22245 7.71712 2.762 6.81001 3.42913 5.99999C4.10683 5.15858 4.87475 4.39401 5.71913 3.71999C6.85422 2.82755 8.15647 2.17132 9.54913 1.78999C11.2191 1.31999 16.8891 0.269991 20.5491 5.16999C22.1612 7.30572 23.0225 9.91424 22.9991 12.59C22.819 14.5428 22.056 16.3963 20.8091 17.91Z" fill="#F9C228"/>
<path fill-rule="evenodd" clip-rule="evenodd" d="M12.6993 5.34998C12.1433 5.19425 11.5574 5.17849 10.9938 5.30412C10.4302 5.42975 9.9065 5.69285 9.46928 6.06998C9.03336 6.48513 8.72465 7.01582 8.57928 7.59998C8.38505 8.40736 8.40228 9.25119 8.62928 10.05C8.64784 10.1335 8.69884 10.2063 8.77104 10.2522C8.84324 10.2982 8.93074 10.3135 9.01428 10.295C9.09782 10.2764 9.17057 10.2254 9.21651 10.1532C9.26246 10.081 9.27784 9.99352 9.25928 9.90998C9.1445 9.33229 9.1445 8.73766 9.25928 8.15998C9.36273 7.6293 9.65382 7.15361 10.0793 6.81998C10.4048 6.58958 10.7812 6.4411 11.1763 6.38714C11.5715 6.33317 11.9739 6.37531 12.3493 6.50998C12.7335 6.60966 13.09 6.79568 13.3915 7.05388C13.693 7.31208 13.9317 7.63565 14.0893 7.99998C14.2204 8.26223 14.2811 8.55409 14.2653 8.84689C14.2496 9.13969 14.1579 9.42334 13.9993 9.66998C13.3793 10.58 12.2393 11.3 11.6193 12.28C11.3135 12.7493 11.1567 13.3 11.1693 13.86C11.1629 14.38 11.258 14.8963 11.4493 15.38C11.4792 15.4723 11.5441 15.5492 11.6302 15.5941C11.7162 15.639 11.8164 15.6483 11.9093 15.62C12.0042 15.59 12.0836 15.524 12.1303 15.4361C12.1771 15.3482 12.1875 15.2455 12.1593 15.15C12.0327 14.7426 11.9786 14.3161 11.9993 13.89C12.0294 13.4997 12.1679 13.1257 12.3993 12.81C12.9228 12.2153 13.5059 11.6759 14.1393 11.2C14.645 10.8053 15.0523 10.2987 15.3293 9.71998C15.4729 9.37452 15.5468 9.00409 15.5468 8.62998C15.5468 8.25586 15.4729 7.88544 15.3293 7.53998C15.0968 6.99199 14.7369 6.5074 14.2795 6.1265C13.822 5.74559 13.2803 5.47938 12.6993 5.34998Z" fill="#F9C228"/>
</g>
<defs>
<clipPath id="clip0_409_1136">
<rect width="24" height="24" fill="white"/>
</clipPath>
</defs>
</svg>
