<svg width="65" height="65" viewBox="0 0 65 65" fill="none" xmlns="http://www.w3.org/2000/svg">
<g clip-path="url(#clip0_133_304)">
<path fill-rule="evenodd" clip-rule="evenodd" d="M40.2238 23.4371C38.7681 22.0017 36.9764 20.9531 35.012 20.3868C33.0476 19.8205 30.9728 19.7544 28.9763 20.1945C26.9447 20.5738 24.9959 21.3083 23.2194 22.3645C14.7863 27.7179 14.5673 44.5497 27.939 45.0011C34.2361 45.2703 40.3371 44.2231 42.9987 38.5409C44.0404 36.0236 44.3327 33.2589 43.8404 30.5795C43.3481 27.9 42.0923 25.4197 40.2238 23.4371ZM41.2709 37.6279C38.8273 42.3074 33.4622 42.8316 28.2483 42.6004C27.2877 42.586 26.3329 42.4492 25.4069 42.1932C17.5638 39.9454 18.1443 28.0206 24.1979 23.85C25.4499 22.9888 32.1734 18.8931 38.4771 24.1645C39.5919 25.0418 40.4728 26.1807 41.0417 27.4802C41.8125 29.0541 42.2322 30.7767 42.2718 32.5288C42.3114 34.2809 41.9698 36.0207 41.2709 37.6279Z" fill="#F9C228"/>
<path fill-rule="evenodd" clip-rule="evenodd" d="M31.2501 27.9647C30.3824 26.5145 29.8463 24.8904 29.68 23.2087C29.7093 22.1974 27.7907 22.4218 27.8382 23.5813C27.8034 25.1551 28.1646 26.7123 28.8886 28.1101C29.6126 29.5079 30.6761 30.7014 31.9816 31.581C34.57 33.5571 37.8288 34.442 41.0612 34.0464C41.1721 34.0331 41.2793 33.9982 41.3767 33.9435C41.4742 33.8888 41.5599 33.8155 41.629 33.7277C41.698 33.6399 41.7491 33.5394 41.7794 33.4318C41.8096 33.3243 41.8184 33.2118 41.8051 33.1009C41.7919 32.99 41.7569 32.8827 41.7023 32.7853C41.6476 32.6879 41.5743 32.6022 41.4865 32.5331C41.3987 32.464 41.2981 32.4129 41.1906 32.3827C41.0831 32.3525 40.9706 32.3437 40.8597 32.3569C39.0202 32.4715 37.1809 32.1306 35.5047 31.3644C33.8285 30.5983 32.3672 29.4306 31.2501 27.9647Z" fill="#F9C228"/>
<path fill-rule="evenodd" clip-rule="evenodd" d="M27.4736 17.0382C27.6651 16.9934 27.8316 16.8757 27.9378 16.7102C28.0439 16.5447 28.0815 16.3443 28.0424 16.1515C28.0355 15.1567 27.9673 14.1632 27.8381 13.1767C27.4617 11.646 26.8196 10.1932 25.941 8.88435C25.8253 8.7759 25.6766 8.70928 25.5187 8.6951C25.3608 8.68092 25.2026 8.71998 25.0694 8.80608C24.9363 8.89218 24.8357 9.02036 24.7838 9.1702C24.732 9.32005 24.7317 9.48295 24.7831 9.63296C24.8699 10.2934 25.8114 17.3744 27.4736 17.0382Z" fill="#F9C228"/>
<path fill-rule="evenodd" clip-rule="evenodd" d="M12.9688 36.7598C11.9487 36.8025 11.0091 36.6653 10.0339 36.6989C9.0587 36.7325 5.42497 37.7248 5.57038 38.4435C5.65903 39.922 10.6597 39.2143 13.2642 38.2198C13.4297 38.1549 13.5671 38.0337 13.6521 37.8775C13.7372 37.7213 13.7645 37.5402 13.7292 37.3659C13.6939 37.1916 13.5984 37.0353 13.4593 36.9244C13.3203 36.8136 13.1466 36.7553 12.9688 36.7598Z" fill="#F9C228"/>
<path fill-rule="evenodd" clip-rule="evenodd" d="M54.7009 27.7331C53.7939 28.1036 52.9815 28.5953 52.0475 28.9479C51.8819 29.0129 51.7446 29.1341 51.6595 29.2903C51.5745 29.4464 51.5472 29.6276 51.5824 29.8019C51.6177 29.9762 51.7133 30.1325 51.8523 30.2433C51.9914 30.3541 52.165 30.4124 52.3428 30.4079C53.3419 30.3832 54.3378 30.2833 55.3219 30.1092C56.5573 29.8593 59.6234 28.257 59.478 27.5383C59.3326 26.8195 55.397 27.4754 54.7009 27.7331Z" fill="#F9C228"/>
<path fill-rule="evenodd" clip-rule="evenodd" d="M36.5692 49.1705C36.5192 48.9234 36.1192 48.9108 35.6747 49.141C34.8936 49.5562 34.8459 54.4057 36.8857 56.1675C36.9458 56.2444 37.0205 56.3087 37.1054 56.3567C37.1903 56.4048 37.2839 56.4356 37.3807 56.4475C37.4776 56.4594 37.5758 56.4521 37.6698 56.426C37.7639 56.3999 37.8518 56.3556 37.9287 56.2955C38.0056 56.2355 38.0699 56.1608 38.118 56.0759C38.166 55.991 38.1969 55.8974 38.2087 55.8006C38.2206 55.7037 38.2133 55.6055 38.1873 55.5114C38.1612 55.4174 38.1168 55.3294 38.0568 55.2526C37.8901 53.1586 37.3879 51.105 36.5692 49.1705Z" fill="#F9C228"/>
<path fill-rule="evenodd" clip-rule="evenodd" d="M23.1833 48.4181C22.4709 49.4039 19.0488 52.598 18.9181 54.4949C18.8876 54.9219 18.9242 55.2184 19.1044 55.4158C19.2545 55.5328 19.4404 55.5943 19.6307 55.5899C21.9304 54.0636 23.6198 51.7768 24.4029 49.13C24.4432 48.9752 24.4318 48.8115 24.3704 48.6638C24.309 48.5161 24.201 48.3925 24.0629 48.3118C23.9248 48.2312 23.7641 48.1979 23.6053 48.2171C23.4465 48.2363 23.2983 48.3069 23.1833 48.4181Z" fill="#F9C228"/>
<path fill-rule="evenodd" clip-rule="evenodd" d="M47.244 43.6909C47.0871 43.5997 46.9026 43.5679 46.7241 43.6015C46.5457 43.635 46.3854 43.7316 46.2723 43.8736C46.1592 44.0156 46.1009 44.1935 46.1082 44.3749C46.1154 44.5563 46.1877 44.729 46.3118 44.8615C46.9903 45.6383 47.7513 46.3389 48.5815 46.9509C50.0364 47.8404 51.6208 48.498 53.2779 48.9001C53.4524 48.8275 53.5922 48.6903 53.6681 48.5172C54.8196 46.9281 47.6445 43.9373 47.244 43.6909Z" fill="#F9C228"/>
<path fill-rule="evenodd" clip-rule="evenodd" d="M16.4868 26.0647C16.6486 26.1746 16.8474 26.2157 17.0394 26.1791C17.2315 26.1424 17.4012 26.0309 17.5111 25.8692C17.621 25.7074 17.6621 25.5086 17.6255 25.3165C17.5888 25.1244 17.4773 24.9548 17.3156 24.8449C15.3783 22.9444 12.9219 21.6597 10.2558 21.1526C9.35202 20.9614 9.02067 21.5194 9.1383 21.8697C9.29733 22.6559 12.2046 24.4292 13.3471 24.8761C14.4897 25.323 15.4566 25.5951 16.4868 26.0647Z" fill="#F9C228"/>
<path fill-rule="evenodd" clip-rule="evenodd" d="M49.6787 13.762C49.6105 13.425 49.1466 12.9811 48.3749 13.5581C46.1224 15.0621 44.3735 17.2079 43.3548 19.7174C43.2485 19.8816 43.2117 20.0812 43.2526 20.2724C43.2935 20.4637 43.4087 20.6308 43.5728 20.7372C43.7369 20.8435 43.9366 20.8802 44.1278 20.8394C44.3191 20.7985 44.4862 20.6833 44.5925 20.5192C44.9511 20.0959 50.0059 15.3792 49.6787 13.762Z" fill="#F9C228"/>
</g>
<defs>
<clipPath id="clip0_133_304">
<rect width="55" height="55" fill="white" transform="translate(0 10.9054) rotate(-11.4364)"/>
</clipPath>
</defs>
</svg>
