<svg width="142" height="142" viewBox="0 0 142 142" fill="none" xmlns="http://www.w3.org/2000/svg">
<path d="M133.783 31.2992C135.559 29.5468 136.925 27.4234 137.785 25.081C138.644 22.7386 138.974 20.2352 138.753 17.75C137.214 1.9525 112.423 5.91666 97.2768 33.3108C97.0361 33.7116 96.9632 34.1912 97.074 34.6454C97.1848 35.0996 97.4703 35.4917 97.8685 35.7367C98.0832 35.8942 98.3296 36.0031 98.5907 36.0558C98.8517 36.1084 99.1211 36.1037 99.3801 36.0417C99.6391 35.9798 99.8815 35.8622 100.09 35.6971C100.299 35.532 100.47 35.3235 100.59 35.0858C105.323 27.5717 115.5 16.5075 124.257 14.7917C126.615 13.9508 129.211 14.0784 131.475 15.1467C134.078 17.0992 132.658 22.5425 130.765 25.2642L126.328 29.5833C125.913 30.2933 122.541 32.7192 124.553 35.5C126.564 38.2808 130.469 35.5 134.078 39.6417C140.528 46.8008 123.606 50.8242 124.079 55.6167C124.079 57.7467 126.623 58.1017 129.108 58.6342C139.285 60.5275 125.44 77.2717 109.583 79.2242C109.066 79.2977 108.595 79.5642 108.266 79.9702C107.937 80.3763 107.773 80.8918 107.808 81.4133C108.282 85.6733 119.997 80.8217 123.488 78.9875C127.818 76.9056 131.667 73.9434 134.788 70.29C135.822 69.2242 136.628 67.9593 137.157 66.5723C137.686 65.1853 137.927 63.7052 137.866 62.222C137.805 60.7387 137.444 59.2834 136.803 57.9444C136.162 56.6055 135.255 55.4109 134.138 54.4333C146.148 46.3867 143.013 34.9083 133.783 31.2992Z" fill="#F9C228"/>
<path d="M32.4272 77.39C28.2606 76.6856 24.2533 75.2429 20.5938 73.13C16.5705 70.8816 10.713 66.385 9.70716 61.77C8.05049 53.7233 16.8663 59.6992 17.7538 53.7825C17.7892 53.1256 17.6554 52.4706 17.3654 51.8801C17.0753 51.2897 16.6387 50.7835 16.0972 50.41C15.0322 49.6408 12.1922 47.9841 12.0147 47.8658C10.4594 46.903 9.06239 45.7055 7.87299 44.3158C7.18741 43.6113 6.7153 42.727 6.51126 41.7654C6.30723 40.8037 6.37961 39.8039 6.72003 38.8817C7.06045 37.9595 7.65501 37.1524 8.43492 36.554C9.21484 35.9555 10.1482 35.5901 11.1272 35.5C12.4288 35.5 15.683 35.5 17.7538 33.6066C21.4813 28.9325 10.4172 27.2758 9.64799 17.75C9.47959 16.9648 9.51634 16.1494 9.75469 15.3825C9.99305 14.6156 10.425 13.9231 11.0088 13.3716C11.8592 12.7811 12.8728 12.4708 13.908 12.4841C19.4886 12.7612 24.7912 15.0038 28.8772 18.815C33.8858 23.0113 38.234 27.9379 41.7755 33.4291C41.8912 33.6243 42.0444 33.7946 42.2263 33.9301C42.4083 34.0657 42.6153 34.1638 42.8354 34.2188C43.0555 34.2739 43.2843 34.2847 43.5086 34.2507C43.7329 34.2167 43.9482 34.1386 44.1422 34.0208C44.3443 33.9044 44.5215 33.7492 44.6636 33.5642C44.8057 33.3793 44.9099 33.1681 44.9704 32.9428C45.0308 32.7175 45.0463 32.4825 45.0158 32.2512C44.9854 32.02 44.9097 31.797 44.793 31.595C41.3405 25.5507 36.9917 20.0648 31.8947 15.3241C28.3535 11.9096 24.0855 9.34074 19.4105 7.80998C17.2411 7.16489 14.9879 6.84584 12.7247 6.86331C10.8675 6.96279 9.07041 7.55503 7.51799 8.57915C6.2904 9.45507 5.27548 10.5958 4.54833 11.917C3.82118 13.2381 3.40041 14.7059 3.31716 16.2116C3.10979 18.6689 3.44776 21.1417 4.30691 23.4532C5.16606 25.7648 6.52519 27.858 8.28716 29.5833C6.23823 30.3795 4.41158 31.6582 2.96216 33.3108C1.16753 35.2532 0.119376 37.7688 0.00382611 40.4108C-0.0604895 42.8889 0.687546 45.32 2.13383 47.3333C3.75286 49.4653 5.76033 51.272 8.05049 52.6583C6.65954 53.6252 5.58837 54.9847 4.97383 56.5633C4.36129 58.2692 4.21825 60.1083 4.55966 61.8883C4.95444 64.2985 5.97449 66.563 7.51799 68.4558C10.6022 71.9638 14.3401 74.8376 18.523 76.9166C22.7427 79.087 27.3071 80.5083 32.013 81.1175C32.5377 81.1674 33.061 81.0094 33.4704 80.6774C33.8797 80.3455 34.1425 79.8661 34.2022 79.3425C34.2042 78.854 34.023 78.3825 33.6944 78.021C33.3658 77.6595 32.9136 77.4344 32.4272 77.39Z" fill="#F9C228"/>
<path d="M49.6451 102.772C49.1841 102.756 48.7347 102.92 48.3923 103.229C48.05 103.538 47.8414 103.969 47.811 104.429C47.101 107.742 46.2135 110.937 45.6218 114.251C45.3377 115.657 45.1401 117.08 45.0301 118.511C45.0301 119.931 45.0301 121.351 44.7343 122.771V132.829C44.679 133.341 44.8217 133.854 45.1331 134.263C45.4445 134.673 45.9008 134.947 46.4084 135.03C46.916 135.114 47.4362 135 47.8621 134.711C48.2881 134.423 48.5873 133.982 48.6985 133.48C49.586 130.107 50.5326 126.912 51.2426 123.54C51.5385 122.12 51.7751 120.7 51.9526 119.221C52.0403 117.782 52.0403 116.34 51.9526 114.902C51.9526 111.411 51.5385 108.097 51.2426 104.607C51.2587 104.381 51.2301 104.155 51.1585 103.94C51.0868 103.726 50.9735 103.528 50.825 103.358C50.6766 103.187 50.496 103.048 50.2935 102.947C50.091 102.847 49.8707 102.788 49.6451 102.772Z" fill="#F9C228"/>
<path d="M71.6503 101.175C71.6895 100.704 71.5401 100.237 71.235 99.8766C70.9298 99.5159 70.4939 99.2913 70.0232 99.2521C69.5524 99.2128 69.0854 99.3622 68.7247 99.6674C68.3641 99.9725 68.1395 100.408 68.1003 100.879C67.2264 104.667 66.7309 108.531 66.6211 112.417C66.661 114.632 66.819 116.844 67.0944 119.043C67.5094 122.221 67.6874 125.425 67.6269 128.628C67.5214 129.146 67.6235 129.684 67.9113 130.127C68.1991 130.57 68.6495 130.881 69.1653 130.995C69.6894 131.083 70.2274 130.967 70.6679 130.669C71.1085 130.372 71.4178 129.917 71.5319 129.397C72.7534 125.569 73.4112 121.582 73.4844 117.564C73.5433 115.29 73.4246 113.015 73.1294 110.76C72.7153 107.624 71.8278 104.488 71.6503 101.175Z" fill="#F9C228"/>
<path d="M94.1316 113.659C93.4808 110.878 92.5341 108.334 91.7649 105.612C91.7057 105.151 91.468 104.732 91.1029 104.444C90.7378 104.157 90.2745 104.024 89.8124 104.074C89.5867 104.096 89.3675 104.163 89.1677 104.27C88.9678 104.378 88.7913 104.524 88.6482 104.7C88.5051 104.876 88.3984 105.079 88.3342 105.296C88.27 105.514 88.2496 105.742 88.2741 105.967C87.969 108.778 87.811 111.602 87.8008 114.428C87.8777 116.801 88.1949 119.16 88.7474 121.469C89.3391 124.191 90.1083 126.794 90.7591 129.516C90.8044 130.039 91.0526 130.524 91.4506 130.867C91.8486 131.209 92.3649 131.383 92.8891 131.35C93.1537 131.328 93.4112 131.253 93.6468 131.131C93.8825 131.009 94.0916 130.841 94.2621 130.637C94.4326 130.434 94.5611 130.199 94.6403 129.945C94.7194 129.692 94.7476 129.425 94.7233 129.161C94.871 126.342 94.871 123.518 94.7233 120.7C94.8122 119.518 94.8122 118.332 94.7233 117.15C94.6174 115.973 94.4196 114.806 94.1316 113.659Z" fill="#F9C228"/>
<path d="M99.4622 44.6708C98.0474 43.9506 96.4928 43.5469 94.9064 43.4875C86.2762 42.9578 77.6216 42.9578 68.9914 43.4875C59.9154 43.6847 50.8964 44.976 42.1297 47.3333C40.3547 48.1616 37.8105 49.7591 37.8105 57.7466C37.8367 67.6302 38.3897 77.5053 39.4672 87.33C39.5957 88.309 40.0515 89.2159 40.7603 89.9033C41.4692 90.5907 42.3897 91.0183 43.3722 91.1166C50.1172 91.1166 73.3697 90.4658 87.3922 89.7558C92.0072 89.7558 95.6755 89.3416 97.3914 89.1641C98.1947 89.0947 98.9777 88.8739 99.6989 88.5133C100.846 87.3541 101.539 85.8213 101.651 84.1941C102.618 77.0167 103.093 69.7814 103.071 62.5391C103.15 58.0946 102.774 53.6536 101.947 49.2858C101.613 47.5285 100.745 45.917 99.4622 44.6708ZM93.5456 50.055C94.1551 49.9876 94.7702 49.9876 95.3797 50.055C91.8297 51.9483 84.1972 55.9716 77.3339 59.1666L70.0564 62.48C67.3347 63.6633 66.8022 64.1958 63.7256 62.48C60.6489 60.7641 57.8089 58.9891 54.7914 56.5633C51.7739 54.1375 49.1114 53.25 46.863 51.2975C50.5496 50.7363 54.2621 50.3611 57.9864 50.1733C69.7287 49.4538 81.5028 49.4143 93.2497 50.055H93.5456ZM95.7347 82.8333C95.7347 83.3066 95.0839 83.3658 94.6106 83.425C88.6939 83.8391 76.5056 85.0225 65.0272 85.7916C50.5905 86.7383 45.088 86.975 43.4314 87.0341C43.3536 87.0423 43.275 87.035 43.2001 87.0126C43.1252 86.9902 43.0554 86.9531 42.9949 86.9036C42.9344 86.8541 42.8843 86.7931 42.8475 86.7241C42.8107 86.6551 42.7879 86.5795 42.7805 86.5016C42.2988 81.7251 42.1013 76.9241 42.1889 72.1241C42.1889 65.3791 42.1889 57.9833 42.7805 53.8416C46.8545 57.936 51.1822 61.7697 55.738 65.32C58.5778 67.7806 61.9043 69.6152 65.5005 70.7041C69.5591 70.1924 73.4566 68.799 76.9197 66.6216C83.4575 62.7627 89.7964 58.5762 95.9122 54.0783C95.9122 55.4983 96.2081 57.0958 96.3264 58.8708C96.6731 66.8625 96.4755 74.8685 95.7347 82.8333Z" fill="#F9C228"/>
</svg>
