<svg width="40" height="41" viewBox="0 0 40 41" fill="none" xmlns="http://www.w3.org/2000/svg">
<path d="M33.4375 23.4063V11.75C33.4379 11.6399 33.4093 11.5316 33.3544 11.4361C33.2995 11.3406 33.2204 11.2614 33.125 11.2063L17.9688 2.45629C17.8737 2.40144 17.766 2.37256 17.6563 2.37256C17.5465 2.37256 17.4388 2.40144 17.3438 2.45629L2.1875 11.2063C2.09213 11.2614 2.01299 11.3406 1.95812 11.4361C1.90324 11.5316 1.87457 11.6399 1.875 11.75V29.25C1.87457 29.3602 1.90324 29.4685 1.95812 29.5639C2.01299 29.6594 2.09213 29.7387 2.1875 29.7938L17.3438 38.5438C17.4388 38.5986 17.5465 38.6275 17.6563 38.6275C17.766 38.6275 17.8737 38.5986 17.9688 38.5438L23.6625 35.2563C24.3722 36.2506 25.3012 37.0683 26.3775 37.6461C27.4539 38.2239 28.6487 38.5463 29.8696 38.5883C31.0905 38.6303 32.3047 38.3908 33.4182 37.8884C34.5317 37.386 35.5147 36.6341 36.2911 35.691C37.0675 34.7478 37.6165 33.6386 37.8955 32.4493C38.1745 31.26 38.1762 30.0224 37.9003 28.8323C37.6244 27.6423 37.0784 26.5316 36.3046 25.5864C35.5307 24.6412 34.5497 23.8867 33.4375 23.3813V23.4063ZM17.6563 3.71879L31.5625 11.75L24.5875 15.775L11.675 7.17504L17.6563 3.71879ZM17.6563 19.7813L3.75 11.75L10.4688 7.86879L23.375 16.475L17.6563 19.7813ZM3.125 12.8313L17.0313 20.8625V36.9188L3.125 28.8875V12.8313ZM18.2813 36.9188V20.8625L23.9063 17.5938V22.4625C23.9063 22.6283 23.9721 22.7873 24.0893 22.9045C24.2065 23.0217 24.3655 23.0875 24.5313 23.0875C24.697 23.0875 24.856 23.0217 24.9732 22.9045C25.0904 22.7873 25.1563 22.6283 25.1563 22.4625V16.875L32.1563 12.8313V22.9625C31.4943 22.7816 30.8113 22.6892 30.125 22.6875C28.7725 22.691 27.4432 23.0392 26.2626 23.6992C25.0821 24.3593 24.0893 25.3094 23.378 26.4598C22.6668 27.6102 22.2605 28.9229 22.1977 30.274C22.1348 31.625 22.4174 32.9698 23.0188 34.1813L18.2813 36.9188ZM30.1563 37.375C28.8274 37.375 27.5284 36.981 26.4235 36.2427C25.3186 35.5045 24.4575 34.4551 23.9489 33.2274C23.4404 31.9998 23.3074 30.6488 23.5666 29.3455C23.8258 28.0422 24.4657 26.8451 25.4054 25.9054C26.345 24.9658 27.5422 24.3259 28.8455 24.0666C30.1488 23.8074 31.4997 23.9404 32.7274 24.449C33.9551 24.9575 35.0044 25.8187 35.7427 26.9236C36.481 28.0284 36.875 29.3274 36.875 30.6563C36.8733 32.4377 36.1649 34.1457 34.9053 35.4053C33.6456 36.665 31.9377 37.3734 30.1563 37.375Z" fill="white"/>
<path d="M33.1248 27.4126L29.2498 32.5251L27.2186 30.1376C27.1116 30.0092 26.9581 29.9284 26.7916 29.9132C26.6252 29.898 26.4595 29.9495 26.3311 30.0564C26.2026 30.1633 26.1219 30.3169 26.1066 30.4833C26.0914 30.6498 26.1429 30.8154 26.2498 30.9439L28.7498 33.9314C28.8085 34 28.8813 34.0551 28.9633 34.0928C29.0453 34.1306 29.1345 34.1501 29.2248 34.1501C29.3187 34.1473 29.4106 34.1233 29.494 34.0801C29.5773 34.0368 29.6498 33.9753 29.7061 33.9001L34.0498 28.1689C34.1312 28.1147 34.1988 28.0422 34.2471 27.9571C34.2954 27.8721 34.323 27.7769 34.3278 27.6792C34.3326 27.5816 34.3144 27.4841 34.2747 27.3948C34.235 27.3054 34.1749 27.2266 34.0992 27.1647C34.0235 27.1028 33.9343 27.0595 33.8388 27.0384C33.7433 27.0172 33.6442 27.0187 33.5494 27.0429C33.4547 27.067 33.3669 27.113 33.2931 27.1772C33.2194 27.2414 33.1617 27.3221 33.1248 27.4126Z" fill="white"/>
</svg>
