<svg width="40" height="41" viewBox="0 0 40 41" fill="none" xmlns="http://www.w3.org/2000/svg">
<path d="M38.6205 21.3035L35.833 20.2785V7.9668C35.8323 7.30396 35.5687 6.66846 35.1 6.19976C34.6313 5.73106 33.9958 5.46746 33.333 5.4668H3.33301C2.67017 5.46746 2.03467 5.73106 1.56597 6.19976C1.09727 6.66846 0.83367 7.30396 0.833008 7.9668V27.9668C0.83367 28.6296 1.09727 29.2651 1.56597 29.7338C2.03467 30.2025 2.67017 30.4661 3.33301 30.4668H24.363C25.3405 34.5418 29.8747 36.531 31.3822 37.0835C31.4739 37.1165 31.5706 37.1334 31.668 37.1335C31.7649 37.1335 31.8611 37.1166 31.9522 37.0835C33.6447 36.4693 39.1663 34.0626 39.1663 28.8718V22.0851C39.1662 21.9147 39.1139 21.7483 39.0162 21.6085C38.9186 21.4688 38.7805 21.3623 38.6205 21.3035ZM2.49967 7.9668C2.4999 7.74585 2.58776 7.53402 2.744 7.37779C2.90023 7.22155 3.11206 7.13368 3.33301 7.13346H33.333C33.554 7.13368 33.7658 7.22155 33.922 7.37779C34.0783 7.53402 34.1661 7.74585 34.1663 7.9668V9.63346H2.49967V7.9668ZM2.49967 11.3001H34.1663V15.4668H2.49967V11.3001ZM24.1663 22.0851V28.8001H3.33301C3.11206 28.7999 2.90023 28.712 2.744 28.5558C2.58776 28.3996 2.4999 28.1877 2.49967 27.9668V17.1335H34.1663V19.6651L31.9538 18.8518C31.7682 18.7836 31.5644 18.7836 31.3788 18.8518L24.7122 21.3035C24.5522 21.3623 24.414 21.4688 24.3164 21.6085C24.2188 21.7483 24.1664 21.9147 24.1663 22.0851ZM37.4997 28.8718C37.4997 32.7376 33.3538 34.7518 31.6697 35.4093C29.983 34.746 25.833 32.7168 25.833 28.8718V22.6668L31.6663 20.5218L37.4997 22.6668V28.8718ZM31.5763 27.5318L33.4997 24.9668C33.5653 24.8792 33.6476 24.8055 33.7418 24.7497C33.8359 24.694 33.9402 24.6573 34.0485 24.6418C34.1568 24.6264 34.2671 24.6324 34.3732 24.6595C34.4792 24.6867 34.5788 24.7345 34.6663 24.8001C34.7539 24.8658 34.8276 24.9481 34.8834 25.0422C34.9392 25.1364 34.9758 25.2406 34.9913 25.3489C35.0068 25.4573 35.0008 25.5676 34.9736 25.6736C34.9464 25.7796 34.8987 25.8793 34.833 25.9668L32.333 29.3001C32.2615 29.3958 32.1702 29.4749 32.0654 29.5322C31.9606 29.5894 31.8446 29.6234 31.7255 29.6318C31.7058 29.633 31.6861 29.6335 31.6663 29.6335C31.5569 29.6335 31.4485 29.6119 31.3474 29.57C31.2464 29.5281 31.1545 29.4667 31.0772 29.3893L29.4105 27.7226C29.2587 27.5655 29.1747 27.355 29.1766 27.1365C29.1785 26.918 29.2662 26.709 29.4207 26.5544C29.5752 26.3999 29.7842 26.3123 30.0027 26.3104C30.2212 26.3085 30.4317 26.3925 30.5888 26.5443L31.5763 27.5318Z" fill="white"/>
</svg>
