<svg width="134" height="50" fill="none" xmlns="http://www.w3.org/2000/svg"><path d="M74.528 39.536c-.192.16-.552.376-1.08.648-.512.272-1.144.512-1.896.72-.752.208-1.584.304-2.496.288-1.392-.032-2.64-.28-3.744-.744a8.463 8.463 0 01-2.784-1.944 8.594 8.594 0 01-1.728-2.808 9.473 9.473 0 01-.6-3.384c0-1.792.36-3.376 1.08-4.752.72-1.376 1.72-2.456 3-3.24 1.296-.784 2.8-1.176 4.512-1.176 1.184 0 2.232.16 3.144.48.912.32 1.656.664 2.232 1.032L72.8 27.944c-.4-.304-.936-.616-1.608-.936-.656-.336-1.416-.504-2.28-.504a4.63 4.63 0 00-2.52.744c-.768.496-1.392 1.168-1.872 2.016-.464.832-.696 1.784-.696 2.856 0 1.136.216 2.136.648 3a4.83 4.83 0 001.848 1.992c.8.48 1.736.72 2.808.72.944 0 1.752-.152 2.424-.456.672-.304 1.184-.624 1.536-.96l1.44 3.12zm2.118-3.912c0-1.072.248-2.032.744-2.88a5.348 5.348 0 012.136-1.992c.912-.496 1.96-.744 3.144-.744 1.2 0 2.24.248 3.12.744a4.935 4.935 0 012.016 1.992c.48.848.72 1.808.72 2.88 0 1.072-.24 2.04-.72 2.904-.464.848-1.136 1.52-2.016 2.016-.88.496-1.936.744-3.168.744-1.152 0-2.184-.224-3.096-.672a5.058 5.058 0 01-2.112-1.944c-.512-.848-.768-1.864-.768-3.048zm3.384.024c0 .832.24 1.528.72 2.088.48.544 1.088.816 1.824.816.784 0 1.408-.272 1.872-.816.464-.56.696-1.256.696-2.088 0-.832-.232-1.52-.696-2.064-.464-.56-1.088-.84-1.872-.84-.736 0-1.344.28-1.824.84-.48.544-.72 1.232-.72 2.064zM92.181 41v-7.56h-1.776v-2.976h1.776v-3.648c0-1.376.392-2.496 1.176-3.36.8-.88 1.952-1.32 3.456-1.32.448 0 .944.072 1.488.216.56.128 1.048.344 1.464.648l-1.416 2.424a1.103 1.103 0 00-.576-.408 1.669 1.669 0 00-.6-.12c-.48 0-.872.16-1.176.48-.304.32-.456.832-.456 1.536v3.552h3.168v2.976h-3.168V41h-3.36zm7.752 0v-7.56h-1.776v-2.976h1.776v-3.648c0-1.376.392-2.496 1.176-3.36.8-.88 1.952-1.32 3.456-1.32.448 0 .944.072 1.488.216.56.128 1.048.344 1.464.648l-1.416 2.424a1.103 1.103 0 00-.576-.408 1.669 1.669 0 00-.6-.12c-.48 0-.872.16-1.176.48-.304.32-.456.832-.456 1.536v3.552h3.168v2.976h-3.168V41h-3.36zm14.353.288c-1.28 0-2.368-.24-3.264-.72a4.935 4.935 0 01-2.016-1.992c-.464-.848-.696-1.824-.696-2.928 0-1.056.272-2.008.816-2.856a5.889 5.889 0 012.184-2.016c.912-.512 1.928-.768 3.048-.768 1.504 0 2.736.44 3.696 1.32.976.864 1.608 2.12 1.896 3.768l-7.68 2.448c.512.592 1.208.888 2.088.888.368 0 .72-.064 1.056-.192a5.586 5.586 0 001.032-.504l1.488 2.496c-.56.32-1.168.576-1.824.768a6.351 6.351 0 01-1.824.288zm-2.664-5.832v.216l4.608-1.56a2.516 2.516 0 00-.696-1.032c-.32-.304-.8-.456-1.44-.456-.752 0-1.352.256-1.8.768-.448.512-.672 1.2-.672 2.064zm15.93 5.832c-1.28 0-2.368-.24-3.264-.72a4.935 4.935 0 01-2.016-1.992c-.464-.848-.696-1.824-.696-2.928 0-1.056.272-2.008.816-2.856a5.889 5.889 0 012.184-2.016c.912-.512 1.928-.768 3.048-.768 1.504 0 2.736.44 3.696 1.32.976.864 1.608 2.12 1.896 3.768l-7.68 2.448c.512.592 1.208.888 2.088.888.368 0 .72-.064 1.056-.192a5.586 5.586 0 001.032-.504l1.488 2.496c-.56.32-1.168.576-1.824.768a6.351 6.351 0 01-1.824.288zm-2.664-5.832v.216l4.608-1.56a2.516 2.516 0 00-.696-1.032c-.32-.304-.8-.456-1.44-.456-.752 0-1.352.256-1.8.768-.448.512-.672 1.2-.672 2.064z" fill="#FF4B32"/><g clip-path="url(#clip0_1_617)" fill="#FF4B32"><path d="M46.85 41.85h-7.073a.732.732 0 100 1.466h6.34v.413l-10.664 2.025H14.075L3.41 43.73v-.413h33.648a.732.732 0 100-1.465h-4.725a14.175 14.175 0 005.018-5.495 7.7 7.7 0 002.924.569c4.29 0 7.78-3.49 7.78-7.78s-3.49-7.78-7.78-7.78a7.82 7.82 0 00-1.378.124v-.42c0-.937-.762-1.7-1.7-1.7h-3.464a.732.732 0 100 1.465h3.464c.13 0 .236.106.236.236v1.245h-25.34V21.07c0-.13.106-.236.236-.236h18.684a.732.732 0 100-1.465H12.329c-.938 0-1.7.763-1.7 1.7v8.846c0 1.105.129 2.2.38 3.264-1.191-.355-2.612-.076-3.908.81a.732.732 0 10.827 1.21c.85-.581 1.741-.81 2.478-.662l-2.668 3.991a.732.732 0 001.218.815l2.669-3.993c.277.41.428.948.435 1.575v.005c.01.967-.328 2.014-.951 2.947a5.759 5.759 0 01-1.252 1.357c-.33.259-.677.465-1.032.617H6.511a1.699 1.699 0 01-.079-.05c-1.22-.814-1.296-2.92-.176-4.795A.733.733 0 005 36.254c-.714 1.195-1.063 2.526-.982 3.749.045.693.227 1.319.526 1.848H2.678a.732.732 0 00-.733.732v1.752c0 .352.25.654.596.72l10.77 2.045v2.168c0 .404.329.732.733.732h21.438a.732.732 0 00.733-.732V47.1l10.771-2.045a.733.733 0 00.596-.72v-1.752a.732.732 0 00-.732-.732zm-7.953-11.935V26.45a3.009 3.009 0 011.378-.334 3.032 3.032 0 013.029 3.029 3.032 3.032 0 01-3.029 3.028 3.005 3.005 0 01-1.499-.399c.08-.611.121-1.232.121-1.859zm-.4 3.357a4.498 4.498 0 006.27-4.127 4.498 4.498 0 00-5.87-4.277v-1.886a6.322 6.322 0 017.693 6.163 6.322 6.322 0 01-6.315 6.315c-.807 0-1.585-.15-2.322-.443.22-.568.4-1.15.545-1.745zM12.095 23.78h25.339v6.135a12.59 12.59 0 01-3.71 8.96 12.75 12.75 0 01-4.701 2.976h-8.516a12.428 12.428 0 01-.703-.274c.537-.845.742-1.785.565-2.68v-.004l-.001-.004c-.234-1.166-1.057-2.125-2.32-2.7-1.182-.54-2.628-.68-4.07-.393a7.472 7.472 0 00-.39.088 12.658 12.658 0 01-1.493-5.969V23.78zm.233 16.91c.678-1.014 1.087-2.152 1.178-3.254.246-.083.499-.152.758-.204 1.863-.37 3.66.191 4.377 1.258l-4.708.935a.732.732 0 10.286 1.437l4.71-.936c-.094.482-.362.965-.793 1.408a4.424 4.424 0 01-.607.516h-6.157c.35-.346.67-.733.956-1.16zm22.423 7.845H14.776V47.22H34.75v1.316zM26.67 14.644l-.032.02.032-.02zm-.032.02c-.02.012-.017.01 0 0z"/><path d="M28.255 7.995a4.99 4.99 0 001.555-3.631A4.997 4.997 0 0027.46.113a.732.732 0 10-.78 1.24 3.54 3.54 0 011.665 3.01 3.54 3.54 0 01-1.666 3.012.74.74 0 000 1.24 3.54 3.54 0 011.666 3.011 3.54 3.54 0 01-1.675 3.018l.01-.007a.732.732 0 00.78 1.24 4.997 4.997 0 002.35-4.25 4.99 4.99 0 00-1.555-3.632zm-1.194 6.402c.018-.01.02-.012 0 0zm-.095.06l.044-.028-.044.028zm5.648-7.082a.732.732 0 10-.78 1.24 3.54 3.54 0 011.665 3.011 3.54 3.54 0 01-1.665 3.011.732.732 0 00.78 1.24 4.997 4.997 0 002.35-4.25 4.997 4.997 0 00-2.35-4.252zm-10.731 0a.732.732 0 10-.78 1.24 3.54 3.54 0 011.666 3.011 3.54 3.54 0 01-1.666 3.011.732.732 0 00.78 1.24 4.997 4.997 0 002.35-4.25 4.997 4.997 0 00-2.35-4.252z"/></g><defs><clipPath id="clip0_1_617"><path fill="#fff" d="M0 0h50v50H0z"/></clipPath></defs></svg>