<svg width="42" height="42" viewBox="0 0 42 42" fill="none" xmlns="http://www.w3.org/2000/svg">
<path d="M20.16 23.8561V19.8241H16.968C17.808 21.8401 18.816 23.3521 20.16 23.8561ZM13.272 19.6561C14.112 21.0001 15.288 22.0081 16.632 22.8481C16.128 22.0081 15.624 20.8321 15.288 19.6561H13.272ZM16.632 6.55206C14.952 7.39206 13.608 8.90406 12.768 10.5841H14.952C15.456 8.90406 15.96 7.56006 16.632 6.55206ZM16.296 14.6161C16.296 15.7921 16.464 16.9681 16.632 17.9761H20.16V12.0961H16.464C16.296 12.9361 16.296 13.7761 16.296 14.6161ZM14.616 14.6161C14.616 13.7761 14.616 12.9361 14.784 12.0961H12.096C11.928 12.9361 11.76 13.7761 11.76 14.6161C11.76 15.7921 11.928 16.9681 12.432 17.9761H14.952C14.616 16.9681 14.616 15.7921 14.616 14.6161ZM25.368 22.8481C26.712 22.1761 27.888 21.0001 28.728 19.6561H26.712C26.376 21.0001 25.872 22.0081 25.368 22.8481ZM27.384 14.6161C27.384 15.7921 27.216 16.9681 27.048 17.9761H29.568C29.904 16.9681 30.24 15.7921 30.24 14.6161C30.24 13.7761 30.072 12.9361 29.904 12.0961H27.216C27.384 12.9361 27.384 13.7761 27.384 14.6161ZM25.368 6.55206C26.04 7.56006 26.712 8.90406 27.048 10.5841H29.232C28.392 8.73606 27.048 7.39206 25.368 6.55206ZM32.76 0.33606H9.24004C6.88804 0.33606 5.04004 2.18406 5.04004 4.53606V36.4561C5.04004 38.8081 6.88804 40.6561 9.24004 40.6561H32.76C35.112 40.6561 36.96 38.8081 36.96 36.4561V4.53606C36.96 2.35206 35.112 0.33606 32.76 0.33606ZM31.08 35.6161H10.92C10.416 35.6161 10.08 35.2801 10.08 34.7761C10.08 34.2721 10.416 33.9361 10.92 33.9361H31.08C31.584 33.9361 31.92 34.2721 31.92 34.7761C31.92 35.2801 31.584 35.6161 31.08 35.6161ZM31.08 30.5761H10.92C10.416 30.5761 10.08 30.2401 10.08 29.7361C10.08 29.2321 10.416 28.8961 10.92 28.8961H31.08C31.584 28.8961 31.92 29.2321 31.92 29.7361C31.92 30.2401 31.584 30.5761 31.08 30.5761ZM31.08 18.8161C31.08 19.1521 30.912 19.3201 30.744 19.4881C28.896 23.0161 25.2 25.5361 21 25.5361C16.8 25.5361 12.936 23.0161 11.256 19.4881C11.088 19.3201 10.92 19.1521 10.92 18.8161C10.416 17.4721 10.08 16.1281 10.08 14.6161C10.08 8.56806 14.952 3.69606 21 3.69606C27.048 3.69606 31.92 8.56806 31.92 14.6161C31.92 16.1281 31.584 17.6401 31.08 18.8161ZM21.84 23.8561C23.184 23.3521 24.192 21.8401 25.032 19.8241H21.84V23.8561ZM21.84 5.54406V10.4161H25.2C24.528 8.06406 23.352 6.21606 21.84 5.54406ZM16.8 10.4161H20.16V5.54406C18.648 6.21606 17.472 8.06406 16.8 10.4161ZM25.704 14.6161C25.704 13.7761 25.704 12.9361 25.536 12.0961H21.84V17.9761H25.368C25.704 16.9681 25.704 15.7921 25.704 14.6161Z" fill="#3C5CDC"/>
</svg>
