<svg width="42" height="42" viewBox="0 0 42 42" fill="none" xmlns="http://www.w3.org/2000/svg">
<path d="M16.6727 21.3182C16.7364 21.3182 16.7364 21.3818 16.7364 21.3818L23.6091 14.5091L23.5455 14.4455L15.6545 6.55457C15.5909 6.55457 15.5909 6.49094 15.5909 6.49094L8.71818 13.3637L8.78182 13.4273L16.6727 21.3182ZM11.2636 26.7273C11.9636 27.4273 13.1727 27.4273 13.9364 26.7273C14.1909 26.2182 17.6909 24.1182 15.7818 22.2091L7.89091 14.3182C7.12727 13.6182 5.98182 13.6182 5.21818 14.3182L3.37273 16.1637C2.67273 16.8637 2.67273 18.0728 3.37273 18.8364L11.2636 26.7273ZM24.4364 13.5546C25.1364 14.2546 26.3455 14.2546 27.1091 13.5546L28.9545 11.7091C29.7182 10.9455 29.6545 9.80003 28.9545 9.03639L21.0636 1.14548C20.3636 0.445483 19.1545 0.445483 18.3909 1.14548L16.5455 3.05457C15.8455 3.75457 15.8455 4.96367 16.5455 5.7273L24.4364 13.5546ZM39.7091 32.4546L23.0364 16.9273L19.1545 20.8091L34.6818 37.5455C36.0182 39.0091 38.3727 39.1364 39.8364 37.6091C41.3 36.1455 41.2364 33.8546 39.7091 32.4546ZM23.4818 36.1455C23.7364 35.7637 23.8636 35.3182 23.8636 34.8728C23.8636 33.6637 22.9091 32.6455 21.7636 32.6455H5.98182C4.83636 32.6455 3.88182 33.6 3.88182 34.8728C3.88182 35.3818 4.00909 35.8273 4.26364 36.1455C2.41818 36.8455 1.14545 38.6273 1.14545 40.7273C1.14545 41.0455 1.4 41.3637 1.78182 41.3637H26.0273C26.3455 41.3637 26.6636 41.0455 26.6636 40.7273C26.6 38.6273 25.3273 36.8455 23.4818 36.1455Z" fill="#3C5CDC"/>
</svg>
