<svg width="42" height="42" viewBox="0 0 42 42" fill="none" xmlns="http://www.w3.org/2000/svg">
<path fill-rule="evenodd" clip-rule="evenodd" d="M34.6252 22.693V25.7864C34.1035 25.6006 33.5418 25.4991 32.9563 25.4991C32.3709 25.4991 31.8091 25.6006 31.2873 25.7864V22.693H34.6252ZM36.5788 18.7797L21.6563 10.0989V6.66889H27.4564L25.9278 4.43814L27.4564 2.20738H21.6563V1.23047C21.6563 1.05642 21.5871 0.889501 21.4641 0.76643C21.341 0.643359 21.1741 0.574219 21 0.574219C20.826 0.574219 20.659 0.643359 20.536 0.76643C20.4129 0.889501 20.3438 1.05642 20.3438 1.23047V10.0989L5.42129 18.7797H36.5788ZM21 12.1373C22.1659 12.1373 23.1112 13.0824 23.1112 14.2484C23.1112 15.4144 22.166 16.3595 21 16.3595C19.834 16.3595 18.8889 15.4143 18.8889 14.2483C18.8889 13.0823 19.8341 12.1373 21 12.1373ZM14.7752 41.4258H27.225C27.3502 41.4263 27.4739 41.398 27.5864 41.3432C27.699 41.2883 27.7975 41.2083 27.8743 41.1094C27.9511 41.0105 28.0041 40.8952 28.0293 40.7725C28.0545 40.6499 28.0512 40.5231 28.0197 40.4019C27.218 37.2726 24.3793 34.9593 21.0001 34.9593C17.6208 34.9593 14.7821 37.2726 13.9805 40.402C13.8469 40.9235 14.2368 41.4258 14.7752 41.4258ZM32.9563 26.8116C34.9797 26.8116 36.62 28.4519 36.62 30.4753C36.62 32.4986 34.9797 34.1389 32.9563 34.1389C30.9329 34.1389 29.2926 32.4986 29.2926 30.4753C29.2926 28.4519 30.9329 26.8116 32.9563 26.8116ZM9.04379 26.8116C11.0672 26.8116 12.7075 28.4519 12.7075 30.4753C12.7075 32.4986 11.0672 34.1389 9.04379 34.1389C7.02041 34.1389 5.38011 32.4986 5.38011 30.4753C5.38011 28.4519 7.02041 26.8116 9.04379 26.8116ZM21.0001 26.8116C23.0235 26.8116 24.6638 28.4519 24.6638 30.4753C24.6638 32.4986 23.0235 34.1389 21.0001 34.1389C18.9767 34.1389 17.3364 32.4986 17.3364 30.4753C17.3364 28.4519 18.9767 26.8116 21.0001 26.8116ZM29.1919 41.4258C29.3723 40.999 29.4072 40.5247 29.2912 40.0761C29.0129 38.9879 28.5221 37.9655 27.847 37.0678C29.157 35.7648 30.9625 34.9593 32.9563 34.9593C36.3355 34.9593 39.1742 37.2726 39.9759 40.4019C40.1095 40.9234 39.7195 41.4258 39.1812 41.4258H29.1919ZM2.81893 41.4258C2.69369 41.4263 2.57001 41.398 2.45742 41.3432C2.34483 41.2883 2.24635 41.2084 2.16956 41.1094C2.09277 41.0105 2.03973 40.8952 2.01453 40.7726C1.98933 40.6499 1.99264 40.5231 2.02421 40.4019C2.82582 37.2725 5.6646 34.9593 9.04379 34.9593C11.0376 34.9593 12.8432 35.7647 14.1532 37.0678C13.4782 37.9656 12.9874 38.9879 12.709 40.0761C12.593 40.5246 12.6278 40.9989 12.8082 41.4256L2.81893 41.4258ZM37.7069 20.0922V20.6558C37.7069 21.0548 37.3812 21.3805 36.9822 21.3805H5.01786C4.61886 21.3805 4.2932 21.0549 4.2932 20.6558V20.0922H37.7069ZM10.7128 22.693V25.7864C10.1911 25.6006 9.62933 25.4991 9.04387 25.4991C8.45842 25.4991 7.89667 25.6006 7.37487 25.7864V22.693H10.7128ZM22.669 22.693V25.7864C22.1473 25.6006 21.5856 25.4991 21.0001 25.4991C20.4146 25.4991 19.8529 25.6006 19.331 25.7864V22.693H22.669Z" fill="#3C5CDC"/>
</svg>
