<svg width="42" height="42" viewBox="0 0 42 42" fill="none" xmlns="http://www.w3.org/2000/svg">
<path d="M31.5 2.625H10.5C9.45573 2.625 8.45421 3.03984 7.71579 3.77827C6.97736 4.51669 6.56252 5.51821 6.56252 6.5625V35.4375C6.56152 35.6102 6.59463 35.7815 6.65995 35.9414C6.72526 36.1013 6.8215 36.2467 6.94315 36.3694L9.56815 38.9944C9.69016 39.1174 9.83532 39.215 9.99526 39.2817C10.1552 39.3483 10.3268 39.3826 10.5 39.3826C10.6733 39.3826 10.8448 39.3483 11.0048 39.2817C11.1647 39.215 11.3099 39.1174 11.4319 38.9944L13.125 37.2881L14.8181 38.9944C14.9402 39.1174 15.0853 39.215 15.2453 39.2817C15.4052 39.3483 15.5768 39.3826 15.75 39.3826C15.9233 39.3826 16.0948 39.3483 16.2548 39.2817C16.4147 39.215 16.5599 39.1174 16.6819 38.9944L18.375 37.2881L20.0681 38.9944C20.1902 39.1174 20.3353 39.215 20.4953 39.2817C20.6552 39.3483 20.8268 39.3826 21 39.3826C21.1733 39.3826 21.3448 39.3483 21.5048 39.2817C21.6647 39.215 21.8099 39.1174 21.9319 38.9944L23.625 37.2881L25.3181 38.9944C25.4402 39.1174 25.5853 39.215 25.7453 39.2817C25.9052 39.3483 26.0768 39.3826 26.25 39.3826C26.4233 39.3826 26.5948 39.3483 26.7548 39.2817C26.9147 39.215 27.0599 39.1174 27.1819 38.9944L28.875 37.2881L30.5681 38.9944C30.6902 39.1174 30.8353 39.215 30.9953 39.2817C31.1552 39.3483 31.3268 39.3826 31.5 39.3826C31.6733 39.3826 31.8448 39.3483 32.0048 39.2817C32.1647 39.215 32.3099 39.1174 32.4319 38.9944L35.0569 36.3694C35.1785 36.2467 35.2748 36.1013 35.3401 35.9414C35.4054 35.7815 35.4385 35.6102 35.4375 35.4375V6.5625C35.4375 5.51821 35.0227 4.51669 34.2843 3.77827C33.5458 3.03984 32.5443 2.625 31.5 2.625ZM17.0625 7.875C17.3221 7.875 17.5759 7.95198 17.7917 8.0962C18.0075 8.24042 18.1758 8.4454 18.2751 8.68523C18.3745 8.92506 18.4004 9.18896 18.3498 9.44356C18.2992 9.69816 18.1742 9.93202 17.9906 10.1156C17.807 10.2991 17.5732 10.4241 17.3186 10.4748C17.064 10.5254 16.8001 10.4994 16.5602 10.4001C16.3204 10.3008 16.1154 10.1325 15.9712 9.91669C15.827 9.70085 15.75 9.44709 15.75 9.1875C15.75 8.8394 15.8883 8.50556 16.1344 8.25942C16.3806 8.01328 16.7144 7.875 17.0625 7.875ZM16.1306 16.1306L24.0056 8.25562C24.2528 8.00848 24.588 7.86963 24.9375 7.86963C25.287 7.86963 25.6222 8.00848 25.8694 8.25562C26.1165 8.50277 26.2554 8.83798 26.2554 9.1875C26.2554 9.53702 26.1165 9.87223 25.8694 10.1194L17.9944 17.9944C17.8724 18.1174 17.7272 18.215 17.5673 18.2817C17.4073 18.3483 17.2358 18.3826 17.0625 18.3826C16.8893 18.3826 16.7177 18.3483 16.5578 18.2817C16.3978 18.215 16.2527 18.1174 16.1306 17.9944C16.0076 17.8724 15.91 17.7272 15.8434 17.5673C15.7767 17.4073 15.7424 17.2358 15.7424 17.0625C15.7424 16.8892 15.7767 16.7177 15.8434 16.5577C15.91 16.3978 16.0076 16.2526 16.1306 16.1306ZM26.25 17.0625C26.25 17.3221 26.173 17.5758 26.0288 17.7917C25.8846 18.0075 25.6796 18.1758 25.4398 18.2751C25.2 18.3744 24.9361 18.4004 24.6815 18.3498C24.4269 18.2991 24.193 18.1741 24.0094 17.9906C23.8259 17.807 23.7009 17.5732 23.6502 17.3186C23.5996 17.064 23.6256 16.8001 23.7249 16.5602C23.8243 16.3204 23.9925 16.1154 24.2083 15.9712C24.4242 15.827 24.6779 15.75 24.9375 15.75C25.2856 15.75 25.6195 15.8883 25.8656 16.1344C26.1117 16.3806 26.25 16.7144 26.25 17.0625ZM28.875 31.5H13.125C12.7769 31.5 12.4431 31.3617 12.1969 31.1156C11.9508 30.8694 11.8125 30.5356 11.8125 30.1875C11.8125 29.8394 11.9508 29.5056 12.1969 29.2594C12.4431 29.0133 12.7769 28.875 13.125 28.875H28.875C29.2231 28.875 29.557 29.0133 29.8031 29.2594C30.0492 29.5056 30.1875 29.8394 30.1875 30.1875C30.1875 30.5356 30.0492 30.8694 29.8031 31.1156C29.557 31.3617 29.2231 31.5 28.875 31.5ZM28.875 24.9375H13.125C12.7769 24.9375 12.4431 24.7992 12.1969 24.5531C11.9508 24.3069 11.8125 23.9731 11.8125 23.625C11.8125 23.2769 11.9508 22.9431 12.1969 22.6969C12.4431 22.4508 12.7769 22.3125 13.125 22.3125H28.875C29.2231 22.3125 29.557 22.4508 29.8031 22.6969C30.0492 22.9431 30.1875 23.2769 30.1875 23.625C30.1875 23.9731 30.0492 24.3069 29.8031 24.5531C29.557 24.7992 29.2231 24.9375 28.875 24.9375Z" fill="#3C5CDC"/>
</svg>
