<svg width="123" height="48" viewBox="0 0 123 48" fill="none" xmlns="http://www.w3.org/2000/svg">
<path d="M24.2446 9.70615L25.9417 7.99665C29.2745 4.63965 34.7003 4.55656 38.0522 7.89422C39.3223 9.16173 40.1664 10.7982 40.4658 12.5736C40.7652 14.3492 40.5049 16.1745 39.7214 17.7933C39.3456 18.5666 39.2191 19.4388 39.3592 20.2881C39.4995 21.1374 39.8995 21.9214 40.5036 22.5305C41.6143 21.4091 42.4947 20.0783 43.0946 18.614C43.6945 17.1498 44.0022 15.5808 44 13.9967C43.9976 12.4127 43.6857 10.8446 43.0817 9.3821C42.4776 7.91954 41.5934 6.5912 40.4796 5.47297C35.7925 0.778398 28.1844 0.871819 23.5105 5.57958L7.33376 21.8735L6.00388 20.534C2.6146 17.12 2.593 11.5396 6.04207 8.18635C7.31877 6.94895 8.9453 6.14118 10.6972 5.87454C12.4491 5.60791 14.2399 5.89556 15.8226 6.69777C16.5449 7.07064 17.3658 7.20402 18.1679 7.07888C18.9701 6.95374 19.7124 6.57648 20.289 6.00096L20.3302 5.95963C20.3431 5.9468 20.3532 5.93152 20.3602 5.91468C20.3671 5.89787 20.3707 5.87982 20.3707 5.8616C20.3707 5.84337 20.3671 5.82533 20.3602 5.80851C20.3532 5.7917 20.3431 5.77642 20.3302 5.76356C18.1037 3.57721 15.1201 2.34914 12.0107 2.33921C8.90126 2.32928 5.90994 3.53827 3.66973 5.71036C-1.15592 10.4027 -1.13868 18.2057 3.60426 22.9831L19.7762 39.2727L18.0583 41.0031C14.7255 44.3601 9.29954 44.4432 5.9478 41.1055C4.6777 39.8381 3.83366 38.2015 3.53423 36.4261C3.23483 34.6507 3.49504 32.8253 4.27837 31.2064C4.65417 30.4331 4.78083 29.5609 4.64067 28.7117C4.50048 27.8624 4.10044 27.0783 3.49646 26.4692C2.38575 27.5907 1.50528 28.9214 0.905353 30.3856C0.305419 31.85 -0.00221719 33.4188 1.20288e-05 35.003C0.00224126 36.587 0.314292 38.1552 0.918346 39.6176C1.5224 41.0802 2.40661 42.4086 3.52046 43.5268C8.20732 48.2215 15.8156 48.1283 20.4896 43.4204L36.6872 27.1047L38.0221 28.4493C41.3549 31.8063 41.4374 37.2715 38.1238 40.6476C36.8655 41.9272 35.2408 42.7772 33.4782 43.079C31.7156 43.3806 29.9034 43.1183 28.2962 42.3292C27.5282 41.9505 26.6619 41.8228 25.8184 41.9643C24.975 42.1057 24.1964 42.509 23.5916 43.1179C24.705 44.2368 26.0262 45.1237 27.4798 45.728C28.9336 46.3322 30.4911 46.6422 32.0639 46.64C33.6364 46.6376 35.1932 46.3232 36.6451 45.7148C38.0972 45.1063 39.4159 44.2157 40.526 43.0937C45.1869 38.3728 45.0942 30.7092 40.4204 26.0014L24.2446 9.70615ZM22.1911 36.8391L9.74931 24.3069L21.8288 12.1397L34.2706 24.672L22.1911 36.8391Z" fill="#6D7D7D"/>
<path d="M56.552 17.072V22H54.2V10.544H62.248V12.512H56.552V15.104H61.576V17.072H56.552ZM71.121 22H68.929V20.8C68.3317 21.7173 67.4837 22.176 66.385 22.176C65.4143 22.176 64.6783 21.888 64.177 21.312C63.7503 20.8107 63.537 20.1227 63.537 19.248V13.52H65.745V18.784C65.745 19.7973 66.2143 20.304 67.153 20.304C67.6863 20.304 68.113 20.1547 68.433 19.856C68.7637 19.5573 68.929 19.152 68.929 18.64V13.52H71.121V22ZM80.7948 10.544V22H78.5868V21.056C78.0748 21.8027 77.3014 22.176 76.2668 22.176C75.1468 22.176 74.2454 21.7067 73.5628 20.768C72.9761 19.968 72.6828 18.9707 72.6828 17.776C72.6828 16.3573 73.0561 15.2373 73.8028 14.416C74.4534 13.7013 75.2694 13.344 76.2508 13.344C77.2854 13.344 78.0641 13.7387 78.5868 14.528V10.544H80.7948ZM76.7468 15.152C76.1921 15.152 75.7441 15.392 75.4028 15.872C75.0614 16.352 74.8908 16.9813 74.8908 17.76C74.8908 18.528 75.0561 19.152 75.3868 19.632C75.7281 20.1013 76.1814 20.336 76.7468 20.336C77.3121 20.336 77.7601 20.1013 78.0908 19.632C78.4321 19.1627 78.6028 18.5387 78.6028 17.76C78.6028 16.9707 78.4321 16.3413 78.0908 15.872C77.7494 15.392 77.3014 15.152 76.7468 15.152ZM90.115 21.44V22H87.715C87.555 21.7973 87.4697 21.5093 87.459 21.136C86.8723 21.8293 86.019 22.176 84.899 22.176C84.0777 22.176 83.4163 21.9253 82.915 21.424C82.5097 21.0187 82.307 20.4587 82.307 19.744C82.307 18.6773 82.7337 17.92 83.587 17.472C83.9497 17.28 84.6697 17.088 85.747 16.896L87.475 16.576L87.459 15.968C87.4483 15.4027 87.0217 15.12 86.179 15.12C85.635 15.12 85.251 15.2053 85.027 15.376C84.8137 15.536 84.6803 15.8347 84.627 16.272H82.515C82.643 14.32 83.8483 13.344 86.131 13.344C87.3897 13.344 88.2963 13.568 88.851 14.016C89.3523 14.4427 89.603 15.088 89.603 15.952V20.688C89.603 21.072 89.7737 21.3227 90.115 21.44ZM87.475 17.904L85.859 18.272C85.4003 18.3787 85.059 18.5333 84.835 18.736C84.6217 18.9387 84.515 19.1893 84.515 19.488C84.515 20.096 84.9097 20.4 85.699 20.4C86.8403 20.4 87.427 19.776 87.459 18.528L87.475 17.904ZM56.552 35.072V40H54.2V28.544H62.248V30.512H56.552V33.104H61.576V35.072H56.552ZM71.121 40H68.929V38.8C68.3317 39.7173 67.4837 40.176 66.385 40.176C65.4143 40.176 64.6783 39.888 64.177 39.312C63.7503 38.8107 63.537 38.1227 63.537 37.248V31.52H65.745V36.784C65.745 37.7973 66.2143 38.304 67.153 38.304C67.6863 38.304 68.113 38.1547 68.433 37.856C68.7637 37.5573 68.929 37.152 68.929 36.64V31.52H71.121V40ZM73.2108 31.52H75.4188V33.136C75.6961 31.9413 76.4854 31.344 77.7868 31.344C77.9894 31.344 78.1334 31.344 78.2188 31.344L78.2348 33.52C77.9681 33.4667 77.6908 33.44 77.4028 33.44C76.6774 33.44 76.1761 33.5733 75.8988 33.84C75.5788 34.1387 75.4188 34.6773 75.4188 35.456V40H73.2108V31.52ZM79.3201 31.52H81.5281V32.72C82.1255 31.8027 82.9681 31.344 84.0561 31.344C85.0268 31.344 85.7628 31.632 86.2641 32.208C86.6908 32.72 86.9041 33.4133 86.9041 34.288V40H84.7121V34.736C84.7121 33.7227 84.2375 33.216 83.2881 33.216C82.7548 33.216 82.3281 33.3707 82.0081 33.68C81.6881 33.9787 81.5281 34.3787 81.5281 34.88V40H79.3201V31.52ZM91.1695 31.52V40H88.9615V31.52H91.1695ZM90.0495 28.608C90.3375 28.608 90.5775 28.7093 90.7695 28.912C90.9722 29.1147 91.0735 29.36 91.0735 29.648C91.0735 29.936 90.9722 30.1813 90.7695 30.384C90.5775 30.576 90.3375 30.672 90.0495 30.672C89.7615 30.672 89.5162 30.576 89.3135 30.384C89.1108 30.1813 89.0095 29.936 89.0095 29.648C89.0095 29.36 89.1108 29.1147 89.3135 28.912C89.5162 28.7093 89.7615 28.608 90.0495 28.608ZM97.3205 31.52V32.976H95.8325V37.696C95.8325 38.0053 95.8858 38.2187 95.9925 38.336C96.1098 38.4533 96.3178 38.512 96.6165 38.512C96.8618 38.512 97.1765 38.416 97.5605 38.224C97.5925 38.2027 97.6192 38.1867 97.6405 38.176L97.8965 39.68C97.2245 40.0107 96.5205 40.176 95.7845 40.176C94.3445 40.176 93.6245 39.5147 93.6245 38.192V32.976H92.5365V31.52H93.6245V30.112L95.8325 28.848V31.52H97.3205ZM106.824 40H104.632V38.8C104.035 39.7173 103.187 40.176 102.088 40.176C101.117 40.176 100.381 39.888 99.8801 39.312C99.4535 38.8107 99.2401 38.1227 99.2401 37.248V31.52H101.448V36.784C101.448 37.7973 101.917 38.304 102.856 38.304C103.389 38.304 103.816 38.1547 104.136 37.856C104.467 37.5573 104.632 37.152 104.632 36.64V31.52H106.824V40ZM108.914 31.52H111.122V33.136C111.399 31.9413 112.189 31.344 113.49 31.344C113.693 31.344 113.837 31.344 113.922 31.344L113.938 33.52C113.671 33.4667 113.394 33.44 113.106 33.44C112.381 33.44 111.879 33.5733 111.602 33.84C111.282 34.1387 111.122 34.6773 111.122 35.456V40H108.914V31.52ZM122.399 36.336H116.703C116.735 37.0187 116.842 37.504 117.023 37.792C117.333 38.2613 117.818 38.496 118.479 38.496C119.301 38.496 119.85 38.1547 120.127 37.472H122.303C122.058 38.304 121.578 38.9653 120.863 39.456C120.159 39.936 119.333 40.176 118.383 40.176C117.093 40.176 116.101 39.744 115.407 38.88C114.799 38.1227 114.495 37.1253 114.495 35.888C114.495 34.384 114.89 33.2213 115.679 32.4C116.373 31.696 117.285 31.344 118.415 31.344C119.279 31.344 120.037 31.5573 120.687 31.984C121.338 32.4107 121.802 33.008 122.079 33.776C122.303 34.3733 122.415 35.0933 122.415 35.936C122.415 36.0427 122.41 36.176 122.399 36.336ZM120.111 34.88C120.005 33.6427 119.434 33.024 118.399 33.024C117.429 33.024 116.874 33.6427 116.735 34.88H120.111Z" fill="#6D7D7D"/>
</svg>
