<svg width="171" height="48" viewBox="0 0 171 48" fill="none" xmlns="http://www.w3.org/2000/svg">
<path d="M21.8379 34.584C20.9845 34.584 20.2485 34.2427 19.6299 33.56C19.0325 32.8773 18.5099 32.0027 18.0619 30.936C17.6139 29.8693 17.2192 28.7707 16.8779 27.64C16.0885 25.0587 15.7579 23.5227 15.8859 23.032C14.6272 24.7173 13.5392 26.1253 12.6219 27.256C11.7045 28.3653 10.9579 29.1973 10.3819 29.752C7.86454 32.184 5.31521 33.4 2.73388 33.4C1.96588 33.4 1.33654 33.24 0.845875 32.92C0.333875 32.6 0.0778749 32.0667 0.0778749 31.32C0.0778749 30.8507 0.184542 30.3493 0.397875 29.816C0.611208 29.2613 0.877875 28.7387 1.19787 28.248C1.51788 27.7573 1.83788 27.352 2.15788 27.032C2.86188 26.328 3.44854 25.976 3.91788 25.976C4.00321 25.976 4.04588 25.9973 4.04588 26.04C4.04588 26.1467 3.88588 26.328 3.56588 26.584C2.81921 27.1813 2.20054 27.8747 1.70988 28.664C1.21921 29.432 0.973875 30.136 0.973875 30.776C0.973875 31.9707 1.81654 32.536 3.50188 32.472C6.25388 32.3653 10.0725 29.0373 14.9579 22.488C15.2352 22.1253 15.4699 21.8693 15.6619 21.72L15.1499 21.528C14.8725 21.6347 14.6485 21.688 14.4779 21.688C14.0299 21.688 13.8059 21.5067 13.8059 21.144C13.8059 20.6533 14.1365 20.3333 14.7979 20.184C15.2032 20.0773 15.7259 20.2587 16.3659 20.728C17.1979 19.7893 17.9979 18.8933 18.7659 18.04C19.5552 17.1867 20.2699 16.4933 20.9099 15.96C21.5499 15.4053 22.0619 15.128 22.4459 15.128C22.9579 15.128 23.2139 15.3627 23.2139 15.832C23.2139 16.024 23.1605 16.2267 23.0539 16.44C22.9685 16.632 22.8619 16.728 22.7339 16.728C22.6059 16.7493 22.5419 16.6853 22.5419 16.536C22.5419 16.4293 22.6059 16.3013 22.7339 16.152V16.024C22.7339 15.896 22.6912 15.8 22.6059 15.736C22.0512 15.3733 20.3445 17.176 17.4859 21.144C17.7205 21.1653 17.9659 21.1867 18.2219 21.208C18.4992 21.208 18.7872 21.208 19.0859 21.208C24.0352 21.208 27.1285 19.928 28.3659 17.368C28.6219 16.8133 28.7499 16.3013 28.7499 15.832C28.7499 14.8933 28.3125 14.072 27.4379 13.368C26.6485 12.728 25.6032 12.3013 24.3019 12.088C23.0219 11.8533 21.7419 11.736 20.4619 11.736C17.6245 11.736 14.6059 12.5147 11.4059 14.072C7.52321 15.9707 5.58188 18.2 5.58188 20.76C5.58188 21.592 6.12588 22.008 7.21388 22.008C8.21654 22.008 9.34721 21.6027 10.6059 20.792C11.6939 20.0667 12.4405 19.3307 12.8459 18.584C12.9952 18.3067 13.1339 18.168 13.2619 18.168C13.4112 18.168 13.4539 18.2533 13.3899 18.424C12.9845 19.6187 12.0779 20.6427 10.6699 21.496C9.30454 22.328 7.89654 22.744 6.44588 22.744C4.71788 22.744 3.91788 22.1893 4.04588 21.08C4.36588 18.2853 6.08321 15.9067 9.19788 13.944C12.2912 12.0027 16.0245 11.032 20.3979 11.032C22.0619 11.032 23.6725 11.1813 25.2299 11.48C26.8085 11.7787 28.0885 12.3333 29.0699 13.144C30.0939 13.9973 30.6059 15 30.6059 16.152C30.6059 16.6427 30.4885 17.176 30.2539 17.752C29.8912 18.584 29.3365 19.2987 28.5899 19.896C27.8432 20.472 26.9792 20.9413 25.9979 21.304C25.0165 21.6667 23.9819 21.9333 22.8939 22.104C21.8059 22.2747 20.7499 22.36 19.7259 22.36C19.1712 22.36 18.6379 22.3387 18.1259 22.296C17.6352 22.2533 17.1765 22.1893 16.7499 22.104C16.8779 22.5093 17.1019 23.2453 17.4219 24.312C17.7419 25.3787 18.1472 26.7653 18.6379 28.472C18.7872 28.9413 18.9899 29.4533 19.2459 30.008C19.5232 30.5627 19.8325 31.0853 20.1739 31.576C20.5152 32.0667 20.8779 32.472 21.2619 32.792C21.6672 33.112 22.0725 33.272 22.4779 33.272C23.3739 33.272 24.1205 32.3653 24.7179 30.552C24.8245 30.1253 24.9419 29.912 25.0699 29.912C25.1765 29.912 25.2725 30.1147 25.3579 30.52C25.3792 30.584 25.3899 30.6693 25.3899 30.776C25.3899 31.3307 25.0912 32.0133 24.4939 32.824C23.7045 33.9973 22.8192 34.584 21.8379 34.584ZM27.1164 31.416C26.4337 31.416 25.815 31.2027 25.2604 30.776C24.7057 30.328 24.4284 29.7413 24.4284 29.016C24.4284 27.5013 25.3564 25.7733 27.2124 23.832C29.111 21.8693 30.807 20.888 32.3004 20.888C32.791 20.888 33.1857 21.0267 33.4844 21.304C33.8044 21.56 33.9644 21.88 33.9644 22.264C33.9644 23.4587 33.015 24.632 31.1164 25.784C29.431 26.808 28.0124 27.32 26.8604 27.32C26.6897 27.32 26.5404 27.2987 26.4124 27.256C26.0924 27.832 25.9324 28.44 25.9324 29.08C25.9324 30.1893 26.455 30.744 27.5004 30.744C28.567 30.744 29.943 30.0293 31.6284 28.6C32.9297 27.5547 34.039 26.4453 34.9564 25.272C35.1484 25.016 35.319 24.888 35.4684 24.888C35.5964 24.888 35.6604 24.952 35.6604 25.08C35.6604 25.208 35.575 25.3893 35.4044 25.624C34.807 26.4133 34.167 27.1387 33.4844 27.8C32.8017 28.4613 32.0657 29.0693 31.2764 29.624C29.6337 30.8187 28.247 31.416 27.1164 31.416ZM27.3084 26.616C28.119 26.616 29.175 26.2107 30.4764 25.4C30.903 25.1013 31.319 24.7707 31.7244 24.408C32.151 24.024 32.4924 23.64 32.7484 23.256C33.0257 22.872 33.1644 22.5307 33.1644 22.232C33.1644 21.9547 32.9404 21.816 32.4924 21.816C31.8524 21.816 30.9564 22.296 29.8044 23.256C29.2497 23.7253 28.7164 24.2373 28.2044 24.792C27.6924 25.3467 27.255 25.9333 26.8924 26.552C27.0204 26.5947 27.159 26.616 27.3084 26.616ZM34.4391 37.56C33.7565 37.56 33.1591 37.272 32.6471 36.696C32.1351 36.0987 31.8898 35.4373 31.9111 34.712C32.1671 35.032 32.5085 35.4053 32.9351 35.832C33.4898 36.3653 34.0338 36.632 34.5671 36.632C35.7831 36.632 37.0951 35.6613 38.5031 33.72C38.9938 33.0373 39.4951 32.2373 40.0071 31.32C40.5405 30.424 41.0418 29.4213 41.5111 28.312L42.7271 25.368L38.0231 29.048C36.5725 30.1787 35.4098 30.744 34.5351 30.744C34.0658 30.744 33.6925 30.5733 33.4151 30.232C33.1378 29.8907 32.9991 29.5387 32.9991 29.176C32.9991 28.2587 33.7885 26.7547 35.3671 24.664C36.9458 22.552 38.1298 21.496 38.9191 21.496C39.5805 21.496 39.9111 21.7413 39.9111 22.232C39.9111 22.424 38.9618 23.5333 37.0631 25.56C35.1858 27.5653 34.2471 28.92 34.2471 29.624C34.2471 29.9013 34.4285 30.04 34.7911 30.04C35.4738 30.04 36.9565 29.1547 39.2391 27.384C40.1778 26.6373 41.0098 25.9547 41.7351 25.336C42.4605 24.7173 43.0685 24.1627 43.5591 23.672C43.7298 23.4587 43.9005 23.256 44.0711 23.064C44.2418 22.8507 44.4018 22.6373 44.5511 22.424C44.9565 21.9547 45.3618 21.72 45.7671 21.72C46.3431 21.72 46.6311 21.9547 46.6311 22.424C46.6311 22.5093 46.1831 23.2133 45.2871 24.536C44.8178 25.2613 44.4445 25.8267 44.1671 26.232C43.8898 26.616 43.7298 26.8613 43.6871 26.968C43.0258 28.248 42.0125 30.1147 40.6471 32.568C38.5778 35.896 36.5085 37.56 34.4391 37.56ZM49.2269 31.064C48.2242 31.064 47.4775 30.7333 46.9869 30.072C46.5175 29.4107 46.1335 28.4933 45.8349 27.32C45.4509 27.704 45.1842 27.896 45.0349 27.896C44.9282 27.896 44.8749 27.8107 44.8749 27.64C44.8749 27.512 44.9282 27.3947 45.0349 27.288C45.0349 27.288 45.3015 26.9573 45.8349 26.296C46.3895 25.6347 47.3175 24.7067 48.6189 23.512L52.6509 19.736C53.2055 19.2027 53.6429 18.7973 53.9629 18.52C54.3042 18.2427 54.5495 18.104 54.6989 18.104C55.3815 18.104 55.7229 18.36 55.7229 18.872C55.7229 19.128 55.5842 19.4267 55.3069 19.768C55.0935 20.024 54.9335 20.2267 54.8269 20.376C54.7415 20.504 54.6882 20.5787 54.6669 20.6C54.2829 21.2613 53.9309 22.4453 53.6109 24.152C53.3762 25.4107 53.1735 26.4453 53.0029 27.256C52.8322 28.0667 52.6935 28.6533 52.5869 29.016C53.4829 28.9947 54.3682 28.7173 55.2429 28.184C56.1175 27.6507 57.0562 26.776 58.0589 25.56C58.1015 25.5173 58.1655 25.4533 58.2509 25.368C58.3362 25.2827 58.4215 25.24 58.5069 25.24C58.6349 25.24 58.6989 25.2933 58.6989 25.4C58.6989 25.5067 58.6669 25.6133 58.6029 25.72C58.5389 25.8267 58.4749 25.9227 58.4109 26.008C57.7495 26.7973 57.1309 27.448 56.5549 27.96C55.9789 28.4507 55.3709 28.8453 54.7309 29.144C54.0909 29.4213 53.3335 29.656 52.4589 29.848L51.4349 30.52C51.1575 30.712 50.8269 30.8507 50.4429 30.936C50.0589 31.0213 49.6535 31.064 49.2269 31.064ZM49.6109 29.432C50.1015 29.432 50.5069 29.3147 50.8269 29.08C51.0615 28.952 51.2855 28.6 51.4989 28.024C51.7335 27.4267 51.9575 26.6907 52.1709 25.816C52.3415 25.0693 52.4695 24.344 52.5549 23.64C52.6615 22.9147 52.7575 22.2213 52.8429 21.56L52.9709 20.472C52.4802 20.8347 51.8615 21.3573 51.1149 22.04C50.3682 22.7227 49.6322 23.4373 48.9069 24.184C48.1815 24.9307 47.7122 25.4853 47.4989 25.848C47.2855 26.1893 47.1682 26.4453 47.1469 26.616C47.0615 27.4693 47.2642 28.152 47.7549 28.664C48.2669 29.176 48.8855 29.432 49.6109 29.432ZM71.8066 33.08C69.4386 33.08 67.604 32.4507 66.3026 31.192C65.0226 29.9333 64.3826 28.3013 64.3826 26.296C64.3826 24.4613 64.8306 22.6693 65.7266 20.92C66.644 19.1707 67.796 17.56 69.1826 16.088C70.3133 14.8933 71.604 13.8587 73.0546 12.984C74.5266 12.1093 76.0626 11.4267 77.6626 10.936C79.284 10.4453 80.8626 10.2 82.3986 10.2C83.6146 10.2 84.7133 10.3707 85.6946 10.712C86.676 11.032 87.4546 11.544 88.0306 12.248C88.6066 12.952 88.8946 13.8693 88.8946 15C88.8946 16.0027 88.6493 16.9413 88.1586 17.816C87.6893 18.6693 87.0493 19.416 86.2386 20.056C85.4493 20.696 84.5746 21.1973 83.6146 21.56C82.6546 21.9227 81.684 22.104 80.7026 22.104C79.4226 22.104 78.3453 21.816 77.4706 21.24C76.596 20.6427 76.1586 19.896 76.1586 19C76.1586 17.848 76.8946 16.7173 78.3666 15.608C78.6226 15.416 78.8253 15.32 78.9746 15.32C79.0813 15.32 79.1346 15.3627 79.1346 15.448C79.1346 15.6613 78.964 15.832 78.6226 15.96C77.428 16.92 76.8306 17.8907 76.8306 18.872C76.8306 19.576 77.1506 20.1733 77.7906 20.664C78.4306 21.1333 79.2306 21.368 80.1906 21.368C81.044 21.368 81.8973 21.1867 82.7506 20.824C83.6253 20.4613 84.4253 19.9707 85.1506 19.352C85.876 18.7333 86.452 18.04 86.8786 17.272C87.3266 16.4827 87.5506 15.6613 87.5506 14.808C87.5506 13.4213 87.0813 12.408 86.1426 11.768C85.204 11.128 84.0093 10.808 82.5586 10.808C80.916 10.808 79.284 11.1173 77.6626 11.736C76.0626 12.3547 74.5586 13.208 73.1506 14.296C71.7426 15.384 70.484 16.632 69.3746 18.04C67.156 20.8347 66.0466 23.4587 66.0466 25.912C66.0466 27.2133 66.3453 28.3227 66.9426 29.24C67.54 30.136 68.3613 30.8187 69.4066 31.288C70.4733 31.7573 71.6893 31.992 73.0546 31.992C75.0813 31.992 77.044 31.5547 78.9426 30.68C80.8413 29.784 82.4626 28.5893 83.8066 27.096C84.1693 26.712 84.436 26.52 84.6066 26.52C84.7346 26.52 84.7986 26.616 84.7986 26.808C84.7986 27.064 84.6813 27.3093 84.4466 27.544C83.7213 28.312 82.8573 29.0267 81.8546 29.688C80.852 30.3493 79.7746 30.936 78.6226 31.448C77.492 31.96 76.34 32.3547 75.1666 32.632C73.9933 32.9307 72.8733 33.08 71.8066 33.08ZM88.2414 31.416C87.5587 31.416 86.94 31.2027 86.3854 30.776C85.8307 30.328 85.5534 29.7413 85.5534 29.016C85.5534 27.5013 86.4814 25.7733 88.3374 23.832C90.236 21.8693 91.932 20.888 93.4254 20.888C93.916 20.888 94.3107 21.0267 94.6094 21.304C94.9294 21.56 95.0894 21.88 95.0894 22.264C95.0894 23.4587 94.14 24.632 92.2414 25.784C90.556 26.808 89.1374 27.32 87.9854 27.32C87.8147 27.32 87.6654 27.2987 87.5374 27.256C87.2174 27.832 87.0574 28.44 87.0574 29.08C87.0574 30.1893 87.58 30.744 88.6254 30.744C89.692 30.744 91.068 30.0293 92.7534 28.6C94.0547 27.5547 95.164 26.4453 96.0814 25.272C96.2734 25.016 96.444 24.888 96.5934 24.888C96.7214 24.888 96.7854 24.952 96.7854 25.08C96.7854 25.208 96.7 25.3893 96.5294 25.624C95.932 26.4133 95.292 27.1387 94.6094 27.8C93.9267 28.4613 93.1907 29.0693 92.4014 29.624C90.7587 30.8187 89.372 31.416 88.2414 31.416ZM88.4334 26.616C89.244 26.616 90.3 26.2107 91.6014 25.4C92.028 25.1013 92.444 24.7707 92.8494 24.408C93.276 24.024 93.6174 23.64 93.8734 23.256C94.1507 22.872 94.2894 22.5307 94.2894 22.232C94.2894 21.9547 94.0654 21.816 93.6174 21.816C92.9774 21.816 92.0814 22.296 90.9294 23.256C90.3747 23.7253 89.8414 24.2373 89.3294 24.792C88.8174 25.3467 88.38 25.9333 88.0174 26.552C88.1454 26.5947 88.284 26.616 88.4334 26.616ZM101.356 31.16C100.439 31.16 99.8095 30.9253 99.4681 30.456C99.1268 29.9653 98.9561 29.3147 98.9561 28.504C98.9561 27.608 99.2335 26.5413 99.7881 25.304C100.001 24.8133 100.225 24.376 100.46 23.992C100.695 23.5867 100.94 23.2133 101.196 22.872C101.111 22.8933 101.036 22.904 100.972 22.904C100.908 22.904 100.844 22.904 100.78 22.904C100.268 22.904 99.8415 22.5413 99.5001 21.816L97.1321 24.888C95.8735 26.5307 95.1055 27.352 94.8281 27.352C94.7215 27.352 94.6681 27.3093 94.6681 27.224C94.6681 27.1173 94.7215 26.9787 94.8281 26.808C94.8921 26.68 95.0201 26.5093 95.2121 26.296C96.0228 25.3573 96.7695 24.4293 97.4521 23.512C98.1348 22.5947 98.7001 21.6987 99.1481 20.824C99.6388 18.968 100.257 18.04 101.004 18.04C101.495 18.04 101.74 18.264 101.74 18.712C101.74 19.1173 101.473 19.6507 100.94 20.312C100.428 20.9733 100.172 21.3147 100.172 21.336C100.172 21.784 100.503 22.008 101.164 22.008C101.548 22.008 101.975 21.8693 102.444 21.592L103.276 21.08C103.319 21.0587 103.383 21.048 103.468 21.048C103.724 21.048 103.948 21.1547 104.14 21.368C104.332 21.5813 104.396 21.7733 104.332 21.944L102.124 24.728C100.759 26.4773 100.076 27.8853 100.076 28.952C100.076 29.912 100.545 30.392 101.484 30.392C102.124 30.392 102.807 30.2 103.532 29.816C104.279 29.432 104.993 28.9627 105.676 28.408C106.38 27.832 106.967 27.2773 107.436 26.744L108.204 25.848C108.247 25.8053 108.3 25.752 108.364 25.688C108.428 25.624 108.481 25.592 108.524 25.592C108.673 25.592 108.748 25.6667 108.748 25.816C108.748 25.8587 108.727 25.9333 108.684 26.04C108.641 26.1467 108.567 26.264 108.46 26.392L107.436 27.544C106.945 28.0987 106.337 28.664 105.612 29.24C104.908 29.7947 104.172 30.2533 103.404 30.616C102.657 30.9787 101.975 31.16 101.356 31.16ZM109.566 31.16C109.054 31.16 108.542 30.9787 108.03 30.616C107.518 30.2533 107.23 29.8267 107.166 29.336C106.953 27.6933 107.987 25.7413 110.27 23.48C112.531 21.2187 114.569 20.088 116.382 20.088C116.873 20.088 117.257 20.2053 117.534 20.44C117.683 20.5893 117.79 20.792 117.854 21.048C117.939 21.304 118.003 21.432 118.046 21.432C118.131 21.432 118.206 21.4213 118.27 21.4C118.334 21.3573 118.409 21.336 118.494 21.336C118.75 21.336 118.974 21.432 119.166 21.624C119.358 21.816 119.465 21.9867 119.486 22.136C119.507 22.1787 118.825 23.2347 117.438 25.304C116.051 27.3307 115.422 28.7067 115.55 29.432C115.657 29.9227 115.891 30.168 116.254 30.168C117.363 30.168 119.39 28.3333 122.334 24.664C122.398 24.5787 122.462 24.536 122.526 24.536C122.633 24.536 122.686 24.6107 122.686 24.76C122.686 24.9307 122.59 25.144 122.398 25.4C119.689 29.048 117.609 30.872 116.158 30.872C115.966 30.872 115.785 30.84 115.614 30.776C114.675 30.4133 114.206 29.7093 114.206 28.664C114.206 28.3013 114.249 27.9387 114.334 27.576L112.35 29.496C111.753 30.0933 111.209 30.52 110.718 30.776C110.249 31.032 109.865 31.16 109.566 31.16ZM109.278 30.456C110.515 30.456 112.201 29.1013 114.334 26.392L117.726 21.72C117.555 21.4213 117.278 21.272 116.894 21.272C115.593 21.272 113.833 22.3173 111.614 24.408C109.31 26.5413 108.275 28.3013 108.51 29.688C108.617 30.2 108.873 30.456 109.278 30.456ZM128.161 31.064C127.649 31.064 127.393 30.776 127.393 30.2C127.628 29.0053 128.108 27.6613 128.833 26.168C129.175 25.4427 129.516 24.728 129.857 24.024C130.22 23.32 130.572 22.6053 130.913 21.88C130.124 22.4133 129.335 23.0107 128.545 23.672C127.756 24.312 126.988 25.0373 126.241 25.848C125.367 26.7867 124.353 27.992 123.201 29.464C122.369 30.5093 121.889 31.032 121.761 31.032C121.463 31.032 121.217 30.8933 121.025 30.616C120.833 30.3387 120.737 30.104 120.737 29.912C120.737 29.6347 120.983 28.92 121.473 27.768C121.623 27.4053 121.772 27.0533 121.921 26.712C122.092 26.3493 122.252 25.9973 122.401 25.656L120.481 27.672C120.439 27.7147 120.311 27.8427 120.097 28.056C119.884 28.2693 119.713 28.376 119.585 28.376C119.479 28.376 119.425 28.3013 119.425 28.152C119.425 28.1093 119.447 28.056 119.489 27.992C119.511 27.9067 119.575 27.8107 119.681 27.704C120.001 27.384 120.332 27.0427 120.673 26.68C121.015 26.3173 121.367 25.9013 121.729 25.432C122.007 25.0693 122.401 24.536 122.913 23.832C123.447 23.1067 124.097 22.2 124.865 21.112C125.1 20.792 125.431 20.632 125.857 20.632C126.284 20.632 126.497 20.8347 126.497 21.24C126.497 21.3893 125.953 22.3813 124.865 24.216C124.311 25.1973 123.863 25.9973 123.521 26.616C123.201 27.2347 122.999 27.6933 122.913 27.992C123.383 27.48 123.937 26.904 124.577 26.264C125.239 25.624 125.996 24.9093 126.849 24.12C129.473 21.688 131.201 20.472 132.033 20.472C132.268 20.472 132.492 20.5467 132.705 20.696C132.94 20.8453 133.057 21.0373 133.057 21.272C133.057 21.3787 132.641 22.1573 131.809 23.608C130.999 25.08 130.551 25.9547 130.465 26.232C132.833 24.248 134.017 23.2453 134.017 23.224C136.023 21.6667 137.463 20.888 138.337 20.888C138.593 20.888 138.828 20.9733 139.041 21.144C139.276 21.2933 139.393 21.4747 139.393 21.688C139.393 21.7307 138.711 22.6267 137.345 24.376C135.937 26.1467 135.148 27.5973 134.977 28.728C134.892 29.496 135.287 29.88 136.161 29.88C136.695 29.88 137.441 29.5387 138.401 28.856C139.361 28.1733 140.364 27.2347 141.409 26.04C141.537 25.8907 141.676 25.752 141.825 25.624C141.975 25.4747 142.103 25.4 142.209 25.4C142.337 25.4 142.401 25.4533 142.401 25.56C142.401 25.7093 142.305 25.88 142.113 26.072C141.559 26.7333 140.897 27.416 140.129 28.12C139.383 28.824 138.636 29.4213 137.889 29.912C137.143 30.3813 136.481 30.616 135.905 30.616C134.455 30.616 133.729 29.944 133.729 28.6C133.729 28.1307 133.857 27.5867 134.113 26.968C134.369 26.328 134.625 25.752 134.881 25.24C135.5 24.0453 136.172 22.9893 136.897 22.072C136.215 22.4133 135.5 22.8613 134.753 23.416C134.028 23.9707 133.271 24.6213 132.481 25.368C130.647 27.16 129.388 28.9733 128.705 30.808C128.599 30.9787 128.417 31.064 128.161 31.064ZM147.869 19.992C147.506 19.992 147.186 19.8747 146.909 19.64C146.653 19.4053 146.525 19.1387 146.525 18.84C146.525 18.2427 146.93 17.944 147.741 17.944C148.04 17.944 148.338 18.0507 148.637 18.264C148.936 18.456 149.085 18.7013 149.085 19C149.085 19.256 148.946 19.4907 148.669 19.704C148.392 19.896 148.125 19.992 147.869 19.992ZM141.949 31.352C141.48 31.352 141.096 31.2027 140.797 30.904C140.477 30.584 140.317 30.0293 140.317 29.24C140.317 28.792 140.424 28.28 140.637 27.704C140.829 27.1067 141.074 26.5093 141.373 25.912C141.693 25.3147 142.002 24.7813 142.301 24.312C143.496 22.3707 144.477 21.3893 145.245 21.368C145.437 21.368 145.672 21.4533 145.949 21.624C146.226 21.7733 146.365 21.944 146.365 22.136C146.365 22.136 145.554 23.1813 143.933 25.272C142.333 27.3413 141.533 28.8133 141.533 29.688C141.533 30.3707 141.8 30.712 142.333 30.712C142.674 30.712 143.112 30.5733 143.645 30.296C144.2 29.9973 144.776 29.624 145.373 29.176C145.97 28.728 146.536 28.248 147.069 27.736C147.624 27.224 148.072 26.7547 148.413 26.328C148.626 26.0507 148.808 25.8587 148.957 25.752C149.128 25.6453 149.234 25.592 149.277 25.592C149.362 25.592 149.405 25.656 149.405 25.784C149.405 25.8907 149.277 26.104 149.021 26.424C148.786 26.744 148.456 27.1173 148.029 27.544C147.517 28.056 146.952 28.6107 146.333 29.208C145.714 29.8053 145.042 30.3173 144.317 30.744C143.592 31.1493 142.802 31.352 141.949 31.352ZM150.448 31.416C149.765 31.416 149.146 31.2027 148.592 30.776C148.037 30.328 147.76 29.7413 147.76 29.016C147.76 27.5013 148.688 25.7733 150.544 23.832C152.442 21.8693 154.138 20.888 155.632 20.888C156.144 20.888 156.549 21.0267 156.848 21.304C157.146 21.56 157.296 21.88 157.296 22.264C157.296 22.7973 157.168 23.288 156.912 23.736C156.613 24.2907 156.186 24.568 155.632 24.568C155.077 24.568 154.8 24.3973 154.8 24.056C154.8 23.8213 154.938 23.4693 155.216 23C155.514 22.5093 155.664 22.2533 155.664 22.232C155.664 22.1893 155.632 22.168 155.568 22.168C154.97 22.232 154.138 22.6693 153.072 23.48C152.602 23.8427 152.186 24.184 151.824 24.504C151.482 24.824 151.205 25.1333 150.992 25.432L149.744 27.256C149.616 27.448 149.477 27.7787 149.328 28.248C149.2 28.7173 149.136 29.0693 149.136 29.304C149.136 29.7307 149.274 30.0827 149.552 30.36C149.85 30.6373 150.224 30.776 150.672 30.776C151.738 30.776 153.146 30.0827 154.896 28.696C156.304 27.5867 157.434 26.4667 158.288 25.336C158.394 25.208 158.522 25.144 158.672 25.144C158.821 25.144 158.896 25.1867 158.896 25.272C158.896 25.336 158.842 25.4427 158.736 25.592C157.562 27.1493 156.186 28.4933 154.608 29.624C152.922 30.8187 151.536 31.416 150.448 31.416ZM160.758 31.064C159.755 31.064 159.009 30.7333 158.518 30.072C158.049 29.4107 157.665 28.4933 157.366 27.32C156.982 27.704 156.715 27.896 156.566 27.896C156.459 27.896 156.406 27.8107 156.406 27.64C156.406 27.512 156.459 27.3947 156.566 27.288C156.566 27.288 156.833 26.9573 157.366 26.296C157.921 25.6347 158.849 24.7067 160.15 23.512L164.182 19.736C164.737 19.2027 165.174 18.7973 165.494 18.52C165.835 18.2427 166.081 18.104 166.23 18.104C166.913 18.104 167.254 18.36 167.254 18.872C167.254 19.128 167.115 19.4267 166.838 19.768C166.625 20.024 166.465 20.2267 166.358 20.376C166.273 20.504 166.219 20.5787 166.198 20.6C165.814 21.2613 165.462 22.4453 165.142 24.152C164.907 25.4107 164.705 26.4453 164.534 27.256C164.363 28.0667 164.225 28.6533 164.118 29.016C165.014 28.9947 165.899 28.7173 166.774 28.184C167.649 27.6507 168.587 26.776 169.59 25.56C169.633 25.5173 169.697 25.4533 169.782 25.368C169.867 25.2827 169.953 25.24 170.038 25.24C170.166 25.24 170.23 25.2933 170.23 25.4C170.23 25.5067 170.198 25.6133 170.134 25.72C170.07 25.8267 170.006 25.9227 169.942 26.008C169.281 26.7973 168.662 27.448 168.086 27.96C167.51 28.4507 166.902 28.8453 166.262 29.144C165.622 29.4213 164.865 29.656 163.99 29.848L162.966 30.52C162.689 30.712 162.358 30.8507 161.974 30.936C161.59 31.0213 161.185 31.064 160.758 31.064ZM161.142 29.432C161.633 29.432 162.038 29.3147 162.358 29.08C162.593 28.952 162.817 28.6 163.03 28.024C163.265 27.4267 163.489 26.6907 163.702 25.816C163.873 25.0693 164.001 24.344 164.086 23.64C164.193 22.9147 164.289 22.2213 164.374 21.56L164.502 20.472C164.011 20.8347 163.393 21.3573 162.646 22.04C161.899 22.7227 161.163 23.4373 160.438 24.184C159.713 24.9307 159.243 25.4853 159.03 25.848C158.817 26.1893 158.699 26.4453 158.678 26.616C158.593 27.4693 158.795 28.152 159.286 28.664C159.798 29.176 160.417 29.432 161.142 29.432Z" fill="#6D7D7D"/>
</svg>
