<svg width="42" height="42" viewBox="0 0 42 42" fill="none" xmlns="http://www.w3.org/2000/svg">
<rect width="42" height="42" rx="21" fill="#3C5CDC"/>
<path d="M29.9994 25.4765V28.1862C30.0005 28.4377 29.9488 28.6867 29.8479 28.9172C29.7469 29.1477 29.5988 29.3546 29.413 29.5247C29.2273 29.6947 29.008 29.8242 28.7693 29.9048C28.5305 29.9854 28.2775 30.0153 28.0265 29.9927C25.2415 29.6907 22.5664 28.7409 20.216 27.2197C18.0293 25.8329 16.1753 23.9827 14.7858 21.8003C13.2563 19.4439 12.3044 16.7611 12.0073 13.9692C11.9847 13.7194 12.0145 13.4676 12.0947 13.23C12.1749 12.9923 12.3038 12.7739 12.4732 12.5887C12.6426 12.4034 12.8489 12.2554 13.0787 12.1541C13.3086 12.0528 13.5571 12.0003 13.8084 12.0001H16.5235C16.9627 11.9958 17.3885 12.151 17.7215 12.4368C18.0545 12.7227 18.2721 13.1196 18.3335 13.5537C18.4481 14.4208 18.6607 15.2723 18.9671 16.0918C19.0888 16.4151 19.1152 16.7664 19.043 17.1042C18.9708 17.442 18.8031 17.752 18.5598 17.9976L17.4104 19.1447C18.6988 21.406 20.5748 23.2784 22.8406 24.5642L23.99 23.4171C24.2361 23.1742 24.5467 23.0069 24.8852 22.9348C25.2236 22.8628 25.5757 22.8891 25.8996 23.0106C26.7207 23.3164 27.5739 23.5285 28.4428 23.6429C28.8824 23.7048 29.2839 23.9258 29.5709 24.2639C29.858 24.6019 30.0105 25.0335 29.9994 25.4765Z" fill="white"/>
</svg>
