<svg width="42" height="42" viewBox="0 0 42 42" fill="none" xmlns="http://www.w3.org/2000/svg">
<g clip-path="url(#clip0_8_65)">
<rect width="42" height="42" fill="#3C5CDC"/>
<path d="M11.6845 20.2561C11.6845 20.2561 20.2293 16.6572 23.1928 15.3899C24.3288 14.883 28.1814 13.2609 28.1814 13.2609C28.1814 13.2609 29.9595 12.5513 29.8113 14.2747C29.7619 14.9844 29.3668 17.4682 28.9716 20.1547C28.3789 23.9564 27.7368 28.1129 27.7368 28.1129C27.7368 28.1129 27.638 29.2788 26.7984 29.4816C25.9588 29.6843 24.5757 28.772 24.3288 28.5692C24.1312 28.4171 20.6244 26.1361 19.3402 25.0209C18.9945 24.7168 18.5994 24.1085 19.3896 23.3989C21.1677 21.7261 23.2916 19.6478 24.5757 18.3299C25.1685 17.7216 25.7611 16.3023 23.2916 18.0257C19.7848 20.5096 16.3274 22.8413 16.3274 22.8413C16.3274 22.8413 15.5371 23.3481 14.0553 22.8919C12.5735 22.4358 10.8448 21.8275 10.8448 21.8275C10.8448 21.8275 9.65949 21.0671 11.6845 20.2561Z" fill="white"/>
</g>
<defs>
<clipPath id="clip0_8_65">
<rect width="42" height="42" rx="21" fill="white"/>
</clipPath>
</defs>
</svg>
