<svg width="42" height="42" viewBox="0 0 42 42" fill="none" xmlns="http://www.w3.org/2000/svg">
<g clip-path="url(#clip0_8_68)">
<rect width="42" height="42" fill="#3C5CDC"/>
<path d="M10.5001 30.7225L12.0068 25.1202C10.7916 22.9378 10.4056 20.3912 10.9194 17.9476C11.4333 15.504 12.8126 13.3273 14.8042 11.8171C16.7958 10.3068 19.2662 9.56417 21.762 9.72551C24.2578 9.88685 26.6116 10.9413 28.3914 12.6954C30.1713 14.4495 31.2579 16.7856 31.4518 19.2749C31.6457 21.7643 30.9339 24.24 29.447 26.2477C27.9601 28.2553 25.7979 29.6604 23.3571 30.205C20.9163 30.7495 18.3606 30.3971 16.1591 29.2124L10.5001 30.7225ZM16.432 27.1159L16.7819 27.3232C18.3766 28.2668 20.239 28.6573 22.0792 28.4338C23.9193 28.2103 25.6337 27.3854 26.9551 26.0876C28.2766 24.7898 29.131 23.0921 29.385 21.2589C29.6391 19.4258 29.2787 17.5602 28.3598 15.953C27.441 14.3457 26.0154 13.087 24.3052 12.373C22.5951 11.6591 20.6964 11.53 18.905 12.0058C17.1136 12.4817 15.5303 13.5357 14.4016 15.0038C13.273 16.4718 12.6625 18.2714 12.6652 20.122C12.6637 21.6564 13.0888 23.1612 13.8931 24.4688L14.1126 24.83L13.2703 27.9569L16.432 27.1159Z" fill="white"/>
<path fill-rule="evenodd" clip-rule="evenodd" d="M24.9263 21.5605C24.7211 21.3953 24.4809 21.279 24.2239 21.2205C23.9669 21.162 23.6999 21.1629 23.4433 21.2229C23.0577 21.3828 22.8086 21.9869 22.5595 22.2889C22.5069 22.3613 22.4297 22.4121 22.3424 22.4317C22.255 22.4513 22.1634 22.4385 22.0849 22.3955C20.6733 21.8436 19.4901 20.8314 18.7275 19.5233C18.6624 19.4417 18.6316 19.338 18.6416 19.2342C18.6515 19.1304 18.7015 19.0345 18.7808 18.9666C19.0587 18.692 19.2627 18.3519 19.374 17.9777C19.3987 17.5649 19.304 17.1537 19.1012 16.7932C18.9443 16.2878 18.6459 15.8378 18.241 15.4963C18.0322 15.4026 17.8007 15.3711 17.5744 15.4058C17.3481 15.4405 17.1367 15.5398 16.9657 15.6917C16.6688 15.9475 16.4331 16.2664 16.276 16.6252C16.119 16.9839 16.0445 17.3732 16.0581 17.7645C16.059 17.9842 16.0869 18.2029 16.1411 18.4159C16.2789 18.9275 16.4907 19.4163 16.7699 19.8668C16.9714 20.2119 17.1912 20.546 17.4284 20.8676C18.1992 21.9241 19.1683 22.8211 20.2816 23.5089C20.8403 23.8584 21.4374 24.1425 22.0612 24.3557C22.7091 24.6489 23.4245 24.7615 24.1314 24.6814C24.5342 24.6206 24.9158 24.4618 25.2426 24.2191C25.5695 23.9765 25.8316 23.6573 26.0059 23.2897C26.1083 23.0677 26.1394 22.8195 26.0949 22.5791C25.9881 22.0876 25.3297 21.7974 24.9263 21.5605Z" fill="white"/>
</g>
<defs>
<clipPath id="clip0_8_68">
<rect width="42" height="42" rx="21" fill="white"/>
</clipPath>
</defs>
</svg>
