<svg width="135" height="42" viewBox="0 0 135 42" fill="none" xmlns="http://www.w3.org/2000/svg">
<path d="M39.2815 21.8203L34.0315 8.69531C33.9333 8.45259 33.7648 8.24478 33.5475 8.0986C33.3303 7.95242 33.0743 7.87455 32.8125 7.875C32.7169 7.87649 32.6218 7.88804 32.5287 7.90945L22.3125 10.1719V6.5625C22.3125 6.2144 22.1742 5.88056 21.9281 5.63442C21.6819 5.38828 21.3481 5.25 21 5.25C20.6519 5.25 20.3181 5.38828 20.0719 5.63442C19.8258 5.88056 19.6875 6.2144 19.6875 6.5625V10.7592L8.90367 13.1595C8.69577 13.2048 8.50201 13.3001 8.3391 13.437C8.17619 13.5739 8.04901 13.7483 7.96851 13.9453L2.71851 27.0703C2.65563 27.2267 2.62386 27.3939 2.625 27.5625C2.625 31.3868 6.65109 32.8125 9.1875 32.8125C11.7239 32.8125 15.75 31.3868 15.75 27.5625C15.7511 27.3939 15.7194 27.2267 15.6565 27.0703L10.9791 15.3841L19.6875 13.4531V34.125H17.0625C16.7144 34.125 16.3806 34.2633 16.1344 34.5094C15.8883 34.7556 15.75 35.0894 15.75 35.4375C15.75 35.7856 15.8883 36.1194 16.1344 36.3656C16.3806 36.6117 16.7144 36.75 17.0625 36.75H24.9375C25.2856 36.75 25.6194 36.6117 25.8656 36.3656C26.1117 36.1194 26.25 35.7856 26.25 35.4375C26.25 35.0894 26.1117 34.7556 25.8656 34.5094C25.6194 34.2633 25.2856 34.125 24.9375 34.125H22.3125V12.8658L30.6797 11.0086L26.3435 21.8203C26.2806 21.9767 26.2489 22.1439 26.25 22.3125C26.25 26.1368 30.2761 27.5625 32.8125 27.5625C35.3489 27.5625 39.375 26.1368 39.375 22.3125C39.3761 22.1439 39.3444 21.9767 39.2815 21.8203ZM13.0315 27.5625H5.35172L9.1875 17.9714L13.0315 27.5625ZM28.9849 22.3125L32.8125 12.7214L36.6483 22.3125H28.9849Z" fill="#3C5CDC"/>
<path d="M63.8916 26.4863V29H55.5664V26.4863H63.8916ZM56.6191 13.3594V29H53.3965V13.3594H56.6191ZM62.8066 19.7295V22.1787H55.5664V19.7295H62.8066ZM63.8809 13.3594V15.8838H55.5664V13.3594H63.8809ZM74.9479 23.8115H78.1598C78.0954 24.8643 77.8053 25.7988 77.2897 26.6152C76.7812 27.4316 76.0687 28.069 75.152 28.5273C74.2425 28.9857 73.1468 29.2148 71.8649 29.2148C70.8623 29.2148 69.9635 29.043 69.1686 28.6992C68.3737 28.3483 67.6933 27.847 67.1276 27.1953C66.569 26.5436 66.1429 25.7559 65.8493 24.832C65.5556 23.9082 65.4088 22.8734 65.4088 21.7275V20.6426C65.4088 19.4967 65.5592 18.4619 65.86 17.5381C66.1679 16.6071 66.6048 15.8158 67.1705 15.1641C67.7435 14.5124 68.4274 14.0111 69.2223 13.6602C70.0172 13.3092 70.9052 13.1338 71.8864 13.1338C73.1898 13.1338 74.289 13.3701 75.1842 13.8428C76.0866 14.3154 76.7848 14.9671 77.2789 15.7979C77.7802 16.6286 78.081 17.5739 78.1813 18.6338H74.9586C74.9228 18.0036 74.7975 17.4701 74.5827 17.0332C74.3678 16.5892 74.042 16.2562 73.6051 16.0342C73.1754 15.805 72.6025 15.6904 71.8864 15.6904C71.3493 15.6904 70.8802 15.7907 70.4791 15.9912C70.0781 16.1917 69.7415 16.4961 69.4694 16.9043C69.1972 17.3125 68.9931 17.8281 68.8571 18.4512C68.7282 19.0671 68.6637 19.7904 68.6637 20.6211V21.7275C68.6637 22.5368 68.7246 23.2493 68.8463 23.8652C68.9681 24.474 69.1543 24.9896 69.4049 25.4121C69.6627 25.8275 69.9922 26.1426 70.3932 26.3574C70.8014 26.5651 71.292 26.6689 71.8649 26.6689C72.5381 26.6689 73.0931 26.5615 73.5299 26.3467C73.9668 26.1318 74.2998 25.8132 74.5289 25.3906C74.7653 24.9681 74.9049 24.4417 74.9479 23.8115ZM87.0569 13.3594V29H83.845V13.3594H87.0569ZM91.8694 13.3594V15.8838H79.1077V13.3594H91.8694ZM99.0155 16.0342L94.7616 29H91.3349L97.1464 13.3594H99.3271L99.0155 16.0342ZM102.55 29L98.2851 16.0342L97.9413 13.3594H100.143L105.987 29H102.55ZM102.356 23.1777V25.7021H94.0956V23.1777H102.356ZM113.638 23.4248H109.653V20.9111H113.638C114.254 20.9111 114.755 20.8109 115.142 20.6104C115.529 20.4027 115.812 20.1162 115.991 19.751C116.17 19.3857 116.259 18.974 116.259 18.5156C116.259 18.0501 116.17 17.6169 115.991 17.2158C115.812 16.8148 115.529 16.4925 115.142 16.249C114.755 16.0055 114.254 15.8838 113.638 15.8838H110.77V29H107.547V13.3594H113.638C114.863 13.3594 115.912 13.5814 116.786 14.0254C117.667 14.4622 118.34 15.0674 118.805 15.8408C119.271 16.6143 119.503 17.4987 119.503 18.4941C119.503 19.5039 119.271 20.3776 118.805 21.1152C118.34 21.8529 117.667 22.4222 116.786 22.8232C115.912 23.2243 114.863 23.4248 113.638 23.4248ZM130.904 23.8115H134.115C134.051 24.8643 133.761 25.7988 133.245 26.6152C132.737 27.4316 132.024 28.069 131.108 28.5273C130.198 28.9857 129.102 29.2148 127.821 29.2148C126.818 29.2148 125.919 29.043 125.124 28.6992C124.329 28.3483 123.649 27.847 123.083 27.1953C122.525 26.5436 122.099 25.7559 121.805 24.832C121.511 23.9082 121.364 22.8734 121.364 21.7275V20.6426C121.364 19.4967 121.515 18.4619 121.816 17.5381C122.124 16.6071 122.56 15.8158 123.126 15.1641C123.699 14.5124 124.383 14.0111 125.178 13.6602C125.973 13.3092 126.861 13.1338 127.842 13.1338C129.145 13.1338 130.245 13.3701 131.14 13.8428C132.042 14.3154 132.74 14.9671 133.235 15.7979C133.736 16.6286 134.037 17.5739 134.137 18.6338H130.914C130.878 18.0036 130.753 17.4701 130.538 17.0332C130.323 16.5892 129.998 16.2562 129.561 16.0342C129.131 15.805 128.558 15.6904 127.842 15.6904C127.305 15.6904 126.836 15.7907 126.435 15.9912C126.034 16.1917 125.697 16.4961 125.425 16.9043C125.153 17.3125 124.949 17.8281 124.813 18.4512C124.684 19.0671 124.619 19.7904 124.619 20.6211V21.7275C124.619 22.5368 124.68 23.2493 124.802 23.8652C124.924 24.474 125.11 24.9896 125.361 25.4121C125.618 25.8275 125.948 26.1426 126.349 26.3574C126.757 26.5651 127.248 26.6689 127.821 26.6689C128.494 26.6689 129.049 26.5615 129.486 26.3467C129.922 26.1318 130.255 25.8132 130.485 25.3906C130.721 24.9681 130.861 24.4417 130.904 23.8115Z" fill="#3C5CDC"/>
</svg>
