<svg width="247" height="65" viewBox="0 0 247 65" fill="none" xmlns="http://www.w3.org/2000/svg">
<path d="M4.21563 25.9C5.54896 25.5667 5.98229 26.1333 5.51563 27.6C5.38229 28.0667 5.08229 28.8333 4.61563 29.9L4.01563 31.3L3.41563 32.6C2.41563 34.8667 2.11563 36.0667 2.51563 36.2C2.78229 36.6 3.74896 35.4 5.41563 32.6L6.41563 30.8L7.51563 29.1C8.31563 27.8333 9.01563 26.9667 9.61563 26.5C10.6156 26.9 11.049 27.3333 10.9156 27.8C10.849 28.2 10.6823 28.8 10.4156 29.6L10.1156 30.6L9.81563 31.7C9.28229 33.5 9.04896 34.9 9.11563 35.9C9.91563 35.9667 10.9156 34.9 12.1156 32.7C12.5823 31.9 13.149 30.8333 13.8156 29.5L14.6156 27.9L15.4156 26.2C16.0156 26.1333 16.5823 26.3333 17.1156 26.8L17.6156 27.5C17.8156 27.7667 17.9823 27.9333 18.1156 28C18.3823 28.2667 18.849 28.3667 19.5156 28.3H20.3156L21.1156 28.1C22.249 27.9667 22.6823 28.4333 22.4156 29.5C19.949 30.5 17.9156 30.3667 16.3156 29.1C15.9823 29.5 15.549 30.2667 15.0156 31.4L14.2156 32.9L13.3156 34.4C11.849 36.9333 10.5156 38.2 9.31563 38.2C8.58229 38.1333 8.04896 37.5333 7.71563 36.4C7.38229 35.3333 7.31563 34.2667 7.51563 33.2C7.44896 33.2667 7.24896 33.6 6.91563 34.2L6.41563 35L5.91563 35.9C4.84896 37.5667 3.91563 38.4333 3.11563 38.5C2.51563 38.5667 1.98229 38.2667 1.51563 37.6C1.04896 37 0.782292 36.3333 0.715625 35.6C0.648958 34.4667 1.11563 32.7333 2.11563 30.4L2.71563 29.1L3.31562 27.8C3.78229 26.8 4.08229 26.1667 4.21563 25.9ZM22.5773 36.7C22.9773 37.5 24.0107 36.8 25.6773 34.6L26.6773 33.2L27.6773 31.8C28.4773 30.6667 28.9773 29.9667 29.1773 29.7C29.5107 29.5 29.8107 29.5 30.0773 29.7L30.3773 30.1L30.5773 30.4C30.244 30.8 29.6773 31.6 28.8773 32.8L27.8773 34.2L26.7773 35.6C25.044 37.8 23.644 38.7667 22.5773 38.5C20.9107 38.1 20.5107 36.0333 21.3773 32.3C21.644 30.9667 22.0773 29.5333 22.6773 28C23.144 26.7333 23.5773 25.8 23.9773 25.2H24.3773C24.644 25.2 24.8773 25.2333 25.0773 25.3C25.6773 25.5 25.7773 26.0667 25.3773 27C25.044 27.8667 24.744 28.6333 24.4773 29.3L23.5773 31.9C22.9107 33.9667 22.5773 35.5667 22.5773 36.7ZM25.8773 23.4C25.2773 23.3333 24.8773 23.0667 24.6773 22.6C24.544 22.2 24.5773 21.7333 24.7773 21.2C24.9773 20.7333 25.2773 20.4 25.6773 20.2C26.2107 20 26.7107 20.0667 27.1773 20.4C27.9107 20.8667 28.1107 21.5 27.7773 22.3C27.444 23.1667 26.8107 23.5333 25.8773 23.4ZM9.91562 19.6C11.7823 19 13.949 18.4 16.4156 17.8L23.1156 16.1C29.049 14.6333 33.5156 13.4 36.5156 12.4C36.9156 11.4 37.4823 9.93333 38.2156 8L39.0156 5.6L39.9156 3.2L40.1156 2.5L40.3156 1.7C40.449 1.16666 40.6156 0.866663 40.8156 0.799997C42.0156 0.266663 42.149 1.73333 41.2156 5.2C40.949 6.26667 40.549 7.56666 40.0156 9.1L39.7156 10L39.4156 10.7C39.2823 11.2333 39.1823 11.5667 39.1156 11.7C40.9823 11.1667 43.7156 10.3667 47.3156 9.3C48.5823 8.9 50.049 8.43333 51.7156 7.9L53.8156 7.3C54.6156 7.03333 55.2156 6.83333 55.6156 6.7C55.6823 6.63333 55.8156 6.66667 56.0156 6.8C56.2823 6.93333 56.4156 7.13333 56.4156 7.4C56.4156 7.66666 56.2156 7.96666 55.8156 8.3C55.349 8.63333 54.5823 8.96667 53.5156 9.3C51.5823 9.83333 49.1156 10.5667 46.1156 11.5L42.3156 12.6L38.3156 13.8C38.249 13.9333 38.149 14.2333 38.0156 14.7L37.7156 15.5L37.4156 16.5C37.149 17.3 36.8823 18.0667 36.6156 18.8C36.2823 19.8 35.9823 20.8 35.7156 21.8C33.9156 27.2667 32.4156 32.1667 31.2156 36.5C27.2823 50.1 26.349 56.6667 28.4156 56.2C29.0823 56.0667 29.4823 56.1 29.6156 56.3C30.0156 56.7667 29.749 57.1333 28.8156 57.4C24.949 58.4667 24.8156 52.1333 28.4156 38.4C29.549 34.0667 31.0823 29.0333 33.0156 23.3C33.349 22.3 33.6823 21.2667 34.0156 20.2C34.2823 19.4667 34.5823 18.6333 34.9156 17.7C35.5156 15.9 35.849 14.8667 35.9156 14.6C34.049 15.0667 31.8156 15.6 29.2156 16.2L26.1156 17L23.0156 17.8C18.2823 18.9333 14.1156 19.9333 10.5156 20.8C10.1823 20.8 9.94896 20.6667 9.81562 20.4C9.74896 20.1333 9.78229 19.8667 9.91562 19.6ZM38.9633 30.8L41.1633 24.1C42.8299 18.8333 44.2966 14.4667 45.5633 11L45.8633 10L46.2633 8.9C46.6633 7.9 47.0299 7.06666 47.3633 6.4C48.2299 4.46666 49.1299 3.33333 50.0633 3C51.1966 2.66667 52.0299 3.06666 52.5633 4.2C53.0299 5.2 53.1633 6.26667 52.9633 7.4C52.6966 9.26666 51.7299 11.9333 50.0633 15.4C48.5299 18.7333 46.8299 21.7333 44.9633 24.4L41.2633 29.6L40.9633 30.6L40.6633 31.6C41.1299 30.8667 41.5633 30.2 41.9633 29.6C42.5633 28.7333 43.0966 27.9667 43.5633 27.3C44.8299 25.6333 45.8633 24.5667 46.6633 24.1C47.9966 23.4333 48.9633 23.6333 49.5633 24.7C50.0299 25.4333 50.0966 26.6 49.7633 28.2C49.6299 28.8 49.4299 29.4333 49.1633 30.1L48.9633 30.9L48.7633 31.5L48.3633 32.8L47.8633 34.1C47.5299 35.1667 47.3966 36 47.4633 36.6C47.3966 37.2667 48.1966 36.5667 49.8633 34.5C50.4633 33.7 51.1299 32.8 51.8633 31.8C52.4633 30.9333 52.9966 30.1333 53.4633 29.4C54.2633 28.2 54.9299 28.3 55.4633 29.7C55.1966 29.9667 54.5966 30.8333 53.6633 32.3L52.4633 34.1L51.1633 35.8C48.8966 38.5333 47.1299 39.2 45.8633 37.8C45.2633 36.9333 45.4966 35.0333 46.5633 32.1L47.1633 30.3L47.7633 28.5C48.1633 27.1667 48.3299 26.1 48.2633 25.3C48.0633 24.6333 47.1966 25.3667 45.6633 27.5C42.4633 31.7667 40.1633 35.7 38.7633 39.3C38.4299 40.1 37.9299 40.2333 37.2633 39.7C36.9966 39.4333 36.8299 39.1333 36.7633 38.8C36.6299 38.3333 36.6633 37.8667 36.8633 37.4L38.9633 30.8ZM42.9633 24.4C45.0966 21.3333 46.9633 18.2 48.5633 15C50.4966 11.3333 51.5633 8.53333 51.7633 6.6C51.9633 5.26666 51.7633 4.5 51.1633 4.3C50.6299 4.1 50.0633 4.53333 49.4633 5.6C49.0633 6.4 48.6633 7.46666 48.2633 8.8L47.6633 10.5L47.1633 12.2C46.5633 13.8667 45.8633 15.8333 45.0633 18.1L44.0633 21.2L42.9633 24.4ZM69.8305 36.4C69.8971 37.9333 70.4638 38.7667 71.5305 38.9C72.3971 38.9667 73.5305 38.5667 74.9305 37.7C75.8638 37.1 77.0971 36 78.6305 34.4L79.5305 33.5L80.3305 32.6C80.9305 32 81.3971 31.5667 81.7305 31.3C82.2638 31.5667 82.5305 31.9333 82.5305 32.4C82.5305 32.8667 82.3971 33.2333 82.1305 33.5C80.2638 35.7 78.2638 37.6 76.1305 39.2C74.7305 40.2 73.2305 40.5667 71.6305 40.3C70.2305 40.1 69.1305 39.4667 68.3305 38.4C66.9305 36.4 67.2305 33.6667 69.2305 30.2C71.0971 26.9333 73.2638 24.8 75.7305 23.8C77.3971 23.4 78.6305 23.7 79.4305 24.7C80.2305 25.7 80.1305 26.9 79.1305 28.3L78.8305 28.7L78.4305 29.2C78.1638 29.5333 77.8971 29.7667 77.6305 29.9C77.0305 30.3 76.5638 29.9667 76.2305 28.9L76.6305 28.3L77.1305 27.7C77.5971 27.1 77.8971 26.6 78.0305 26.2C78.1638 25.7333 78.0971 25.4 77.8305 25.2C77.5638 25 77.0971 25.0667 76.4305 25.4C74.9638 26.0667 73.4638 27.6667 71.9305 30.2C70.3305 32.8 69.6305 34.8667 69.8305 36.4ZM92.0445 36.5C92.3112 36.9 93.0445 36.4333 94.2445 35.1C94.7112 34.6333 95.2445 34.0333 95.8445 33.3L96.4445 32.4C96.6445 32.2 96.8445 31.9667 97.0445 31.7C97.5112 31.0333 98.0445 30.7333 98.6445 30.8C99.1779 30.9333 99.0779 31.5333 98.3445 32.6C97.7445 33.4667 96.9445 34.4667 95.9445 35.6C94.8779 36.8 94.1112 37.5333 93.6445 37.8C91.9779 38.4667 90.8779 38.2333 90.3445 37.1C89.8779 36.1 89.9112 34.8 90.4445 33.2C90.3779 33.2667 90.0112 33.6 89.3445 34.2C88.7445 34.8 88.1779 35.3 87.6445 35.7C86.1112 36.9 84.8779 37.3 83.9445 36.9C81.6779 35.8333 81.5445 33.7 83.5445 30.5C84.2112 29.4333 85.0445 28.4333 86.0445 27.5C87.1112 26.3667 88.1445 25.6 89.1445 25.2C91.2779 24.3333 92.9112 24.7667 94.0445 26.5C94.3779 26.1 94.7445 26.0667 95.1445 26.4C95.5445 26.8 95.5445 27.4 95.1445 28.2L93.8445 30.5C93.1779 31.7 92.7112 32.6667 92.4445 33.4C92.0445 34.5333 91.9112 35.5667 92.0445 36.5ZM84.2445 35C84.2445 35.4 84.7112 35.2667 85.6445 34.6C86.4445 34.0667 87.4779 33.2667 88.7445 32.2C89.8779 31.2 90.8779 30.2667 91.7445 29.4C92.6112 28.4 93.0112 27.8 92.9445 27.6C92.4779 26 90.9445 26.3 88.3445 28.5C87.3445 29.3 86.4445 30.2667 85.6445 31.4C84.7112 32.8 84.2445 34 84.2445 35ZM101.112 25C102.112 24.4 102.678 24.6667 102.812 25.8C102.878 26.7333 102.678 27.6667 102.212 28.6C102.412 28.4 102.812 27.9333 103.412 27.2L104.212 26.2L105.112 25C106.778 23.1333 108.378 22.1333 109.912 22C110.512 22.1333 110.678 22.8 110.412 24L110.312 24.7L110.212 25.3C110.212 25.8333 110.345 26.2 110.612 26.4C110.612 26.4667 110.812 26.4667 111.212 26.4L111.612 26.3C111.745 26.3 111.845 26.3333 111.912 26.4V27.1C111.845 27.3 111.512 27.4667 110.912 27.6C110.245 27.7333 109.645 27.6 109.112 27.2C108.578 26.6667 108.378 25.9667 108.512 25.1C108.312 24.4333 107.245 25.3667 105.312 27.9C103.312 30.4333 101.712 32.9333 100.512 35.4C100.378 35.7333 100.178 36.2667 99.9117 37L99.6117 37.8L99.3117 38.4C98.3784 38.8 97.7784 38.6333 97.5117 37.9C97.4451 37.6333 97.4117 37.2667 97.4117 36.8C97.4784 36.4667 97.5451 36.1333 97.6117 35.8C97.8117 35 98.2451 33.7667 98.9117 32.1L99.6117 30.1C99.8784 29.3667 100.112 28.7667 100.312 28.3C100.578 27.5667 100.845 26.4667 101.112 25ZM114.335 31.5C118.202 29.9 120.635 28.5 121.635 27.3C122.168 26.6333 122.235 26 121.835 25.4C121.435 24.7333 120.535 24.7667 119.135 25.5C118.202 26.0333 117.202 26.8667 116.135 28C115.002 29.3333 114.402 30.5 114.335 31.5ZM119.235 23.4C120.502 23.2667 121.535 23.5667 122.335 24.3C123.135 25.0333 123.468 25.9667 123.335 27.1C122.868 29.8333 119.802 32.0333 114.135 33.7C114.268 38.0333 116.168 38.9 119.835 36.3C121.035 35.5 122.302 34.3667 123.635 32.9C124.168 32.3667 124.602 31.9 124.935 31.5C125.268 31.1 125.468 30.8333 125.535 30.7C125.868 30.4333 126.168 30.4333 126.435 30.7C126.702 30.9 126.835 31.2 126.835 31.6C126.102 32.6667 125.235 33.7 124.235 34.7C123.035 35.9667 121.835 37 120.635 37.8C117.502 39.8667 115.002 39.8 113.135 37.6C111.402 35.6667 111.335 32.9 112.935 29.3C114.468 25.7 116.568 23.7333 119.235 23.4ZM144.223 32.1C143.557 33.0333 142.39 36.6333 140.723 42.9C138.99 49.6333 138.223 54 138.423 56C138.49 57.2 139.057 57.4667 140.123 56.8C140.457 56.5333 140.857 56.1667 141.323 55.7C141.723 55.3 142.057 54.9 142.323 54.5C144.457 51.3 145.723 47.6 146.123 43.4C146.59 39 145.957 35.2333 144.223 32.1ZM144.523 17.9C144.523 17.7667 145.857 15.5667 148.523 11.3C149.523 9.76667 150.523 8.16666 151.523 6.5C152.523 4.96666 153.223 3.9 153.623 3.29999C154.357 2.56666 154.957 2.4 155.423 2.8C155.89 3.26666 155.857 3.93333 155.323 4.8C151.657 13 148.59 20.3667 146.123 26.9H147.723L148.823 26.8H150.023C152.023 26.7333 153.19 26.7333 153.523 26.8C154.59 26.8667 155.023 27.2333 154.823 27.9C154.623 28.5667 154.157 28.8667 153.423 28.8C153.223 28.8 152.623 28.7667 151.623 28.7L150.323 28.6H149.023C146.69 28.5333 145.39 28.7333 145.123 29.2C144.857 29.2667 144.723 29.4667 144.723 29.8C144.723 30.1333 144.79 30.3667 144.923 30.5C147.923 33.5667 148.89 38.4667 147.823 45.2C146.823 51.6667 144.79 55.8 141.723 57.6C140.39 58.4 139.223 58.5667 138.223 58.1C137.023 57.6333 136.423 56.3667 136.423 54.3C136.357 52.5 136.757 49.8333 137.623 46.3C137.957 44.9667 138.323 43.5 138.723 41.9C139.057 40.6333 139.423 39.4 139.823 38.2C139.823 38.1333 139.89 37.9333 140.023 37.6L140.123 37.2L140.323 36.7C140.59 35.8333 140.857 35.0333 141.123 34.3C141.857 32.1667 142.257 30.9 142.323 30.5L141.323 29.5C140.457 28.4333 140.523 27.7333 141.523 27.4C141.857 27.2667 142.257 27.2 142.723 27.2L143.323 27.1H143.723C143.857 26.7667 144.123 26.0667 144.523 25L145.123 23.6L145.723 22C146.79 19.3333 147.357 17.7333 147.423 17.2L147.123 17.5L146.823 17.9C146.557 18.2333 146.323 18.4667 146.123 18.6C145.523 19 144.99 18.7667 144.523 17.9ZM169.901 27.3C169.301 27.4333 167.134 27.6 163.401 27.8C164.334 30 163.734 32.3 161.601 34.7C159.534 37.1 157.501 38.1333 155.501 37.8C153.167 37.4 152.234 35.6667 152.701 32.6C153.167 29.8 154.367 27.7 156.301 26.3C158.567 24.6333 160.634 24.3667 162.501 25.5C163.234 25.8333 164.167 26 165.301 26L166.801 26.1L168.301 26C169.434 25.9333 170.167 26 170.501 26.2C170.967 26.4 170.767 26.7667 169.901 27.3ZM159.101 27.3C157.634 28.3 156.534 29.3333 155.801 30.4C154.801 31.8667 154.367 33.4667 154.501 35.2C155.701 36.2 157.434 35.6333 159.701 33.5C161.901 31.4333 162.734 29.6667 162.201 28.2C160.534 28.5333 159.501 28.2333 159.101 27.3ZM171.366 25C172.366 24.4 172.932 24.6667 173.066 25.8C173.132 26.7333 172.932 27.6667 172.466 28.6C172.666 28.4 173.066 27.9333 173.666 27.2L174.466 26.2L175.366 25C177.032 23.1333 178.632 22.1333 180.166 22C180.766 22.1333 180.932 22.8 180.666 24L180.566 24.7L180.466 25.3C180.466 25.8333 180.599 26.2 180.866 26.4C180.866 26.4667 181.066 26.4667 181.466 26.4L181.866 26.3C181.999 26.3 182.099 26.3333 182.166 26.4V27.1C182.099 27.3 181.766 27.4667 181.166 27.6C180.499 27.7333 179.899 27.6 179.366 27.2C178.832 26.6667 178.632 25.9667 178.766 25.1C178.566 24.4333 177.499 25.3667 175.566 27.9C173.566 30.4333 171.966 32.9333 170.766 35.4C170.632 35.7333 170.432 36.2667 170.166 37L169.866 37.8L169.566 38.4C168.632 38.8 168.032 38.6333 167.766 37.9C167.699 37.6333 167.666 37.2667 167.666 36.8C167.732 36.4667 167.799 36.1333 167.866 35.8C168.066 35 168.499 33.7667 169.166 32.1L169.866 30.1C170.132 29.3667 170.366 28.7667 170.566 28.3C170.832 27.5667 171.099 26.4667 171.366 25ZM203.194 39.8C203.527 38.4667 203.994 37.2 204.594 36L203.794 37.2L202.994 38.3C202.394 39.1667 201.76 39.8 201.094 40.2C201.427 40.2 202.127 40.0667 203.194 39.8ZM191.794 62.9C194.127 62.5 196.46 59.4667 198.794 53.8C199.594 51.8 200.394 49.5333 201.194 47C201.46 46.0667 201.727 45.0667 201.994 44C202.194 43.2667 202.394 42.5333 202.594 41.8C198.727 42.4 195.494 43.9333 192.894 46.4C190.627 48.4667 189.06 50.9333 188.194 53.8C187.46 56.4 187.427 58.6333 188.094 60.5C188.827 62.4333 190.06 63.2333 191.794 62.9ZM199.194 40.8C196.86 40.4 196.027 38.2333 196.694 34.3C196.894 32.9 197.294 31.3667 197.894 29.7C198.36 28.3667 198.827 27.2667 199.294 26.4C199.627 26.4 199.894 26.5 200.094 26.7L200.394 27L200.694 27.2L200.294 28.5L199.794 29.9C199.394 31.0333 199.094 32 198.894 32.8C198.294 35.0667 198.16 37.0667 198.494 38.8C200.227 39.0667 202.094 37.2333 204.094 33.3C204.827 31.9 205.56 30.2333 206.294 28.3C206.56 27.6333 206.86 26.9 207.194 26.1L207.494 25.1L207.794 24.3C208.194 24.2333 208.527 24.3 208.794 24.5L209.194 24.8L209.494 25.1C209.094 26.9 208.46 29.3667 207.594 32.5L206.994 34.5L206.494 36.3C206.027 37.7667 205.694 38.8667 205.494 39.6C211.36 39 216.994 39.7667 222.394 41.9C222.994 42.1667 223.394 42.4 223.594 42.6C223.794 42.8667 223.827 43.0667 223.694 43.2C223.56 43.4 223.327 43.5 222.994 43.5C222.66 43.5 222.294 43.4 221.894 43.2C216.027 40.7333 210.394 40.1 204.994 41.3C204.66 42.0333 204.027 43.9667 203.094 47.1C202.627 48.6333 202.227 49.9 201.894 50.9C201.427 52.3667 200.96 53.6667 200.494 54.8C197.96 61.1333 195.06 64.2667 191.794 64.2C189.527 64.2 187.894 63.2667 186.894 61.4C185.827 59.6 185.56 57.4 186.094 54.8C187.427 48.4 191.794 43.7333 199.194 40.8ZM229.756 27.3C229.156 27.4333 226.99 27.6 223.256 27.8C224.19 30 223.59 32.3 221.456 34.7C219.39 37.1 217.356 38.1333 215.356 37.8C213.023 37.4 212.09 35.6667 212.556 32.6C213.023 29.8 214.223 27.7 216.156 26.3C218.423 24.6333 220.49 24.3667 222.356 25.5C223.09 25.8333 224.023 26 225.156 26L226.656 26.1L228.156 26C229.29 25.9333 230.023 26 230.356 26.2C230.823 26.4 230.623 26.7667 229.756 27.3ZM218.956 27.3C217.49 28.3 216.39 29.3333 215.656 30.4C214.656 31.8667 214.223 33.4667 214.356 35.2C215.556 36.2 217.29 35.6333 219.556 33.5C221.756 31.4333 222.59 29.6667 222.056 28.2C220.39 28.5333 219.356 28.2333 218.956 27.3ZM237.345 36.5C238.011 36.4333 239.278 35.2667 241.145 33L242.245 31.6L243.245 30.4C243.911 29.4667 244.378 28.8667 244.645 28.6C245.778 29 245.378 30.4333 243.445 32.9C242.711 33.7667 241.911 34.6667 241.045 35.6C240.245 36.3333 239.645 36.8667 239.245 37.2C236.845 39.1333 235.578 38.8333 235.445 36.3C235.378 35.3667 235.511 34.3 235.845 33.1C236.111 31.9667 236.478 31.0667 236.945 30.4L236.645 30.8L236.245 31.3C235.845 31.7667 235.511 32.1667 235.245 32.5C234.378 33.5 233.578 34.3333 232.845 35C230.711 36.8667 229.145 37.3 228.145 36.3L227.945 36.1L227.745 35.8C227.545 35.5333 227.445 35.3333 227.445 35.2C227.045 34.1333 227.445 32.2667 228.645 29.6C229.778 27.0667 230.845 25.4333 231.845 24.7C231.978 24.7 232.145 24.7333 232.345 24.8C232.611 24.8667 232.845 24.9667 233.045 25.1C233.511 25.4333 233.678 25.7667 233.545 26.1C232.745 26.9 231.745 28.5333 230.545 31C229.345 33.6 228.978 34.9667 229.445 35.1C230.245 35.2333 231.778 33.9667 234.045 31.3C236.045 28.9 237.611 26.7333 238.745 24.8C239.478 23.4667 240.345 23.4333 241.345 24.7C241.211 25.0333 240.911 25.8333 240.445 27.1L239.745 28.8L239.045 30.6C237.845 33.7333 237.278 35.7 237.345 36.5Z" fill="#0096EB"/>
</svg>
