<svg width="60" height="60" viewBox="0 0 60 60" fill="none" xmlns="http://www.w3.org/2000/svg">
<path d="M14.7968 35.5675H14.6362C13.5655 35.5675 12.709 36.424 12.709 37.4947V37.7088C12.709 38.7795 13.5655 39.636 14.6362 39.636H14.7968C15.8674 39.636 16.724 38.7795 16.724 37.7088V37.4947C16.724 36.424 15.8674 35.5675 14.7968 35.5675Z" fill="#0096EB"/>
<path d="M22.6122 35.5675H22.4516C21.3809 35.5675 20.5244 36.424 20.5244 37.4947V37.7088C20.5244 38.7795 21.3809 39.636 22.4516 39.636H22.6122C23.6829 39.636 24.5394 38.7795 24.5394 37.7088V37.4947C24.5394 36.424 23.6829 35.5675 22.6122 35.5675Z" fill="#0096EB"/>
<path d="M30.4817 35.5675H30.2675C29.1969 35.5675 28.3403 36.424 28.3403 37.4947V37.7088C28.3403 38.7795 29.1969 39.636 30.2675 39.636H30.4817C31.5523 39.636 32.4089 38.7795 32.4089 37.7088V37.4947C32.4089 36.424 31.5523 35.5675 30.4817 35.5675Z" fill="#0096EB"/>
<path d="M14.7968 27.6445H14.6362C13.5655 27.6445 12.709 28.5011 12.709 29.5717V29.7859C12.709 30.8565 13.5655 31.7131 14.6362 31.7131H14.7968C15.8674 31.7131 16.724 30.8565 16.724 29.7859V29.5717C16.724 28.5011 15.8674 27.6445 14.7968 27.6445Z" fill="#0096EB"/>
<path d="M22.6122 27.6445H22.4516C21.3809 27.6445 20.5244 28.5011 20.5244 29.5717V29.7859C20.5244 30.8565 21.3809 31.7131 22.4516 31.7131H22.6122C23.6829 31.7131 24.5394 30.8565 24.5394 29.7859V29.5717C24.5394 28.5011 23.6829 27.6445 22.6122 27.6445Z" fill="#0096EB"/>
<path d="M30.4817 27.6445H30.2675C29.1969 27.6445 28.3403 28.5011 28.3403 29.5717V29.7859C28.3403 30.8565 29.1969 31.7131 30.2675 31.7131H30.4817C31.5523 31.7131 32.4089 30.8565 32.4089 29.7859V29.5717C32.4089 28.5011 31.5523 27.6445 30.4817 27.6445Z" fill="#0096EB"/>
<path d="M38.2976 35.5675H38.0834C37.0128 35.5675 36.1562 36.424 36.1562 37.4947V37.7088C36.1562 38.7795 37.0128 39.636 38.0834 39.636H38.2976C39.3682 39.636 40.2248 38.7795 40.2248 37.7088V37.4947C40.2783 36.424 39.3682 35.5675 38.2976 35.5675Z" fill="#0096EB"/>
<path d="M46.1667 35.5675H45.9526C44.8819 35.5675 44.0254 36.424 44.0254 37.4947V37.7088C44.0254 38.7795 44.8819 39.636 45.9526 39.636H46.1667C47.2374 39.636 48.0939 38.7795 48.0939 37.7088V37.4947C48.0939 36.424 47.2374 35.5675 46.1667 35.5675Z" fill="#0096EB"/>
<path d="M38.2976 27.6445H38.0834C37.0128 27.6445 36.1562 28.5011 36.1562 29.5717V29.7859C36.1562 30.8565 37.0128 31.7131 38.0834 31.7131H38.2976C39.3682 31.7131 40.2248 30.8565 40.2248 29.7859V29.5717C40.2783 28.5011 39.3682 27.6445 38.2976 27.6445Z" fill="#0096EB"/>
<path d="M46.1667 27.6445H45.9526C44.8819 27.6445 44.0254 28.5011 44.0254 29.5717V29.7859C44.0254 30.8565 44.8819 31.7131 45.9526 31.7131H46.1667C47.2374 31.7131 48.0939 30.8565 48.0939 29.7859V29.5717C48.0939 28.5011 47.2374 27.6445 46.1667 27.6445Z" fill="#0096EB"/>
<path d="M14.7968 43.4368H14.6362C13.5655 43.4368 12.709 44.2933 12.709 45.364V45.5781C12.709 46.6488 13.5655 47.5053 14.6362 47.5053H14.7968C15.8674 47.5053 16.724 46.6488 16.724 45.5781V45.364C16.724 44.3468 15.8674 43.4368 14.7968 43.4368Z" fill="#0096EB"/>
<path d="M22.6122 43.4368H22.4516C21.3809 43.4368 20.5244 44.2933 20.5244 45.364V45.5781C20.5244 46.6488 21.3809 47.5053 22.4516 47.5053H22.6122C23.6829 47.5053 24.5394 46.6488 24.5394 45.5781V45.364C24.5394 44.3468 23.6829 43.4368 22.6122 43.4368Z" fill="#0096EB"/>
<path d="M30.4817 43.4368H30.2675C29.1969 43.4368 28.3403 44.2933 28.3403 45.364V45.5781C28.3403 46.6488 29.1969 47.5053 30.2675 47.5053H30.4817C31.5523 47.5053 32.4089 46.6488 32.4089 45.5781V45.364C32.4089 44.3468 31.5523 43.4368 30.4817 43.4368Z" fill="#0096EB"/>
<path d="M38.2976 43.4368H38.0834C37.0128 43.4368 36.1562 44.2933 36.1562 45.364V45.5781C36.1562 46.6488 37.0128 47.5053 38.0834 47.5053H38.2976C39.3682 47.5053 40.2248 46.6488 40.2248 45.5781V45.364C40.2783 44.3468 39.3682 43.4368 38.2976 43.4368Z" fill="#0096EB"/>
<path d="M46.1667 43.4368H45.9526C44.8819 43.4368 44.0254 44.2933 44.0254 45.364V45.5781C44.0254 46.6488 44.8819 47.5053 45.9526 47.5053H46.1667C47.2374 47.5053 48.0939 46.6488 48.0939 45.5781V45.364C48.0939 44.3468 47.2374 43.4368 46.1667 43.4368Z" fill="#0096EB"/>
<path d="M55.803 21.3812V17.045C55.803 13.7259 53.1263 11.0493 49.8608 11.0493H46.7024V9.17559C46.7024 6.87366 44.8287 5 42.5268 5C40.2248 5 38.3512 6.87366 38.3512 9.17559V11.0493H22.5054V9.17559C22.5054 6.87366 20.6317 5 18.3298 5C16.0278 5 14.1542 6.87366 14.1542 9.17559V11.0493H10.9957C7.67666 11.0493 5 13.7259 5 17.045V49.0578C5 52.3233 7.67666 55 10.9957 55H49.9143C53.1799 55 55.8565 52.3233 55.8565 49.0578L55.803 21.3812ZM40.8137 9.17559C40.8137 8.26553 41.5632 7.51606 42.4732 7.51606C43.3833 7.51606 44.1328 8.26553 44.1328 9.17559V13.137C44.1328 14.0471 43.3833 14.7966 42.4732 14.7966C41.5632 14.7966 40.8137 14.0471 40.8137 13.137V9.17559ZM16.6167 9.17559C16.6167 8.26553 17.3662 7.51606 18.2762 7.51606C19.1863 7.51606 19.9358 8.26553 19.9358 9.17559V13.137C19.9358 14.0471 19.1863 14.7966 18.2762 14.7966C17.3662 14.7966 16.6167 14.0471 16.6167 13.137V9.17559ZM10.9422 13.5653H14.1542C14.3683 15.6531 16.1349 17.3126 18.3298 17.3126C20.4711 17.3126 22.2377 15.6531 22.4518 13.5653H38.3512C38.5653 15.6531 40.3319 17.3126 42.4732 17.3126C44.6146 17.3126 46.3812 15.6531 46.5953 13.5653H49.8073C51.6809 13.5653 53.2334 15.1178 53.2334 17.045V20.1499H7.46253V17.045C7.46253 15.1178 9.01499 13.5653 10.9422 13.5653ZM49.8608 52.4839H10.9422C9.01499 52.4839 7.46253 50.9315 7.46253 49.0578V22.6124H53.2869V49.0578C53.2869 50.9315 51.7345 52.4839 49.8608 52.4839Z" fill="#0096EB"/>
</svg>
